%FSLAX46Y46*%
G04 Gerber Fmt 4.6, Leading zero omitted, Abs format (unit mm)*
G04 Created by KiCad (PCBNEW (2014-09-18 BZR 5141)-product) date Mon 13 Oct 2014 02:33:10 PM EEST*
%MOMM*%
G01*
G04 APERTURE LIST*
%ADD10C,0.150000*%
%ADD11C,0.100000*%
%ADD12C,2.500000*%
%ADD13C,1.800000*%
%ADD14C,3.100000*%
%ADD15R,1.524000X1.524000*%
%ADD16C,1.524000*%
%ADD17C,1.676400*%
%ADD18C,1.422400*%
%ADD19C,1.000000*%
%ADD20C,0.254000*%
%ADD21C,0.508000*%
%ADD22C,0.203200*%
G04 APERTURE END LIST*
D10*
D11*
X89090000Y-67000000D02*
X89090000Y-133000000D01*
X145225000Y-67000000D02*
X89090000Y-67000000D01*
X145225000Y-133000000D02*
X145225000Y-67000000D01*
X89090000Y-133000000D02*
X145225000Y-133000000D01*
D12*
X133922500Y-100500000D03*
X141542500Y-100500000D03*
X92772500Y-100500000D03*
X100392500Y-100500000D03*
D13*
X113590000Y-91150000D03*
X113590000Y-86650000D03*
X120090000Y-91150000D03*
X120090000Y-86650000D03*
D14*
X92800000Y-129750000D03*
X141500000Y-129750000D03*
X92800000Y-70250000D03*
X141500000Y-70250000D03*
D15*
X94615000Y-78105000D03*
D16*
X92075000Y-78105000D03*
X94615000Y-80645000D03*
X92075000Y-80645000D03*
X94615000Y-83185000D03*
X92075000Y-83185000D03*
D17*
X128750000Y-89770000D03*
X128750000Y-87230000D03*
X107315000Y-78105000D03*
X104775000Y-78105000D03*
X114935000Y-78105000D03*
X112395000Y-78105000D03*
X122555000Y-78105000D03*
X120015000Y-78105000D03*
X130175000Y-78105000D03*
X127635000Y-78105000D03*
D18*
X114300000Y-109220000D03*
X119380000Y-109220000D03*
D12*
X100392500Y-119000000D03*
X92772500Y-119000000D03*
X141542500Y-119000000D03*
X133922500Y-119000000D03*
D19*
X126500000Y-86750000D03*
X96520000Y-85090000D03*
X103290422Y-85459578D03*
X111760000Y-92710000D03*
X104750000Y-94000000D03*
X109855000Y-104775000D03*
X134500000Y-89000000D03*
X136000000Y-89000000D03*
X137500000Y-89000000D03*
X139000000Y-89000000D03*
X111250000Y-86750000D03*
X108000000Y-99250000D03*
X108000000Y-97750000D03*
X114750000Y-117500000D03*
X113250000Y-117500000D03*
X120250000Y-117500000D03*
X118500000Y-117500000D03*
X120000000Y-107500000D03*
X120750000Y-106000000D03*
X120750000Y-104250000D03*
X91250000Y-85250000D03*
X92500000Y-86000000D03*
X94250000Y-86500000D03*
X109220000Y-91948000D03*
X119380000Y-94615000D03*
D20*
X124750000Y-86750000D02*
X126500000Y-86750000D01*
D21*
X96520000Y-85090000D02*
X102920844Y-85090000D01*
X102920844Y-85090000D02*
X103290422Y-85459578D01*
X113030000Y-101600000D02*
X113030000Y-91440000D01*
X109855000Y-104775000D02*
X113030000Y-101600000D01*
X110470000Y-94000000D02*
X105457106Y-94000000D01*
X111760000Y-92710000D02*
X110470000Y-94000000D01*
X105457106Y-94000000D02*
X104750000Y-94000000D01*
D20*
X136000000Y-89000000D02*
X134500000Y-89000000D01*
X139000000Y-89000000D02*
X137500000Y-89000000D01*
X108000000Y-97750000D02*
X108000000Y-99250000D01*
X113250000Y-117500000D02*
X114750000Y-117500000D01*
X118500000Y-117500000D02*
X120250000Y-117500000D01*
X120750000Y-104250000D02*
X120750000Y-106000000D01*
X92075000Y-83185000D02*
X92065000Y-83185000D01*
X92065000Y-83185000D02*
X91000000Y-84250000D01*
X91000000Y-84250000D02*
X91000000Y-85000000D01*
X91000000Y-85000000D02*
X91250000Y-85250000D01*
X92500000Y-86000000D02*
X93000000Y-86500000D01*
X93000000Y-86500000D02*
X94250000Y-86500000D01*
D21*
X120650000Y-86360000D02*
X119380000Y-86360000D01*
X118110000Y-93345000D02*
X119380000Y-94615000D01*
X118110000Y-87630000D02*
X118110000Y-93345000D01*
X119380000Y-86360000D02*
X118110000Y-87630000D01*
D22*
G36*
X144123400Y-131898400D02*
X143437990Y-131898400D01*
X143437990Y-119045346D01*
X143405930Y-118861263D01*
X143405930Y-69872616D01*
X143116431Y-69171974D01*
X142580845Y-68635453D01*
X141880710Y-68344731D01*
X141122616Y-68344070D01*
X140421974Y-68633569D01*
X139885453Y-69169155D01*
X139594731Y-69869290D01*
X139594070Y-70627384D01*
X139883569Y-71328026D01*
X140419155Y-71864547D01*
X141119290Y-72155269D01*
X141877384Y-72155930D01*
X142578026Y-71866431D01*
X143114547Y-71330845D01*
X143405269Y-70630710D01*
X143405930Y-69872616D01*
X143405930Y-118861263D01*
X143311057Y-118316522D01*
X143276351Y-118232733D01*
X143148379Y-118155824D01*
X143148379Y-100182027D01*
X142904455Y-99591689D01*
X142453187Y-99139632D01*
X141863275Y-98894679D01*
X141224527Y-98894121D01*
X140634189Y-99138045D01*
X140182132Y-99589313D01*
X139937179Y-100179225D01*
X139936621Y-100817973D01*
X140180545Y-101408311D01*
X140631813Y-101860368D01*
X141221725Y-102105321D01*
X141860473Y-102105879D01*
X142450811Y-101861955D01*
X142902868Y-101410687D01*
X143147821Y-100820775D01*
X143148379Y-100182027D01*
X143148379Y-118155824D01*
X143024530Y-118081393D01*
X142461107Y-118644816D01*
X142461107Y-117517970D01*
X142309767Y-117266149D01*
X141587846Y-117104510D01*
X140859022Y-117231443D01*
X140775233Y-117266149D01*
X140623893Y-117517970D01*
X141542500Y-118436577D01*
X142461107Y-117517970D01*
X142461107Y-118644816D01*
X142105923Y-119000000D01*
X143024530Y-119918607D01*
X143276351Y-119767267D01*
X143437990Y-119045346D01*
X143437990Y-131898400D01*
X143405930Y-131898400D01*
X143405930Y-129372616D01*
X143116431Y-128671974D01*
X142580845Y-128135453D01*
X142461107Y-128085733D01*
X142461107Y-120482030D01*
X141542500Y-119563423D01*
X140979077Y-120126846D01*
X140979077Y-119000000D01*
X140060470Y-118081393D01*
X139808649Y-118232733D01*
X139647010Y-118954654D01*
X139773943Y-119683478D01*
X139808649Y-119767267D01*
X140060470Y-119918607D01*
X140979077Y-119000000D01*
X140979077Y-120126846D01*
X140623893Y-120482030D01*
X140775233Y-120733851D01*
X141497154Y-120895490D01*
X142225978Y-120768557D01*
X142309767Y-120733851D01*
X142461107Y-120482030D01*
X142461107Y-128085733D01*
X141880710Y-127844731D01*
X141122616Y-127844070D01*
X140421974Y-128133569D01*
X139885453Y-128669155D01*
X139594731Y-129369290D01*
X139594070Y-130127384D01*
X139883569Y-130828026D01*
X140419155Y-131364547D01*
X141119290Y-131655269D01*
X141877384Y-131655930D01*
X142578026Y-131366431D01*
X143114547Y-130830845D01*
X143405269Y-130130710D01*
X143405930Y-129372616D01*
X143405930Y-131898400D01*
X135817990Y-131898400D01*
X135817990Y-119045346D01*
X135691057Y-118316522D01*
X135656351Y-118232733D01*
X135528379Y-118155824D01*
X135528379Y-100182027D01*
X135284455Y-99591689D01*
X134833187Y-99139632D01*
X134243275Y-98894679D01*
X133604527Y-98894121D01*
X133014189Y-99138045D01*
X132562132Y-99589313D01*
X132317179Y-100179225D01*
X132316621Y-100817973D01*
X132560545Y-101408311D01*
X133011813Y-101860368D01*
X133601725Y-102105321D01*
X134240473Y-102105879D01*
X134830811Y-101861955D01*
X135282868Y-101410687D01*
X135527821Y-100820775D01*
X135528379Y-100182027D01*
X135528379Y-118155824D01*
X135404530Y-118081393D01*
X134841107Y-118644816D01*
X134841107Y-117517970D01*
X134689767Y-117266149D01*
X133967846Y-117104510D01*
X133239022Y-117231443D01*
X133155233Y-117266149D01*
X133003893Y-117517970D01*
X133922500Y-118436577D01*
X134841107Y-117517970D01*
X134841107Y-118644816D01*
X134485923Y-119000000D01*
X135404530Y-119918607D01*
X135656351Y-119767267D01*
X135817990Y-119045346D01*
X135817990Y-131898400D01*
X134841107Y-131898400D01*
X134841107Y-120482030D01*
X133922500Y-119563423D01*
X133359077Y-120126846D01*
X133359077Y-119000000D01*
X132440470Y-118081393D01*
X132188649Y-118232733D01*
X132027010Y-118954654D01*
X132153943Y-119683478D01*
X132188649Y-119767267D01*
X132440470Y-119918607D01*
X133359077Y-119000000D01*
X133359077Y-120126846D01*
X133003893Y-120482030D01*
X133155233Y-120733851D01*
X133877154Y-120895490D01*
X134605978Y-120768557D01*
X134689767Y-120733851D01*
X134841107Y-120482030D01*
X134841107Y-131898400D01*
X131369007Y-131898400D01*
X131369007Y-77868580D01*
X131187645Y-77429650D01*
X130852116Y-77093536D01*
X130413503Y-76911408D01*
X129938580Y-76910993D01*
X129499650Y-77092355D01*
X129163536Y-77427884D01*
X128981408Y-77866497D01*
X128980993Y-78341420D01*
X129162355Y-78780350D01*
X129497884Y-79116464D01*
X129936497Y-79298592D01*
X130411420Y-79299007D01*
X130850350Y-79117645D01*
X131186464Y-78782116D01*
X131368592Y-78343503D01*
X131369007Y-77868580D01*
X131369007Y-131898400D01*
X130225117Y-131898400D01*
X130225117Y-87174424D01*
X130134099Y-86716843D01*
X129924356Y-86619067D01*
X129360933Y-87182490D01*
X129360933Y-86055644D01*
X129263157Y-85845901D01*
X128829007Y-85776421D01*
X128829007Y-77868580D01*
X128647645Y-77429650D01*
X128312116Y-77093536D01*
X127873503Y-76911408D01*
X127398580Y-76910993D01*
X126959650Y-77092355D01*
X126623536Y-77427884D01*
X126441408Y-77866497D01*
X126440993Y-78341420D01*
X126622355Y-78780350D01*
X126957884Y-79116464D01*
X127396497Y-79298592D01*
X127871420Y-79299007D01*
X128310350Y-79117645D01*
X128646464Y-78782116D01*
X128828592Y-78343503D01*
X128829007Y-77868580D01*
X128829007Y-85776421D01*
X128694424Y-85754883D01*
X128236843Y-85845901D01*
X128139067Y-86055644D01*
X128750000Y-86666577D01*
X129360933Y-86055644D01*
X129360933Y-87182490D01*
X129313423Y-87230000D01*
X129924356Y-87840933D01*
X130134099Y-87743157D01*
X130225117Y-87174424D01*
X130225117Y-131898400D01*
X129944007Y-131898400D01*
X129944007Y-89533580D01*
X129762645Y-89094650D01*
X129427116Y-88758536D01*
X129138829Y-88638829D01*
X129263157Y-88614099D01*
X129360933Y-88404356D01*
X128750000Y-87793423D01*
X128186577Y-88356846D01*
X128186577Y-87230000D01*
X127575644Y-86619067D01*
X127365901Y-86716843D01*
X127355572Y-86781379D01*
X127355748Y-86580557D01*
X127225765Y-86265975D01*
X126985291Y-86025081D01*
X126670936Y-85894549D01*
X126330557Y-85894252D01*
X126015975Y-86024235D01*
X125775081Y-86264709D01*
X125773963Y-86267400D01*
X124750000Y-86267400D01*
X124565317Y-86304136D01*
X124408750Y-86408750D01*
X124304136Y-86565317D01*
X124267400Y-86750000D01*
X124304136Y-86934683D01*
X124408750Y-87091250D01*
X124565317Y-87195864D01*
X124750000Y-87232600D01*
X125773646Y-87232600D01*
X125774235Y-87234025D01*
X126014709Y-87474919D01*
X126329064Y-87605451D01*
X126669443Y-87605748D01*
X126984025Y-87475765D01*
X127224919Y-87235291D01*
X127319309Y-87007974D01*
X127274883Y-87285576D01*
X127365901Y-87743157D01*
X127575644Y-87840933D01*
X128186577Y-87230000D01*
X128186577Y-88356846D01*
X128139067Y-88404356D01*
X128236843Y-88614099D01*
X128369843Y-88635383D01*
X128074650Y-88757355D01*
X127738536Y-89092884D01*
X127556408Y-89531497D01*
X127555993Y-90006420D01*
X127737355Y-90445350D01*
X128072884Y-90781464D01*
X128511497Y-90963592D01*
X128986420Y-90964007D01*
X129425350Y-90782645D01*
X129761464Y-90447116D01*
X129943592Y-90008503D01*
X129944007Y-89533580D01*
X129944007Y-131898400D01*
X123749007Y-131898400D01*
X123749007Y-77868580D01*
X123567645Y-77429650D01*
X123232116Y-77093536D01*
X122793503Y-76911408D01*
X122318580Y-76910993D01*
X121879650Y-77092355D01*
X121543536Y-77427884D01*
X121361408Y-77866497D01*
X121360993Y-78341420D01*
X121542355Y-78780350D01*
X121877884Y-79116464D01*
X122316497Y-79298592D01*
X122791420Y-79299007D01*
X123230350Y-79117645D01*
X123566464Y-78782116D01*
X123748592Y-78343503D01*
X123749007Y-77868580D01*
X123749007Y-131898400D01*
X121628647Y-131898400D01*
X121628647Y-86609676D01*
X121526956Y-86098440D01*
X121310973Y-85992450D01*
X121209007Y-86094416D01*
X121209007Y-77868580D01*
X121027645Y-77429650D01*
X120692116Y-77093536D01*
X120253503Y-76911408D01*
X119778580Y-76910993D01*
X119339650Y-77092355D01*
X119003536Y-77427884D01*
X118821408Y-77866497D01*
X118820993Y-78341420D01*
X119002355Y-78780350D01*
X119337884Y-79116464D01*
X119776497Y-79298592D01*
X120251420Y-79299007D01*
X120690350Y-79117645D01*
X121026464Y-78782116D01*
X121208592Y-78343503D01*
X121209007Y-77868580D01*
X121209007Y-86094416D01*
X120747550Y-86555873D01*
X120747550Y-85429027D01*
X120641560Y-85213044D01*
X120049676Y-85111353D01*
X119538440Y-85213044D01*
X119432450Y-85429027D01*
X120090000Y-86086577D01*
X120747550Y-85429027D01*
X120747550Y-86555873D01*
X120653423Y-86650000D01*
X121310973Y-87307550D01*
X121526956Y-87201560D01*
X121628647Y-86609676D01*
X121628647Y-131898400D01*
X121345818Y-131898400D01*
X121345818Y-90901341D01*
X121155067Y-90439689D01*
X120802169Y-90086175D01*
X120747550Y-90063495D01*
X120747550Y-87870973D01*
X120090000Y-87213423D01*
X119526577Y-87776846D01*
X119526577Y-86650000D01*
X118869027Y-85992450D01*
X118653044Y-86098440D01*
X118551353Y-86690324D01*
X118653044Y-87201560D01*
X118869027Y-87307550D01*
X119526577Y-86650000D01*
X119526577Y-87776846D01*
X119432450Y-87870973D01*
X119538440Y-88086956D01*
X120130324Y-88188647D01*
X120641560Y-88086956D01*
X120747550Y-87870973D01*
X120747550Y-90063495D01*
X120340850Y-89894618D01*
X119841341Y-89894182D01*
X119379689Y-90084933D01*
X119026175Y-90437831D01*
X118834618Y-90899150D01*
X118834182Y-91398659D01*
X119024933Y-91860311D01*
X119377831Y-92213825D01*
X119839150Y-92405382D01*
X120338659Y-92405818D01*
X120800311Y-92215067D01*
X121153825Y-91862169D01*
X121345382Y-91400850D01*
X121345818Y-90901341D01*
X121345818Y-131898400D01*
X120446985Y-131898400D01*
X120446985Y-109008731D01*
X120284916Y-108616496D01*
X119985083Y-108316138D01*
X119593131Y-108153385D01*
X119168731Y-108153015D01*
X118776496Y-108315084D01*
X118476138Y-108614917D01*
X118313385Y-109006869D01*
X118313015Y-109431269D01*
X118475084Y-109823504D01*
X118774917Y-110123862D01*
X119166869Y-110286615D01*
X119591269Y-110286985D01*
X119983504Y-110124916D01*
X120283862Y-109825083D01*
X120446615Y-109433131D01*
X120446985Y-109008731D01*
X120446985Y-131898400D01*
X116129007Y-131898400D01*
X116129007Y-77868580D01*
X115947645Y-77429650D01*
X115612116Y-77093536D01*
X115173503Y-76911408D01*
X114698580Y-76910993D01*
X114259650Y-77092355D01*
X113923536Y-77427884D01*
X113741408Y-77866497D01*
X113740993Y-78341420D01*
X113922355Y-78780350D01*
X114257884Y-79116464D01*
X114696497Y-79298592D01*
X115171420Y-79299007D01*
X115610350Y-79117645D01*
X115946464Y-78782116D01*
X116128592Y-78343503D01*
X116129007Y-77868580D01*
X116129007Y-131898400D01*
X115366985Y-131898400D01*
X115366985Y-109008731D01*
X115204916Y-108616496D01*
X115128647Y-108540093D01*
X115128647Y-86609676D01*
X115026956Y-86098440D01*
X114810973Y-85992450D01*
X114247550Y-86555873D01*
X114247550Y-85429027D01*
X114141560Y-85213044D01*
X113589007Y-85118110D01*
X113589007Y-77868580D01*
X113407645Y-77429650D01*
X113072116Y-77093536D01*
X112633503Y-76911408D01*
X112158580Y-76910993D01*
X111719650Y-77092355D01*
X111383536Y-77427884D01*
X111201408Y-77866497D01*
X111200993Y-78341420D01*
X111382355Y-78780350D01*
X111717884Y-79116464D01*
X112156497Y-79298592D01*
X112631420Y-79299007D01*
X113070350Y-79117645D01*
X113406464Y-78782116D01*
X113588592Y-78343503D01*
X113589007Y-77868580D01*
X113589007Y-85118110D01*
X113549676Y-85111353D01*
X113038440Y-85213044D01*
X112932450Y-85429027D01*
X113590000Y-86086577D01*
X114247550Y-85429027D01*
X114247550Y-86555873D01*
X114153423Y-86650000D01*
X114810973Y-87307550D01*
X115026956Y-87201560D01*
X115128647Y-86609676D01*
X115128647Y-108540093D01*
X114905083Y-108316138D01*
X114845818Y-108291528D01*
X114845818Y-90901341D01*
X114655067Y-90439689D01*
X114302169Y-90086175D01*
X114247550Y-90063495D01*
X114247550Y-87870973D01*
X113590000Y-87213423D01*
X113026577Y-87776846D01*
X113026577Y-86650000D01*
X112369027Y-85992450D01*
X112153044Y-86098440D01*
X112051353Y-86690324D01*
X112153044Y-87201560D01*
X112369027Y-87307550D01*
X113026577Y-86650000D01*
X113026577Y-87776846D01*
X112932450Y-87870973D01*
X113038440Y-88086956D01*
X113630324Y-88188647D01*
X114141560Y-88086956D01*
X114247550Y-87870973D01*
X114247550Y-90063495D01*
X113840850Y-89894618D01*
X113341341Y-89894182D01*
X112879689Y-90084933D01*
X112526175Y-90437831D01*
X112334618Y-90899150D01*
X112334182Y-91398659D01*
X112420400Y-91607322D01*
X112420400Y-92160495D01*
X112245291Y-91985081D01*
X111930936Y-91854549D01*
X111590557Y-91854252D01*
X111275975Y-91984235D01*
X111035081Y-92224709D01*
X110904549Y-92539064D01*
X110904405Y-92703489D01*
X110217495Y-93390400D01*
X108509007Y-93390400D01*
X108509007Y-77868580D01*
X108327645Y-77429650D01*
X107992116Y-77093536D01*
X107553503Y-76911408D01*
X107078580Y-76910993D01*
X106639650Y-77092355D01*
X106303536Y-77427884D01*
X106121408Y-77866497D01*
X106120993Y-78341420D01*
X106302355Y-78780350D01*
X106637884Y-79116464D01*
X107076497Y-79298592D01*
X107551420Y-79299007D01*
X107990350Y-79117645D01*
X108326464Y-78782116D01*
X108508592Y-78343503D01*
X108509007Y-77868580D01*
X108509007Y-93390400D01*
X105969007Y-93390400D01*
X105969007Y-77868580D01*
X105787645Y-77429650D01*
X105452116Y-77093536D01*
X105013503Y-76911408D01*
X104538580Y-76910993D01*
X104099650Y-77092355D01*
X103763536Y-77427884D01*
X103581408Y-77866497D01*
X103580993Y-78341420D01*
X103762355Y-78780350D01*
X104097884Y-79116464D01*
X104536497Y-79298592D01*
X105011420Y-79299007D01*
X105450350Y-79117645D01*
X105786464Y-78782116D01*
X105968592Y-78343503D01*
X105969007Y-77868580D01*
X105969007Y-93390400D01*
X105457106Y-93390400D01*
X105350408Y-93390400D01*
X105235291Y-93275081D01*
X104920936Y-93144549D01*
X104580557Y-93144252D01*
X104265975Y-93274235D01*
X104146170Y-93393831D01*
X104146170Y-85290135D01*
X104016187Y-84975553D01*
X103775713Y-84734659D01*
X103461358Y-84604127D01*
X103269600Y-84603959D01*
X103154128Y-84526803D01*
X102920844Y-84480400D01*
X97120408Y-84480400D01*
X97005291Y-84365081D01*
X96690936Y-84234549D01*
X96350557Y-84234252D01*
X96035975Y-84364235D01*
X95795081Y-84604709D01*
X95732793Y-84754714D01*
X95732793Y-82963671D01*
X95732793Y-80423671D01*
X95732600Y-80423203D01*
X95732600Y-78937733D01*
X95732600Y-78796267D01*
X95732600Y-77272267D01*
X95678463Y-77141569D01*
X95578431Y-77041537D01*
X95447733Y-76987400D01*
X95306267Y-76987400D01*
X94705930Y-76987400D01*
X94705930Y-69872616D01*
X94416431Y-69171974D01*
X93880845Y-68635453D01*
X93180710Y-68344731D01*
X92422616Y-68344070D01*
X91721974Y-68633569D01*
X91185453Y-69169155D01*
X90894731Y-69869290D01*
X90894070Y-70627384D01*
X91183569Y-71328026D01*
X91719155Y-71864547D01*
X92419290Y-72155269D01*
X93177384Y-72155930D01*
X93878026Y-71866431D01*
X94414547Y-71330845D01*
X94705269Y-70630710D01*
X94705930Y-69872616D01*
X94705930Y-76987400D01*
X93782267Y-76987400D01*
X93651569Y-77041537D01*
X93551537Y-77141569D01*
X93497400Y-77272267D01*
X93497400Y-77413733D01*
X93497400Y-78937733D01*
X93551537Y-79068431D01*
X93651569Y-79168463D01*
X93782267Y-79222600D01*
X93923733Y-79222600D01*
X95447733Y-79222600D01*
X95578431Y-79168463D01*
X95678463Y-79068431D01*
X95732600Y-78937733D01*
X95732600Y-80423203D01*
X95563008Y-80012758D01*
X95248896Y-79698097D01*
X94838280Y-79527594D01*
X94393671Y-79527207D01*
X93982758Y-79696992D01*
X93668097Y-80011104D01*
X93497594Y-80421720D01*
X93497207Y-80866329D01*
X93666992Y-81277242D01*
X93981104Y-81591903D01*
X94391720Y-81762406D01*
X94836329Y-81762793D01*
X95247242Y-81593008D01*
X95561903Y-81278896D01*
X95732406Y-80868280D01*
X95732793Y-80423671D01*
X95732793Y-82963671D01*
X95563008Y-82552758D01*
X95248896Y-82238097D01*
X94838280Y-82067594D01*
X94393671Y-82067207D01*
X93982758Y-82236992D01*
X93668097Y-82551104D01*
X93497594Y-82961720D01*
X93497207Y-83406329D01*
X93666992Y-83817242D01*
X93981104Y-84131903D01*
X94391720Y-84302406D01*
X94836329Y-84302793D01*
X95247242Y-84133008D01*
X95561903Y-83818896D01*
X95732406Y-83408280D01*
X95732793Y-82963671D01*
X95732793Y-84754714D01*
X95664549Y-84919064D01*
X95664252Y-85259443D01*
X95794235Y-85574025D01*
X96034709Y-85814919D01*
X96349064Y-85945451D01*
X96689443Y-85945748D01*
X97004025Y-85815765D01*
X97120392Y-85699600D01*
X102463836Y-85699600D01*
X102564657Y-85943603D01*
X102805131Y-86184497D01*
X103119486Y-86315029D01*
X103459865Y-86315326D01*
X103774447Y-86185343D01*
X104015341Y-85944869D01*
X104145873Y-85630514D01*
X104146170Y-85290135D01*
X104146170Y-93393831D01*
X104025081Y-93514709D01*
X103894549Y-93829064D01*
X103894252Y-94169443D01*
X104024235Y-94484025D01*
X104264709Y-94724919D01*
X104579064Y-94855451D01*
X104919443Y-94855748D01*
X105234025Y-94725765D01*
X105350392Y-94609600D01*
X105457106Y-94609600D01*
X110470000Y-94609600D01*
X110703284Y-94563197D01*
X110901052Y-94431052D01*
X111766498Y-93565605D01*
X111929443Y-93565748D01*
X112244025Y-93435765D01*
X112420400Y-93259697D01*
X112420400Y-101347496D01*
X109848501Y-103919394D01*
X109685557Y-103919252D01*
X109370975Y-104049235D01*
X109130081Y-104289709D01*
X108999549Y-104604064D01*
X108999252Y-104944443D01*
X109129235Y-105259025D01*
X109369709Y-105499919D01*
X109684064Y-105630451D01*
X110024443Y-105630748D01*
X110339025Y-105500765D01*
X110579919Y-105260291D01*
X110710451Y-104945936D01*
X110710594Y-104781509D01*
X113461052Y-102031052D01*
X113593197Y-101833284D01*
X113639600Y-101600000D01*
X113639600Y-92405644D01*
X113838659Y-92405818D01*
X114300311Y-92215067D01*
X114653825Y-91862169D01*
X114845382Y-91400850D01*
X114845818Y-90901341D01*
X114845818Y-108291528D01*
X114513131Y-108153385D01*
X114088731Y-108153015D01*
X113696496Y-108315084D01*
X113396138Y-108614917D01*
X113233385Y-109006869D01*
X113233015Y-109431269D01*
X113395084Y-109823504D01*
X113694917Y-110123862D01*
X114086869Y-110286615D01*
X114511269Y-110286985D01*
X114903504Y-110124916D01*
X115203862Y-109825083D01*
X115366615Y-109433131D01*
X115366985Y-109008731D01*
X115366985Y-131898400D01*
X94705930Y-131898400D01*
X94705930Y-129372616D01*
X94416431Y-128671974D01*
X93880845Y-128135453D01*
X93180710Y-127844731D01*
X92422616Y-127844070D01*
X91721974Y-128133569D01*
X91185453Y-128669155D01*
X90894731Y-129369290D01*
X90894070Y-130127384D01*
X91183569Y-130828026D01*
X91719155Y-131364547D01*
X92419290Y-131655269D01*
X93177384Y-131655930D01*
X93878026Y-131366431D01*
X94414547Y-130830845D01*
X94705269Y-130130710D01*
X94705930Y-129372616D01*
X94705930Y-131898400D01*
X90191600Y-131898400D01*
X90191600Y-121866600D01*
X103971600Y-121866600D01*
X103971600Y-97323400D01*
X93472336Y-97323400D01*
X93472336Y-83128644D01*
X93387536Y-82702329D01*
X93192793Y-82619529D01*
X93192793Y-80423671D01*
X93192793Y-77883671D01*
X93023008Y-77472758D01*
X92708896Y-77158097D01*
X92298280Y-76987594D01*
X91853671Y-76987207D01*
X91442758Y-77156992D01*
X91128097Y-77471104D01*
X90957594Y-77881720D01*
X90957207Y-78326329D01*
X91126992Y-78737242D01*
X91441104Y-79051903D01*
X91851720Y-79222406D01*
X92296329Y-79222793D01*
X92707242Y-79053008D01*
X93021903Y-78738896D01*
X93192406Y-78328280D01*
X93192793Y-77883671D01*
X93192793Y-80423671D01*
X93023008Y-80012758D01*
X92708896Y-79698097D01*
X92298280Y-79527594D01*
X91853671Y-79527207D01*
X91442758Y-79696992D01*
X91128097Y-80011104D01*
X90957594Y-80421720D01*
X90957207Y-80866329D01*
X91126992Y-81277242D01*
X91441104Y-81591903D01*
X91851720Y-81762406D01*
X92296329Y-81762793D01*
X92707242Y-81593008D01*
X93021903Y-81278896D01*
X93192406Y-80868280D01*
X93192793Y-80423671D01*
X93192793Y-82619529D01*
X93183316Y-82615500D01*
X92644500Y-83154315D01*
X92644500Y-82076684D01*
X92557671Y-81872464D01*
X92018644Y-81787664D01*
X91592329Y-81872464D01*
X91505500Y-82076684D01*
X92075000Y-82646185D01*
X92644500Y-82076684D01*
X92644500Y-83154315D01*
X92613815Y-83185000D01*
X93183316Y-83754500D01*
X93387536Y-83667671D01*
X93472336Y-83128644D01*
X93472336Y-97323400D01*
X92644500Y-97323400D01*
X92644500Y-84293316D01*
X92075000Y-83723815D01*
X91536185Y-84262630D01*
X91536185Y-83185000D01*
X90966684Y-82615500D01*
X90762464Y-82702329D01*
X90677664Y-83241356D01*
X90762464Y-83667671D01*
X90966684Y-83754500D01*
X91536185Y-83185000D01*
X91536185Y-84262630D01*
X91505500Y-84293316D01*
X91592329Y-84497536D01*
X92131356Y-84582336D01*
X92557671Y-84497536D01*
X92644500Y-84293316D01*
X92644500Y-97323400D01*
X90191600Y-97323400D01*
X90191600Y-68126600D01*
X144123400Y-68126600D01*
X144123400Y-131898400D01*
X144123400Y-131898400D01*
G37*
X144123400Y-131898400D02*
X143437990Y-131898400D01*
X143437990Y-119045346D01*
X143405930Y-118861263D01*
X143405930Y-69872616D01*
X143116431Y-69171974D01*
X142580845Y-68635453D01*
X141880710Y-68344731D01*
X141122616Y-68344070D01*
X140421974Y-68633569D01*
X139885453Y-69169155D01*
X139594731Y-69869290D01*
X139594070Y-70627384D01*
X139883569Y-71328026D01*
X140419155Y-71864547D01*
X141119290Y-72155269D01*
X141877384Y-72155930D01*
X142578026Y-71866431D01*
X143114547Y-71330845D01*
X143405269Y-70630710D01*
X143405930Y-69872616D01*
X143405930Y-118861263D01*
X143311057Y-118316522D01*
X143276351Y-118232733D01*
X143148379Y-118155824D01*
X143148379Y-100182027D01*
X142904455Y-99591689D01*
X142453187Y-99139632D01*
X141863275Y-98894679D01*
X141224527Y-98894121D01*
X140634189Y-99138045D01*
X140182132Y-99589313D01*
X139937179Y-100179225D01*
X139936621Y-100817973D01*
X140180545Y-101408311D01*
X140631813Y-101860368D01*
X141221725Y-102105321D01*
X141860473Y-102105879D01*
X142450811Y-101861955D01*
X142902868Y-101410687D01*
X143147821Y-100820775D01*
X143148379Y-100182027D01*
X143148379Y-118155824D01*
X143024530Y-118081393D01*
X142461107Y-118644816D01*
X142461107Y-117517970D01*
X142309767Y-117266149D01*
X141587846Y-117104510D01*
X140859022Y-117231443D01*
X140775233Y-117266149D01*
X140623893Y-117517970D01*
X141542500Y-118436577D01*
X142461107Y-117517970D01*
X142461107Y-118644816D01*
X142105923Y-119000000D01*
X143024530Y-119918607D01*
X143276351Y-119767267D01*
X143437990Y-119045346D01*
X143437990Y-131898400D01*
X143405930Y-131898400D01*
X143405930Y-129372616D01*
X143116431Y-128671974D01*
X142580845Y-128135453D01*
X142461107Y-128085733D01*
X142461107Y-120482030D01*
X141542500Y-119563423D01*
X140979077Y-120126846D01*
X140979077Y-119000000D01*
X140060470Y-118081393D01*
X139808649Y-118232733D01*
X139647010Y-118954654D01*
X139773943Y-119683478D01*
X139808649Y-119767267D01*
X140060470Y-119918607D01*
X140979077Y-119000000D01*
X140979077Y-120126846D01*
X140623893Y-120482030D01*
X140775233Y-120733851D01*
X141497154Y-120895490D01*
X142225978Y-120768557D01*
X142309767Y-120733851D01*
X142461107Y-120482030D01*
X142461107Y-128085733D01*
X141880710Y-127844731D01*
X141122616Y-127844070D01*
X140421974Y-128133569D01*
X139885453Y-128669155D01*
X139594731Y-129369290D01*
X139594070Y-130127384D01*
X139883569Y-130828026D01*
X140419155Y-131364547D01*
X141119290Y-131655269D01*
X141877384Y-131655930D01*
X142578026Y-131366431D01*
X143114547Y-130830845D01*
X143405269Y-130130710D01*
X143405930Y-129372616D01*
X143405930Y-131898400D01*
X135817990Y-131898400D01*
X135817990Y-119045346D01*
X135691057Y-118316522D01*
X135656351Y-118232733D01*
X135528379Y-118155824D01*
X135528379Y-100182027D01*
X135284455Y-99591689D01*
X134833187Y-99139632D01*
X134243275Y-98894679D01*
X133604527Y-98894121D01*
X133014189Y-99138045D01*
X132562132Y-99589313D01*
X132317179Y-100179225D01*
X132316621Y-100817973D01*
X132560545Y-101408311D01*
X133011813Y-101860368D01*
X133601725Y-102105321D01*
X134240473Y-102105879D01*
X134830811Y-101861955D01*
X135282868Y-101410687D01*
X135527821Y-100820775D01*
X135528379Y-100182027D01*
X135528379Y-118155824D01*
X135404530Y-118081393D01*
X134841107Y-118644816D01*
X134841107Y-117517970D01*
X134689767Y-117266149D01*
X133967846Y-117104510D01*
X133239022Y-117231443D01*
X133155233Y-117266149D01*
X133003893Y-117517970D01*
X133922500Y-118436577D01*
X134841107Y-117517970D01*
X134841107Y-118644816D01*
X134485923Y-119000000D01*
X135404530Y-119918607D01*
X135656351Y-119767267D01*
X135817990Y-119045346D01*
X135817990Y-131898400D01*
X134841107Y-131898400D01*
X134841107Y-120482030D01*
X133922500Y-119563423D01*
X133359077Y-120126846D01*
X133359077Y-119000000D01*
X132440470Y-118081393D01*
X132188649Y-118232733D01*
X132027010Y-118954654D01*
X132153943Y-119683478D01*
X132188649Y-119767267D01*
X132440470Y-119918607D01*
X133359077Y-119000000D01*
X133359077Y-120126846D01*
X133003893Y-120482030D01*
X133155233Y-120733851D01*
X133877154Y-120895490D01*
X134605978Y-120768557D01*
X134689767Y-120733851D01*
X134841107Y-120482030D01*
X134841107Y-131898400D01*
X131369007Y-131898400D01*
X131369007Y-77868580D01*
X131187645Y-77429650D01*
X130852116Y-77093536D01*
X130413503Y-76911408D01*
X129938580Y-76910993D01*
X129499650Y-77092355D01*
X129163536Y-77427884D01*
X128981408Y-77866497D01*
X128980993Y-78341420D01*
X129162355Y-78780350D01*
X129497884Y-79116464D01*
X129936497Y-79298592D01*
X130411420Y-79299007D01*
X130850350Y-79117645D01*
X131186464Y-78782116D01*
X131368592Y-78343503D01*
X131369007Y-77868580D01*
X131369007Y-131898400D01*
X130225117Y-131898400D01*
X130225117Y-87174424D01*
X130134099Y-86716843D01*
X129924356Y-86619067D01*
X129360933Y-87182490D01*
X129360933Y-86055644D01*
X129263157Y-85845901D01*
X128829007Y-85776421D01*
X128829007Y-77868580D01*
X128647645Y-77429650D01*
X128312116Y-77093536D01*
X127873503Y-76911408D01*
X127398580Y-76910993D01*
X126959650Y-77092355D01*
X126623536Y-77427884D01*
X126441408Y-77866497D01*
X126440993Y-78341420D01*
X126622355Y-78780350D01*
X126957884Y-79116464D01*
X127396497Y-79298592D01*
X127871420Y-79299007D01*
X128310350Y-79117645D01*
X128646464Y-78782116D01*
X128828592Y-78343503D01*
X128829007Y-77868580D01*
X128829007Y-85776421D01*
X128694424Y-85754883D01*
X128236843Y-85845901D01*
X128139067Y-86055644D01*
X128750000Y-86666577D01*
X129360933Y-86055644D01*
X129360933Y-87182490D01*
X129313423Y-87230000D01*
X129924356Y-87840933D01*
X130134099Y-87743157D01*
X130225117Y-87174424D01*
X130225117Y-131898400D01*
X129944007Y-131898400D01*
X129944007Y-89533580D01*
X129762645Y-89094650D01*
X129427116Y-88758536D01*
X129138829Y-88638829D01*
X129263157Y-88614099D01*
X129360933Y-88404356D01*
X128750000Y-87793423D01*
X128186577Y-88356846D01*
X128186577Y-87230000D01*
X127575644Y-86619067D01*
X127365901Y-86716843D01*
X127355572Y-86781379D01*
X127355748Y-86580557D01*
X127225765Y-86265975D01*
X126985291Y-86025081D01*
X126670936Y-85894549D01*
X126330557Y-85894252D01*
X126015975Y-86024235D01*
X125775081Y-86264709D01*
X125773963Y-86267400D01*
X124750000Y-86267400D01*
X124565317Y-86304136D01*
X124408750Y-86408750D01*
X124304136Y-86565317D01*
X124267400Y-86750000D01*
X124304136Y-86934683D01*
X124408750Y-87091250D01*
X124565317Y-87195864D01*
X124750000Y-87232600D01*
X125773646Y-87232600D01*
X125774235Y-87234025D01*
X126014709Y-87474919D01*
X126329064Y-87605451D01*
X126669443Y-87605748D01*
X126984025Y-87475765D01*
X127224919Y-87235291D01*
X127319309Y-87007974D01*
X127274883Y-87285576D01*
X127365901Y-87743157D01*
X127575644Y-87840933D01*
X128186577Y-87230000D01*
X128186577Y-88356846D01*
X128139067Y-88404356D01*
X128236843Y-88614099D01*
X128369843Y-88635383D01*
X128074650Y-88757355D01*
X127738536Y-89092884D01*
X127556408Y-89531497D01*
X127555993Y-90006420D01*
X127737355Y-90445350D01*
X128072884Y-90781464D01*
X128511497Y-90963592D01*
X128986420Y-90964007D01*
X129425350Y-90782645D01*
X129761464Y-90447116D01*
X129943592Y-90008503D01*
X129944007Y-89533580D01*
X129944007Y-131898400D01*
X123749007Y-131898400D01*
X123749007Y-77868580D01*
X123567645Y-77429650D01*
X123232116Y-77093536D01*
X122793503Y-76911408D01*
X122318580Y-76910993D01*
X121879650Y-77092355D01*
X121543536Y-77427884D01*
X121361408Y-77866497D01*
X121360993Y-78341420D01*
X121542355Y-78780350D01*
X121877884Y-79116464D01*
X122316497Y-79298592D01*
X122791420Y-79299007D01*
X123230350Y-79117645D01*
X123566464Y-78782116D01*
X123748592Y-78343503D01*
X123749007Y-77868580D01*
X123749007Y-131898400D01*
X121628647Y-131898400D01*
X121628647Y-86609676D01*
X121526956Y-86098440D01*
X121310973Y-85992450D01*
X121209007Y-86094416D01*
X121209007Y-77868580D01*
X121027645Y-77429650D01*
X120692116Y-77093536D01*
X120253503Y-76911408D01*
X119778580Y-76910993D01*
X119339650Y-77092355D01*
X119003536Y-77427884D01*
X118821408Y-77866497D01*
X118820993Y-78341420D01*
X119002355Y-78780350D01*
X119337884Y-79116464D01*
X119776497Y-79298592D01*
X120251420Y-79299007D01*
X120690350Y-79117645D01*
X121026464Y-78782116D01*
X121208592Y-78343503D01*
X121209007Y-77868580D01*
X121209007Y-86094416D01*
X120747550Y-86555873D01*
X120747550Y-85429027D01*
X120641560Y-85213044D01*
X120049676Y-85111353D01*
X119538440Y-85213044D01*
X119432450Y-85429027D01*
X120090000Y-86086577D01*
X120747550Y-85429027D01*
X120747550Y-86555873D01*
X120653423Y-86650000D01*
X121310973Y-87307550D01*
X121526956Y-87201560D01*
X121628647Y-86609676D01*
X121628647Y-131898400D01*
X121345818Y-131898400D01*
X121345818Y-90901341D01*
X121155067Y-90439689D01*
X120802169Y-90086175D01*
X120747550Y-90063495D01*
X120747550Y-87870973D01*
X120090000Y-87213423D01*
X119526577Y-87776846D01*
X119526577Y-86650000D01*
X118869027Y-85992450D01*
X118653044Y-86098440D01*
X118551353Y-86690324D01*
X118653044Y-87201560D01*
X118869027Y-87307550D01*
X119526577Y-86650000D01*
X119526577Y-87776846D01*
X119432450Y-87870973D01*
X119538440Y-88086956D01*
X120130324Y-88188647D01*
X120641560Y-88086956D01*
X120747550Y-87870973D01*
X120747550Y-90063495D01*
X120340850Y-89894618D01*
X119841341Y-89894182D01*
X119379689Y-90084933D01*
X119026175Y-90437831D01*
X118834618Y-90899150D01*
X118834182Y-91398659D01*
X119024933Y-91860311D01*
X119377831Y-92213825D01*
X119839150Y-92405382D01*
X120338659Y-92405818D01*
X120800311Y-92215067D01*
X121153825Y-91862169D01*
X121345382Y-91400850D01*
X121345818Y-90901341D01*
X121345818Y-131898400D01*
X120446985Y-131898400D01*
X120446985Y-109008731D01*
X120284916Y-108616496D01*
X119985083Y-108316138D01*
X119593131Y-108153385D01*
X119168731Y-108153015D01*
X118776496Y-108315084D01*
X118476138Y-108614917D01*
X118313385Y-109006869D01*
X118313015Y-109431269D01*
X118475084Y-109823504D01*
X118774917Y-110123862D01*
X119166869Y-110286615D01*
X119591269Y-110286985D01*
X119983504Y-110124916D01*
X120283862Y-109825083D01*
X120446615Y-109433131D01*
X120446985Y-109008731D01*
X120446985Y-131898400D01*
X116129007Y-131898400D01*
X116129007Y-77868580D01*
X115947645Y-77429650D01*
X115612116Y-77093536D01*
X115173503Y-76911408D01*
X114698580Y-76910993D01*
X114259650Y-77092355D01*
X113923536Y-77427884D01*
X113741408Y-77866497D01*
X113740993Y-78341420D01*
X113922355Y-78780350D01*
X114257884Y-79116464D01*
X114696497Y-79298592D01*
X115171420Y-79299007D01*
X115610350Y-79117645D01*
X115946464Y-78782116D01*
X116128592Y-78343503D01*
X116129007Y-77868580D01*
X116129007Y-131898400D01*
X115366985Y-131898400D01*
X115366985Y-109008731D01*
X115204916Y-108616496D01*
X115128647Y-108540093D01*
X115128647Y-86609676D01*
X115026956Y-86098440D01*
X114810973Y-85992450D01*
X114247550Y-86555873D01*
X114247550Y-85429027D01*
X114141560Y-85213044D01*
X113589007Y-85118110D01*
X113589007Y-77868580D01*
X113407645Y-77429650D01*
X113072116Y-77093536D01*
X112633503Y-76911408D01*
X112158580Y-76910993D01*
X111719650Y-77092355D01*
X111383536Y-77427884D01*
X111201408Y-77866497D01*
X111200993Y-78341420D01*
X111382355Y-78780350D01*
X111717884Y-79116464D01*
X112156497Y-79298592D01*
X112631420Y-79299007D01*
X113070350Y-79117645D01*
X113406464Y-78782116D01*
X113588592Y-78343503D01*
X113589007Y-77868580D01*
X113589007Y-85118110D01*
X113549676Y-85111353D01*
X113038440Y-85213044D01*
X112932450Y-85429027D01*
X113590000Y-86086577D01*
X114247550Y-85429027D01*
X114247550Y-86555873D01*
X114153423Y-86650000D01*
X114810973Y-87307550D01*
X115026956Y-87201560D01*
X115128647Y-86609676D01*
X115128647Y-108540093D01*
X114905083Y-108316138D01*
X114845818Y-108291528D01*
X114845818Y-90901341D01*
X114655067Y-90439689D01*
X114302169Y-90086175D01*
X114247550Y-90063495D01*
X114247550Y-87870973D01*
X113590000Y-87213423D01*
X113026577Y-87776846D01*
X113026577Y-86650000D01*
X112369027Y-85992450D01*
X112153044Y-86098440D01*
X112051353Y-86690324D01*
X112153044Y-87201560D01*
X112369027Y-87307550D01*
X113026577Y-86650000D01*
X113026577Y-87776846D01*
X112932450Y-87870973D01*
X113038440Y-88086956D01*
X113630324Y-88188647D01*
X114141560Y-88086956D01*
X114247550Y-87870973D01*
X114247550Y-90063495D01*
X113840850Y-89894618D01*
X113341341Y-89894182D01*
X112879689Y-90084933D01*
X112526175Y-90437831D01*
X112334618Y-90899150D01*
X112334182Y-91398659D01*
X112420400Y-91607322D01*
X112420400Y-92160495D01*
X112245291Y-91985081D01*
X111930936Y-91854549D01*
X111590557Y-91854252D01*
X111275975Y-91984235D01*
X111035081Y-92224709D01*
X110904549Y-92539064D01*
X110904405Y-92703489D01*
X110217495Y-93390400D01*
X108509007Y-93390400D01*
X108509007Y-77868580D01*
X108327645Y-77429650D01*
X107992116Y-77093536D01*
X107553503Y-76911408D01*
X107078580Y-76910993D01*
X106639650Y-77092355D01*
X106303536Y-77427884D01*
X106121408Y-77866497D01*
X106120993Y-78341420D01*
X106302355Y-78780350D01*
X106637884Y-79116464D01*
X107076497Y-79298592D01*
X107551420Y-79299007D01*
X107990350Y-79117645D01*
X108326464Y-78782116D01*
X108508592Y-78343503D01*
X108509007Y-77868580D01*
X108509007Y-93390400D01*
X105969007Y-93390400D01*
X105969007Y-77868580D01*
X105787645Y-77429650D01*
X105452116Y-77093536D01*
X105013503Y-76911408D01*
X104538580Y-76910993D01*
X104099650Y-77092355D01*
X103763536Y-77427884D01*
X103581408Y-77866497D01*
X103580993Y-78341420D01*
X103762355Y-78780350D01*
X104097884Y-79116464D01*
X104536497Y-79298592D01*
X105011420Y-79299007D01*
X105450350Y-79117645D01*
X105786464Y-78782116D01*
X105968592Y-78343503D01*
X105969007Y-77868580D01*
X105969007Y-93390400D01*
X105457106Y-93390400D01*
X105350408Y-93390400D01*
X105235291Y-93275081D01*
X104920936Y-93144549D01*
X104580557Y-93144252D01*
X104265975Y-93274235D01*
X104146170Y-93393831D01*
X104146170Y-85290135D01*
X104016187Y-84975553D01*
X103775713Y-84734659D01*
X103461358Y-84604127D01*
X103269600Y-84603959D01*
X103154128Y-84526803D01*
X102920844Y-84480400D01*
X97120408Y-84480400D01*
X97005291Y-84365081D01*
X96690936Y-84234549D01*
X96350557Y-84234252D01*
X96035975Y-84364235D01*
X95795081Y-84604709D01*
X95732793Y-84754714D01*
X95732793Y-82963671D01*
X95732793Y-80423671D01*
X95732600Y-80423203D01*
X95732600Y-78937733D01*
X95732600Y-78796267D01*
X95732600Y-77272267D01*
X95678463Y-77141569D01*
X95578431Y-77041537D01*
X95447733Y-76987400D01*
X95306267Y-76987400D01*
X94705930Y-76987400D01*
X94705930Y-69872616D01*
X94416431Y-69171974D01*
X93880845Y-68635453D01*
X93180710Y-68344731D01*
X92422616Y-68344070D01*
X91721974Y-68633569D01*
X91185453Y-69169155D01*
X90894731Y-69869290D01*
X90894070Y-70627384D01*
X91183569Y-71328026D01*
X91719155Y-71864547D01*
X92419290Y-72155269D01*
X93177384Y-72155930D01*
X93878026Y-71866431D01*
X94414547Y-71330845D01*
X94705269Y-70630710D01*
X94705930Y-69872616D01*
X94705930Y-76987400D01*
X93782267Y-76987400D01*
X93651569Y-77041537D01*
X93551537Y-77141569D01*
X93497400Y-77272267D01*
X93497400Y-77413733D01*
X93497400Y-78937733D01*
X93551537Y-79068431D01*
X93651569Y-79168463D01*
X93782267Y-79222600D01*
X93923733Y-79222600D01*
X95447733Y-79222600D01*
X95578431Y-79168463D01*
X95678463Y-79068431D01*
X95732600Y-78937733D01*
X95732600Y-80423203D01*
X95563008Y-80012758D01*
X95248896Y-79698097D01*
X94838280Y-79527594D01*
X94393671Y-79527207D01*
X93982758Y-79696992D01*
X93668097Y-80011104D01*
X93497594Y-80421720D01*
X93497207Y-80866329D01*
X93666992Y-81277242D01*
X93981104Y-81591903D01*
X94391720Y-81762406D01*
X94836329Y-81762793D01*
X95247242Y-81593008D01*
X95561903Y-81278896D01*
X95732406Y-80868280D01*
X95732793Y-80423671D01*
X95732793Y-82963671D01*
X95563008Y-82552758D01*
X95248896Y-82238097D01*
X94838280Y-82067594D01*
X94393671Y-82067207D01*
X93982758Y-82236992D01*
X93668097Y-82551104D01*
X93497594Y-82961720D01*
X93497207Y-83406329D01*
X93666992Y-83817242D01*
X93981104Y-84131903D01*
X94391720Y-84302406D01*
X94836329Y-84302793D01*
X95247242Y-84133008D01*
X95561903Y-83818896D01*
X95732406Y-83408280D01*
X95732793Y-82963671D01*
X95732793Y-84754714D01*
X95664549Y-84919064D01*
X95664252Y-85259443D01*
X95794235Y-85574025D01*
X96034709Y-85814919D01*
X96349064Y-85945451D01*
X96689443Y-85945748D01*
X97004025Y-85815765D01*
X97120392Y-85699600D01*
X102463836Y-85699600D01*
X102564657Y-85943603D01*
X102805131Y-86184497D01*
X103119486Y-86315029D01*
X103459865Y-86315326D01*
X103774447Y-86185343D01*
X104015341Y-85944869D01*
X104145873Y-85630514D01*
X104146170Y-85290135D01*
X104146170Y-93393831D01*
X104025081Y-93514709D01*
X103894549Y-93829064D01*
X103894252Y-94169443D01*
X104024235Y-94484025D01*
X104264709Y-94724919D01*
X104579064Y-94855451D01*
X104919443Y-94855748D01*
X105234025Y-94725765D01*
X105350392Y-94609600D01*
X105457106Y-94609600D01*
X110470000Y-94609600D01*
X110703284Y-94563197D01*
X110901052Y-94431052D01*
X111766498Y-93565605D01*
X111929443Y-93565748D01*
X112244025Y-93435765D01*
X112420400Y-93259697D01*
X112420400Y-101347496D01*
X109848501Y-103919394D01*
X109685557Y-103919252D01*
X109370975Y-104049235D01*
X109130081Y-104289709D01*
X108999549Y-104604064D01*
X108999252Y-104944443D01*
X109129235Y-105259025D01*
X109369709Y-105499919D01*
X109684064Y-105630451D01*
X110024443Y-105630748D01*
X110339025Y-105500765D01*
X110579919Y-105260291D01*
X110710451Y-104945936D01*
X110710594Y-104781509D01*
X113461052Y-102031052D01*
X113593197Y-101833284D01*
X113639600Y-101600000D01*
X113639600Y-92405644D01*
X113838659Y-92405818D01*
X114300311Y-92215067D01*
X114653825Y-91862169D01*
X114845382Y-91400850D01*
X114845818Y-90901341D01*
X114845818Y-108291528D01*
X114513131Y-108153385D01*
X114088731Y-108153015D01*
X113696496Y-108315084D01*
X113396138Y-108614917D01*
X113233385Y-109006869D01*
X113233015Y-109431269D01*
X113395084Y-109823504D01*
X113694917Y-110123862D01*
X114086869Y-110286615D01*
X114511269Y-110286985D01*
X114903504Y-110124916D01*
X115203862Y-109825083D01*
X115366615Y-109433131D01*
X115366985Y-109008731D01*
X115366985Y-131898400D01*
X94705930Y-131898400D01*
X94705930Y-129372616D01*
X94416431Y-128671974D01*
X93880845Y-128135453D01*
X93180710Y-127844731D01*
X92422616Y-127844070D01*
X91721974Y-128133569D01*
X91185453Y-128669155D01*
X90894731Y-129369290D01*
X90894070Y-130127384D01*
X91183569Y-130828026D01*
X91719155Y-131364547D01*
X92419290Y-131655269D01*
X93177384Y-131655930D01*
X93878026Y-131366431D01*
X94414547Y-130830845D01*
X94705269Y-130130710D01*
X94705930Y-129372616D01*
X94705930Y-131898400D01*
X90191600Y-131898400D01*
X90191600Y-121866600D01*
X103971600Y-121866600D01*
X103971600Y-97323400D01*
X93472336Y-97323400D01*
X93472336Y-83128644D01*
X93387536Y-82702329D01*
X93192793Y-82619529D01*
X93192793Y-80423671D01*
X93192793Y-77883671D01*
X93023008Y-77472758D01*
X92708896Y-77158097D01*
X92298280Y-76987594D01*
X91853671Y-76987207D01*
X91442758Y-77156992D01*
X91128097Y-77471104D01*
X90957594Y-77881720D01*
X90957207Y-78326329D01*
X91126992Y-78737242D01*
X91441104Y-79051903D01*
X91851720Y-79222406D01*
X92296329Y-79222793D01*
X92707242Y-79053008D01*
X93021903Y-78738896D01*
X93192406Y-78328280D01*
X93192793Y-77883671D01*
X93192793Y-80423671D01*
X93023008Y-80012758D01*
X92708896Y-79698097D01*
X92298280Y-79527594D01*
X91853671Y-79527207D01*
X91442758Y-79696992D01*
X91128097Y-80011104D01*
X90957594Y-80421720D01*
X90957207Y-80866329D01*
X91126992Y-81277242D01*
X91441104Y-81591903D01*
X91851720Y-81762406D01*
X92296329Y-81762793D01*
X92707242Y-81593008D01*
X93021903Y-81278896D01*
X93192406Y-80868280D01*
X93192793Y-80423671D01*
X93192793Y-82619529D01*
X93183316Y-82615500D01*
X92644500Y-83154315D01*
X92644500Y-82076684D01*
X92557671Y-81872464D01*
X92018644Y-81787664D01*
X91592329Y-81872464D01*
X91505500Y-82076684D01*
X92075000Y-82646185D01*
X92644500Y-82076684D01*
X92644500Y-83154315D01*
X92613815Y-83185000D01*
X93183316Y-83754500D01*
X93387536Y-83667671D01*
X93472336Y-83128644D01*
X93472336Y-97323400D01*
X92644500Y-97323400D01*
X92644500Y-84293316D01*
X92075000Y-83723815D01*
X91536185Y-84262630D01*
X91536185Y-83185000D01*
X90966684Y-82615500D01*
X90762464Y-82702329D01*
X90677664Y-83241356D01*
X90762464Y-83667671D01*
X90966684Y-83754500D01*
X91536185Y-83185000D01*
X91536185Y-84262630D01*
X91505500Y-84293316D01*
X91592329Y-84497536D01*
X92131356Y-84582336D01*
X92557671Y-84497536D01*
X92644500Y-84293316D01*
X92644500Y-97323400D01*
X90191600Y-97323400D01*
X90191600Y-68126600D01*
X144123400Y-68126600D01*
X144123400Y-131898400D01*
G36*
X102633400Y-120528400D02*
X102287990Y-120528400D01*
X102287990Y-119045346D01*
X102287990Y-100545346D01*
X102161057Y-99816522D01*
X102126351Y-99732733D01*
X101874530Y-99581393D01*
X100955923Y-100500000D01*
X101874530Y-101418607D01*
X102126351Y-101267267D01*
X102287990Y-100545346D01*
X102287990Y-119045346D01*
X102161057Y-118316522D01*
X102126351Y-118232733D01*
X101874530Y-118081393D01*
X101311107Y-118644816D01*
X101311107Y-117517970D01*
X101311107Y-101982030D01*
X100392500Y-101063423D01*
X99829077Y-101626846D01*
X99829077Y-100500000D01*
X98910470Y-99581393D01*
X98658649Y-99732733D01*
X98497010Y-100454654D01*
X98623943Y-101183478D01*
X98658649Y-101267267D01*
X98910470Y-101418607D01*
X99829077Y-100500000D01*
X99829077Y-101626846D01*
X99473893Y-101982030D01*
X99625233Y-102233851D01*
X100347154Y-102395490D01*
X101075978Y-102268557D01*
X101159767Y-102233851D01*
X101311107Y-101982030D01*
X101311107Y-117517970D01*
X101159767Y-117266149D01*
X100437846Y-117104510D01*
X99709022Y-117231443D01*
X99625233Y-117266149D01*
X99473893Y-117517970D01*
X100392500Y-118436577D01*
X101311107Y-117517970D01*
X101311107Y-118644816D01*
X100955923Y-119000000D01*
X101874530Y-119918607D01*
X102126351Y-119767267D01*
X102287990Y-119045346D01*
X102287990Y-120528400D01*
X101283239Y-120528400D01*
X101311107Y-120482030D01*
X100392500Y-119563423D01*
X99829077Y-120126846D01*
X99829077Y-119000000D01*
X98910470Y-118081393D01*
X98658649Y-118232733D01*
X98497010Y-118954654D01*
X98623943Y-119683478D01*
X98658649Y-119767267D01*
X98910470Y-119918607D01*
X99829077Y-119000000D01*
X99829077Y-120126846D01*
X99473893Y-120482030D01*
X99501760Y-120528400D01*
X94667990Y-120528400D01*
X94667990Y-119045346D01*
X94667990Y-100545346D01*
X94541057Y-99816522D01*
X94506351Y-99732733D01*
X94254530Y-99581393D01*
X93335923Y-100500000D01*
X94254530Y-101418607D01*
X94506351Y-101267267D01*
X94667990Y-100545346D01*
X94667990Y-119045346D01*
X94541057Y-118316522D01*
X94506351Y-118232733D01*
X94254530Y-118081393D01*
X93691107Y-118644816D01*
X93691107Y-117517970D01*
X93691107Y-101982030D01*
X92772500Y-101063423D01*
X92209077Y-101626846D01*
X92209077Y-100500000D01*
X91290470Y-99581393D01*
X91038649Y-99732733D01*
X90877010Y-100454654D01*
X91003943Y-101183478D01*
X91038649Y-101267267D01*
X91290470Y-101418607D01*
X92209077Y-100500000D01*
X92209077Y-101626846D01*
X91853893Y-101982030D01*
X92005233Y-102233851D01*
X92727154Y-102395490D01*
X93455978Y-102268557D01*
X93539767Y-102233851D01*
X93691107Y-101982030D01*
X93691107Y-117517970D01*
X93539767Y-117266149D01*
X92817846Y-117104510D01*
X92089022Y-117231443D01*
X92005233Y-117266149D01*
X91853893Y-117517970D01*
X92772500Y-118436577D01*
X93691107Y-117517970D01*
X93691107Y-118644816D01*
X93335923Y-119000000D01*
X94254530Y-119918607D01*
X94506351Y-119767267D01*
X94667990Y-119045346D01*
X94667990Y-120528400D01*
X93663239Y-120528400D01*
X93691107Y-120482030D01*
X92772500Y-119563423D01*
X92209077Y-120126846D01*
X92209077Y-119000000D01*
X91290470Y-118081393D01*
X91038649Y-118232733D01*
X90877010Y-118954654D01*
X91003943Y-119683478D01*
X91038649Y-119767267D01*
X91290470Y-119918607D01*
X92209077Y-119000000D01*
X92209077Y-120126846D01*
X91853893Y-120482030D01*
X91881760Y-120528400D01*
X90271600Y-120528400D01*
X90271600Y-98661600D01*
X92490046Y-98661600D01*
X92089022Y-98731443D01*
X92005233Y-98766149D01*
X91853893Y-99017970D01*
X92772500Y-99936577D01*
X93691107Y-99017970D01*
X93539767Y-98766149D01*
X93072824Y-98661600D01*
X100110046Y-98661600D01*
X99709022Y-98731443D01*
X99625233Y-98766149D01*
X99473893Y-99017970D01*
X100392500Y-99936577D01*
X101311107Y-99017970D01*
X101159767Y-98766149D01*
X100692824Y-98661600D01*
X102633400Y-98661600D01*
X102633400Y-120528400D01*
X102633400Y-120528400D01*
G37*
X102633400Y-120528400D02*
X102287990Y-120528400D01*
X102287990Y-119045346D01*
X102287990Y-100545346D01*
X102161057Y-99816522D01*
X102126351Y-99732733D01*
X101874530Y-99581393D01*
X100955923Y-100500000D01*
X101874530Y-101418607D01*
X102126351Y-101267267D01*
X102287990Y-100545346D01*
X102287990Y-119045346D01*
X102161057Y-118316522D01*
X102126351Y-118232733D01*
X101874530Y-118081393D01*
X101311107Y-118644816D01*
X101311107Y-117517970D01*
X101311107Y-101982030D01*
X100392500Y-101063423D01*
X99829077Y-101626846D01*
X99829077Y-100500000D01*
X98910470Y-99581393D01*
X98658649Y-99732733D01*
X98497010Y-100454654D01*
X98623943Y-101183478D01*
X98658649Y-101267267D01*
X98910470Y-101418607D01*
X99829077Y-100500000D01*
X99829077Y-101626846D01*
X99473893Y-101982030D01*
X99625233Y-102233851D01*
X100347154Y-102395490D01*
X101075978Y-102268557D01*
X101159767Y-102233851D01*
X101311107Y-101982030D01*
X101311107Y-117517970D01*
X101159767Y-117266149D01*
X100437846Y-117104510D01*
X99709022Y-117231443D01*
X99625233Y-117266149D01*
X99473893Y-117517970D01*
X100392500Y-118436577D01*
X101311107Y-117517970D01*
X101311107Y-118644816D01*
X100955923Y-119000000D01*
X101874530Y-119918607D01*
X102126351Y-119767267D01*
X102287990Y-119045346D01*
X102287990Y-120528400D01*
X101283239Y-120528400D01*
X101311107Y-120482030D01*
X100392500Y-119563423D01*
X99829077Y-120126846D01*
X99829077Y-119000000D01*
X98910470Y-118081393D01*
X98658649Y-118232733D01*
X98497010Y-118954654D01*
X98623943Y-119683478D01*
X98658649Y-119767267D01*
X98910470Y-119918607D01*
X99829077Y-119000000D01*
X99829077Y-120126846D01*
X99473893Y-120482030D01*
X99501760Y-120528400D01*
X94667990Y-120528400D01*
X94667990Y-119045346D01*
X94667990Y-100545346D01*
X94541057Y-99816522D01*
X94506351Y-99732733D01*
X94254530Y-99581393D01*
X93335923Y-100500000D01*
X94254530Y-101418607D01*
X94506351Y-101267267D01*
X94667990Y-100545346D01*
X94667990Y-119045346D01*
X94541057Y-118316522D01*
X94506351Y-118232733D01*
X94254530Y-118081393D01*
X93691107Y-118644816D01*
X93691107Y-117517970D01*
X93691107Y-101982030D01*
X92772500Y-101063423D01*
X92209077Y-101626846D01*
X92209077Y-100500000D01*
X91290470Y-99581393D01*
X91038649Y-99732733D01*
X90877010Y-100454654D01*
X91003943Y-101183478D01*
X91038649Y-101267267D01*
X91290470Y-101418607D01*
X92209077Y-100500000D01*
X92209077Y-101626846D01*
X91853893Y-101982030D01*
X92005233Y-102233851D01*
X92727154Y-102395490D01*
X93455978Y-102268557D01*
X93539767Y-102233851D01*
X93691107Y-101982030D01*
X93691107Y-117517970D01*
X93539767Y-117266149D01*
X92817846Y-117104510D01*
X92089022Y-117231443D01*
X92005233Y-117266149D01*
X91853893Y-117517970D01*
X92772500Y-118436577D01*
X93691107Y-117517970D01*
X93691107Y-118644816D01*
X93335923Y-119000000D01*
X94254530Y-119918607D01*
X94506351Y-119767267D01*
X94667990Y-119045346D01*
X94667990Y-120528400D01*
X93663239Y-120528400D01*
X93691107Y-120482030D01*
X92772500Y-119563423D01*
X92209077Y-120126846D01*
X92209077Y-119000000D01*
X91290470Y-118081393D01*
X91038649Y-118232733D01*
X90877010Y-118954654D01*
X91003943Y-119683478D01*
X91038649Y-119767267D01*
X91290470Y-119918607D01*
X92209077Y-119000000D01*
X92209077Y-120126846D01*
X91853893Y-120482030D01*
X91881760Y-120528400D01*
X90271600Y-120528400D01*
X90271600Y-98661600D01*
X92490046Y-98661600D01*
X92089022Y-98731443D01*
X92005233Y-98766149D01*
X91853893Y-99017970D01*
X92772500Y-99936577D01*
X93691107Y-99017970D01*
X93539767Y-98766149D01*
X93072824Y-98661600D01*
X100110046Y-98661600D01*
X99709022Y-98731443D01*
X99625233Y-98766149D01*
X99473893Y-99017970D01*
X100392500Y-99936577D01*
X101311107Y-99017970D01*
X101159767Y-98766149D01*
X100692824Y-98661600D01*
X102633400Y-98661600D01*
X102633400Y-120528400D01*
M02*
