M48
;DRILL file {Pcbnew (2013-mar-13)-testing} date Sat 29 Mar 2014 06:27:12 PM CET
;FORMAT={-:-/ absolute / metric / decimal}
FMAT,2
METRIC,TZ
T1C0.500
T2C0.762
T3C0.813
T4C0.990
T5C1.016
T6C1.700
T7C3.000
%
G90
G05
M71
T1
X96.52Y-85.09
X102.87Y-91.44
X105.41Y-86.36
X109.22Y-91.948
X109.855Y-104.775
X111.76Y-92.71
X119.38Y-94.615
T2
X114.3Y-109.22
X119.38Y-109.22
T3
X104.775Y-78.105
X107.315Y-78.105
X112.395Y-78.105
X114.935Y-78.105
X120.015Y-78.105
X122.555Y-78.105
X127.635Y-78.105
X130.175Y-78.105
X135.255Y-88.9
X135.255Y-91.44
T4
X113.59Y-86.65
X113.59Y-91.15
X120.09Y-86.65
X120.09Y-91.15
T5
X92.075Y-78.105
X92.075Y-80.645
X92.075Y-83.185
X94.615Y-78.105
X94.615Y-80.645
X94.615Y-83.185
T6
X92.455Y-101.6
X92.455Y-116.84
X100.075Y-101.6
X100.075Y-116.84
X133.605Y-101.6
X133.605Y-116.84
X141.225Y-101.6
X141.225Y-116.84
T7
X87.407Y-75.65
X87.407Y-124.35
X146.907Y-75.65
X146.907Y-124.35
T0
M30
