G04 (created by PCBNEW (2013-mar-13)-testing) date Sat 29 Mar 2014 06:27:09 PM CET*
%MOIN*%
G04 Gerber Fmt 3.4, Leading zero omitted, Abs format*
%FSLAX34Y34*%
G01*
G70*
G90*
G04 APERTURE LIST*
%ADD10C,0.005906*%
%ADD11C,0.007874*%
%ADD12C,0.003937*%
%ADD13C,0.008000*%
%ADD14C,0.003000*%
%ADD15C,0.010000*%
%ADD16C,0.006000*%
G04 APERTURE END LIST*
G54D10*
G54D11*
X38500Y-31000D02*
X38000Y-30750D01*
X38500Y-30500D02*
X38500Y-31000D01*
X38000Y-30750D02*
X38500Y-30500D01*
G54D12*
X33106Y-28346D02*
X33106Y-50393D01*
X59143Y-28346D02*
X33106Y-28346D01*
X59143Y-50393D02*
X59143Y-28346D01*
X33106Y-50393D02*
X59143Y-50393D01*
G54D13*
X51314Y-46393D02*
X51314Y-45606D01*
X40685Y-46393D02*
X40685Y-45606D01*
X40291Y-46000D02*
X41078Y-46000D01*
X40685Y-39606D02*
X40685Y-40393D01*
X51314Y-39606D02*
X51314Y-40393D01*
X51708Y-40000D02*
X50921Y-40000D01*
X37750Y-33250D02*
X37750Y-30250D01*
X35750Y-30250D02*
X35750Y-33250D01*
X35750Y-33250D02*
X37750Y-33250D01*
X37750Y-30250D02*
X35750Y-30250D01*
X40630Y-31500D02*
X40630Y-30000D01*
G54D14*
X42357Y-30750D02*
G75*
G03X42357Y-30750I-707J0D01*
G74*
G01*
G54D15*
X40650Y-29998D02*
G75*
G02X40650Y-31500I999J-751D01*
G74*
G01*
G54D16*
X41650Y-30300D02*
G75*
G02X42100Y-30750I0J-450D01*
G74*
G01*
X41650Y-31200D02*
G75*
G02X41200Y-30750I0J450D01*
G74*
G01*
X41650Y-30100D02*
G75*
G02X42300Y-30750I0J-650D01*
G74*
G01*
X41650Y-31400D02*
G75*
G02X41000Y-30750I0J650D01*
G74*
G01*
X41650Y-29900D02*
G75*
G02X42500Y-30750I0J-850D01*
G74*
G01*
X41650Y-31600D02*
G75*
G02X40800Y-30750I0J850D01*
G74*
G01*
G54D13*
X43630Y-31500D02*
X43630Y-30000D01*
G54D14*
X45357Y-30750D02*
G75*
G03X45357Y-30750I-707J0D01*
G74*
G01*
G54D15*
X43650Y-29998D02*
G75*
G02X43650Y-31500I999J-751D01*
G74*
G01*
G54D16*
X44650Y-30300D02*
G75*
G02X45100Y-30750I0J-450D01*
G74*
G01*
X44650Y-31200D02*
G75*
G02X44200Y-30750I0J450D01*
G74*
G01*
X44650Y-30100D02*
G75*
G02X45300Y-30750I0J-650D01*
G74*
G01*
X44650Y-31400D02*
G75*
G02X44000Y-30750I0J650D01*
G74*
G01*
X44650Y-29900D02*
G75*
G02X45500Y-30750I0J-850D01*
G74*
G01*
X44650Y-31600D02*
G75*
G02X43800Y-30750I0J850D01*
G74*
G01*
G54D13*
X46630Y-31500D02*
X46630Y-30000D01*
G54D14*
X48357Y-30750D02*
G75*
G03X48357Y-30750I-707J0D01*
G74*
G01*
G54D15*
X46650Y-29998D02*
G75*
G02X46650Y-31500I999J-751D01*
G74*
G01*
G54D16*
X47650Y-30300D02*
G75*
G02X48100Y-30750I0J-450D01*
G74*
G01*
X47650Y-31200D02*
G75*
G02X47200Y-30750I0J450D01*
G74*
G01*
X47650Y-30100D02*
G75*
G02X48300Y-30750I0J-650D01*
G74*
G01*
X47650Y-31400D02*
G75*
G02X47000Y-30750I0J650D01*
G74*
G01*
X47650Y-29900D02*
G75*
G02X48500Y-30750I0J-850D01*
G74*
G01*
X47650Y-31600D02*
G75*
G02X46800Y-30750I0J850D01*
G74*
G01*
G54D13*
X49630Y-31500D02*
X49630Y-30000D01*
G54D14*
X51357Y-30750D02*
G75*
G03X51357Y-30750I-707J0D01*
G74*
G01*
G54D15*
X49650Y-29998D02*
G75*
G02X49650Y-31500I999J-751D01*
G74*
G01*
G54D16*
X50650Y-30300D02*
G75*
G02X51100Y-30750I0J-450D01*
G74*
G01*
X50650Y-31200D02*
G75*
G02X50200Y-30750I0J450D01*
G74*
G01*
X50650Y-30100D02*
G75*
G02X51300Y-30750I0J-650D01*
G74*
G01*
X50650Y-31400D02*
G75*
G02X50000Y-30750I0J650D01*
G74*
G01*
X50650Y-29900D02*
G75*
G02X51500Y-30750I0J-850D01*
G74*
G01*
X50650Y-31600D02*
G75*
G02X49800Y-30750I0J850D01*
G74*
G01*
G54D10*
X35403Y-31418D02*
X35063Y-31418D01*
X35387Y-31563D02*
X35403Y-31612D01*
X35403Y-31693D01*
X35387Y-31725D01*
X35371Y-31741D01*
X35339Y-31758D01*
X35306Y-31758D01*
X35274Y-31741D01*
X35258Y-31725D01*
X35241Y-31693D01*
X35225Y-31628D01*
X35209Y-31596D01*
X35193Y-31580D01*
X35160Y-31563D01*
X35128Y-31563D01*
X35096Y-31580D01*
X35080Y-31596D01*
X35063Y-31628D01*
X35063Y-31709D01*
X35080Y-31758D01*
X35403Y-31903D02*
X35063Y-31903D01*
X35063Y-32033D01*
X35080Y-32065D01*
X35096Y-32081D01*
X35128Y-32098D01*
X35177Y-32098D01*
X35209Y-32081D01*
X35225Y-32065D01*
X35241Y-32033D01*
X35241Y-31903D01*
X42000Y-29403D02*
X42000Y-29063D01*
X41920Y-29063D01*
X41871Y-29080D01*
X41839Y-29112D01*
X41822Y-29144D01*
X41806Y-29209D01*
X41806Y-29258D01*
X41822Y-29322D01*
X41839Y-29355D01*
X41871Y-29387D01*
X41920Y-29403D01*
X42000Y-29403D01*
X41515Y-29177D02*
X41515Y-29403D01*
X41596Y-29047D02*
X41677Y-29290D01*
X41466Y-29290D01*
X45000Y-29403D02*
X45000Y-29063D01*
X44920Y-29063D01*
X44871Y-29080D01*
X44839Y-29112D01*
X44822Y-29144D01*
X44806Y-29209D01*
X44806Y-29258D01*
X44822Y-29322D01*
X44839Y-29355D01*
X44871Y-29387D01*
X44920Y-29403D01*
X45000Y-29403D01*
X44693Y-29063D02*
X44482Y-29063D01*
X44596Y-29193D01*
X44547Y-29193D01*
X44515Y-29209D01*
X44499Y-29225D01*
X44482Y-29258D01*
X44482Y-29339D01*
X44499Y-29371D01*
X44515Y-29387D01*
X44547Y-29403D01*
X44644Y-29403D01*
X44677Y-29387D01*
X44693Y-29371D01*
X48000Y-29403D02*
X48000Y-29063D01*
X47920Y-29063D01*
X47871Y-29080D01*
X47839Y-29112D01*
X47822Y-29144D01*
X47806Y-29209D01*
X47806Y-29258D01*
X47822Y-29322D01*
X47839Y-29355D01*
X47871Y-29387D01*
X47920Y-29403D01*
X48000Y-29403D01*
X47677Y-29096D02*
X47660Y-29080D01*
X47628Y-29063D01*
X47547Y-29063D01*
X47515Y-29080D01*
X47499Y-29096D01*
X47482Y-29128D01*
X47482Y-29160D01*
X47499Y-29209D01*
X47693Y-29403D01*
X47482Y-29403D01*
X51000Y-29403D02*
X51000Y-29063D01*
X50920Y-29063D01*
X50871Y-29080D01*
X50839Y-29112D01*
X50822Y-29144D01*
X50806Y-29209D01*
X50806Y-29258D01*
X50822Y-29322D01*
X50839Y-29355D01*
X50871Y-29387D01*
X50920Y-29403D01*
X51000Y-29403D01*
X50482Y-29403D02*
X50677Y-29403D01*
X50580Y-29403D02*
X50580Y-29063D01*
X50612Y-29112D01*
X50644Y-29144D01*
X50677Y-29160D01*
M02*
