%FSLAX45Y45*%
G04 Gerber Fmt 4.5, Leading zero omitted, Abs format (unit mm)*
G04 Created by KiCad (PCBNEW (2014-09-18 BZR 5141)-product) date Mon 13 Oct 2014 02:33:30 PM EEST*
%MOMM*%
G01*
G04 APERTURE LIST*
%ADD10C,0.127000*%
%ADD11C,0.100000*%
%ADD12C,0.200000*%
%ADD13C,0.300000*%
G04 APERTURE END LIST*
D10*
D11*
X8909000Y-6700000D02*
X8909000Y-13300000D01*
X14522500Y-6700000D02*
X8909000Y-6700000D01*
X14522500Y-13300000D02*
X14522500Y-6700000D01*
X8909000Y-13300000D02*
X14522500Y-13300000D01*
D12*
X9100000Y-8500000D02*
X9150000Y-8550000D01*
X9150000Y-8500000D02*
X9100000Y-8550000D01*
X9225000Y-8575000D02*
X9275000Y-8625000D01*
X9275000Y-8575000D02*
X9225000Y-8625000D01*
X9400000Y-8625000D02*
X9450000Y-8675000D01*
X9450000Y-8625000D02*
X9400000Y-8675000D01*
X9627000Y-8484000D02*
X9677000Y-8534000D01*
X9677000Y-8484000D02*
X9627000Y-8534000D01*
X10304042Y-8520958D02*
X10354042Y-8570958D01*
X10354042Y-8520958D02*
X10304042Y-8570958D01*
X10450000Y-9375000D02*
X10500000Y-9425000D01*
X10500000Y-9375000D02*
X10450000Y-9425000D01*
X10775000Y-9750000D02*
X10825000Y-9800000D01*
X10825000Y-9750000D02*
X10775000Y-9800000D01*
X10775000Y-9900000D02*
X10825000Y-9950000D01*
X10825000Y-9900000D02*
X10775000Y-9950000D01*
X10897000Y-9169800D02*
X10947000Y-9219800D01*
X10947000Y-9169800D02*
X10897000Y-9219800D01*
X10960500Y-10452500D02*
X11010500Y-10502500D01*
X11010500Y-10452500D02*
X10960500Y-10502500D01*
X11100000Y-8650000D02*
X11150000Y-8700000D01*
X11150000Y-8650000D02*
X11100000Y-8700000D01*
X11151000Y-9246000D02*
X11201000Y-9296000D01*
X11201000Y-9246000D02*
X11151000Y-9296000D01*
X11300000Y-11725000D02*
X11350000Y-11775000D01*
X11350000Y-11725000D02*
X11300000Y-11775000D01*
X11450000Y-11725000D02*
X11500000Y-11775000D01*
X11500000Y-11725000D02*
X11450000Y-11775000D01*
X11825000Y-11725000D02*
X11875000Y-11775000D01*
X11875000Y-11725000D02*
X11825000Y-11775000D01*
X11913000Y-9436500D02*
X11963000Y-9486500D01*
X11963000Y-9436500D02*
X11913000Y-9486500D01*
X11975000Y-10725000D02*
X12025000Y-10775000D01*
X12025000Y-10725000D02*
X11975000Y-10775000D01*
X12000000Y-11725000D02*
X12050000Y-11775000D01*
X12050000Y-11725000D02*
X12000000Y-11775000D01*
X12050000Y-10400000D02*
X12100000Y-10450000D01*
X12100000Y-10400000D02*
X12050000Y-10450000D01*
X12050000Y-10575000D02*
X12100000Y-10625000D01*
X12100000Y-10575000D02*
X12050000Y-10625000D01*
X12625000Y-8650000D02*
X12675000Y-8700000D01*
X12675000Y-8650000D02*
X12625000Y-8700000D01*
X13425000Y-8875000D02*
X13475000Y-8925000D01*
X13475000Y-8875000D02*
X13425000Y-8925000D01*
X13575000Y-8875000D02*
X13625000Y-8925000D01*
X13625000Y-8875000D02*
X13575000Y-8925000D01*
X13725000Y-8875000D02*
X13775000Y-8925000D01*
X13775000Y-8875000D02*
X13725000Y-8925000D01*
X13875000Y-8875000D02*
X13925000Y-8925000D01*
X13925000Y-8875000D02*
X13875000Y-8925000D01*
X11468100Y-10922000D02*
G75*
G03X11468100Y-10922000I-38100J0D01*
G74*
G01*
X11976100Y-10922000D02*
G75*
G03X11976100Y-10922000I-38100J0D01*
G74*
G01*
X10477500Y-7769860D02*
X10477500Y-7851140D01*
X10436860Y-7810500D02*
X10518140Y-7810500D01*
X10731500Y-7769860D02*
X10731500Y-7851140D01*
X10690860Y-7810500D02*
X10772140Y-7810500D01*
X11239500Y-7769860D02*
X11239500Y-7851140D01*
X11198860Y-7810500D02*
X11280140Y-7810500D01*
X11493500Y-7769860D02*
X11493500Y-7851140D01*
X11452860Y-7810500D02*
X11534140Y-7810500D01*
X12001500Y-7769860D02*
X12001500Y-7851140D01*
X11960860Y-7810500D02*
X12042140Y-7810500D01*
X12255500Y-7769860D02*
X12255500Y-7851140D01*
X12214860Y-7810500D02*
X12296140Y-7810500D01*
X12763500Y-7769860D02*
X12763500Y-7851140D01*
X12722860Y-7810500D02*
X12804140Y-7810500D01*
X12875000Y-8682360D02*
X12875000Y-8763640D01*
X12834360Y-8723000D02*
X12915640Y-8723000D01*
X12875000Y-8936360D02*
X12875000Y-9017640D01*
X12834360Y-8977000D02*
X12915640Y-8977000D01*
X13017500Y-7769860D02*
X13017500Y-7851140D01*
X12976860Y-7810500D02*
X13058140Y-7810500D01*
X9192250Y-9965000D02*
X9362250Y-10135000D01*
X9362250Y-9965000D02*
X9192250Y-10135000D01*
X9362250Y-10050000D02*
G75*
G03X9362250Y-10050000I-85000J0D01*
G74*
G01*
X9192250Y-11815000D02*
X9362250Y-11985000D01*
X9362250Y-11815000D02*
X9192250Y-11985000D01*
X9362250Y-11900000D02*
G75*
G03X9362250Y-11900000I-85000J0D01*
G74*
G01*
X9954250Y-9965000D02*
X10124250Y-10135000D01*
X10124250Y-9965000D02*
X9954250Y-10135000D01*
X10124250Y-10050000D02*
G75*
G03X10124250Y-10050000I-85000J0D01*
G74*
G01*
X9954250Y-11815000D02*
X10124250Y-11985000D01*
X10124250Y-11815000D02*
X9954250Y-11985000D01*
X10124250Y-11900000D02*
G75*
G03X10124250Y-11900000I-85000J0D01*
G74*
G01*
X13307250Y-9965000D02*
X13477250Y-10135000D01*
X13477250Y-9965000D02*
X13307250Y-10135000D01*
X13477250Y-10050000D02*
G75*
G03X13477250Y-10050000I-85000J0D01*
G74*
G01*
X13307250Y-11815000D02*
X13477250Y-11985000D01*
X13477250Y-11815000D02*
X13307250Y-11985000D01*
X13477250Y-11900000D02*
G75*
G03X13477250Y-11900000I-85000J0D01*
G74*
G01*
X14069250Y-9965000D02*
X14239250Y-10135000D01*
X14239250Y-9965000D02*
X14069250Y-10135000D01*
X14239250Y-10050000D02*
G75*
G03X14239250Y-10050000I-85000J0D01*
G74*
G01*
X14069250Y-11815000D02*
X14239250Y-11985000D01*
X14239250Y-11815000D02*
X14069250Y-11985000D01*
X14239250Y-11900000D02*
G75*
G03X14239250Y-11900000I-85000J0D01*
G74*
G01*
X9130000Y-6875000D02*
X9430000Y-7175000D01*
X9430000Y-6875000D02*
X9130000Y-7175000D01*
X9280000Y-6875000D02*
X9280000Y-7175000D01*
X9130000Y-7025000D02*
X9430000Y-7025000D01*
X9130000Y-12825000D02*
X9430000Y-13125000D01*
X9430000Y-12825000D02*
X9130000Y-13125000D01*
X9280000Y-12825000D02*
X9280000Y-13125000D01*
X9130000Y-12975000D02*
X9430000Y-12975000D01*
X14000000Y-6875000D02*
X14300000Y-7175000D01*
X14300000Y-6875000D02*
X14000000Y-7175000D01*
X14150000Y-6875000D02*
X14150000Y-7175000D01*
X14000000Y-7025000D02*
X14300000Y-7025000D01*
X14000000Y-12825000D02*
X14300000Y-13125000D01*
X14300000Y-12825000D02*
X14000000Y-13125000D01*
X14150000Y-12825000D02*
X14150000Y-13125000D01*
X14000000Y-12975000D02*
X14300000Y-12975000D01*
D13*
X9175429Y-13770714D02*
X9175429Y-13470714D01*
X9246857Y-13470714D01*
X9289714Y-13485000D01*
X9318286Y-13513571D01*
X9332571Y-13542143D01*
X9346857Y-13599286D01*
X9346857Y-13642143D01*
X9332571Y-13699286D01*
X9318286Y-13727857D01*
X9289714Y-13756429D01*
X9246857Y-13770714D01*
X9175429Y-13770714D01*
X9475429Y-13770714D02*
X9475429Y-13570714D01*
X9475429Y-13627857D02*
X9489714Y-13599286D01*
X9504000Y-13585000D01*
X9532571Y-13570714D01*
X9561143Y-13570714D01*
X9661143Y-13770714D02*
X9661143Y-13570714D01*
X9661143Y-13470714D02*
X9646857Y-13485000D01*
X9661143Y-13499286D01*
X9675429Y-13485000D01*
X9661143Y-13470714D01*
X9661143Y-13499286D01*
X9846857Y-13770714D02*
X9818286Y-13756429D01*
X9804000Y-13727857D01*
X9804000Y-13470714D01*
X10004000Y-13770714D02*
X9975429Y-13756429D01*
X9961143Y-13727857D01*
X9961143Y-13470714D01*
X10346857Y-13770714D02*
X10346857Y-13470714D01*
X10446857Y-13685000D01*
X10546857Y-13470714D01*
X10546857Y-13770714D01*
X10818286Y-13770714D02*
X10818286Y-13613571D01*
X10804000Y-13585000D01*
X10775429Y-13570714D01*
X10718286Y-13570714D01*
X10689714Y-13585000D01*
X10818286Y-13756429D02*
X10789714Y-13770714D01*
X10718286Y-13770714D01*
X10689714Y-13756429D01*
X10675429Y-13727857D01*
X10675429Y-13699286D01*
X10689714Y-13670714D01*
X10718286Y-13656429D01*
X10789714Y-13656429D01*
X10818286Y-13642143D01*
X10961143Y-13570714D02*
X10961143Y-13870714D01*
X10961143Y-13585000D02*
X10989714Y-13570714D01*
X11046857Y-13570714D01*
X11075429Y-13585000D01*
X11089714Y-13599286D01*
X11104000Y-13627857D01*
X11104000Y-13713571D01*
X11089714Y-13742143D01*
X11075429Y-13756429D01*
X11046857Y-13770714D01*
X10989714Y-13770714D01*
X10961143Y-13756429D01*
X11232571Y-13742143D02*
X11246857Y-13756429D01*
X11232571Y-13770714D01*
X11218286Y-13756429D01*
X11232571Y-13742143D01*
X11232571Y-13770714D01*
X11232571Y-13585000D02*
X11246857Y-13599286D01*
X11232571Y-13613571D01*
X11218286Y-13599286D01*
X11232571Y-13585000D01*
X11232571Y-13613571D01*
X8854000Y-14240000D02*
X8904000Y-14290000D01*
X8904000Y-14240000D02*
X8854000Y-14290000D01*
X9232571Y-14100714D02*
X9261143Y-14100714D01*
X9289714Y-14115000D01*
X9304000Y-14129286D01*
X9318286Y-14157857D01*
X9332571Y-14215000D01*
X9332571Y-14286429D01*
X9318286Y-14343571D01*
X9304000Y-14372143D01*
X9289714Y-14386429D01*
X9261143Y-14400714D01*
X9232571Y-14400714D01*
X9204000Y-14386429D01*
X9189714Y-14372143D01*
X9175429Y-14343571D01*
X9161143Y-14286429D01*
X9161143Y-14215000D01*
X9175429Y-14157857D01*
X9189714Y-14129286D01*
X9204000Y-14115000D01*
X9232571Y-14100714D01*
X9461143Y-14372143D02*
X9475429Y-14386429D01*
X9461143Y-14400714D01*
X9446857Y-14386429D01*
X9461143Y-14372143D01*
X9461143Y-14400714D01*
X9746857Y-14100714D02*
X9604000Y-14100714D01*
X9589714Y-14243571D01*
X9604000Y-14229286D01*
X9632571Y-14215000D01*
X9704000Y-14215000D01*
X9732571Y-14229286D01*
X9746857Y-14243571D01*
X9761143Y-14272143D01*
X9761143Y-14343571D01*
X9746857Y-14372143D01*
X9732571Y-14386429D01*
X9704000Y-14400714D01*
X9632571Y-14400714D01*
X9604000Y-14386429D01*
X9589714Y-14372143D01*
X9946857Y-14100714D02*
X9975429Y-14100714D01*
X10004000Y-14115000D01*
X10018286Y-14129286D01*
X10032571Y-14157857D01*
X10046857Y-14215000D01*
X10046857Y-14286429D01*
X10032571Y-14343571D01*
X10018286Y-14372143D01*
X10004000Y-14386429D01*
X9975429Y-14400714D01*
X9946857Y-14400714D01*
X9918286Y-14386429D01*
X9904000Y-14372143D01*
X9889714Y-14343571D01*
X9875429Y-14286429D01*
X9875429Y-14215000D01*
X9889714Y-14157857D01*
X9904000Y-14129286D01*
X9918286Y-14115000D01*
X9946857Y-14100714D01*
X10175429Y-14400714D02*
X10175429Y-14200714D01*
X10175429Y-14229286D02*
X10189714Y-14215000D01*
X10218286Y-14200714D01*
X10261143Y-14200714D01*
X10289714Y-14215000D01*
X10304000Y-14243571D01*
X10304000Y-14400714D01*
X10304000Y-14243571D02*
X10318286Y-14215000D01*
X10346857Y-14200714D01*
X10389714Y-14200714D01*
X10418286Y-14215000D01*
X10432571Y-14243571D01*
X10432571Y-14400714D01*
X10575429Y-14400714D02*
X10575429Y-14200714D01*
X10575429Y-14229286D02*
X10589714Y-14215000D01*
X10618286Y-14200714D01*
X10661143Y-14200714D01*
X10689714Y-14215000D01*
X10704000Y-14243571D01*
X10704000Y-14400714D01*
X10704000Y-14243571D02*
X10718286Y-14215000D01*
X10746857Y-14200714D01*
X10789714Y-14200714D01*
X10818286Y-14215000D01*
X10832571Y-14243571D01*
X10832571Y-14400714D01*
X11418286Y-14086429D02*
X11161143Y-14472143D01*
X11804000Y-14100714D02*
X11832571Y-14100714D01*
X11861143Y-14115000D01*
X11875428Y-14129286D01*
X11889714Y-14157857D01*
X11904000Y-14215000D01*
X11904000Y-14286429D01*
X11889714Y-14343571D01*
X11875428Y-14372143D01*
X11861143Y-14386429D01*
X11832571Y-14400714D01*
X11804000Y-14400714D01*
X11775428Y-14386429D01*
X11761143Y-14372143D01*
X11746857Y-14343571D01*
X11732571Y-14286429D01*
X11732571Y-14215000D01*
X11746857Y-14157857D01*
X11761143Y-14129286D01*
X11775428Y-14115000D01*
X11804000Y-14100714D01*
X12032571Y-14372143D02*
X12046857Y-14386429D01*
X12032571Y-14400714D01*
X12018286Y-14386429D01*
X12032571Y-14372143D01*
X12032571Y-14400714D01*
X12232571Y-14100714D02*
X12261143Y-14100714D01*
X12289714Y-14115000D01*
X12304000Y-14129286D01*
X12318285Y-14157857D01*
X12332571Y-14215000D01*
X12332571Y-14286429D01*
X12318285Y-14343571D01*
X12304000Y-14372143D01*
X12289714Y-14386429D01*
X12261143Y-14400714D01*
X12232571Y-14400714D01*
X12204000Y-14386429D01*
X12189714Y-14372143D01*
X12175428Y-14343571D01*
X12161143Y-14286429D01*
X12161143Y-14215000D01*
X12175428Y-14157857D01*
X12189714Y-14129286D01*
X12204000Y-14115000D01*
X12232571Y-14100714D01*
X12446857Y-14129286D02*
X12461143Y-14115000D01*
X12489714Y-14100714D01*
X12561143Y-14100714D01*
X12589714Y-14115000D01*
X12604000Y-14129286D01*
X12618285Y-14157857D01*
X12618285Y-14186429D01*
X12604000Y-14229286D01*
X12432571Y-14400714D01*
X12618285Y-14400714D01*
X12804000Y-14100714D02*
X12832571Y-14100714D01*
X12861143Y-14115000D01*
X12875428Y-14129286D01*
X12889714Y-14157857D01*
X12904000Y-14215000D01*
X12904000Y-14286429D01*
X12889714Y-14343571D01*
X12875428Y-14372143D01*
X12861143Y-14386429D01*
X12832571Y-14400714D01*
X12804000Y-14400714D01*
X12775428Y-14386429D01*
X12761143Y-14372143D01*
X12746857Y-14343571D01*
X12732571Y-14286429D01*
X12732571Y-14215000D01*
X12746857Y-14157857D01*
X12761143Y-14129286D01*
X12775428Y-14115000D01*
X12804000Y-14100714D01*
X13018286Y-14100714D02*
X13018286Y-14157857D01*
X13132571Y-14100714D02*
X13132571Y-14157857D01*
X13575428Y-14515000D02*
X13561143Y-14500714D01*
X13532571Y-14457857D01*
X13518285Y-14429286D01*
X13504000Y-14386429D01*
X13489714Y-14315000D01*
X13489714Y-14257857D01*
X13504000Y-14186429D01*
X13518285Y-14143571D01*
X13532571Y-14115000D01*
X13561143Y-14072143D01*
X13575428Y-14057857D01*
X13675428Y-14129286D02*
X13689714Y-14115000D01*
X13718285Y-14100714D01*
X13789714Y-14100714D01*
X13818285Y-14115000D01*
X13832571Y-14129286D01*
X13846857Y-14157857D01*
X13846857Y-14186429D01*
X13832571Y-14229286D01*
X13661143Y-14400714D01*
X13846857Y-14400714D01*
X14118285Y-14100714D02*
X13975428Y-14100714D01*
X13961143Y-14243571D01*
X13975428Y-14229286D01*
X14004000Y-14215000D01*
X14075428Y-14215000D01*
X14104000Y-14229286D01*
X14118285Y-14243571D01*
X14132571Y-14272143D01*
X14132571Y-14343571D01*
X14118285Y-14372143D01*
X14104000Y-14386429D01*
X14075428Y-14400714D01*
X14004000Y-14400714D01*
X13975428Y-14386429D01*
X13961143Y-14372143D01*
X14489714Y-14400714D02*
X14489714Y-14100714D01*
X14618285Y-14400714D02*
X14618285Y-14243571D01*
X14604000Y-14215000D01*
X14575428Y-14200714D01*
X14532571Y-14200714D01*
X14504000Y-14215000D01*
X14489714Y-14229286D01*
X14804000Y-14400714D02*
X14775428Y-14386429D01*
X14761143Y-14372143D01*
X14746857Y-14343571D01*
X14746857Y-14257857D01*
X14761143Y-14229286D01*
X14775428Y-14215000D01*
X14804000Y-14200714D01*
X14846857Y-14200714D01*
X14875428Y-14215000D01*
X14889714Y-14229286D01*
X14904000Y-14257857D01*
X14904000Y-14343571D01*
X14889714Y-14372143D01*
X14875428Y-14386429D01*
X14846857Y-14400714D01*
X14804000Y-14400714D01*
X15075428Y-14400714D02*
X15046857Y-14386429D01*
X15032571Y-14357857D01*
X15032571Y-14100714D01*
X15304000Y-14386429D02*
X15275428Y-14400714D01*
X15218286Y-14400714D01*
X15189714Y-14386429D01*
X15175428Y-14357857D01*
X15175428Y-14243571D01*
X15189714Y-14215000D01*
X15218286Y-14200714D01*
X15275428Y-14200714D01*
X15304000Y-14215000D01*
X15318286Y-14243571D01*
X15318286Y-14272143D01*
X15175428Y-14300714D01*
X15432571Y-14386429D02*
X15461143Y-14400714D01*
X15518286Y-14400714D01*
X15546857Y-14386429D01*
X15561143Y-14357857D01*
X15561143Y-14343571D01*
X15546857Y-14315000D01*
X15518286Y-14300714D01*
X15475428Y-14300714D01*
X15446857Y-14286429D01*
X15432571Y-14257857D01*
X15432571Y-14243571D01*
X15446857Y-14215000D01*
X15475428Y-14200714D01*
X15518286Y-14200714D01*
X15546857Y-14215000D01*
X15661143Y-14515000D02*
X15675428Y-14500714D01*
X15704000Y-14457857D01*
X15718286Y-14429286D01*
X15732571Y-14386429D01*
X15746857Y-14315000D01*
X15746857Y-14257857D01*
X15732571Y-14186429D01*
X15718286Y-14143571D01*
X15704000Y-14115000D01*
X15675428Y-14072143D01*
X15661143Y-14057857D01*
D12*
X8904000Y-14661000D02*
G75*
G03X8904000Y-14661000I-38100J0D01*
G74*
G01*
D13*
X9232571Y-14496714D02*
X9261143Y-14496714D01*
X9289714Y-14511000D01*
X9304000Y-14525286D01*
X9318286Y-14553857D01*
X9332571Y-14611000D01*
X9332571Y-14682429D01*
X9318286Y-14739571D01*
X9304000Y-14768143D01*
X9289714Y-14782429D01*
X9261143Y-14796714D01*
X9232571Y-14796714D01*
X9204000Y-14782429D01*
X9189714Y-14768143D01*
X9175429Y-14739571D01*
X9161143Y-14682429D01*
X9161143Y-14611000D01*
X9175429Y-14553857D01*
X9189714Y-14525286D01*
X9204000Y-14511000D01*
X9232571Y-14496714D01*
X9461143Y-14768143D02*
X9475429Y-14782429D01*
X9461143Y-14796714D01*
X9446857Y-14782429D01*
X9461143Y-14768143D01*
X9461143Y-14796714D01*
X9575428Y-14496714D02*
X9775428Y-14496714D01*
X9646857Y-14796714D01*
X10018286Y-14496714D02*
X9961143Y-14496714D01*
X9932571Y-14511000D01*
X9918286Y-14525286D01*
X9889714Y-14568143D01*
X9875429Y-14625286D01*
X9875429Y-14739571D01*
X9889714Y-14768143D01*
X9904000Y-14782429D01*
X9932571Y-14796714D01*
X9989714Y-14796714D01*
X10018286Y-14782429D01*
X10032571Y-14768143D01*
X10046857Y-14739571D01*
X10046857Y-14668143D01*
X10032571Y-14639571D01*
X10018286Y-14625286D01*
X9989714Y-14611000D01*
X9932571Y-14611000D01*
X9904000Y-14625286D01*
X9889714Y-14639571D01*
X9875429Y-14668143D01*
X10175429Y-14796714D02*
X10175429Y-14596714D01*
X10175429Y-14625286D02*
X10189714Y-14611000D01*
X10218286Y-14596714D01*
X10261143Y-14596714D01*
X10289714Y-14611000D01*
X10304000Y-14639571D01*
X10304000Y-14796714D01*
X10304000Y-14639571D02*
X10318286Y-14611000D01*
X10346857Y-14596714D01*
X10389714Y-14596714D01*
X10418286Y-14611000D01*
X10432571Y-14639571D01*
X10432571Y-14796714D01*
X10575429Y-14796714D02*
X10575429Y-14596714D01*
X10575429Y-14625286D02*
X10589714Y-14611000D01*
X10618286Y-14596714D01*
X10661143Y-14596714D01*
X10689714Y-14611000D01*
X10704000Y-14639571D01*
X10704000Y-14796714D01*
X10704000Y-14639571D02*
X10718286Y-14611000D01*
X10746857Y-14596714D01*
X10789714Y-14596714D01*
X10818286Y-14611000D01*
X10832571Y-14639571D01*
X10832571Y-14796714D01*
X11418286Y-14482429D02*
X11161143Y-14868143D01*
X11804000Y-14496714D02*
X11832571Y-14496714D01*
X11861143Y-14511000D01*
X11875428Y-14525286D01*
X11889714Y-14553857D01*
X11904000Y-14611000D01*
X11904000Y-14682429D01*
X11889714Y-14739571D01*
X11875428Y-14768143D01*
X11861143Y-14782429D01*
X11832571Y-14796714D01*
X11804000Y-14796714D01*
X11775428Y-14782429D01*
X11761143Y-14768143D01*
X11746857Y-14739571D01*
X11732571Y-14682429D01*
X11732571Y-14611000D01*
X11746857Y-14553857D01*
X11761143Y-14525286D01*
X11775428Y-14511000D01*
X11804000Y-14496714D01*
X12032571Y-14768143D02*
X12046857Y-14782429D01*
X12032571Y-14796714D01*
X12018286Y-14782429D01*
X12032571Y-14768143D01*
X12032571Y-14796714D01*
X12232571Y-14496714D02*
X12261143Y-14496714D01*
X12289714Y-14511000D01*
X12304000Y-14525286D01*
X12318285Y-14553857D01*
X12332571Y-14611000D01*
X12332571Y-14682429D01*
X12318285Y-14739571D01*
X12304000Y-14768143D01*
X12289714Y-14782429D01*
X12261143Y-14796714D01*
X12232571Y-14796714D01*
X12204000Y-14782429D01*
X12189714Y-14768143D01*
X12175428Y-14739571D01*
X12161143Y-14682429D01*
X12161143Y-14611000D01*
X12175428Y-14553857D01*
X12189714Y-14525286D01*
X12204000Y-14511000D01*
X12232571Y-14496714D01*
X12432571Y-14496714D02*
X12618285Y-14496714D01*
X12518285Y-14611000D01*
X12561143Y-14611000D01*
X12589714Y-14625286D01*
X12604000Y-14639571D01*
X12618285Y-14668143D01*
X12618285Y-14739571D01*
X12604000Y-14768143D01*
X12589714Y-14782429D01*
X12561143Y-14796714D01*
X12475428Y-14796714D01*
X12446857Y-14782429D01*
X12432571Y-14768143D01*
X12804000Y-14496714D02*
X12832571Y-14496714D01*
X12861143Y-14511000D01*
X12875428Y-14525286D01*
X12889714Y-14553857D01*
X12904000Y-14611000D01*
X12904000Y-14682429D01*
X12889714Y-14739571D01*
X12875428Y-14768143D01*
X12861143Y-14782429D01*
X12832571Y-14796714D01*
X12804000Y-14796714D01*
X12775428Y-14782429D01*
X12761143Y-14768143D01*
X12746857Y-14739571D01*
X12732571Y-14682429D01*
X12732571Y-14611000D01*
X12746857Y-14553857D01*
X12761143Y-14525286D01*
X12775428Y-14511000D01*
X12804000Y-14496714D01*
X13018286Y-14496714D02*
X13018286Y-14553857D01*
X13132571Y-14496714D02*
X13132571Y-14553857D01*
X13575428Y-14911000D02*
X13561143Y-14896714D01*
X13532571Y-14853857D01*
X13518285Y-14825286D01*
X13504000Y-14782429D01*
X13489714Y-14711000D01*
X13489714Y-14653857D01*
X13504000Y-14582429D01*
X13518285Y-14539571D01*
X13532571Y-14511000D01*
X13561143Y-14468143D01*
X13575428Y-14453857D01*
X13675428Y-14525286D02*
X13689714Y-14511000D01*
X13718285Y-14496714D01*
X13789714Y-14496714D01*
X13818285Y-14511000D01*
X13832571Y-14525286D01*
X13846857Y-14553857D01*
X13846857Y-14582429D01*
X13832571Y-14625286D01*
X13661143Y-14796714D01*
X13846857Y-14796714D01*
X14204000Y-14796714D02*
X14204000Y-14496714D01*
X14332571Y-14796714D02*
X14332571Y-14639571D01*
X14318285Y-14611000D01*
X14289714Y-14596714D01*
X14246857Y-14596714D01*
X14218285Y-14611000D01*
X14204000Y-14625286D01*
X14518285Y-14796714D02*
X14489714Y-14782429D01*
X14475428Y-14768143D01*
X14461143Y-14739571D01*
X14461143Y-14653857D01*
X14475428Y-14625286D01*
X14489714Y-14611000D01*
X14518285Y-14596714D01*
X14561143Y-14596714D01*
X14589714Y-14611000D01*
X14604000Y-14625286D01*
X14618285Y-14653857D01*
X14618285Y-14739571D01*
X14604000Y-14768143D01*
X14589714Y-14782429D01*
X14561143Y-14796714D01*
X14518285Y-14796714D01*
X14789714Y-14796714D02*
X14761143Y-14782429D01*
X14746857Y-14753857D01*
X14746857Y-14496714D01*
X15018286Y-14782429D02*
X14989714Y-14796714D01*
X14932571Y-14796714D01*
X14904000Y-14782429D01*
X14889714Y-14753857D01*
X14889714Y-14639571D01*
X14904000Y-14611000D01*
X14932571Y-14596714D01*
X14989714Y-14596714D01*
X15018286Y-14611000D01*
X15032571Y-14639571D01*
X15032571Y-14668143D01*
X14889714Y-14696714D01*
X15146857Y-14782429D02*
X15175428Y-14796714D01*
X15232571Y-14796714D01*
X15261143Y-14782429D01*
X15275428Y-14753857D01*
X15275428Y-14739571D01*
X15261143Y-14711000D01*
X15232571Y-14696714D01*
X15189714Y-14696714D01*
X15161143Y-14682429D01*
X15146857Y-14653857D01*
X15146857Y-14639571D01*
X15161143Y-14611000D01*
X15189714Y-14596714D01*
X15232571Y-14596714D01*
X15261143Y-14611000D01*
X15375428Y-14911000D02*
X15389714Y-14896714D01*
X15418286Y-14853857D01*
X15432571Y-14825286D01*
X15446857Y-14782429D01*
X15461143Y-14711000D01*
X15461143Y-14653857D01*
X15446857Y-14582429D01*
X15432571Y-14539571D01*
X15418286Y-14511000D01*
X15389714Y-14468143D01*
X15375428Y-14453857D01*
X8863360Y-15016360D02*
X8863360Y-15097640D01*
X8822720Y-15057000D02*
X8904000Y-15057000D01*
X9232571Y-14892714D02*
X9261143Y-14892714D01*
X9289714Y-14907000D01*
X9304000Y-14921286D01*
X9318286Y-14949857D01*
X9332571Y-15007000D01*
X9332571Y-15078429D01*
X9318286Y-15135571D01*
X9304000Y-15164143D01*
X9289714Y-15178429D01*
X9261143Y-15192714D01*
X9232571Y-15192714D01*
X9204000Y-15178429D01*
X9189714Y-15164143D01*
X9175429Y-15135571D01*
X9161143Y-15078429D01*
X9161143Y-15007000D01*
X9175429Y-14949857D01*
X9189714Y-14921286D01*
X9204000Y-14907000D01*
X9232571Y-14892714D01*
X9461143Y-15164143D02*
X9475429Y-15178429D01*
X9461143Y-15192714D01*
X9446857Y-15178429D01*
X9461143Y-15164143D01*
X9461143Y-15192714D01*
X9646857Y-15021286D02*
X9618286Y-15007000D01*
X9604000Y-14992714D01*
X9589714Y-14964143D01*
X9589714Y-14949857D01*
X9604000Y-14921286D01*
X9618286Y-14907000D01*
X9646857Y-14892714D01*
X9704000Y-14892714D01*
X9732571Y-14907000D01*
X9746857Y-14921286D01*
X9761143Y-14949857D01*
X9761143Y-14964143D01*
X9746857Y-14992714D01*
X9732571Y-15007000D01*
X9704000Y-15021286D01*
X9646857Y-15021286D01*
X9618286Y-15035571D01*
X9604000Y-15049857D01*
X9589714Y-15078429D01*
X9589714Y-15135571D01*
X9604000Y-15164143D01*
X9618286Y-15178429D01*
X9646857Y-15192714D01*
X9704000Y-15192714D01*
X9732571Y-15178429D01*
X9746857Y-15164143D01*
X9761143Y-15135571D01*
X9761143Y-15078429D01*
X9746857Y-15049857D01*
X9732571Y-15035571D01*
X9704000Y-15021286D01*
X10046857Y-15192714D02*
X9875429Y-15192714D01*
X9961143Y-15192714D02*
X9961143Y-14892714D01*
X9932571Y-14935571D01*
X9904000Y-14964143D01*
X9875429Y-14978429D01*
X10175429Y-15192714D02*
X10175429Y-14992714D01*
X10175429Y-15021286D02*
X10189714Y-15007000D01*
X10218286Y-14992714D01*
X10261143Y-14992714D01*
X10289714Y-15007000D01*
X10304000Y-15035571D01*
X10304000Y-15192714D01*
X10304000Y-15035571D02*
X10318286Y-15007000D01*
X10346857Y-14992714D01*
X10389714Y-14992714D01*
X10418286Y-15007000D01*
X10432571Y-15035571D01*
X10432571Y-15192714D01*
X10575429Y-15192714D02*
X10575429Y-14992714D01*
X10575429Y-15021286D02*
X10589714Y-15007000D01*
X10618286Y-14992714D01*
X10661143Y-14992714D01*
X10689714Y-15007000D01*
X10704000Y-15035571D01*
X10704000Y-15192714D01*
X10704000Y-15035571D02*
X10718286Y-15007000D01*
X10746857Y-14992714D01*
X10789714Y-14992714D01*
X10818286Y-15007000D01*
X10832571Y-15035571D01*
X10832571Y-15192714D01*
X11418286Y-14878429D02*
X11161143Y-15264143D01*
X11804000Y-14892714D02*
X11832571Y-14892714D01*
X11861143Y-14907000D01*
X11875428Y-14921286D01*
X11889714Y-14949857D01*
X11904000Y-15007000D01*
X11904000Y-15078429D01*
X11889714Y-15135571D01*
X11875428Y-15164143D01*
X11861143Y-15178429D01*
X11832571Y-15192714D01*
X11804000Y-15192714D01*
X11775428Y-15178429D01*
X11761143Y-15164143D01*
X11746857Y-15135571D01*
X11732571Y-15078429D01*
X11732571Y-15007000D01*
X11746857Y-14949857D01*
X11761143Y-14921286D01*
X11775428Y-14907000D01*
X11804000Y-14892714D01*
X12032571Y-15164143D02*
X12046857Y-15178429D01*
X12032571Y-15192714D01*
X12018286Y-15178429D01*
X12032571Y-15164143D01*
X12032571Y-15192714D01*
X12232571Y-14892714D02*
X12261143Y-14892714D01*
X12289714Y-14907000D01*
X12304000Y-14921286D01*
X12318285Y-14949857D01*
X12332571Y-15007000D01*
X12332571Y-15078429D01*
X12318285Y-15135571D01*
X12304000Y-15164143D01*
X12289714Y-15178429D01*
X12261143Y-15192714D01*
X12232571Y-15192714D01*
X12204000Y-15178429D01*
X12189714Y-15164143D01*
X12175428Y-15135571D01*
X12161143Y-15078429D01*
X12161143Y-15007000D01*
X12175428Y-14949857D01*
X12189714Y-14921286D01*
X12204000Y-14907000D01*
X12232571Y-14892714D01*
X12432571Y-14892714D02*
X12618285Y-14892714D01*
X12518285Y-15007000D01*
X12561143Y-15007000D01*
X12589714Y-15021286D01*
X12604000Y-15035571D01*
X12618285Y-15064143D01*
X12618285Y-15135571D01*
X12604000Y-15164143D01*
X12589714Y-15178429D01*
X12561143Y-15192714D01*
X12475428Y-15192714D01*
X12446857Y-15178429D01*
X12432571Y-15164143D01*
X12732571Y-14921286D02*
X12746857Y-14907000D01*
X12775428Y-14892714D01*
X12846857Y-14892714D01*
X12875428Y-14907000D01*
X12889714Y-14921286D01*
X12904000Y-14949857D01*
X12904000Y-14978429D01*
X12889714Y-15021286D01*
X12718285Y-15192714D01*
X12904000Y-15192714D01*
X13018286Y-14892714D02*
X13018286Y-14949857D01*
X13132571Y-14892714D02*
X13132571Y-14949857D01*
X13575428Y-15307000D02*
X13561143Y-15292714D01*
X13532571Y-15249857D01*
X13518285Y-15221286D01*
X13504000Y-15178429D01*
X13489714Y-15107000D01*
X13489714Y-15049857D01*
X13504000Y-14978429D01*
X13518285Y-14935571D01*
X13532571Y-14907000D01*
X13561143Y-14864143D01*
X13575428Y-14849857D01*
X13846857Y-15192714D02*
X13675428Y-15192714D01*
X13761143Y-15192714D02*
X13761143Y-14892714D01*
X13732571Y-14935571D01*
X13704000Y-14964143D01*
X13675428Y-14978429D01*
X14032571Y-14892714D02*
X14061143Y-14892714D01*
X14089714Y-14907000D01*
X14104000Y-14921286D01*
X14118285Y-14949857D01*
X14132571Y-15007000D01*
X14132571Y-15078429D01*
X14118285Y-15135571D01*
X14104000Y-15164143D01*
X14089714Y-15178429D01*
X14061143Y-15192714D01*
X14032571Y-15192714D01*
X14004000Y-15178429D01*
X13989714Y-15164143D01*
X13975428Y-15135571D01*
X13961143Y-15078429D01*
X13961143Y-15007000D01*
X13975428Y-14949857D01*
X13989714Y-14921286D01*
X14004000Y-14907000D01*
X14032571Y-14892714D01*
X14489714Y-15192714D02*
X14489714Y-14892714D01*
X14618285Y-15192714D02*
X14618285Y-15035571D01*
X14604000Y-15007000D01*
X14575428Y-14992714D01*
X14532571Y-14992714D01*
X14504000Y-15007000D01*
X14489714Y-15021286D01*
X14804000Y-15192714D02*
X14775428Y-15178429D01*
X14761143Y-15164143D01*
X14746857Y-15135571D01*
X14746857Y-15049857D01*
X14761143Y-15021286D01*
X14775428Y-15007000D01*
X14804000Y-14992714D01*
X14846857Y-14992714D01*
X14875428Y-15007000D01*
X14889714Y-15021286D01*
X14904000Y-15049857D01*
X14904000Y-15135571D01*
X14889714Y-15164143D01*
X14875428Y-15178429D01*
X14846857Y-15192714D01*
X14804000Y-15192714D01*
X15075428Y-15192714D02*
X15046857Y-15178429D01*
X15032571Y-15149857D01*
X15032571Y-14892714D01*
X15304000Y-15178429D02*
X15275428Y-15192714D01*
X15218286Y-15192714D01*
X15189714Y-15178429D01*
X15175428Y-15149857D01*
X15175428Y-15035571D01*
X15189714Y-15007000D01*
X15218286Y-14992714D01*
X15275428Y-14992714D01*
X15304000Y-15007000D01*
X15318286Y-15035571D01*
X15318286Y-15064143D01*
X15175428Y-15092714D01*
X15432571Y-15178429D02*
X15461143Y-15192714D01*
X15518286Y-15192714D01*
X15546857Y-15178429D01*
X15561143Y-15149857D01*
X15561143Y-15135571D01*
X15546857Y-15107000D01*
X15518286Y-15092714D01*
X15475428Y-15092714D01*
X15446857Y-15078429D01*
X15432571Y-15049857D01*
X15432571Y-15035571D01*
X15446857Y-15007000D01*
X15475428Y-14992714D01*
X15518286Y-14992714D01*
X15546857Y-15007000D01*
X15661143Y-15307000D02*
X15675428Y-15292714D01*
X15704000Y-15249857D01*
X15718286Y-15221286D01*
X15732571Y-15178429D01*
X15746857Y-15107000D01*
X15746857Y-15049857D01*
X15732571Y-14978429D01*
X15718286Y-14935571D01*
X15704000Y-14907000D01*
X15675428Y-14864143D01*
X15661143Y-14849857D01*
D12*
D13*
X9232571Y-15288714D02*
X9261143Y-15288714D01*
X9289714Y-15303000D01*
X9304000Y-15317286D01*
X9318286Y-15345857D01*
X9332571Y-15403000D01*
X9332571Y-15474429D01*
X9318286Y-15531571D01*
X9304000Y-15560143D01*
X9289714Y-15574429D01*
X9261143Y-15588714D01*
X9232571Y-15588714D01*
X9204000Y-15574429D01*
X9189714Y-15560143D01*
X9175429Y-15531571D01*
X9161143Y-15474429D01*
X9161143Y-15403000D01*
X9175429Y-15345857D01*
X9189714Y-15317286D01*
X9204000Y-15303000D01*
X9232571Y-15288714D01*
X9461143Y-15560143D02*
X9475429Y-15574429D01*
X9461143Y-15588714D01*
X9446857Y-15574429D01*
X9461143Y-15560143D01*
X9461143Y-15588714D01*
X9618286Y-15588714D02*
X9675428Y-15588714D01*
X9704000Y-15574429D01*
X9718286Y-15560143D01*
X9746857Y-15517286D01*
X9761143Y-15460143D01*
X9761143Y-15345857D01*
X9746857Y-15317286D01*
X9732571Y-15303000D01*
X9704000Y-15288714D01*
X9646857Y-15288714D01*
X9618286Y-15303000D01*
X9604000Y-15317286D01*
X9589714Y-15345857D01*
X9589714Y-15417286D01*
X9604000Y-15445857D01*
X9618286Y-15460143D01*
X9646857Y-15474429D01*
X9704000Y-15474429D01*
X9732571Y-15460143D01*
X9746857Y-15445857D01*
X9761143Y-15417286D01*
X9904000Y-15588714D02*
X9961143Y-15588714D01*
X9989714Y-15574429D01*
X10004000Y-15560143D01*
X10032571Y-15517286D01*
X10046857Y-15460143D01*
X10046857Y-15345857D01*
X10032571Y-15317286D01*
X10018286Y-15303000D01*
X9989714Y-15288714D01*
X9932571Y-15288714D01*
X9904000Y-15303000D01*
X9889714Y-15317286D01*
X9875429Y-15345857D01*
X9875429Y-15417286D01*
X9889714Y-15445857D01*
X9904000Y-15460143D01*
X9932571Y-15474429D01*
X9989714Y-15474429D01*
X10018286Y-15460143D01*
X10032571Y-15445857D01*
X10046857Y-15417286D01*
X10175429Y-15588714D02*
X10175429Y-15388714D01*
X10175429Y-15417286D02*
X10189714Y-15403000D01*
X10218286Y-15388714D01*
X10261143Y-15388714D01*
X10289714Y-15403000D01*
X10304000Y-15431571D01*
X10304000Y-15588714D01*
X10304000Y-15431571D02*
X10318286Y-15403000D01*
X10346857Y-15388714D01*
X10389714Y-15388714D01*
X10418286Y-15403000D01*
X10432571Y-15431571D01*
X10432571Y-15588714D01*
X10575429Y-15588714D02*
X10575429Y-15388714D01*
X10575429Y-15417286D02*
X10589714Y-15403000D01*
X10618286Y-15388714D01*
X10661143Y-15388714D01*
X10689714Y-15403000D01*
X10704000Y-15431571D01*
X10704000Y-15588714D01*
X10704000Y-15431571D02*
X10718286Y-15403000D01*
X10746857Y-15388714D01*
X10789714Y-15388714D01*
X10818286Y-15403000D01*
X10832571Y-15431571D01*
X10832571Y-15588714D01*
X11418286Y-15274429D02*
X11161143Y-15660143D01*
X11804000Y-15288714D02*
X11832571Y-15288714D01*
X11861143Y-15303000D01*
X11875428Y-15317286D01*
X11889714Y-15345857D01*
X11904000Y-15403000D01*
X11904000Y-15474429D01*
X11889714Y-15531571D01*
X11875428Y-15560143D01*
X11861143Y-15574429D01*
X11832571Y-15588714D01*
X11804000Y-15588714D01*
X11775428Y-15574429D01*
X11761143Y-15560143D01*
X11746857Y-15531571D01*
X11732571Y-15474429D01*
X11732571Y-15403000D01*
X11746857Y-15345857D01*
X11761143Y-15317286D01*
X11775428Y-15303000D01*
X11804000Y-15288714D01*
X12032571Y-15560143D02*
X12046857Y-15574429D01*
X12032571Y-15588714D01*
X12018286Y-15574429D01*
X12032571Y-15560143D01*
X12032571Y-15588714D01*
X12232571Y-15288714D02*
X12261143Y-15288714D01*
X12289714Y-15303000D01*
X12304000Y-15317286D01*
X12318285Y-15345857D01*
X12332571Y-15403000D01*
X12332571Y-15474429D01*
X12318285Y-15531571D01*
X12304000Y-15560143D01*
X12289714Y-15574429D01*
X12261143Y-15588714D01*
X12232571Y-15588714D01*
X12204000Y-15574429D01*
X12189714Y-15560143D01*
X12175428Y-15531571D01*
X12161143Y-15474429D01*
X12161143Y-15403000D01*
X12175428Y-15345857D01*
X12189714Y-15317286D01*
X12204000Y-15303000D01*
X12232571Y-15288714D01*
X12432571Y-15288714D02*
X12618285Y-15288714D01*
X12518285Y-15403000D01*
X12561143Y-15403000D01*
X12589714Y-15417286D01*
X12604000Y-15431571D01*
X12618285Y-15460143D01*
X12618285Y-15531571D01*
X12604000Y-15560143D01*
X12589714Y-15574429D01*
X12561143Y-15588714D01*
X12475428Y-15588714D01*
X12446857Y-15574429D01*
X12432571Y-15560143D01*
X12761143Y-15588714D02*
X12818285Y-15588714D01*
X12846857Y-15574429D01*
X12861143Y-15560143D01*
X12889714Y-15517286D01*
X12904000Y-15460143D01*
X12904000Y-15345857D01*
X12889714Y-15317286D01*
X12875428Y-15303000D01*
X12846857Y-15288714D01*
X12789714Y-15288714D01*
X12761143Y-15303000D01*
X12746857Y-15317286D01*
X12732571Y-15345857D01*
X12732571Y-15417286D01*
X12746857Y-15445857D01*
X12761143Y-15460143D01*
X12789714Y-15474429D01*
X12846857Y-15474429D01*
X12875428Y-15460143D01*
X12889714Y-15445857D01*
X12904000Y-15417286D01*
X13018286Y-15288714D02*
X13018286Y-15345857D01*
X13132571Y-15288714D02*
X13132571Y-15345857D01*
X13575428Y-15703000D02*
X13561143Y-15688714D01*
X13532571Y-15645857D01*
X13518285Y-15617286D01*
X13504000Y-15574429D01*
X13489714Y-15503000D01*
X13489714Y-15445857D01*
X13504000Y-15374429D01*
X13518285Y-15331571D01*
X13532571Y-15303000D01*
X13561143Y-15260143D01*
X13575428Y-15245857D01*
X13818285Y-15388714D02*
X13818285Y-15588714D01*
X13746857Y-15274429D02*
X13675428Y-15488714D01*
X13861143Y-15488714D01*
X14204000Y-15588714D02*
X14204000Y-15288714D01*
X14332571Y-15588714D02*
X14332571Y-15431571D01*
X14318285Y-15403000D01*
X14289714Y-15388714D01*
X14246857Y-15388714D01*
X14218285Y-15403000D01*
X14204000Y-15417286D01*
X14518285Y-15588714D02*
X14489714Y-15574429D01*
X14475428Y-15560143D01*
X14461143Y-15531571D01*
X14461143Y-15445857D01*
X14475428Y-15417286D01*
X14489714Y-15403000D01*
X14518285Y-15388714D01*
X14561143Y-15388714D01*
X14589714Y-15403000D01*
X14604000Y-15417286D01*
X14618285Y-15445857D01*
X14618285Y-15531571D01*
X14604000Y-15560143D01*
X14589714Y-15574429D01*
X14561143Y-15588714D01*
X14518285Y-15588714D01*
X14789714Y-15588714D02*
X14761143Y-15574429D01*
X14746857Y-15545857D01*
X14746857Y-15288714D01*
X15018286Y-15574429D02*
X14989714Y-15588714D01*
X14932571Y-15588714D01*
X14904000Y-15574429D01*
X14889714Y-15545857D01*
X14889714Y-15431571D01*
X14904000Y-15403000D01*
X14932571Y-15388714D01*
X14989714Y-15388714D01*
X15018286Y-15403000D01*
X15032571Y-15431571D01*
X15032571Y-15460143D01*
X14889714Y-15488714D01*
X15146857Y-15574429D02*
X15175428Y-15588714D01*
X15232571Y-15588714D01*
X15261143Y-15574429D01*
X15275428Y-15545857D01*
X15275428Y-15531571D01*
X15261143Y-15503000D01*
X15232571Y-15488714D01*
X15189714Y-15488714D01*
X15161143Y-15474429D01*
X15146857Y-15445857D01*
X15146857Y-15431571D01*
X15161143Y-15403000D01*
X15189714Y-15388714D01*
X15232571Y-15388714D01*
X15261143Y-15403000D01*
X15375428Y-15703000D02*
X15389714Y-15688714D01*
X15418286Y-15645857D01*
X15432571Y-15617286D01*
X15446857Y-15574429D01*
X15461143Y-15503000D01*
X15461143Y-15445857D01*
X15446857Y-15374429D01*
X15432571Y-15331571D01*
X15418286Y-15303000D01*
X15389714Y-15260143D01*
X15375428Y-15245857D01*
D12*
D13*
X9332571Y-15984714D02*
X9161143Y-15984714D01*
X9246857Y-15984714D02*
X9246857Y-15684714D01*
X9218286Y-15727571D01*
X9189714Y-15756143D01*
X9161143Y-15770429D01*
X9461143Y-15956143D02*
X9475429Y-15970429D01*
X9461143Y-15984714D01*
X9446857Y-15970429D01*
X9461143Y-15956143D01*
X9461143Y-15984714D01*
X9661143Y-15684714D02*
X9689714Y-15684714D01*
X9718286Y-15699000D01*
X9732571Y-15713286D01*
X9746857Y-15741857D01*
X9761143Y-15799000D01*
X9761143Y-15870429D01*
X9746857Y-15927571D01*
X9732571Y-15956143D01*
X9718286Y-15970429D01*
X9689714Y-15984714D01*
X9661143Y-15984714D01*
X9632571Y-15970429D01*
X9618286Y-15956143D01*
X9604000Y-15927571D01*
X9589714Y-15870429D01*
X9589714Y-15799000D01*
X9604000Y-15741857D01*
X9618286Y-15713286D01*
X9632571Y-15699000D01*
X9661143Y-15684714D01*
X9875429Y-15713286D02*
X9889714Y-15699000D01*
X9918286Y-15684714D01*
X9989714Y-15684714D01*
X10018286Y-15699000D01*
X10032571Y-15713286D01*
X10046857Y-15741857D01*
X10046857Y-15770429D01*
X10032571Y-15813286D01*
X9861143Y-15984714D01*
X10046857Y-15984714D01*
X10175429Y-15984714D02*
X10175429Y-15784714D01*
X10175429Y-15813286D02*
X10189714Y-15799000D01*
X10218286Y-15784714D01*
X10261143Y-15784714D01*
X10289714Y-15799000D01*
X10304000Y-15827571D01*
X10304000Y-15984714D01*
X10304000Y-15827571D02*
X10318286Y-15799000D01*
X10346857Y-15784714D01*
X10389714Y-15784714D01*
X10418286Y-15799000D01*
X10432571Y-15827571D01*
X10432571Y-15984714D01*
X10575429Y-15984714D02*
X10575429Y-15784714D01*
X10575429Y-15813286D02*
X10589714Y-15799000D01*
X10618286Y-15784714D01*
X10661143Y-15784714D01*
X10689714Y-15799000D01*
X10704000Y-15827571D01*
X10704000Y-15984714D01*
X10704000Y-15827571D02*
X10718286Y-15799000D01*
X10746857Y-15784714D01*
X10789714Y-15784714D01*
X10818286Y-15799000D01*
X10832571Y-15827571D01*
X10832571Y-15984714D01*
X11418286Y-15670429D02*
X11161143Y-16056143D01*
X11804000Y-15684714D02*
X11832571Y-15684714D01*
X11861143Y-15699000D01*
X11875428Y-15713286D01*
X11889714Y-15741857D01*
X11904000Y-15799000D01*
X11904000Y-15870429D01*
X11889714Y-15927571D01*
X11875428Y-15956143D01*
X11861143Y-15970429D01*
X11832571Y-15984714D01*
X11804000Y-15984714D01*
X11775428Y-15970429D01*
X11761143Y-15956143D01*
X11746857Y-15927571D01*
X11732571Y-15870429D01*
X11732571Y-15799000D01*
X11746857Y-15741857D01*
X11761143Y-15713286D01*
X11775428Y-15699000D01*
X11804000Y-15684714D01*
X12032571Y-15956143D02*
X12046857Y-15970429D01*
X12032571Y-15984714D01*
X12018286Y-15970429D01*
X12032571Y-15956143D01*
X12032571Y-15984714D01*
X12232571Y-15684714D02*
X12261143Y-15684714D01*
X12289714Y-15699000D01*
X12304000Y-15713286D01*
X12318285Y-15741857D01*
X12332571Y-15799000D01*
X12332571Y-15870429D01*
X12318285Y-15927571D01*
X12304000Y-15956143D01*
X12289714Y-15970429D01*
X12261143Y-15984714D01*
X12232571Y-15984714D01*
X12204000Y-15970429D01*
X12189714Y-15956143D01*
X12175428Y-15927571D01*
X12161143Y-15870429D01*
X12161143Y-15799000D01*
X12175428Y-15741857D01*
X12189714Y-15713286D01*
X12204000Y-15699000D01*
X12232571Y-15684714D01*
X12589714Y-15784714D02*
X12589714Y-15984714D01*
X12518285Y-15670429D02*
X12446857Y-15884714D01*
X12632571Y-15884714D01*
X12804000Y-15684714D02*
X12832571Y-15684714D01*
X12861143Y-15699000D01*
X12875428Y-15713286D01*
X12889714Y-15741857D01*
X12904000Y-15799000D01*
X12904000Y-15870429D01*
X12889714Y-15927571D01*
X12875428Y-15956143D01*
X12861143Y-15970429D01*
X12832571Y-15984714D01*
X12804000Y-15984714D01*
X12775428Y-15970429D01*
X12761143Y-15956143D01*
X12746857Y-15927571D01*
X12732571Y-15870429D01*
X12732571Y-15799000D01*
X12746857Y-15741857D01*
X12761143Y-15713286D01*
X12775428Y-15699000D01*
X12804000Y-15684714D01*
X13018286Y-15684714D02*
X13018286Y-15741857D01*
X13132571Y-15684714D02*
X13132571Y-15741857D01*
X13575428Y-16099000D02*
X13561143Y-16084714D01*
X13532571Y-16041857D01*
X13518285Y-16013286D01*
X13504000Y-15970429D01*
X13489714Y-15899000D01*
X13489714Y-15841857D01*
X13504000Y-15770429D01*
X13518285Y-15727571D01*
X13532571Y-15699000D01*
X13561143Y-15656143D01*
X13575428Y-15641857D01*
X13818285Y-15684714D02*
X13761143Y-15684714D01*
X13732571Y-15699000D01*
X13718285Y-15713286D01*
X13689714Y-15756143D01*
X13675428Y-15813286D01*
X13675428Y-15927571D01*
X13689714Y-15956143D01*
X13704000Y-15970429D01*
X13732571Y-15984714D01*
X13789714Y-15984714D01*
X13818285Y-15970429D01*
X13832571Y-15956143D01*
X13846857Y-15927571D01*
X13846857Y-15856143D01*
X13832571Y-15827571D01*
X13818285Y-15813286D01*
X13789714Y-15799000D01*
X13732571Y-15799000D01*
X13704000Y-15813286D01*
X13689714Y-15827571D01*
X13675428Y-15856143D01*
X14204000Y-15984714D02*
X14204000Y-15684714D01*
X14332571Y-15984714D02*
X14332571Y-15827571D01*
X14318285Y-15799000D01*
X14289714Y-15784714D01*
X14246857Y-15784714D01*
X14218285Y-15799000D01*
X14204000Y-15813286D01*
X14518285Y-15984714D02*
X14489714Y-15970429D01*
X14475428Y-15956143D01*
X14461143Y-15927571D01*
X14461143Y-15841857D01*
X14475428Y-15813286D01*
X14489714Y-15799000D01*
X14518285Y-15784714D01*
X14561143Y-15784714D01*
X14589714Y-15799000D01*
X14604000Y-15813286D01*
X14618285Y-15841857D01*
X14618285Y-15927571D01*
X14604000Y-15956143D01*
X14589714Y-15970429D01*
X14561143Y-15984714D01*
X14518285Y-15984714D01*
X14789714Y-15984714D02*
X14761143Y-15970429D01*
X14746857Y-15941857D01*
X14746857Y-15684714D01*
X15018286Y-15970429D02*
X14989714Y-15984714D01*
X14932571Y-15984714D01*
X14904000Y-15970429D01*
X14889714Y-15941857D01*
X14889714Y-15827571D01*
X14904000Y-15799000D01*
X14932571Y-15784714D01*
X14989714Y-15784714D01*
X15018286Y-15799000D01*
X15032571Y-15827571D01*
X15032571Y-15856143D01*
X14889714Y-15884714D01*
X15146857Y-15970429D02*
X15175428Y-15984714D01*
X15232571Y-15984714D01*
X15261143Y-15970429D01*
X15275428Y-15941857D01*
X15275428Y-15927571D01*
X15261143Y-15899000D01*
X15232571Y-15884714D01*
X15189714Y-15884714D01*
X15161143Y-15870429D01*
X15146857Y-15841857D01*
X15146857Y-15827571D01*
X15161143Y-15799000D01*
X15189714Y-15784714D01*
X15232571Y-15784714D01*
X15261143Y-15799000D01*
X15375428Y-16099000D02*
X15389714Y-16084714D01*
X15418286Y-16041857D01*
X15432571Y-16013286D01*
X15446857Y-15970429D01*
X15461143Y-15899000D01*
X15461143Y-15841857D01*
X15446857Y-15770429D01*
X15432571Y-15727571D01*
X15418286Y-15699000D01*
X15389714Y-15656143D01*
X15375428Y-15641857D01*
X8734000Y-16160000D02*
X8904000Y-16330000D01*
X8904000Y-16160000D02*
X8734000Y-16330000D01*
D12*
X8904000Y-16245000D02*
G75*
G03X8904000Y-16245000I-85000J0D01*
G74*
G01*
D13*
X9332571Y-16380714D02*
X9161143Y-16380714D01*
X9246857Y-16380714D02*
X9246857Y-16080714D01*
X9218286Y-16123571D01*
X9189714Y-16152143D01*
X9161143Y-16166429D01*
X9461143Y-16352143D02*
X9475429Y-16366429D01*
X9461143Y-16380714D01*
X9446857Y-16366429D01*
X9461143Y-16352143D01*
X9461143Y-16380714D01*
X9575428Y-16080714D02*
X9775428Y-16080714D01*
X9646857Y-16380714D01*
X9946857Y-16080714D02*
X9975429Y-16080714D01*
X10004000Y-16095000D01*
X10018286Y-16109286D01*
X10032571Y-16137857D01*
X10046857Y-16195000D01*
X10046857Y-16266429D01*
X10032571Y-16323571D01*
X10018286Y-16352143D01*
X10004000Y-16366429D01*
X9975429Y-16380714D01*
X9946857Y-16380714D01*
X9918286Y-16366429D01*
X9904000Y-16352143D01*
X9889714Y-16323571D01*
X9875429Y-16266429D01*
X9875429Y-16195000D01*
X9889714Y-16137857D01*
X9904000Y-16109286D01*
X9918286Y-16095000D01*
X9946857Y-16080714D01*
X10175429Y-16380714D02*
X10175429Y-16180714D01*
X10175429Y-16209286D02*
X10189714Y-16195000D01*
X10218286Y-16180714D01*
X10261143Y-16180714D01*
X10289714Y-16195000D01*
X10304000Y-16223571D01*
X10304000Y-16380714D01*
X10304000Y-16223571D02*
X10318286Y-16195000D01*
X10346857Y-16180714D01*
X10389714Y-16180714D01*
X10418286Y-16195000D01*
X10432571Y-16223571D01*
X10432571Y-16380714D01*
X10575429Y-16380714D02*
X10575429Y-16180714D01*
X10575429Y-16209286D02*
X10589714Y-16195000D01*
X10618286Y-16180714D01*
X10661143Y-16180714D01*
X10689714Y-16195000D01*
X10704000Y-16223571D01*
X10704000Y-16380714D01*
X10704000Y-16223571D02*
X10718286Y-16195000D01*
X10746857Y-16180714D01*
X10789714Y-16180714D01*
X10818286Y-16195000D01*
X10832571Y-16223571D01*
X10832571Y-16380714D01*
X11418286Y-16066429D02*
X11161143Y-16452143D01*
X11804000Y-16080714D02*
X11832571Y-16080714D01*
X11861143Y-16095000D01*
X11875428Y-16109286D01*
X11889714Y-16137857D01*
X11904000Y-16195000D01*
X11904000Y-16266429D01*
X11889714Y-16323571D01*
X11875428Y-16352143D01*
X11861143Y-16366429D01*
X11832571Y-16380714D01*
X11804000Y-16380714D01*
X11775428Y-16366429D01*
X11761143Y-16352143D01*
X11746857Y-16323571D01*
X11732571Y-16266429D01*
X11732571Y-16195000D01*
X11746857Y-16137857D01*
X11761143Y-16109286D01*
X11775428Y-16095000D01*
X11804000Y-16080714D01*
X12032571Y-16352143D02*
X12046857Y-16366429D01*
X12032571Y-16380714D01*
X12018286Y-16366429D01*
X12032571Y-16352143D01*
X12032571Y-16380714D01*
X12232571Y-16080714D02*
X12261143Y-16080714D01*
X12289714Y-16095000D01*
X12304000Y-16109286D01*
X12318285Y-16137857D01*
X12332571Y-16195000D01*
X12332571Y-16266429D01*
X12318285Y-16323571D01*
X12304000Y-16352143D01*
X12289714Y-16366429D01*
X12261143Y-16380714D01*
X12232571Y-16380714D01*
X12204000Y-16366429D01*
X12189714Y-16352143D01*
X12175428Y-16323571D01*
X12161143Y-16266429D01*
X12161143Y-16195000D01*
X12175428Y-16137857D01*
X12189714Y-16109286D01*
X12204000Y-16095000D01*
X12232571Y-16080714D01*
X12589714Y-16080714D02*
X12532571Y-16080714D01*
X12504000Y-16095000D01*
X12489714Y-16109286D01*
X12461143Y-16152143D01*
X12446857Y-16209286D01*
X12446857Y-16323571D01*
X12461143Y-16352143D01*
X12475428Y-16366429D01*
X12504000Y-16380714D01*
X12561143Y-16380714D01*
X12589714Y-16366429D01*
X12604000Y-16352143D01*
X12618285Y-16323571D01*
X12618285Y-16252143D01*
X12604000Y-16223571D01*
X12589714Y-16209286D01*
X12561143Y-16195000D01*
X12504000Y-16195000D01*
X12475428Y-16209286D01*
X12461143Y-16223571D01*
X12446857Y-16252143D01*
X12718285Y-16080714D02*
X12918285Y-16080714D01*
X12789714Y-16380714D01*
X13018286Y-16080714D02*
X13018286Y-16137857D01*
X13132571Y-16080714D02*
X13132571Y-16137857D01*
X13575428Y-16495000D02*
X13561143Y-16480714D01*
X13532571Y-16437857D01*
X13518285Y-16409286D01*
X13504000Y-16366429D01*
X13489714Y-16295000D01*
X13489714Y-16237857D01*
X13504000Y-16166429D01*
X13518285Y-16123571D01*
X13532571Y-16095000D01*
X13561143Y-16052143D01*
X13575428Y-16037857D01*
X13732571Y-16209286D02*
X13704000Y-16195000D01*
X13689714Y-16180714D01*
X13675428Y-16152143D01*
X13675428Y-16137857D01*
X13689714Y-16109286D01*
X13704000Y-16095000D01*
X13732571Y-16080714D01*
X13789714Y-16080714D01*
X13818285Y-16095000D01*
X13832571Y-16109286D01*
X13846857Y-16137857D01*
X13846857Y-16152143D01*
X13832571Y-16180714D01*
X13818285Y-16195000D01*
X13789714Y-16209286D01*
X13732571Y-16209286D01*
X13704000Y-16223571D01*
X13689714Y-16237857D01*
X13675428Y-16266429D01*
X13675428Y-16323571D01*
X13689714Y-16352143D01*
X13704000Y-16366429D01*
X13732571Y-16380714D01*
X13789714Y-16380714D01*
X13818285Y-16366429D01*
X13832571Y-16352143D01*
X13846857Y-16323571D01*
X13846857Y-16266429D01*
X13832571Y-16237857D01*
X13818285Y-16223571D01*
X13789714Y-16209286D01*
X14204000Y-16380714D02*
X14204000Y-16080714D01*
X14332571Y-16380714D02*
X14332571Y-16223571D01*
X14318285Y-16195000D01*
X14289714Y-16180714D01*
X14246857Y-16180714D01*
X14218285Y-16195000D01*
X14204000Y-16209286D01*
X14518285Y-16380714D02*
X14489714Y-16366429D01*
X14475428Y-16352143D01*
X14461143Y-16323571D01*
X14461143Y-16237857D01*
X14475428Y-16209286D01*
X14489714Y-16195000D01*
X14518285Y-16180714D01*
X14561143Y-16180714D01*
X14589714Y-16195000D01*
X14604000Y-16209286D01*
X14618285Y-16237857D01*
X14618285Y-16323571D01*
X14604000Y-16352143D01*
X14589714Y-16366429D01*
X14561143Y-16380714D01*
X14518285Y-16380714D01*
X14789714Y-16380714D02*
X14761143Y-16366429D01*
X14746857Y-16337857D01*
X14746857Y-16080714D01*
X15018286Y-16366429D02*
X14989714Y-16380714D01*
X14932571Y-16380714D01*
X14904000Y-16366429D01*
X14889714Y-16337857D01*
X14889714Y-16223571D01*
X14904000Y-16195000D01*
X14932571Y-16180714D01*
X14989714Y-16180714D01*
X15018286Y-16195000D01*
X15032571Y-16223571D01*
X15032571Y-16252143D01*
X14889714Y-16280714D01*
X15146857Y-16366429D02*
X15175428Y-16380714D01*
X15232571Y-16380714D01*
X15261143Y-16366429D01*
X15275428Y-16337857D01*
X15275428Y-16323571D01*
X15261143Y-16295000D01*
X15232571Y-16280714D01*
X15189714Y-16280714D01*
X15161143Y-16266429D01*
X15146857Y-16237857D01*
X15146857Y-16223571D01*
X15161143Y-16195000D01*
X15189714Y-16180714D01*
X15232571Y-16180714D01*
X15261143Y-16195000D01*
X15375428Y-16495000D02*
X15389714Y-16480714D01*
X15418286Y-16437857D01*
X15432571Y-16409286D01*
X15446857Y-16366429D01*
X15461143Y-16295000D01*
X15461143Y-16237857D01*
X15446857Y-16166429D01*
X15432571Y-16123571D01*
X15418286Y-16095000D01*
X15389714Y-16052143D01*
X15375428Y-16037857D01*
X8604000Y-16491000D02*
X8904000Y-16791000D01*
X8904000Y-16491000D02*
X8604000Y-16791000D01*
X8754000Y-16491000D02*
X8754000Y-16791000D01*
X8604000Y-16641000D02*
X8904000Y-16641000D01*
X9146857Y-16476714D02*
X9332571Y-16476714D01*
X9232571Y-16591000D01*
X9275429Y-16591000D01*
X9304000Y-16605286D01*
X9318286Y-16619571D01*
X9332571Y-16648143D01*
X9332571Y-16719571D01*
X9318286Y-16748143D01*
X9304000Y-16762429D01*
X9275429Y-16776714D01*
X9189714Y-16776714D01*
X9161143Y-16762429D01*
X9146857Y-16748143D01*
X9461143Y-16748143D02*
X9475429Y-16762429D01*
X9461143Y-16776714D01*
X9446857Y-16762429D01*
X9461143Y-16748143D01*
X9461143Y-16776714D01*
X9661143Y-16476714D02*
X9689714Y-16476714D01*
X9718286Y-16491000D01*
X9732571Y-16505286D01*
X9746857Y-16533857D01*
X9761143Y-16591000D01*
X9761143Y-16662429D01*
X9746857Y-16719571D01*
X9732571Y-16748143D01*
X9718286Y-16762429D01*
X9689714Y-16776714D01*
X9661143Y-16776714D01*
X9632571Y-16762429D01*
X9618286Y-16748143D01*
X9604000Y-16719571D01*
X9589714Y-16662429D01*
X9589714Y-16591000D01*
X9604000Y-16533857D01*
X9618286Y-16505286D01*
X9632571Y-16491000D01*
X9661143Y-16476714D01*
X9946857Y-16476714D02*
X9975429Y-16476714D01*
X10004000Y-16491000D01*
X10018286Y-16505286D01*
X10032571Y-16533857D01*
X10046857Y-16591000D01*
X10046857Y-16662429D01*
X10032571Y-16719571D01*
X10018286Y-16748143D01*
X10004000Y-16762429D01*
X9975429Y-16776714D01*
X9946857Y-16776714D01*
X9918286Y-16762429D01*
X9904000Y-16748143D01*
X9889714Y-16719571D01*
X9875429Y-16662429D01*
X9875429Y-16591000D01*
X9889714Y-16533857D01*
X9904000Y-16505286D01*
X9918286Y-16491000D01*
X9946857Y-16476714D01*
X10175429Y-16776714D02*
X10175429Y-16576714D01*
X10175429Y-16605286D02*
X10189714Y-16591000D01*
X10218286Y-16576714D01*
X10261143Y-16576714D01*
X10289714Y-16591000D01*
X10304000Y-16619571D01*
X10304000Y-16776714D01*
X10304000Y-16619571D02*
X10318286Y-16591000D01*
X10346857Y-16576714D01*
X10389714Y-16576714D01*
X10418286Y-16591000D01*
X10432571Y-16619571D01*
X10432571Y-16776714D01*
X10575429Y-16776714D02*
X10575429Y-16576714D01*
X10575429Y-16605286D02*
X10589714Y-16591000D01*
X10618286Y-16576714D01*
X10661143Y-16576714D01*
X10689714Y-16591000D01*
X10704000Y-16619571D01*
X10704000Y-16776714D01*
X10704000Y-16619571D02*
X10718286Y-16591000D01*
X10746857Y-16576714D01*
X10789714Y-16576714D01*
X10818286Y-16591000D01*
X10832571Y-16619571D01*
X10832571Y-16776714D01*
X11418286Y-16462429D02*
X11161143Y-16848143D01*
X11804000Y-16476714D02*
X11832571Y-16476714D01*
X11861143Y-16491000D01*
X11875428Y-16505286D01*
X11889714Y-16533857D01*
X11904000Y-16591000D01*
X11904000Y-16662429D01*
X11889714Y-16719571D01*
X11875428Y-16748143D01*
X11861143Y-16762429D01*
X11832571Y-16776714D01*
X11804000Y-16776714D01*
X11775428Y-16762429D01*
X11761143Y-16748143D01*
X11746857Y-16719571D01*
X11732571Y-16662429D01*
X11732571Y-16591000D01*
X11746857Y-16533857D01*
X11761143Y-16505286D01*
X11775428Y-16491000D01*
X11804000Y-16476714D01*
X12032571Y-16748143D02*
X12046857Y-16762429D01*
X12032571Y-16776714D01*
X12018286Y-16762429D01*
X12032571Y-16748143D01*
X12032571Y-16776714D01*
X12332571Y-16776714D02*
X12161143Y-16776714D01*
X12246857Y-16776714D02*
X12246857Y-16476714D01*
X12218285Y-16519571D01*
X12189714Y-16548143D01*
X12161143Y-16562429D01*
X12618285Y-16776714D02*
X12446857Y-16776714D01*
X12532571Y-16776714D02*
X12532571Y-16476714D01*
X12504000Y-16519571D01*
X12475428Y-16548143D01*
X12446857Y-16562429D01*
X12789714Y-16605286D02*
X12761143Y-16591000D01*
X12746857Y-16576714D01*
X12732571Y-16548143D01*
X12732571Y-16533857D01*
X12746857Y-16505286D01*
X12761143Y-16491000D01*
X12789714Y-16476714D01*
X12846857Y-16476714D01*
X12875428Y-16491000D01*
X12889714Y-16505286D01*
X12904000Y-16533857D01*
X12904000Y-16548143D01*
X12889714Y-16576714D01*
X12875428Y-16591000D01*
X12846857Y-16605286D01*
X12789714Y-16605286D01*
X12761143Y-16619571D01*
X12746857Y-16633857D01*
X12732571Y-16662429D01*
X12732571Y-16719571D01*
X12746857Y-16748143D01*
X12761143Y-16762429D01*
X12789714Y-16776714D01*
X12846857Y-16776714D01*
X12875428Y-16762429D01*
X12889714Y-16748143D01*
X12904000Y-16719571D01*
X12904000Y-16662429D01*
X12889714Y-16633857D01*
X12875428Y-16619571D01*
X12846857Y-16605286D01*
X13018286Y-16476714D02*
X13018286Y-16533857D01*
X13132571Y-16476714D02*
X13132571Y-16533857D01*
X13575428Y-16891000D02*
X13561143Y-16876714D01*
X13532571Y-16833857D01*
X13518285Y-16805286D01*
X13504000Y-16762429D01*
X13489714Y-16691000D01*
X13489714Y-16633857D01*
X13504000Y-16562429D01*
X13518285Y-16519571D01*
X13532571Y-16491000D01*
X13561143Y-16448143D01*
X13575428Y-16433857D01*
X13818285Y-16576714D02*
X13818285Y-16776714D01*
X13746857Y-16462429D02*
X13675428Y-16676714D01*
X13861143Y-16676714D01*
X14204000Y-16776714D02*
X14204000Y-16476714D01*
X14332571Y-16776714D02*
X14332571Y-16619571D01*
X14318285Y-16591000D01*
X14289714Y-16576714D01*
X14246857Y-16576714D01*
X14218285Y-16591000D01*
X14204000Y-16605286D01*
X14518285Y-16776714D02*
X14489714Y-16762429D01*
X14475428Y-16748143D01*
X14461143Y-16719571D01*
X14461143Y-16633857D01*
X14475428Y-16605286D01*
X14489714Y-16591000D01*
X14518285Y-16576714D01*
X14561143Y-16576714D01*
X14589714Y-16591000D01*
X14604000Y-16605286D01*
X14618285Y-16633857D01*
X14618285Y-16719571D01*
X14604000Y-16748143D01*
X14589714Y-16762429D01*
X14561143Y-16776714D01*
X14518285Y-16776714D01*
X14789714Y-16776714D02*
X14761143Y-16762429D01*
X14746857Y-16733857D01*
X14746857Y-16476714D01*
X15018286Y-16762429D02*
X14989714Y-16776714D01*
X14932571Y-16776714D01*
X14904000Y-16762429D01*
X14889714Y-16733857D01*
X14889714Y-16619571D01*
X14904000Y-16591000D01*
X14932571Y-16576714D01*
X14989714Y-16576714D01*
X15018286Y-16591000D01*
X15032571Y-16619571D01*
X15032571Y-16648143D01*
X14889714Y-16676714D01*
X15146857Y-16762429D02*
X15175428Y-16776714D01*
X15232571Y-16776714D01*
X15261143Y-16762429D01*
X15275428Y-16733857D01*
X15275428Y-16719571D01*
X15261143Y-16691000D01*
X15232571Y-16676714D01*
X15189714Y-16676714D01*
X15161143Y-16662429D01*
X15146857Y-16633857D01*
X15146857Y-16619571D01*
X15161143Y-16591000D01*
X15189714Y-16576714D01*
X15232571Y-16576714D01*
X15261143Y-16591000D01*
X15375428Y-16891000D02*
X15389714Y-16876714D01*
X15418286Y-16833857D01*
X15432571Y-16805286D01*
X15446857Y-16762429D01*
X15461143Y-16691000D01*
X15461143Y-16633857D01*
X15446857Y-16562429D01*
X15432571Y-16519571D01*
X15418286Y-16491000D01*
X15389714Y-16448143D01*
X15375428Y-16433857D01*
M02*
