G04 (created by PCBNEW (2013-mar-13)-testing) date Sat 29 Mar 2014 06:27:09 PM CET*
%MOIN*%
G04 Gerber Fmt 3.4, Leading zero omitted, Abs format*
%FSLAX34Y34*%
G01*
G70*
G90*
G04 APERTURE LIST*
%ADD10C,0.005906*%
%ADD11C,0.003937*%
%ADD12C,0.070866*%
%ADD13C,0.122047*%
%ADD14C,0.098425*%
%ADD15R,0.060000X0.060000*%
%ADD16C,0.060000*%
%ADD17C,0.066000*%
%ADD18C,0.056000*%
G04 APERTURE END LIST*
G54D10*
G54D11*
X33106Y-28346D02*
X33106Y-50393D01*
X59143Y-28346D02*
X33106Y-28346D01*
X59143Y-50393D02*
X59143Y-28346D01*
X33106Y-50393D02*
X59143Y-50393D01*
G54D12*
X44720Y-35885D03*
X44720Y-34114D03*
X47279Y-35885D03*
X47279Y-34114D03*
G54D13*
X34412Y-48956D03*
X57837Y-48956D03*
X34412Y-29783D03*
X57837Y-29783D03*
G54D14*
X39399Y-46000D03*
X36399Y-46000D03*
X55600Y-46000D03*
X52600Y-46000D03*
X52600Y-40000D03*
X55600Y-40000D03*
X36399Y-40000D03*
X39399Y-40000D03*
G54D15*
X37250Y-30750D03*
G54D16*
X36250Y-30750D03*
X37250Y-31750D03*
X36250Y-31750D03*
X37250Y-32750D03*
X36250Y-32750D03*
G54D17*
X53250Y-35000D03*
X53250Y-36000D03*
X42250Y-30750D03*
X41250Y-30750D03*
X45250Y-30750D03*
X44250Y-30750D03*
X48250Y-30750D03*
X47250Y-30750D03*
X51250Y-30750D03*
X50250Y-30750D03*
G54D18*
X45000Y-43000D03*
X47000Y-43000D03*
M02*
