G04 (created by PCBNEW (2013-mar-13)-testing) date Sat 29 Mar 2014 06:27:09 PM CET*
%MOIN*%
G04 Gerber Fmt 3.4, Leading zero omitted, Abs format*
%FSLAX34Y34*%
G01*
G70*
G90*
G04 APERTURE LIST*
%ADD10C,0.005906*%
%ADD11C,0.003937*%
%ADD12C,0.070866*%
%ADD13C,0.122047*%
%ADD14C,0.098425*%
%ADD15R,0.060000X0.060000*%
%ADD16C,0.060000*%
%ADD17R,0.020000X0.045000*%
%ADD18R,0.051200X0.059000*%
%ADD19R,0.059000X0.051200*%
%ADD20R,0.036000X0.036000*%
%ADD21C,0.066000*%
%ADD22R,0.173200X0.100400*%
%ADD23C,0.056000*%
%ADD24C,0.039370*%
%ADD25C,0.020000*%
%ADD26C,0.010000*%
%ADD27C,0.050000*%
%ADD28C,0.008000*%
G04 APERTURE END LIST*
G54D10*
G54D11*
X33106Y-28346D02*
X33106Y-50393D01*
X59143Y-28346D02*
X33106Y-28346D01*
X59143Y-50393D02*
X59143Y-28346D01*
X33106Y-50393D02*
X59143Y-50393D01*
G54D12*
X44720Y-35885D03*
X44720Y-34114D03*
X47279Y-35885D03*
X47279Y-34114D03*
G54D13*
X34412Y-48956D03*
X57837Y-48956D03*
X34412Y-29783D03*
X57837Y-29783D03*
G54D14*
X39399Y-46000D03*
X36399Y-46000D03*
X55600Y-46000D03*
X52600Y-46000D03*
X52600Y-40000D03*
X55600Y-40000D03*
X36399Y-40000D03*
X39399Y-40000D03*
G54D15*
X37250Y-30750D03*
G54D16*
X36250Y-30750D03*
X37250Y-31750D03*
X36250Y-31750D03*
X37250Y-32750D03*
X36250Y-32750D03*
G54D17*
X45250Y-38750D03*
X45750Y-38750D03*
X46250Y-38750D03*
X46750Y-38750D03*
X46750Y-41250D03*
X46250Y-41250D03*
X45750Y-41250D03*
X45250Y-41250D03*
G54D18*
X43375Y-40500D03*
X44125Y-40500D03*
X49375Y-39000D03*
X48625Y-39000D03*
X42625Y-35500D03*
X43375Y-35500D03*
G54D19*
X41250Y-32375D03*
X41250Y-33125D03*
X44250Y-32375D03*
X44250Y-33125D03*
G54D18*
X48375Y-35750D03*
X49125Y-35750D03*
G54D19*
X47250Y-32375D03*
X47250Y-33125D03*
X50250Y-32375D03*
X50250Y-33125D03*
G54D20*
X43100Y-34150D03*
X42400Y-34150D03*
X42750Y-33350D03*
X49100Y-34150D03*
X48400Y-34150D03*
X48750Y-33350D03*
G54D21*
X53250Y-35000D03*
X53250Y-36000D03*
X42250Y-30750D03*
X41250Y-30750D03*
X45250Y-30750D03*
X44250Y-30750D03*
X48250Y-30750D03*
X47250Y-30750D03*
X51250Y-30750D03*
X50250Y-30750D03*
G54D18*
X44125Y-38750D03*
X43375Y-38750D03*
G54D19*
X47000Y-44625D03*
X47000Y-45375D03*
X45000Y-44625D03*
X45000Y-45375D03*
G54D22*
X53750Y-30819D03*
X53750Y-33181D03*
G54D23*
X45000Y-43000D03*
X47000Y-43000D03*
G54D24*
X38000Y-33500D03*
X41500Y-34000D03*
X40500Y-36000D03*
X44000Y-36500D03*
X43250Y-41250D03*
X43000Y-36200D03*
X47000Y-37250D03*
G54D25*
X37550Y-31125D02*
X37250Y-30825D01*
X37250Y-30825D02*
X37250Y-30750D01*
X37550Y-31125D02*
X38012Y-31587D01*
X45775Y-37525D02*
X45699Y-37449D01*
X38262Y-31837D02*
X38012Y-31587D01*
X41562Y-35137D02*
X38262Y-31837D01*
X41562Y-36637D02*
X41562Y-35137D01*
X42374Y-37449D02*
X41562Y-36637D01*
X45699Y-37449D02*
X42374Y-37449D01*
X46250Y-38000D02*
X45775Y-37525D01*
X46250Y-38000D02*
X46250Y-38750D01*
X42400Y-34150D02*
X42400Y-35275D01*
X42400Y-35275D02*
X42625Y-35500D01*
X42400Y-34150D02*
X41650Y-34150D01*
G54D26*
X36750Y-32250D02*
X36250Y-31750D01*
X36750Y-32250D02*
X36750Y-33500D01*
G54D25*
X36750Y-33500D02*
X38000Y-33500D01*
X41650Y-34150D02*
X41500Y-34000D01*
X42300Y-34250D02*
X42400Y-34150D01*
X48375Y-35750D02*
X48375Y-35625D01*
X42750Y-35000D02*
X42400Y-34650D01*
X47750Y-35000D02*
X42750Y-35000D01*
X48375Y-35625D02*
X47750Y-35000D01*
X46750Y-38750D02*
X48375Y-37125D01*
X48375Y-37125D02*
X48375Y-35750D01*
X42400Y-34150D02*
X42400Y-34650D01*
X48400Y-34150D02*
X48400Y-35725D01*
X48400Y-35725D02*
X48375Y-35750D01*
X43875Y-41250D02*
X45250Y-41250D01*
X43375Y-40500D02*
X43375Y-41125D01*
X43375Y-41125D02*
X43250Y-41250D01*
X38250Y-32750D02*
X40750Y-35250D01*
X40750Y-35250D02*
X40750Y-35750D01*
X40750Y-35750D02*
X40500Y-36000D01*
X38250Y-32750D02*
X37250Y-32750D01*
X44500Y-36000D02*
X44000Y-36500D01*
X43875Y-41250D02*
X43250Y-41250D01*
X47500Y-36000D02*
X44500Y-36000D01*
X37250Y-31750D02*
X37750Y-31750D01*
X45750Y-38000D02*
X45750Y-38750D01*
X45500Y-37750D02*
X45750Y-38000D01*
X42250Y-37750D02*
X45500Y-37750D01*
X41250Y-36750D02*
X42250Y-37750D01*
X41250Y-35250D02*
X41250Y-36750D01*
X37750Y-31750D02*
X41250Y-35250D01*
X45750Y-38750D02*
X45750Y-39250D01*
X48125Y-39500D02*
X48625Y-39000D01*
X46000Y-39500D02*
X48125Y-39500D01*
X45750Y-39250D02*
X46000Y-39500D01*
X43375Y-35500D02*
X43375Y-35825D01*
X43375Y-35825D02*
X43000Y-36200D01*
G54D27*
X50250Y-33125D02*
X48975Y-33125D01*
X48975Y-33125D02*
X48750Y-33350D01*
X47250Y-33125D02*
X48525Y-33125D01*
X48525Y-33125D02*
X48750Y-33350D01*
X44250Y-30750D02*
X44250Y-32375D01*
X50250Y-30750D02*
X50250Y-32375D01*
X47250Y-30750D02*
X47250Y-32375D01*
X41250Y-30750D02*
X41250Y-32375D01*
X41250Y-33125D02*
X42525Y-33125D01*
X42525Y-33125D02*
X42750Y-33350D01*
X44250Y-33125D02*
X42875Y-33125D01*
X42750Y-33250D02*
X42750Y-33350D01*
X42875Y-33125D02*
X42750Y-33250D01*
G54D25*
X47000Y-44625D02*
X47000Y-43000D01*
X46250Y-41250D02*
X46250Y-42250D01*
X46250Y-42250D02*
X47000Y-43000D01*
X45000Y-44625D02*
X45000Y-43000D01*
X45750Y-41250D02*
X45750Y-42250D01*
X45750Y-42250D02*
X45000Y-43000D01*
X49375Y-39000D02*
X49375Y-38125D01*
X52500Y-35000D02*
X53250Y-35000D01*
X49375Y-38125D02*
X52500Y-35000D01*
X45250Y-38750D02*
X44125Y-38750D01*
X44125Y-38750D02*
X44000Y-38625D01*
X45250Y-38750D02*
X45250Y-39500D01*
X45750Y-40000D02*
X52600Y-40000D01*
X45250Y-39500D02*
X45750Y-40000D01*
X44000Y-40625D02*
X45250Y-39375D01*
X45250Y-39375D02*
X45250Y-38750D01*
G54D10*
G36*
X58710Y-49960D02*
X58587Y-49960D01*
X58587Y-48808D01*
X58473Y-48532D01*
X58263Y-48321D01*
X57987Y-48206D01*
X57689Y-48206D01*
X57413Y-48320D01*
X57201Y-48531D01*
X57087Y-48806D01*
X57087Y-49105D01*
X57201Y-49381D01*
X57412Y-49592D01*
X57687Y-49706D01*
X57986Y-49707D01*
X58262Y-49593D01*
X58473Y-49382D01*
X58587Y-49106D01*
X58587Y-48808D01*
X58587Y-49960D01*
X56238Y-49960D01*
X56238Y-46091D01*
X56224Y-45840D01*
X56154Y-45671D01*
X56071Y-45613D01*
X55986Y-45698D01*
X55986Y-45528D01*
X55929Y-45445D01*
X55691Y-45362D01*
X55440Y-45375D01*
X55271Y-45445D01*
X55213Y-45528D01*
X55600Y-45915D01*
X55986Y-45528D01*
X55986Y-45698D01*
X55685Y-46000D01*
X56071Y-46386D01*
X56154Y-46328D01*
X56238Y-46091D01*
X56238Y-49960D01*
X55986Y-49960D01*
X55986Y-46471D01*
X55600Y-46084D01*
X55515Y-46169D01*
X55515Y-46000D01*
X55129Y-45613D01*
X55045Y-45671D01*
X54962Y-45908D01*
X54975Y-46159D01*
X55045Y-46328D01*
X55129Y-46386D01*
X55515Y-46000D01*
X55515Y-46169D01*
X55213Y-46471D01*
X55271Y-46554D01*
X55508Y-46637D01*
X55760Y-46624D01*
X55929Y-46554D01*
X55986Y-46471D01*
X55986Y-49960D01*
X53238Y-49960D01*
X53238Y-46091D01*
X53224Y-45840D01*
X53154Y-45671D01*
X53071Y-45613D01*
X52986Y-45698D01*
X52986Y-45528D01*
X52929Y-45445D01*
X52691Y-45362D01*
X52440Y-45375D01*
X52271Y-45445D01*
X52213Y-45528D01*
X52600Y-45915D01*
X52986Y-45528D01*
X52986Y-45698D01*
X52685Y-46000D01*
X53071Y-46386D01*
X53154Y-46328D01*
X53238Y-46091D01*
X53238Y-49960D01*
X52986Y-49960D01*
X52986Y-46471D01*
X52600Y-46084D01*
X52515Y-46169D01*
X52515Y-46000D01*
X52129Y-45613D01*
X52045Y-45671D01*
X51962Y-45908D01*
X51975Y-46159D01*
X52045Y-46328D01*
X52129Y-46386D01*
X52515Y-46000D01*
X52515Y-46169D01*
X52213Y-46471D01*
X52271Y-46554D01*
X52508Y-46637D01*
X52760Y-46624D01*
X52929Y-46554D01*
X52986Y-46471D01*
X52986Y-49960D01*
X47435Y-49960D01*
X47435Y-45658D01*
X47435Y-45470D01*
X47435Y-45280D01*
X47435Y-45091D01*
X47413Y-45039D01*
X47374Y-45000D01*
X47373Y-45000D01*
X47374Y-44999D01*
X47413Y-44960D01*
X47435Y-44908D01*
X47435Y-44853D01*
X47435Y-44341D01*
X47413Y-44289D01*
X47374Y-44250D01*
X47322Y-44229D01*
X47267Y-44229D01*
X47240Y-44229D01*
X47240Y-43353D01*
X47355Y-43238D01*
X47419Y-43083D01*
X47420Y-42916D01*
X47356Y-42762D01*
X47238Y-42644D01*
X47083Y-42580D01*
X46990Y-42579D01*
X46990Y-41502D01*
X46990Y-41447D01*
X46990Y-41345D01*
X46990Y-41155D01*
X46990Y-41052D01*
X46990Y-40997D01*
X46968Y-40945D01*
X46929Y-40906D01*
X46877Y-40885D01*
X46835Y-40885D01*
X46800Y-40920D01*
X46800Y-41190D01*
X46955Y-41190D01*
X46990Y-41155D01*
X46990Y-41345D01*
X46955Y-41310D01*
X46800Y-41310D01*
X46800Y-41580D01*
X46835Y-41615D01*
X46877Y-41615D01*
X46929Y-41593D01*
X46968Y-41554D01*
X46990Y-41502D01*
X46990Y-42579D01*
X46919Y-42579D01*
X46700Y-42360D01*
X46700Y-41580D01*
X46700Y-41310D01*
X46700Y-41190D01*
X46700Y-40920D01*
X46665Y-40885D01*
X46622Y-40885D01*
X46570Y-40906D01*
X46531Y-40945D01*
X46510Y-40997D01*
X46510Y-41052D01*
X46510Y-41155D01*
X46545Y-41190D01*
X46700Y-41190D01*
X46700Y-41310D01*
X46545Y-41310D01*
X46510Y-41345D01*
X46510Y-41447D01*
X46510Y-41502D01*
X46531Y-41554D01*
X46570Y-41593D01*
X46622Y-41615D01*
X46665Y-41615D01*
X46700Y-41580D01*
X46700Y-42360D01*
X46490Y-42150D01*
X46490Y-41502D01*
X46490Y-41447D01*
X46490Y-41250D01*
X46490Y-40997D01*
X46468Y-40945D01*
X46429Y-40906D01*
X46377Y-40885D01*
X46322Y-40885D01*
X46122Y-40885D01*
X46070Y-40906D01*
X46031Y-40945D01*
X46010Y-40997D01*
X46010Y-41052D01*
X46010Y-41250D01*
X46010Y-41502D01*
X46010Y-42250D01*
X46028Y-42341D01*
X46080Y-42419D01*
X46580Y-42919D01*
X46579Y-43083D01*
X46643Y-43237D01*
X46760Y-43354D01*
X46760Y-44229D01*
X46677Y-44229D01*
X46625Y-44250D01*
X46586Y-44289D01*
X46565Y-44341D01*
X46565Y-44396D01*
X46565Y-44908D01*
X46586Y-44960D01*
X46625Y-44999D01*
X46626Y-45000D01*
X46625Y-45000D01*
X46586Y-45039D01*
X46565Y-45091D01*
X46565Y-45280D01*
X46600Y-45315D01*
X46940Y-45315D01*
X46940Y-45307D01*
X47060Y-45307D01*
X47060Y-45315D01*
X47400Y-45315D01*
X47435Y-45280D01*
X47435Y-45470D01*
X47400Y-45435D01*
X47060Y-45435D01*
X47060Y-45736D01*
X47095Y-45771D01*
X47267Y-45771D01*
X47322Y-45771D01*
X47374Y-45749D01*
X47413Y-45710D01*
X47435Y-45658D01*
X47435Y-49960D01*
X46940Y-49960D01*
X46940Y-45736D01*
X46940Y-45435D01*
X46600Y-45435D01*
X46565Y-45470D01*
X46565Y-45658D01*
X46586Y-45710D01*
X46625Y-45749D01*
X46677Y-45771D01*
X46732Y-45771D01*
X46905Y-45771D01*
X46940Y-45736D01*
X46940Y-49960D01*
X45990Y-49960D01*
X45990Y-42250D01*
X45990Y-41502D01*
X45990Y-41447D01*
X45990Y-41250D01*
X45990Y-40997D01*
X45968Y-40945D01*
X45929Y-40906D01*
X45877Y-40885D01*
X45822Y-40885D01*
X45622Y-40885D01*
X45570Y-40906D01*
X45531Y-40945D01*
X45510Y-40997D01*
X45510Y-41052D01*
X45510Y-41250D01*
X45510Y-41502D01*
X45510Y-42150D01*
X45080Y-42580D01*
X44916Y-42579D01*
X44762Y-42643D01*
X44644Y-42761D01*
X44580Y-42916D01*
X44579Y-43083D01*
X44643Y-43237D01*
X44760Y-43354D01*
X44760Y-44229D01*
X44677Y-44229D01*
X44625Y-44250D01*
X44586Y-44289D01*
X44565Y-44341D01*
X44565Y-44396D01*
X44565Y-44908D01*
X44586Y-44960D01*
X44625Y-44999D01*
X44626Y-45000D01*
X44625Y-45000D01*
X44586Y-45039D01*
X44565Y-45091D01*
X44565Y-45280D01*
X44600Y-45315D01*
X44940Y-45315D01*
X44940Y-45307D01*
X45060Y-45307D01*
X45060Y-45315D01*
X45400Y-45315D01*
X45435Y-45280D01*
X45435Y-45091D01*
X45413Y-45039D01*
X45374Y-45000D01*
X45373Y-45000D01*
X45374Y-44999D01*
X45413Y-44960D01*
X45435Y-44908D01*
X45435Y-44853D01*
X45435Y-44341D01*
X45413Y-44289D01*
X45374Y-44250D01*
X45322Y-44229D01*
X45267Y-44229D01*
X45240Y-44229D01*
X45240Y-43353D01*
X45355Y-43238D01*
X45419Y-43083D01*
X45420Y-42919D01*
X45919Y-42419D01*
X45971Y-42341D01*
X45990Y-42250D01*
X45990Y-49960D01*
X45435Y-49960D01*
X45435Y-45658D01*
X45435Y-45470D01*
X45400Y-45435D01*
X45060Y-45435D01*
X45060Y-45736D01*
X45095Y-45771D01*
X45267Y-45771D01*
X45322Y-45771D01*
X45374Y-45749D01*
X45413Y-45710D01*
X45435Y-45658D01*
X45435Y-49960D01*
X44940Y-49960D01*
X44940Y-45736D01*
X44940Y-45435D01*
X44600Y-45435D01*
X44565Y-45470D01*
X44565Y-45658D01*
X44586Y-45710D01*
X44625Y-45749D01*
X44677Y-45771D01*
X44732Y-45771D01*
X44905Y-45771D01*
X44940Y-45736D01*
X44940Y-49960D01*
X40790Y-49960D01*
X40790Y-47540D01*
X40790Y-38460D01*
X36496Y-38460D01*
X34960Y-38460D01*
X34960Y-47540D01*
X40790Y-47540D01*
X40790Y-49960D01*
X40750Y-49960D01*
X35162Y-49960D01*
X35162Y-48808D01*
X35048Y-48532D01*
X34837Y-48321D01*
X34562Y-48206D01*
X34263Y-48206D01*
X33987Y-48320D01*
X33776Y-48531D01*
X33662Y-48806D01*
X33662Y-49105D01*
X33776Y-49381D01*
X33986Y-49592D01*
X34262Y-49706D01*
X34560Y-49707D01*
X34836Y-49593D01*
X35048Y-49382D01*
X35162Y-49106D01*
X35162Y-48808D01*
X35162Y-49960D01*
X33540Y-49960D01*
X33540Y-32290D01*
X36521Y-32290D01*
X36560Y-32328D01*
X36560Y-32426D01*
X36524Y-32390D01*
X36496Y-32418D01*
X36462Y-32355D01*
X36295Y-32303D01*
X36121Y-32320D01*
X36037Y-32355D01*
X36003Y-32418D01*
X36250Y-32665D01*
X36255Y-32659D01*
X36340Y-32744D01*
X36334Y-32750D01*
X36340Y-32755D01*
X36255Y-32840D01*
X36250Y-32834D01*
X36165Y-32919D01*
X36165Y-32750D01*
X35918Y-32503D01*
X35855Y-32537D01*
X35803Y-32704D01*
X35820Y-32878D01*
X35855Y-32962D01*
X35918Y-32996D01*
X36165Y-32750D01*
X36165Y-32919D01*
X36003Y-33081D01*
X36037Y-33144D01*
X36204Y-33196D01*
X36378Y-33179D01*
X36462Y-33144D01*
X36496Y-33081D01*
X36496Y-33081D01*
X36524Y-33109D01*
X36560Y-33073D01*
X36560Y-33360D01*
X36528Y-33408D01*
X36510Y-33500D01*
X36528Y-33591D01*
X36580Y-33669D01*
X36658Y-33721D01*
X36750Y-33740D01*
X37763Y-33740D01*
X37808Y-33785D01*
X37932Y-33836D01*
X38066Y-33836D01*
X38190Y-33785D01*
X38285Y-33691D01*
X38336Y-33567D01*
X38336Y-33433D01*
X38285Y-33309D01*
X38191Y-33214D01*
X38067Y-33163D01*
X37933Y-33163D01*
X37809Y-33214D01*
X37763Y-33260D01*
X36940Y-33260D01*
X36940Y-33062D01*
X37000Y-33122D01*
X37162Y-33189D01*
X37337Y-33190D01*
X37498Y-33123D01*
X37622Y-32999D01*
X37626Y-32990D01*
X38150Y-32990D01*
X40510Y-35349D01*
X40510Y-35650D01*
X40497Y-35663D01*
X40433Y-35663D01*
X40309Y-35714D01*
X40214Y-35808D01*
X40163Y-35932D01*
X40163Y-36066D01*
X40214Y-36190D01*
X40308Y-36285D01*
X40432Y-36336D01*
X40566Y-36336D01*
X40690Y-36285D01*
X40785Y-36191D01*
X40836Y-36067D01*
X40836Y-36002D01*
X40919Y-35919D01*
X40919Y-35919D01*
X40950Y-35873D01*
X40971Y-35841D01*
X40971Y-35841D01*
X40990Y-35750D01*
X40990Y-35329D01*
X41010Y-35349D01*
X41010Y-36750D01*
X41028Y-36841D01*
X41080Y-36919D01*
X42080Y-37919D01*
X42080Y-37919D01*
X42158Y-37971D01*
X42250Y-37990D01*
X45400Y-37990D01*
X45510Y-38099D01*
X45510Y-38497D01*
X45510Y-38552D01*
X45510Y-38750D01*
X45510Y-39002D01*
X45510Y-39250D01*
X45528Y-39341D01*
X45580Y-39419D01*
X45830Y-39669D01*
X45876Y-39700D01*
X45908Y-39721D01*
X45908Y-39721D01*
X46000Y-39740D01*
X48125Y-39740D01*
X48216Y-39721D01*
X48294Y-39669D01*
X48529Y-39435D01*
X48908Y-39435D01*
X48960Y-39413D01*
X48999Y-39374D01*
X49000Y-39373D01*
X49000Y-39374D01*
X49039Y-39413D01*
X49091Y-39435D01*
X49146Y-39435D01*
X49658Y-39435D01*
X49710Y-39413D01*
X49749Y-39374D01*
X49771Y-39322D01*
X49771Y-39267D01*
X49771Y-38677D01*
X49749Y-38625D01*
X49710Y-38586D01*
X49658Y-38565D01*
X49615Y-38565D01*
X49615Y-38224D01*
X52599Y-35240D01*
X52840Y-35240D01*
X52851Y-35265D01*
X52983Y-35398D01*
X53156Y-35469D01*
X53343Y-35470D01*
X53515Y-35398D01*
X53648Y-35266D01*
X53719Y-35093D01*
X53720Y-34906D01*
X53690Y-34834D01*
X53690Y-33788D01*
X53690Y-33241D01*
X53690Y-33121D01*
X53690Y-32574D01*
X53655Y-32539D01*
X52911Y-32539D01*
X52856Y-32539D01*
X52804Y-32560D01*
X52765Y-32599D01*
X52744Y-32651D01*
X52744Y-33086D01*
X52779Y-33121D01*
X53690Y-33121D01*
X53690Y-33241D01*
X52779Y-33241D01*
X52744Y-33276D01*
X52744Y-33710D01*
X52765Y-33762D01*
X52804Y-33801D01*
X52856Y-33823D01*
X52911Y-33823D01*
X53655Y-33823D01*
X53690Y-33788D01*
X53690Y-34834D01*
X53648Y-34734D01*
X53516Y-34601D01*
X53343Y-34530D01*
X53156Y-34529D01*
X52984Y-34601D01*
X52851Y-34733D01*
X52840Y-34760D01*
X52500Y-34760D01*
X52408Y-34778D01*
X52330Y-34830D01*
X49521Y-37639D01*
X49521Y-36072D01*
X49521Y-36017D01*
X49521Y-35845D01*
X49521Y-35655D01*
X49521Y-35482D01*
X49521Y-35427D01*
X49499Y-35375D01*
X49460Y-35336D01*
X49420Y-35319D01*
X49420Y-34357D01*
X49420Y-34302D01*
X49420Y-34245D01*
X49420Y-34055D01*
X49420Y-33997D01*
X49420Y-33942D01*
X49398Y-33890D01*
X49359Y-33851D01*
X49307Y-33830D01*
X49195Y-33830D01*
X49160Y-33865D01*
X49160Y-34090D01*
X49385Y-34090D01*
X49420Y-34055D01*
X49420Y-34245D01*
X49385Y-34210D01*
X49160Y-34210D01*
X49160Y-34435D01*
X49195Y-34470D01*
X49307Y-34470D01*
X49359Y-34448D01*
X49398Y-34409D01*
X49420Y-34357D01*
X49420Y-35319D01*
X49408Y-35315D01*
X49220Y-35315D01*
X49185Y-35350D01*
X49185Y-35690D01*
X49486Y-35690D01*
X49521Y-35655D01*
X49521Y-35845D01*
X49486Y-35810D01*
X49185Y-35810D01*
X49185Y-36150D01*
X49220Y-36185D01*
X49408Y-36185D01*
X49460Y-36163D01*
X49499Y-36124D01*
X49521Y-36072D01*
X49521Y-37639D01*
X49205Y-37955D01*
X49153Y-38033D01*
X49135Y-38125D01*
X49135Y-38565D01*
X49091Y-38565D01*
X49065Y-38575D01*
X49065Y-36150D01*
X49065Y-35810D01*
X49057Y-35810D01*
X49057Y-35690D01*
X49065Y-35690D01*
X49065Y-35350D01*
X49040Y-35325D01*
X49040Y-34435D01*
X49040Y-34210D01*
X49040Y-34090D01*
X49040Y-33865D01*
X49005Y-33830D01*
X48892Y-33830D01*
X48840Y-33851D01*
X48801Y-33890D01*
X48780Y-33942D01*
X48780Y-33997D01*
X48780Y-34055D01*
X48815Y-34090D01*
X49040Y-34090D01*
X49040Y-34210D01*
X48815Y-34210D01*
X48780Y-34245D01*
X48780Y-34302D01*
X48780Y-34357D01*
X48801Y-34409D01*
X48840Y-34448D01*
X48892Y-34470D01*
X49005Y-34470D01*
X49040Y-34435D01*
X49040Y-35325D01*
X49030Y-35315D01*
X48841Y-35315D01*
X48789Y-35336D01*
X48750Y-35375D01*
X48750Y-35376D01*
X48749Y-35375D01*
X48710Y-35336D01*
X48658Y-35315D01*
X48640Y-35315D01*
X48640Y-34456D01*
X48659Y-34448D01*
X48698Y-34409D01*
X48720Y-34357D01*
X48720Y-34302D01*
X48720Y-33942D01*
X48698Y-33890D01*
X48659Y-33851D01*
X48607Y-33830D01*
X48552Y-33830D01*
X48192Y-33830D01*
X48140Y-33851D01*
X48101Y-33890D01*
X48080Y-33942D01*
X48080Y-33997D01*
X48080Y-34357D01*
X48101Y-34409D01*
X48140Y-34448D01*
X48160Y-34456D01*
X48160Y-35070D01*
X47919Y-34830D01*
X47841Y-34778D01*
X47780Y-34765D01*
X47780Y-34172D01*
X47764Y-33976D01*
X47719Y-33868D01*
X47650Y-33827D01*
X47566Y-33912D01*
X47566Y-33742D01*
X47525Y-33674D01*
X47338Y-33613D01*
X47141Y-33629D01*
X47033Y-33674D01*
X46993Y-33742D01*
X47279Y-34029D01*
X47566Y-33742D01*
X47566Y-33912D01*
X47364Y-34114D01*
X47650Y-34400D01*
X47719Y-34359D01*
X47780Y-34172D01*
X47780Y-34765D01*
X47750Y-34760D01*
X47566Y-34760D01*
X47566Y-34485D01*
X47279Y-34199D01*
X47194Y-34283D01*
X47194Y-34114D01*
X46908Y-33827D01*
X46839Y-33868D01*
X46778Y-34055D01*
X46794Y-34251D01*
X46839Y-34359D01*
X46908Y-34400D01*
X47194Y-34114D01*
X47194Y-34283D01*
X46993Y-34485D01*
X47033Y-34554D01*
X47221Y-34614D01*
X47417Y-34599D01*
X47525Y-34554D01*
X47566Y-34485D01*
X47566Y-34760D01*
X45221Y-34760D01*
X45221Y-34172D01*
X45205Y-33976D01*
X45160Y-33868D01*
X45091Y-33827D01*
X45006Y-33912D01*
X45006Y-33742D01*
X44966Y-33674D01*
X44778Y-33613D01*
X44582Y-33629D01*
X44474Y-33674D01*
X44433Y-33742D01*
X44720Y-34029D01*
X45006Y-33742D01*
X45006Y-33912D01*
X44805Y-34114D01*
X45091Y-34400D01*
X45160Y-34359D01*
X45221Y-34172D01*
X45221Y-34760D01*
X45006Y-34760D01*
X45006Y-34485D01*
X44720Y-34199D01*
X44635Y-34283D01*
X44635Y-34114D01*
X44349Y-33827D01*
X44280Y-33868D01*
X44219Y-34055D01*
X44235Y-34251D01*
X44280Y-34359D01*
X44349Y-34400D01*
X44635Y-34114D01*
X44635Y-34283D01*
X44433Y-34485D01*
X44474Y-34554D01*
X44661Y-34614D01*
X44858Y-34599D01*
X44966Y-34554D01*
X45006Y-34485D01*
X45006Y-34760D01*
X43420Y-34760D01*
X43420Y-34357D01*
X43420Y-34302D01*
X43420Y-34245D01*
X43420Y-34055D01*
X43420Y-33997D01*
X43420Y-33942D01*
X43398Y-33890D01*
X43359Y-33851D01*
X43307Y-33830D01*
X43195Y-33830D01*
X43160Y-33865D01*
X43160Y-34090D01*
X43385Y-34090D01*
X43420Y-34055D01*
X43420Y-34245D01*
X43385Y-34210D01*
X43160Y-34210D01*
X43160Y-34435D01*
X43195Y-34470D01*
X43307Y-34470D01*
X43359Y-34448D01*
X43398Y-34409D01*
X43420Y-34357D01*
X43420Y-34760D01*
X43040Y-34760D01*
X43040Y-34435D01*
X43040Y-34210D01*
X43040Y-34090D01*
X43040Y-33865D01*
X43005Y-33830D01*
X42892Y-33830D01*
X42840Y-33851D01*
X42801Y-33890D01*
X42780Y-33942D01*
X42780Y-33997D01*
X42780Y-34055D01*
X42815Y-34090D01*
X43040Y-34090D01*
X43040Y-34210D01*
X42815Y-34210D01*
X42780Y-34245D01*
X42780Y-34302D01*
X42780Y-34357D01*
X42801Y-34409D01*
X42840Y-34448D01*
X42892Y-34470D01*
X43005Y-34470D01*
X43040Y-34435D01*
X43040Y-34760D01*
X42849Y-34760D01*
X42640Y-34550D01*
X42640Y-34456D01*
X42659Y-34448D01*
X42698Y-34409D01*
X42720Y-34357D01*
X42720Y-34302D01*
X42720Y-33942D01*
X42698Y-33890D01*
X42659Y-33851D01*
X42607Y-33830D01*
X42552Y-33830D01*
X42192Y-33830D01*
X42140Y-33851D01*
X42101Y-33890D01*
X42093Y-33910D01*
X41827Y-33910D01*
X41785Y-33809D01*
X41691Y-33714D01*
X41567Y-33663D01*
X41433Y-33663D01*
X41309Y-33714D01*
X41214Y-33808D01*
X41163Y-33932D01*
X41163Y-34066D01*
X41214Y-34190D01*
X41308Y-34285D01*
X41432Y-34336D01*
X41505Y-34336D01*
X41558Y-34371D01*
X41650Y-34390D01*
X42093Y-34390D01*
X42101Y-34409D01*
X42140Y-34448D01*
X42160Y-34456D01*
X42160Y-34650D01*
X42160Y-35275D01*
X42178Y-35366D01*
X42229Y-35442D01*
X42229Y-35822D01*
X42250Y-35874D01*
X42289Y-35913D01*
X42341Y-35935D01*
X42396Y-35935D01*
X42908Y-35935D01*
X42960Y-35913D01*
X42999Y-35874D01*
X43000Y-35873D01*
X43000Y-35874D01*
X43039Y-35913D01*
X43091Y-35935D01*
X43280Y-35935D01*
X43315Y-35900D01*
X43315Y-35560D01*
X43307Y-35560D01*
X43307Y-35440D01*
X43315Y-35440D01*
X43315Y-35432D01*
X43435Y-35432D01*
X43435Y-35440D01*
X43736Y-35440D01*
X43771Y-35405D01*
X43771Y-35240D01*
X47650Y-35240D01*
X47979Y-35568D01*
X47979Y-36072D01*
X48000Y-36124D01*
X48039Y-36163D01*
X48091Y-36185D01*
X48135Y-36185D01*
X48135Y-37025D01*
X47773Y-37386D01*
X47773Y-35787D01*
X47698Y-35606D01*
X47559Y-35466D01*
X47378Y-35391D01*
X47181Y-35391D01*
X46999Y-35466D01*
X46860Y-35605D01*
X46796Y-35760D01*
X45203Y-35760D01*
X45139Y-35606D01*
X45000Y-35466D01*
X44819Y-35391D01*
X44622Y-35391D01*
X44440Y-35466D01*
X44301Y-35605D01*
X44226Y-35787D01*
X44226Y-35934D01*
X43997Y-36163D01*
X43933Y-36163D01*
X43809Y-36214D01*
X43771Y-36252D01*
X43771Y-35822D01*
X43771Y-35767D01*
X43771Y-35595D01*
X43736Y-35560D01*
X43435Y-35560D01*
X43435Y-35900D01*
X43470Y-35935D01*
X43658Y-35935D01*
X43710Y-35913D01*
X43749Y-35874D01*
X43771Y-35822D01*
X43771Y-36252D01*
X43714Y-36308D01*
X43663Y-36432D01*
X43663Y-36566D01*
X43714Y-36690D01*
X43808Y-36785D01*
X43932Y-36836D01*
X44066Y-36836D01*
X44190Y-36785D01*
X44285Y-36691D01*
X44336Y-36567D01*
X44336Y-36502D01*
X44506Y-36332D01*
X44621Y-36380D01*
X44818Y-36380D01*
X45000Y-36305D01*
X45065Y-36240D01*
X46934Y-36240D01*
X46999Y-36304D01*
X47180Y-36380D01*
X47377Y-36380D01*
X47559Y-36305D01*
X47698Y-36166D01*
X47773Y-35984D01*
X47773Y-35787D01*
X47773Y-37386D01*
X46775Y-38385D01*
X46622Y-38385D01*
X46570Y-38406D01*
X46531Y-38445D01*
X46510Y-38497D01*
X46510Y-38552D01*
X46510Y-38750D01*
X46510Y-39002D01*
X46531Y-39054D01*
X46570Y-39093D01*
X46622Y-39115D01*
X46677Y-39115D01*
X46877Y-39115D01*
X46929Y-39093D01*
X46968Y-39054D01*
X46990Y-39002D01*
X46990Y-38947D01*
X46990Y-38849D01*
X48544Y-37294D01*
X48544Y-37294D01*
X48596Y-37216D01*
X48614Y-37125D01*
X48615Y-37125D01*
X48615Y-36185D01*
X48658Y-36185D01*
X48710Y-36163D01*
X48749Y-36124D01*
X48750Y-36123D01*
X48750Y-36124D01*
X48789Y-36163D01*
X48841Y-36185D01*
X49030Y-36185D01*
X49065Y-36150D01*
X49065Y-38575D01*
X49039Y-38586D01*
X49000Y-38625D01*
X49000Y-38626D01*
X48999Y-38625D01*
X48960Y-38586D01*
X48908Y-38565D01*
X48853Y-38565D01*
X48341Y-38565D01*
X48289Y-38586D01*
X48250Y-38625D01*
X48229Y-38677D01*
X48229Y-38732D01*
X48229Y-39056D01*
X48025Y-39260D01*
X46099Y-39260D01*
X45990Y-39150D01*
X45990Y-39002D01*
X45990Y-38947D01*
X45990Y-38750D01*
X45990Y-38497D01*
X45990Y-38079D01*
X46010Y-38099D01*
X46010Y-38497D01*
X46010Y-38552D01*
X46010Y-38750D01*
X46010Y-39002D01*
X46031Y-39054D01*
X46070Y-39093D01*
X46122Y-39115D01*
X46177Y-39115D01*
X46377Y-39115D01*
X46429Y-39093D01*
X46468Y-39054D01*
X46490Y-39002D01*
X46490Y-38947D01*
X46490Y-38750D01*
X46490Y-38497D01*
X46490Y-38000D01*
X46471Y-37908D01*
X46471Y-37908D01*
X46450Y-37876D01*
X46419Y-37830D01*
X45944Y-37355D01*
X45944Y-37355D01*
X45869Y-37280D01*
X45791Y-37228D01*
X45699Y-37209D01*
X42473Y-37209D01*
X41802Y-36538D01*
X41802Y-35137D01*
X41783Y-35046D01*
X41731Y-34968D01*
X39053Y-32290D01*
X40815Y-32290D01*
X40815Y-32658D01*
X40836Y-32710D01*
X40875Y-32749D01*
X40876Y-32750D01*
X40875Y-32750D01*
X40836Y-32789D01*
X40815Y-32841D01*
X40815Y-32896D01*
X40815Y-33408D01*
X40836Y-33460D01*
X40875Y-33499D01*
X40927Y-33521D01*
X40982Y-33521D01*
X41572Y-33521D01*
X41587Y-33515D01*
X42363Y-33515D01*
X42446Y-33598D01*
X42451Y-33609D01*
X42490Y-33648D01*
X42537Y-33668D01*
X42600Y-33710D01*
X42750Y-33740D01*
X42899Y-33710D01*
X42962Y-33668D01*
X43009Y-33648D01*
X43048Y-33609D01*
X43068Y-33562D01*
X43099Y-33515D01*
X43912Y-33515D01*
X43927Y-33521D01*
X43982Y-33521D01*
X44572Y-33521D01*
X44624Y-33499D01*
X44663Y-33460D01*
X44685Y-33408D01*
X44685Y-33353D01*
X44685Y-32841D01*
X44663Y-32789D01*
X44624Y-32750D01*
X44623Y-32750D01*
X44624Y-32749D01*
X44663Y-32710D01*
X44685Y-32658D01*
X44685Y-32603D01*
X44685Y-32290D01*
X46815Y-32290D01*
X46815Y-32658D01*
X46836Y-32710D01*
X46875Y-32749D01*
X46876Y-32750D01*
X46875Y-32750D01*
X46836Y-32789D01*
X46815Y-32841D01*
X46815Y-32896D01*
X46815Y-33408D01*
X46836Y-33460D01*
X46875Y-33499D01*
X46927Y-33521D01*
X46982Y-33521D01*
X47572Y-33521D01*
X47587Y-33515D01*
X48363Y-33515D01*
X48446Y-33598D01*
X48451Y-33609D01*
X48490Y-33648D01*
X48537Y-33668D01*
X48600Y-33710D01*
X48750Y-33740D01*
X48899Y-33710D01*
X48962Y-33668D01*
X49009Y-33648D01*
X49048Y-33609D01*
X49053Y-33598D01*
X49136Y-33515D01*
X49912Y-33515D01*
X49927Y-33521D01*
X49982Y-33521D01*
X50572Y-33521D01*
X50624Y-33499D01*
X50663Y-33460D01*
X50685Y-33408D01*
X50685Y-33353D01*
X50685Y-32841D01*
X50663Y-32789D01*
X50624Y-32750D01*
X50623Y-32750D01*
X50624Y-32749D01*
X50663Y-32710D01*
X50685Y-32658D01*
X50685Y-32603D01*
X50685Y-32290D01*
X55210Y-32290D01*
X55210Y-37960D01*
X54756Y-37960D01*
X54756Y-33710D01*
X54756Y-33276D01*
X54756Y-33086D01*
X54756Y-32651D01*
X54734Y-32599D01*
X54695Y-32560D01*
X54643Y-32539D01*
X54588Y-32539D01*
X53845Y-32539D01*
X53810Y-32574D01*
X53810Y-33121D01*
X54721Y-33121D01*
X54756Y-33086D01*
X54756Y-33276D01*
X54721Y-33241D01*
X53810Y-33241D01*
X53810Y-33788D01*
X53845Y-33823D01*
X54588Y-33823D01*
X54643Y-33823D01*
X54695Y-33801D01*
X54734Y-33762D01*
X54756Y-33710D01*
X54756Y-37960D01*
X53726Y-37960D01*
X53726Y-36052D01*
X53710Y-35866D01*
X53669Y-35769D01*
X53603Y-35731D01*
X53518Y-35816D01*
X53518Y-35646D01*
X53480Y-35580D01*
X53302Y-35523D01*
X53116Y-35539D01*
X53019Y-35580D01*
X52981Y-35646D01*
X53250Y-35915D01*
X53518Y-35646D01*
X53518Y-35816D01*
X53334Y-36000D01*
X53603Y-36268D01*
X53669Y-36230D01*
X53726Y-36052D01*
X53726Y-37960D01*
X53518Y-37960D01*
X53518Y-36353D01*
X53250Y-36084D01*
X53165Y-36169D01*
X53165Y-36000D01*
X52896Y-35731D01*
X52830Y-35769D01*
X52773Y-35947D01*
X52789Y-36133D01*
X52830Y-36230D01*
X52896Y-36268D01*
X53165Y-36000D01*
X53165Y-36169D01*
X52981Y-36353D01*
X53019Y-36419D01*
X53197Y-36476D01*
X53383Y-36460D01*
X53480Y-36419D01*
X53518Y-36353D01*
X53518Y-37960D01*
X50960Y-37960D01*
X50960Y-39760D01*
X45849Y-39760D01*
X45490Y-39400D01*
X45490Y-39375D01*
X45490Y-39002D01*
X45490Y-38947D01*
X45490Y-38750D01*
X45490Y-38497D01*
X45468Y-38445D01*
X45429Y-38406D01*
X45377Y-38385D01*
X45322Y-38385D01*
X45122Y-38385D01*
X45070Y-38406D01*
X45031Y-38445D01*
X45010Y-38497D01*
X45010Y-38510D01*
X44521Y-38510D01*
X44521Y-38427D01*
X44499Y-38375D01*
X44460Y-38336D01*
X44408Y-38315D01*
X44353Y-38315D01*
X43841Y-38315D01*
X43789Y-38336D01*
X43750Y-38375D01*
X43750Y-38376D01*
X43749Y-38375D01*
X43710Y-38336D01*
X43658Y-38315D01*
X43470Y-38315D01*
X43435Y-38350D01*
X43435Y-38690D01*
X43442Y-38690D01*
X43442Y-38810D01*
X43435Y-38810D01*
X43435Y-39150D01*
X43470Y-39185D01*
X43658Y-39185D01*
X43710Y-39163D01*
X43749Y-39124D01*
X43750Y-39123D01*
X43750Y-39124D01*
X43789Y-39163D01*
X43841Y-39185D01*
X43896Y-39185D01*
X44408Y-39185D01*
X44460Y-39163D01*
X44499Y-39124D01*
X44521Y-39072D01*
X44521Y-39017D01*
X44521Y-38990D01*
X45010Y-38990D01*
X45010Y-39002D01*
X45010Y-39275D01*
X44220Y-40065D01*
X43841Y-40065D01*
X43789Y-40086D01*
X43750Y-40125D01*
X43750Y-40126D01*
X43749Y-40125D01*
X43710Y-40086D01*
X43658Y-40065D01*
X43603Y-40065D01*
X43315Y-40065D01*
X43315Y-39150D01*
X43315Y-38810D01*
X43315Y-38690D01*
X43315Y-38350D01*
X43280Y-38315D01*
X43091Y-38315D01*
X43039Y-38336D01*
X43000Y-38375D01*
X42979Y-38427D01*
X42979Y-38482D01*
X42979Y-38655D01*
X43014Y-38690D01*
X43315Y-38690D01*
X43315Y-38810D01*
X43014Y-38810D01*
X42979Y-38845D01*
X42979Y-39017D01*
X42979Y-39072D01*
X43000Y-39124D01*
X43039Y-39163D01*
X43091Y-39185D01*
X43280Y-39185D01*
X43315Y-39150D01*
X43315Y-40065D01*
X43091Y-40065D01*
X43039Y-40086D01*
X43000Y-40125D01*
X42979Y-40177D01*
X42979Y-40232D01*
X42979Y-40822D01*
X43000Y-40874D01*
X43039Y-40913D01*
X43091Y-40935D01*
X43130Y-40935D01*
X43059Y-40964D01*
X42964Y-41058D01*
X42913Y-41182D01*
X42913Y-41316D01*
X42964Y-41440D01*
X43058Y-41535D01*
X43182Y-41586D01*
X43316Y-41586D01*
X43440Y-41535D01*
X43486Y-41490D01*
X43875Y-41490D01*
X45010Y-41490D01*
X45010Y-41502D01*
X45031Y-41554D01*
X45070Y-41593D01*
X45122Y-41615D01*
X45177Y-41615D01*
X45377Y-41615D01*
X45429Y-41593D01*
X45468Y-41554D01*
X45490Y-41502D01*
X45490Y-41447D01*
X45490Y-41250D01*
X45490Y-40997D01*
X45468Y-40945D01*
X45429Y-40906D01*
X45377Y-40885D01*
X45322Y-40885D01*
X45122Y-40885D01*
X45070Y-40906D01*
X45031Y-40945D01*
X45010Y-40997D01*
X45010Y-41010D01*
X43875Y-41010D01*
X43615Y-41010D01*
X43615Y-40935D01*
X43658Y-40935D01*
X43710Y-40913D01*
X43749Y-40874D01*
X43750Y-40873D01*
X43750Y-40874D01*
X43789Y-40913D01*
X43841Y-40935D01*
X43896Y-40935D01*
X44408Y-40935D01*
X44460Y-40913D01*
X44499Y-40874D01*
X44521Y-40822D01*
X44521Y-40767D01*
X44521Y-40443D01*
X45187Y-39776D01*
X45580Y-40169D01*
X45658Y-40221D01*
X45750Y-40240D01*
X50960Y-40240D01*
X50960Y-42040D01*
X58710Y-42040D01*
X58710Y-49960D01*
X58710Y-49960D01*
G37*
G54D28*
X58710Y-49960D02*
X58587Y-49960D01*
X58587Y-48808D01*
X58473Y-48532D01*
X58263Y-48321D01*
X57987Y-48206D01*
X57689Y-48206D01*
X57413Y-48320D01*
X57201Y-48531D01*
X57087Y-48806D01*
X57087Y-49105D01*
X57201Y-49381D01*
X57412Y-49592D01*
X57687Y-49706D01*
X57986Y-49707D01*
X58262Y-49593D01*
X58473Y-49382D01*
X58587Y-49106D01*
X58587Y-48808D01*
X58587Y-49960D01*
X56238Y-49960D01*
X56238Y-46091D01*
X56224Y-45840D01*
X56154Y-45671D01*
X56071Y-45613D01*
X55986Y-45698D01*
X55986Y-45528D01*
X55929Y-45445D01*
X55691Y-45362D01*
X55440Y-45375D01*
X55271Y-45445D01*
X55213Y-45528D01*
X55600Y-45915D01*
X55986Y-45528D01*
X55986Y-45698D01*
X55685Y-46000D01*
X56071Y-46386D01*
X56154Y-46328D01*
X56238Y-46091D01*
X56238Y-49960D01*
X55986Y-49960D01*
X55986Y-46471D01*
X55600Y-46084D01*
X55515Y-46169D01*
X55515Y-46000D01*
X55129Y-45613D01*
X55045Y-45671D01*
X54962Y-45908D01*
X54975Y-46159D01*
X55045Y-46328D01*
X55129Y-46386D01*
X55515Y-46000D01*
X55515Y-46169D01*
X55213Y-46471D01*
X55271Y-46554D01*
X55508Y-46637D01*
X55760Y-46624D01*
X55929Y-46554D01*
X55986Y-46471D01*
X55986Y-49960D01*
X53238Y-49960D01*
X53238Y-46091D01*
X53224Y-45840D01*
X53154Y-45671D01*
X53071Y-45613D01*
X52986Y-45698D01*
X52986Y-45528D01*
X52929Y-45445D01*
X52691Y-45362D01*
X52440Y-45375D01*
X52271Y-45445D01*
X52213Y-45528D01*
X52600Y-45915D01*
X52986Y-45528D01*
X52986Y-45698D01*
X52685Y-46000D01*
X53071Y-46386D01*
X53154Y-46328D01*
X53238Y-46091D01*
X53238Y-49960D01*
X52986Y-49960D01*
X52986Y-46471D01*
X52600Y-46084D01*
X52515Y-46169D01*
X52515Y-46000D01*
X52129Y-45613D01*
X52045Y-45671D01*
X51962Y-45908D01*
X51975Y-46159D01*
X52045Y-46328D01*
X52129Y-46386D01*
X52515Y-46000D01*
X52515Y-46169D01*
X52213Y-46471D01*
X52271Y-46554D01*
X52508Y-46637D01*
X52760Y-46624D01*
X52929Y-46554D01*
X52986Y-46471D01*
X52986Y-49960D01*
X47435Y-49960D01*
X47435Y-45658D01*
X47435Y-45470D01*
X47435Y-45280D01*
X47435Y-45091D01*
X47413Y-45039D01*
X47374Y-45000D01*
X47373Y-45000D01*
X47374Y-44999D01*
X47413Y-44960D01*
X47435Y-44908D01*
X47435Y-44853D01*
X47435Y-44341D01*
X47413Y-44289D01*
X47374Y-44250D01*
X47322Y-44229D01*
X47267Y-44229D01*
X47240Y-44229D01*
X47240Y-43353D01*
X47355Y-43238D01*
X47419Y-43083D01*
X47420Y-42916D01*
X47356Y-42762D01*
X47238Y-42644D01*
X47083Y-42580D01*
X46990Y-42579D01*
X46990Y-41502D01*
X46990Y-41447D01*
X46990Y-41345D01*
X46990Y-41155D01*
X46990Y-41052D01*
X46990Y-40997D01*
X46968Y-40945D01*
X46929Y-40906D01*
X46877Y-40885D01*
X46835Y-40885D01*
X46800Y-40920D01*
X46800Y-41190D01*
X46955Y-41190D01*
X46990Y-41155D01*
X46990Y-41345D01*
X46955Y-41310D01*
X46800Y-41310D01*
X46800Y-41580D01*
X46835Y-41615D01*
X46877Y-41615D01*
X46929Y-41593D01*
X46968Y-41554D01*
X46990Y-41502D01*
X46990Y-42579D01*
X46919Y-42579D01*
X46700Y-42360D01*
X46700Y-41580D01*
X46700Y-41310D01*
X46700Y-41190D01*
X46700Y-40920D01*
X46665Y-40885D01*
X46622Y-40885D01*
X46570Y-40906D01*
X46531Y-40945D01*
X46510Y-40997D01*
X46510Y-41052D01*
X46510Y-41155D01*
X46545Y-41190D01*
X46700Y-41190D01*
X46700Y-41310D01*
X46545Y-41310D01*
X46510Y-41345D01*
X46510Y-41447D01*
X46510Y-41502D01*
X46531Y-41554D01*
X46570Y-41593D01*
X46622Y-41615D01*
X46665Y-41615D01*
X46700Y-41580D01*
X46700Y-42360D01*
X46490Y-42150D01*
X46490Y-41502D01*
X46490Y-41447D01*
X46490Y-41250D01*
X46490Y-40997D01*
X46468Y-40945D01*
X46429Y-40906D01*
X46377Y-40885D01*
X46322Y-40885D01*
X46122Y-40885D01*
X46070Y-40906D01*
X46031Y-40945D01*
X46010Y-40997D01*
X46010Y-41052D01*
X46010Y-41250D01*
X46010Y-41502D01*
X46010Y-42250D01*
X46028Y-42341D01*
X46080Y-42419D01*
X46580Y-42919D01*
X46579Y-43083D01*
X46643Y-43237D01*
X46760Y-43354D01*
X46760Y-44229D01*
X46677Y-44229D01*
X46625Y-44250D01*
X46586Y-44289D01*
X46565Y-44341D01*
X46565Y-44396D01*
X46565Y-44908D01*
X46586Y-44960D01*
X46625Y-44999D01*
X46626Y-45000D01*
X46625Y-45000D01*
X46586Y-45039D01*
X46565Y-45091D01*
X46565Y-45280D01*
X46600Y-45315D01*
X46940Y-45315D01*
X46940Y-45307D01*
X47060Y-45307D01*
X47060Y-45315D01*
X47400Y-45315D01*
X47435Y-45280D01*
X47435Y-45470D01*
X47400Y-45435D01*
X47060Y-45435D01*
X47060Y-45736D01*
X47095Y-45771D01*
X47267Y-45771D01*
X47322Y-45771D01*
X47374Y-45749D01*
X47413Y-45710D01*
X47435Y-45658D01*
X47435Y-49960D01*
X46940Y-49960D01*
X46940Y-45736D01*
X46940Y-45435D01*
X46600Y-45435D01*
X46565Y-45470D01*
X46565Y-45658D01*
X46586Y-45710D01*
X46625Y-45749D01*
X46677Y-45771D01*
X46732Y-45771D01*
X46905Y-45771D01*
X46940Y-45736D01*
X46940Y-49960D01*
X45990Y-49960D01*
X45990Y-42250D01*
X45990Y-41502D01*
X45990Y-41447D01*
X45990Y-41250D01*
X45990Y-40997D01*
X45968Y-40945D01*
X45929Y-40906D01*
X45877Y-40885D01*
X45822Y-40885D01*
X45622Y-40885D01*
X45570Y-40906D01*
X45531Y-40945D01*
X45510Y-40997D01*
X45510Y-41052D01*
X45510Y-41250D01*
X45510Y-41502D01*
X45510Y-42150D01*
X45080Y-42580D01*
X44916Y-42579D01*
X44762Y-42643D01*
X44644Y-42761D01*
X44580Y-42916D01*
X44579Y-43083D01*
X44643Y-43237D01*
X44760Y-43354D01*
X44760Y-44229D01*
X44677Y-44229D01*
X44625Y-44250D01*
X44586Y-44289D01*
X44565Y-44341D01*
X44565Y-44396D01*
X44565Y-44908D01*
X44586Y-44960D01*
X44625Y-44999D01*
X44626Y-45000D01*
X44625Y-45000D01*
X44586Y-45039D01*
X44565Y-45091D01*
X44565Y-45280D01*
X44600Y-45315D01*
X44940Y-45315D01*
X44940Y-45307D01*
X45060Y-45307D01*
X45060Y-45315D01*
X45400Y-45315D01*
X45435Y-45280D01*
X45435Y-45091D01*
X45413Y-45039D01*
X45374Y-45000D01*
X45373Y-45000D01*
X45374Y-44999D01*
X45413Y-44960D01*
X45435Y-44908D01*
X45435Y-44853D01*
X45435Y-44341D01*
X45413Y-44289D01*
X45374Y-44250D01*
X45322Y-44229D01*
X45267Y-44229D01*
X45240Y-44229D01*
X45240Y-43353D01*
X45355Y-43238D01*
X45419Y-43083D01*
X45420Y-42919D01*
X45919Y-42419D01*
X45971Y-42341D01*
X45990Y-42250D01*
X45990Y-49960D01*
X45435Y-49960D01*
X45435Y-45658D01*
X45435Y-45470D01*
X45400Y-45435D01*
X45060Y-45435D01*
X45060Y-45736D01*
X45095Y-45771D01*
X45267Y-45771D01*
X45322Y-45771D01*
X45374Y-45749D01*
X45413Y-45710D01*
X45435Y-45658D01*
X45435Y-49960D01*
X44940Y-49960D01*
X44940Y-45736D01*
X44940Y-45435D01*
X44600Y-45435D01*
X44565Y-45470D01*
X44565Y-45658D01*
X44586Y-45710D01*
X44625Y-45749D01*
X44677Y-45771D01*
X44732Y-45771D01*
X44905Y-45771D01*
X44940Y-45736D01*
X44940Y-49960D01*
X40790Y-49960D01*
X40790Y-47540D01*
X40790Y-38460D01*
X36496Y-38460D01*
X34960Y-38460D01*
X34960Y-47540D01*
X40790Y-47540D01*
X40790Y-49960D01*
X40750Y-49960D01*
X35162Y-49960D01*
X35162Y-48808D01*
X35048Y-48532D01*
X34837Y-48321D01*
X34562Y-48206D01*
X34263Y-48206D01*
X33987Y-48320D01*
X33776Y-48531D01*
X33662Y-48806D01*
X33662Y-49105D01*
X33776Y-49381D01*
X33986Y-49592D01*
X34262Y-49706D01*
X34560Y-49707D01*
X34836Y-49593D01*
X35048Y-49382D01*
X35162Y-49106D01*
X35162Y-48808D01*
X35162Y-49960D01*
X33540Y-49960D01*
X33540Y-32290D01*
X36521Y-32290D01*
X36560Y-32328D01*
X36560Y-32426D01*
X36524Y-32390D01*
X36496Y-32418D01*
X36462Y-32355D01*
X36295Y-32303D01*
X36121Y-32320D01*
X36037Y-32355D01*
X36003Y-32418D01*
X36250Y-32665D01*
X36255Y-32659D01*
X36340Y-32744D01*
X36334Y-32750D01*
X36340Y-32755D01*
X36255Y-32840D01*
X36250Y-32834D01*
X36165Y-32919D01*
X36165Y-32750D01*
X35918Y-32503D01*
X35855Y-32537D01*
X35803Y-32704D01*
X35820Y-32878D01*
X35855Y-32962D01*
X35918Y-32996D01*
X36165Y-32750D01*
X36165Y-32919D01*
X36003Y-33081D01*
X36037Y-33144D01*
X36204Y-33196D01*
X36378Y-33179D01*
X36462Y-33144D01*
X36496Y-33081D01*
X36496Y-33081D01*
X36524Y-33109D01*
X36560Y-33073D01*
X36560Y-33360D01*
X36528Y-33408D01*
X36510Y-33500D01*
X36528Y-33591D01*
X36580Y-33669D01*
X36658Y-33721D01*
X36750Y-33740D01*
X37763Y-33740D01*
X37808Y-33785D01*
X37932Y-33836D01*
X38066Y-33836D01*
X38190Y-33785D01*
X38285Y-33691D01*
X38336Y-33567D01*
X38336Y-33433D01*
X38285Y-33309D01*
X38191Y-33214D01*
X38067Y-33163D01*
X37933Y-33163D01*
X37809Y-33214D01*
X37763Y-33260D01*
X36940Y-33260D01*
X36940Y-33062D01*
X37000Y-33122D01*
X37162Y-33189D01*
X37337Y-33190D01*
X37498Y-33123D01*
X37622Y-32999D01*
X37626Y-32990D01*
X38150Y-32990D01*
X40510Y-35349D01*
X40510Y-35650D01*
X40497Y-35663D01*
X40433Y-35663D01*
X40309Y-35714D01*
X40214Y-35808D01*
X40163Y-35932D01*
X40163Y-36066D01*
X40214Y-36190D01*
X40308Y-36285D01*
X40432Y-36336D01*
X40566Y-36336D01*
X40690Y-36285D01*
X40785Y-36191D01*
X40836Y-36067D01*
X40836Y-36002D01*
X40919Y-35919D01*
X40919Y-35919D01*
X40950Y-35873D01*
X40971Y-35841D01*
X40971Y-35841D01*
X40990Y-35750D01*
X40990Y-35329D01*
X41010Y-35349D01*
X41010Y-36750D01*
X41028Y-36841D01*
X41080Y-36919D01*
X42080Y-37919D01*
X42080Y-37919D01*
X42158Y-37971D01*
X42250Y-37990D01*
X45400Y-37990D01*
X45510Y-38099D01*
X45510Y-38497D01*
X45510Y-38552D01*
X45510Y-38750D01*
X45510Y-39002D01*
X45510Y-39250D01*
X45528Y-39341D01*
X45580Y-39419D01*
X45830Y-39669D01*
X45876Y-39700D01*
X45908Y-39721D01*
X45908Y-39721D01*
X46000Y-39740D01*
X48125Y-39740D01*
X48216Y-39721D01*
X48294Y-39669D01*
X48529Y-39435D01*
X48908Y-39435D01*
X48960Y-39413D01*
X48999Y-39374D01*
X49000Y-39373D01*
X49000Y-39374D01*
X49039Y-39413D01*
X49091Y-39435D01*
X49146Y-39435D01*
X49658Y-39435D01*
X49710Y-39413D01*
X49749Y-39374D01*
X49771Y-39322D01*
X49771Y-39267D01*
X49771Y-38677D01*
X49749Y-38625D01*
X49710Y-38586D01*
X49658Y-38565D01*
X49615Y-38565D01*
X49615Y-38224D01*
X52599Y-35240D01*
X52840Y-35240D01*
X52851Y-35265D01*
X52983Y-35398D01*
X53156Y-35469D01*
X53343Y-35470D01*
X53515Y-35398D01*
X53648Y-35266D01*
X53719Y-35093D01*
X53720Y-34906D01*
X53690Y-34834D01*
X53690Y-33788D01*
X53690Y-33241D01*
X53690Y-33121D01*
X53690Y-32574D01*
X53655Y-32539D01*
X52911Y-32539D01*
X52856Y-32539D01*
X52804Y-32560D01*
X52765Y-32599D01*
X52744Y-32651D01*
X52744Y-33086D01*
X52779Y-33121D01*
X53690Y-33121D01*
X53690Y-33241D01*
X52779Y-33241D01*
X52744Y-33276D01*
X52744Y-33710D01*
X52765Y-33762D01*
X52804Y-33801D01*
X52856Y-33823D01*
X52911Y-33823D01*
X53655Y-33823D01*
X53690Y-33788D01*
X53690Y-34834D01*
X53648Y-34734D01*
X53516Y-34601D01*
X53343Y-34530D01*
X53156Y-34529D01*
X52984Y-34601D01*
X52851Y-34733D01*
X52840Y-34760D01*
X52500Y-34760D01*
X52408Y-34778D01*
X52330Y-34830D01*
X49521Y-37639D01*
X49521Y-36072D01*
X49521Y-36017D01*
X49521Y-35845D01*
X49521Y-35655D01*
X49521Y-35482D01*
X49521Y-35427D01*
X49499Y-35375D01*
X49460Y-35336D01*
X49420Y-35319D01*
X49420Y-34357D01*
X49420Y-34302D01*
X49420Y-34245D01*
X49420Y-34055D01*
X49420Y-33997D01*
X49420Y-33942D01*
X49398Y-33890D01*
X49359Y-33851D01*
X49307Y-33830D01*
X49195Y-33830D01*
X49160Y-33865D01*
X49160Y-34090D01*
X49385Y-34090D01*
X49420Y-34055D01*
X49420Y-34245D01*
X49385Y-34210D01*
X49160Y-34210D01*
X49160Y-34435D01*
X49195Y-34470D01*
X49307Y-34470D01*
X49359Y-34448D01*
X49398Y-34409D01*
X49420Y-34357D01*
X49420Y-35319D01*
X49408Y-35315D01*
X49220Y-35315D01*
X49185Y-35350D01*
X49185Y-35690D01*
X49486Y-35690D01*
X49521Y-35655D01*
X49521Y-35845D01*
X49486Y-35810D01*
X49185Y-35810D01*
X49185Y-36150D01*
X49220Y-36185D01*
X49408Y-36185D01*
X49460Y-36163D01*
X49499Y-36124D01*
X49521Y-36072D01*
X49521Y-37639D01*
X49205Y-37955D01*
X49153Y-38033D01*
X49135Y-38125D01*
X49135Y-38565D01*
X49091Y-38565D01*
X49065Y-38575D01*
X49065Y-36150D01*
X49065Y-35810D01*
X49057Y-35810D01*
X49057Y-35690D01*
X49065Y-35690D01*
X49065Y-35350D01*
X49040Y-35325D01*
X49040Y-34435D01*
X49040Y-34210D01*
X49040Y-34090D01*
X49040Y-33865D01*
X49005Y-33830D01*
X48892Y-33830D01*
X48840Y-33851D01*
X48801Y-33890D01*
X48780Y-33942D01*
X48780Y-33997D01*
X48780Y-34055D01*
X48815Y-34090D01*
X49040Y-34090D01*
X49040Y-34210D01*
X48815Y-34210D01*
X48780Y-34245D01*
X48780Y-34302D01*
X48780Y-34357D01*
X48801Y-34409D01*
X48840Y-34448D01*
X48892Y-34470D01*
X49005Y-34470D01*
X49040Y-34435D01*
X49040Y-35325D01*
X49030Y-35315D01*
X48841Y-35315D01*
X48789Y-35336D01*
X48750Y-35375D01*
X48750Y-35376D01*
X48749Y-35375D01*
X48710Y-35336D01*
X48658Y-35315D01*
X48640Y-35315D01*
X48640Y-34456D01*
X48659Y-34448D01*
X48698Y-34409D01*
X48720Y-34357D01*
X48720Y-34302D01*
X48720Y-33942D01*
X48698Y-33890D01*
X48659Y-33851D01*
X48607Y-33830D01*
X48552Y-33830D01*
X48192Y-33830D01*
X48140Y-33851D01*
X48101Y-33890D01*
X48080Y-33942D01*
X48080Y-33997D01*
X48080Y-34357D01*
X48101Y-34409D01*
X48140Y-34448D01*
X48160Y-34456D01*
X48160Y-35070D01*
X47919Y-34830D01*
X47841Y-34778D01*
X47780Y-34765D01*
X47780Y-34172D01*
X47764Y-33976D01*
X47719Y-33868D01*
X47650Y-33827D01*
X47566Y-33912D01*
X47566Y-33742D01*
X47525Y-33674D01*
X47338Y-33613D01*
X47141Y-33629D01*
X47033Y-33674D01*
X46993Y-33742D01*
X47279Y-34029D01*
X47566Y-33742D01*
X47566Y-33912D01*
X47364Y-34114D01*
X47650Y-34400D01*
X47719Y-34359D01*
X47780Y-34172D01*
X47780Y-34765D01*
X47750Y-34760D01*
X47566Y-34760D01*
X47566Y-34485D01*
X47279Y-34199D01*
X47194Y-34283D01*
X47194Y-34114D01*
X46908Y-33827D01*
X46839Y-33868D01*
X46778Y-34055D01*
X46794Y-34251D01*
X46839Y-34359D01*
X46908Y-34400D01*
X47194Y-34114D01*
X47194Y-34283D01*
X46993Y-34485D01*
X47033Y-34554D01*
X47221Y-34614D01*
X47417Y-34599D01*
X47525Y-34554D01*
X47566Y-34485D01*
X47566Y-34760D01*
X45221Y-34760D01*
X45221Y-34172D01*
X45205Y-33976D01*
X45160Y-33868D01*
X45091Y-33827D01*
X45006Y-33912D01*
X45006Y-33742D01*
X44966Y-33674D01*
X44778Y-33613D01*
X44582Y-33629D01*
X44474Y-33674D01*
X44433Y-33742D01*
X44720Y-34029D01*
X45006Y-33742D01*
X45006Y-33912D01*
X44805Y-34114D01*
X45091Y-34400D01*
X45160Y-34359D01*
X45221Y-34172D01*
X45221Y-34760D01*
X45006Y-34760D01*
X45006Y-34485D01*
X44720Y-34199D01*
X44635Y-34283D01*
X44635Y-34114D01*
X44349Y-33827D01*
X44280Y-33868D01*
X44219Y-34055D01*
X44235Y-34251D01*
X44280Y-34359D01*
X44349Y-34400D01*
X44635Y-34114D01*
X44635Y-34283D01*
X44433Y-34485D01*
X44474Y-34554D01*
X44661Y-34614D01*
X44858Y-34599D01*
X44966Y-34554D01*
X45006Y-34485D01*
X45006Y-34760D01*
X43420Y-34760D01*
X43420Y-34357D01*
X43420Y-34302D01*
X43420Y-34245D01*
X43420Y-34055D01*
X43420Y-33997D01*
X43420Y-33942D01*
X43398Y-33890D01*
X43359Y-33851D01*
X43307Y-33830D01*
X43195Y-33830D01*
X43160Y-33865D01*
X43160Y-34090D01*
X43385Y-34090D01*
X43420Y-34055D01*
X43420Y-34245D01*
X43385Y-34210D01*
X43160Y-34210D01*
X43160Y-34435D01*
X43195Y-34470D01*
X43307Y-34470D01*
X43359Y-34448D01*
X43398Y-34409D01*
X43420Y-34357D01*
X43420Y-34760D01*
X43040Y-34760D01*
X43040Y-34435D01*
X43040Y-34210D01*
X43040Y-34090D01*
X43040Y-33865D01*
X43005Y-33830D01*
X42892Y-33830D01*
X42840Y-33851D01*
X42801Y-33890D01*
X42780Y-33942D01*
X42780Y-33997D01*
X42780Y-34055D01*
X42815Y-34090D01*
X43040Y-34090D01*
X43040Y-34210D01*
X42815Y-34210D01*
X42780Y-34245D01*
X42780Y-34302D01*
X42780Y-34357D01*
X42801Y-34409D01*
X42840Y-34448D01*
X42892Y-34470D01*
X43005Y-34470D01*
X43040Y-34435D01*
X43040Y-34760D01*
X42849Y-34760D01*
X42640Y-34550D01*
X42640Y-34456D01*
X42659Y-34448D01*
X42698Y-34409D01*
X42720Y-34357D01*
X42720Y-34302D01*
X42720Y-33942D01*
X42698Y-33890D01*
X42659Y-33851D01*
X42607Y-33830D01*
X42552Y-33830D01*
X42192Y-33830D01*
X42140Y-33851D01*
X42101Y-33890D01*
X42093Y-33910D01*
X41827Y-33910D01*
X41785Y-33809D01*
X41691Y-33714D01*
X41567Y-33663D01*
X41433Y-33663D01*
X41309Y-33714D01*
X41214Y-33808D01*
X41163Y-33932D01*
X41163Y-34066D01*
X41214Y-34190D01*
X41308Y-34285D01*
X41432Y-34336D01*
X41505Y-34336D01*
X41558Y-34371D01*
X41650Y-34390D01*
X42093Y-34390D01*
X42101Y-34409D01*
X42140Y-34448D01*
X42160Y-34456D01*
X42160Y-34650D01*
X42160Y-35275D01*
X42178Y-35366D01*
X42229Y-35442D01*
X42229Y-35822D01*
X42250Y-35874D01*
X42289Y-35913D01*
X42341Y-35935D01*
X42396Y-35935D01*
X42908Y-35935D01*
X42960Y-35913D01*
X42999Y-35874D01*
X43000Y-35873D01*
X43000Y-35874D01*
X43039Y-35913D01*
X43091Y-35935D01*
X43280Y-35935D01*
X43315Y-35900D01*
X43315Y-35560D01*
X43307Y-35560D01*
X43307Y-35440D01*
X43315Y-35440D01*
X43315Y-35432D01*
X43435Y-35432D01*
X43435Y-35440D01*
X43736Y-35440D01*
X43771Y-35405D01*
X43771Y-35240D01*
X47650Y-35240D01*
X47979Y-35568D01*
X47979Y-36072D01*
X48000Y-36124D01*
X48039Y-36163D01*
X48091Y-36185D01*
X48135Y-36185D01*
X48135Y-37025D01*
X47773Y-37386D01*
X47773Y-35787D01*
X47698Y-35606D01*
X47559Y-35466D01*
X47378Y-35391D01*
X47181Y-35391D01*
X46999Y-35466D01*
X46860Y-35605D01*
X46796Y-35760D01*
X45203Y-35760D01*
X45139Y-35606D01*
X45000Y-35466D01*
X44819Y-35391D01*
X44622Y-35391D01*
X44440Y-35466D01*
X44301Y-35605D01*
X44226Y-35787D01*
X44226Y-35934D01*
X43997Y-36163D01*
X43933Y-36163D01*
X43809Y-36214D01*
X43771Y-36252D01*
X43771Y-35822D01*
X43771Y-35767D01*
X43771Y-35595D01*
X43736Y-35560D01*
X43435Y-35560D01*
X43435Y-35900D01*
X43470Y-35935D01*
X43658Y-35935D01*
X43710Y-35913D01*
X43749Y-35874D01*
X43771Y-35822D01*
X43771Y-36252D01*
X43714Y-36308D01*
X43663Y-36432D01*
X43663Y-36566D01*
X43714Y-36690D01*
X43808Y-36785D01*
X43932Y-36836D01*
X44066Y-36836D01*
X44190Y-36785D01*
X44285Y-36691D01*
X44336Y-36567D01*
X44336Y-36502D01*
X44506Y-36332D01*
X44621Y-36380D01*
X44818Y-36380D01*
X45000Y-36305D01*
X45065Y-36240D01*
X46934Y-36240D01*
X46999Y-36304D01*
X47180Y-36380D01*
X47377Y-36380D01*
X47559Y-36305D01*
X47698Y-36166D01*
X47773Y-35984D01*
X47773Y-35787D01*
X47773Y-37386D01*
X46775Y-38385D01*
X46622Y-38385D01*
X46570Y-38406D01*
X46531Y-38445D01*
X46510Y-38497D01*
X46510Y-38552D01*
X46510Y-38750D01*
X46510Y-39002D01*
X46531Y-39054D01*
X46570Y-39093D01*
X46622Y-39115D01*
X46677Y-39115D01*
X46877Y-39115D01*
X46929Y-39093D01*
X46968Y-39054D01*
X46990Y-39002D01*
X46990Y-38947D01*
X46990Y-38849D01*
X48544Y-37294D01*
X48544Y-37294D01*
X48596Y-37216D01*
X48614Y-37125D01*
X48615Y-37125D01*
X48615Y-36185D01*
X48658Y-36185D01*
X48710Y-36163D01*
X48749Y-36124D01*
X48750Y-36123D01*
X48750Y-36124D01*
X48789Y-36163D01*
X48841Y-36185D01*
X49030Y-36185D01*
X49065Y-36150D01*
X49065Y-38575D01*
X49039Y-38586D01*
X49000Y-38625D01*
X49000Y-38626D01*
X48999Y-38625D01*
X48960Y-38586D01*
X48908Y-38565D01*
X48853Y-38565D01*
X48341Y-38565D01*
X48289Y-38586D01*
X48250Y-38625D01*
X48229Y-38677D01*
X48229Y-38732D01*
X48229Y-39056D01*
X48025Y-39260D01*
X46099Y-39260D01*
X45990Y-39150D01*
X45990Y-39002D01*
X45990Y-38947D01*
X45990Y-38750D01*
X45990Y-38497D01*
X45990Y-38079D01*
X46010Y-38099D01*
X46010Y-38497D01*
X46010Y-38552D01*
X46010Y-38750D01*
X46010Y-39002D01*
X46031Y-39054D01*
X46070Y-39093D01*
X46122Y-39115D01*
X46177Y-39115D01*
X46377Y-39115D01*
X46429Y-39093D01*
X46468Y-39054D01*
X46490Y-39002D01*
X46490Y-38947D01*
X46490Y-38750D01*
X46490Y-38497D01*
X46490Y-38000D01*
X46471Y-37908D01*
X46471Y-37908D01*
X46450Y-37876D01*
X46419Y-37830D01*
X45944Y-37355D01*
X45944Y-37355D01*
X45869Y-37280D01*
X45791Y-37228D01*
X45699Y-37209D01*
X42473Y-37209D01*
X41802Y-36538D01*
X41802Y-35137D01*
X41783Y-35046D01*
X41731Y-34968D01*
X39053Y-32290D01*
X40815Y-32290D01*
X40815Y-32658D01*
X40836Y-32710D01*
X40875Y-32749D01*
X40876Y-32750D01*
X40875Y-32750D01*
X40836Y-32789D01*
X40815Y-32841D01*
X40815Y-32896D01*
X40815Y-33408D01*
X40836Y-33460D01*
X40875Y-33499D01*
X40927Y-33521D01*
X40982Y-33521D01*
X41572Y-33521D01*
X41587Y-33515D01*
X42363Y-33515D01*
X42446Y-33598D01*
X42451Y-33609D01*
X42490Y-33648D01*
X42537Y-33668D01*
X42600Y-33710D01*
X42750Y-33740D01*
X42899Y-33710D01*
X42962Y-33668D01*
X43009Y-33648D01*
X43048Y-33609D01*
X43068Y-33562D01*
X43099Y-33515D01*
X43912Y-33515D01*
X43927Y-33521D01*
X43982Y-33521D01*
X44572Y-33521D01*
X44624Y-33499D01*
X44663Y-33460D01*
X44685Y-33408D01*
X44685Y-33353D01*
X44685Y-32841D01*
X44663Y-32789D01*
X44624Y-32750D01*
X44623Y-32750D01*
X44624Y-32749D01*
X44663Y-32710D01*
X44685Y-32658D01*
X44685Y-32603D01*
X44685Y-32290D01*
X46815Y-32290D01*
X46815Y-32658D01*
X46836Y-32710D01*
X46875Y-32749D01*
X46876Y-32750D01*
X46875Y-32750D01*
X46836Y-32789D01*
X46815Y-32841D01*
X46815Y-32896D01*
X46815Y-33408D01*
X46836Y-33460D01*
X46875Y-33499D01*
X46927Y-33521D01*
X46982Y-33521D01*
X47572Y-33521D01*
X47587Y-33515D01*
X48363Y-33515D01*
X48446Y-33598D01*
X48451Y-33609D01*
X48490Y-33648D01*
X48537Y-33668D01*
X48600Y-33710D01*
X48750Y-33740D01*
X48899Y-33710D01*
X48962Y-33668D01*
X49009Y-33648D01*
X49048Y-33609D01*
X49053Y-33598D01*
X49136Y-33515D01*
X49912Y-33515D01*
X49927Y-33521D01*
X49982Y-33521D01*
X50572Y-33521D01*
X50624Y-33499D01*
X50663Y-33460D01*
X50685Y-33408D01*
X50685Y-33353D01*
X50685Y-32841D01*
X50663Y-32789D01*
X50624Y-32750D01*
X50623Y-32750D01*
X50624Y-32749D01*
X50663Y-32710D01*
X50685Y-32658D01*
X50685Y-32603D01*
X50685Y-32290D01*
X55210Y-32290D01*
X55210Y-37960D01*
X54756Y-37960D01*
X54756Y-33710D01*
X54756Y-33276D01*
X54756Y-33086D01*
X54756Y-32651D01*
X54734Y-32599D01*
X54695Y-32560D01*
X54643Y-32539D01*
X54588Y-32539D01*
X53845Y-32539D01*
X53810Y-32574D01*
X53810Y-33121D01*
X54721Y-33121D01*
X54756Y-33086D01*
X54756Y-33276D01*
X54721Y-33241D01*
X53810Y-33241D01*
X53810Y-33788D01*
X53845Y-33823D01*
X54588Y-33823D01*
X54643Y-33823D01*
X54695Y-33801D01*
X54734Y-33762D01*
X54756Y-33710D01*
X54756Y-37960D01*
X53726Y-37960D01*
X53726Y-36052D01*
X53710Y-35866D01*
X53669Y-35769D01*
X53603Y-35731D01*
X53518Y-35816D01*
X53518Y-35646D01*
X53480Y-35580D01*
X53302Y-35523D01*
X53116Y-35539D01*
X53019Y-35580D01*
X52981Y-35646D01*
X53250Y-35915D01*
X53518Y-35646D01*
X53518Y-35816D01*
X53334Y-36000D01*
X53603Y-36268D01*
X53669Y-36230D01*
X53726Y-36052D01*
X53726Y-37960D01*
X53518Y-37960D01*
X53518Y-36353D01*
X53250Y-36084D01*
X53165Y-36169D01*
X53165Y-36000D01*
X52896Y-35731D01*
X52830Y-35769D01*
X52773Y-35947D01*
X52789Y-36133D01*
X52830Y-36230D01*
X52896Y-36268D01*
X53165Y-36000D01*
X53165Y-36169D01*
X52981Y-36353D01*
X53019Y-36419D01*
X53197Y-36476D01*
X53383Y-36460D01*
X53480Y-36419D01*
X53518Y-36353D01*
X53518Y-37960D01*
X50960Y-37960D01*
X50960Y-39760D01*
X45849Y-39760D01*
X45490Y-39400D01*
X45490Y-39375D01*
X45490Y-39002D01*
X45490Y-38947D01*
X45490Y-38750D01*
X45490Y-38497D01*
X45468Y-38445D01*
X45429Y-38406D01*
X45377Y-38385D01*
X45322Y-38385D01*
X45122Y-38385D01*
X45070Y-38406D01*
X45031Y-38445D01*
X45010Y-38497D01*
X45010Y-38510D01*
X44521Y-38510D01*
X44521Y-38427D01*
X44499Y-38375D01*
X44460Y-38336D01*
X44408Y-38315D01*
X44353Y-38315D01*
X43841Y-38315D01*
X43789Y-38336D01*
X43750Y-38375D01*
X43750Y-38376D01*
X43749Y-38375D01*
X43710Y-38336D01*
X43658Y-38315D01*
X43470Y-38315D01*
X43435Y-38350D01*
X43435Y-38690D01*
X43442Y-38690D01*
X43442Y-38810D01*
X43435Y-38810D01*
X43435Y-39150D01*
X43470Y-39185D01*
X43658Y-39185D01*
X43710Y-39163D01*
X43749Y-39124D01*
X43750Y-39123D01*
X43750Y-39124D01*
X43789Y-39163D01*
X43841Y-39185D01*
X43896Y-39185D01*
X44408Y-39185D01*
X44460Y-39163D01*
X44499Y-39124D01*
X44521Y-39072D01*
X44521Y-39017D01*
X44521Y-38990D01*
X45010Y-38990D01*
X45010Y-39002D01*
X45010Y-39275D01*
X44220Y-40065D01*
X43841Y-40065D01*
X43789Y-40086D01*
X43750Y-40125D01*
X43750Y-40126D01*
X43749Y-40125D01*
X43710Y-40086D01*
X43658Y-40065D01*
X43603Y-40065D01*
X43315Y-40065D01*
X43315Y-39150D01*
X43315Y-38810D01*
X43315Y-38690D01*
X43315Y-38350D01*
X43280Y-38315D01*
X43091Y-38315D01*
X43039Y-38336D01*
X43000Y-38375D01*
X42979Y-38427D01*
X42979Y-38482D01*
X42979Y-38655D01*
X43014Y-38690D01*
X43315Y-38690D01*
X43315Y-38810D01*
X43014Y-38810D01*
X42979Y-38845D01*
X42979Y-39017D01*
X42979Y-39072D01*
X43000Y-39124D01*
X43039Y-39163D01*
X43091Y-39185D01*
X43280Y-39185D01*
X43315Y-39150D01*
X43315Y-40065D01*
X43091Y-40065D01*
X43039Y-40086D01*
X43000Y-40125D01*
X42979Y-40177D01*
X42979Y-40232D01*
X42979Y-40822D01*
X43000Y-40874D01*
X43039Y-40913D01*
X43091Y-40935D01*
X43130Y-40935D01*
X43059Y-40964D01*
X42964Y-41058D01*
X42913Y-41182D01*
X42913Y-41316D01*
X42964Y-41440D01*
X43058Y-41535D01*
X43182Y-41586D01*
X43316Y-41586D01*
X43440Y-41535D01*
X43486Y-41490D01*
X43875Y-41490D01*
X45010Y-41490D01*
X45010Y-41502D01*
X45031Y-41554D01*
X45070Y-41593D01*
X45122Y-41615D01*
X45177Y-41615D01*
X45377Y-41615D01*
X45429Y-41593D01*
X45468Y-41554D01*
X45490Y-41502D01*
X45490Y-41447D01*
X45490Y-41250D01*
X45490Y-40997D01*
X45468Y-40945D01*
X45429Y-40906D01*
X45377Y-40885D01*
X45322Y-40885D01*
X45122Y-40885D01*
X45070Y-40906D01*
X45031Y-40945D01*
X45010Y-40997D01*
X45010Y-41010D01*
X43875Y-41010D01*
X43615Y-41010D01*
X43615Y-40935D01*
X43658Y-40935D01*
X43710Y-40913D01*
X43749Y-40874D01*
X43750Y-40873D01*
X43750Y-40874D01*
X43789Y-40913D01*
X43841Y-40935D01*
X43896Y-40935D01*
X44408Y-40935D01*
X44460Y-40913D01*
X44499Y-40874D01*
X44521Y-40822D01*
X44521Y-40767D01*
X44521Y-40443D01*
X45187Y-39776D01*
X45580Y-40169D01*
X45658Y-40221D01*
X45750Y-40240D01*
X50960Y-40240D01*
X50960Y-42040D01*
X58710Y-42040D01*
X58710Y-49960D01*
G54D10*
G36*
X58710Y-41460D02*
X58587Y-41460D01*
X58587Y-29634D01*
X58473Y-29359D01*
X58263Y-29147D01*
X57987Y-29033D01*
X57689Y-29033D01*
X57413Y-29147D01*
X57201Y-29357D01*
X57087Y-29633D01*
X57087Y-29932D01*
X57201Y-30207D01*
X57412Y-30419D01*
X57687Y-30533D01*
X57986Y-30533D01*
X58262Y-30419D01*
X58473Y-30208D01*
X58587Y-29933D01*
X58587Y-29634D01*
X58587Y-41460D01*
X56238Y-41460D01*
X56238Y-40091D01*
X56224Y-39840D01*
X56154Y-39671D01*
X56071Y-39613D01*
X55986Y-39698D01*
X55986Y-39528D01*
X55929Y-39445D01*
X55691Y-39362D01*
X55440Y-39375D01*
X55271Y-39445D01*
X55213Y-39528D01*
X55600Y-39915D01*
X55986Y-39528D01*
X55986Y-39698D01*
X55685Y-40000D01*
X56071Y-40386D01*
X56154Y-40328D01*
X56238Y-40091D01*
X56238Y-41460D01*
X55986Y-41460D01*
X55986Y-40471D01*
X55600Y-40084D01*
X55515Y-40169D01*
X55515Y-40000D01*
X55129Y-39613D01*
X55045Y-39671D01*
X54962Y-39908D01*
X54975Y-40159D01*
X55045Y-40328D01*
X55129Y-40386D01*
X55515Y-40000D01*
X55515Y-40169D01*
X55213Y-40471D01*
X55271Y-40554D01*
X55508Y-40637D01*
X55760Y-40624D01*
X55929Y-40554D01*
X55986Y-40471D01*
X55986Y-41460D01*
X53238Y-41460D01*
X53238Y-40091D01*
X53224Y-39840D01*
X53154Y-39671D01*
X53071Y-39613D01*
X52986Y-39698D01*
X52986Y-39528D01*
X52929Y-39445D01*
X52691Y-39362D01*
X52440Y-39375D01*
X52271Y-39445D01*
X52213Y-39528D01*
X52600Y-39915D01*
X52986Y-39528D01*
X52986Y-39698D01*
X52685Y-40000D01*
X53071Y-40386D01*
X53154Y-40328D01*
X53238Y-40091D01*
X53238Y-41460D01*
X52986Y-41460D01*
X52986Y-40471D01*
X52600Y-40084D01*
X52515Y-40169D01*
X52515Y-40000D01*
X52129Y-39613D01*
X52045Y-39671D01*
X51962Y-39908D01*
X51975Y-40159D01*
X52045Y-40328D01*
X52129Y-40386D01*
X52515Y-40000D01*
X52515Y-40169D01*
X52213Y-40471D01*
X52271Y-40554D01*
X52508Y-40637D01*
X52760Y-40624D01*
X52929Y-40554D01*
X52986Y-40471D01*
X52986Y-41460D01*
X51540Y-41460D01*
X51540Y-38540D01*
X55790Y-38540D01*
X55790Y-31710D01*
X54756Y-31710D01*
X54756Y-31348D01*
X54756Y-30914D01*
X54756Y-30724D01*
X54756Y-30289D01*
X54734Y-30237D01*
X54695Y-30198D01*
X54643Y-30177D01*
X54588Y-30177D01*
X53845Y-30177D01*
X53810Y-30212D01*
X53810Y-30759D01*
X54721Y-30759D01*
X54756Y-30724D01*
X54756Y-30914D01*
X54721Y-30879D01*
X53810Y-30879D01*
X53810Y-31426D01*
X53845Y-31461D01*
X54588Y-31461D01*
X54643Y-31461D01*
X54695Y-31439D01*
X54734Y-31400D01*
X54756Y-31348D01*
X54756Y-31710D01*
X53690Y-31710D01*
X53690Y-31426D01*
X53690Y-30879D01*
X53690Y-30759D01*
X53690Y-30212D01*
X53655Y-30177D01*
X52911Y-30177D01*
X52856Y-30177D01*
X52804Y-30198D01*
X52765Y-30237D01*
X52744Y-30289D01*
X52744Y-30724D01*
X52779Y-30759D01*
X53690Y-30759D01*
X53690Y-30879D01*
X52779Y-30879D01*
X52744Y-30914D01*
X52744Y-31348D01*
X52765Y-31400D01*
X52804Y-31439D01*
X52856Y-31461D01*
X52911Y-31461D01*
X53655Y-31461D01*
X53690Y-31426D01*
X53690Y-31710D01*
X51726Y-31710D01*
X51726Y-30802D01*
X51710Y-30616D01*
X51669Y-30519D01*
X51603Y-30481D01*
X51518Y-30566D01*
X51518Y-30396D01*
X51480Y-30330D01*
X51302Y-30273D01*
X51116Y-30289D01*
X51019Y-30330D01*
X50981Y-30396D01*
X51250Y-30665D01*
X51518Y-30396D01*
X51518Y-30566D01*
X51334Y-30750D01*
X51603Y-31018D01*
X51669Y-30980D01*
X51726Y-30802D01*
X51726Y-31710D01*
X51518Y-31710D01*
X51518Y-31103D01*
X51250Y-30834D01*
X51165Y-30919D01*
X51165Y-30750D01*
X50896Y-30481D01*
X50830Y-30519D01*
X50773Y-30697D01*
X50789Y-30883D01*
X50830Y-30980D01*
X50896Y-31018D01*
X51165Y-30750D01*
X51165Y-30919D01*
X50981Y-31103D01*
X51019Y-31169D01*
X51197Y-31226D01*
X51383Y-31210D01*
X51480Y-31169D01*
X51518Y-31103D01*
X51518Y-31710D01*
X50640Y-31710D01*
X50640Y-31024D01*
X50648Y-31016D01*
X50719Y-30843D01*
X50720Y-30656D01*
X50648Y-30484D01*
X50516Y-30351D01*
X50343Y-30280D01*
X50156Y-30279D01*
X49984Y-30351D01*
X49851Y-30483D01*
X49780Y-30656D01*
X49779Y-30843D01*
X49851Y-31015D01*
X49860Y-31024D01*
X49860Y-31710D01*
X48726Y-31710D01*
X48726Y-30802D01*
X48710Y-30616D01*
X48669Y-30519D01*
X48603Y-30481D01*
X48518Y-30566D01*
X48518Y-30396D01*
X48480Y-30330D01*
X48302Y-30273D01*
X48116Y-30289D01*
X48019Y-30330D01*
X47981Y-30396D01*
X48250Y-30665D01*
X48518Y-30396D01*
X48518Y-30566D01*
X48334Y-30750D01*
X48603Y-31018D01*
X48669Y-30980D01*
X48726Y-30802D01*
X48726Y-31710D01*
X48518Y-31710D01*
X48518Y-31103D01*
X48250Y-30834D01*
X48165Y-30919D01*
X48165Y-30750D01*
X47896Y-30481D01*
X47830Y-30519D01*
X47773Y-30697D01*
X47789Y-30883D01*
X47830Y-30980D01*
X47896Y-31018D01*
X48165Y-30750D01*
X48165Y-30919D01*
X47981Y-31103D01*
X48019Y-31169D01*
X48197Y-31226D01*
X48383Y-31210D01*
X48480Y-31169D01*
X48518Y-31103D01*
X48518Y-31710D01*
X47640Y-31710D01*
X47640Y-31024D01*
X47648Y-31016D01*
X47719Y-30843D01*
X47720Y-30656D01*
X47648Y-30484D01*
X47516Y-30351D01*
X47343Y-30280D01*
X47156Y-30279D01*
X46984Y-30351D01*
X46851Y-30483D01*
X46780Y-30656D01*
X46779Y-30843D01*
X46851Y-31015D01*
X46860Y-31024D01*
X46860Y-31710D01*
X45726Y-31710D01*
X45726Y-30802D01*
X45710Y-30616D01*
X45669Y-30519D01*
X45603Y-30481D01*
X45518Y-30566D01*
X45518Y-30396D01*
X45480Y-30330D01*
X45302Y-30273D01*
X45116Y-30289D01*
X45019Y-30330D01*
X44981Y-30396D01*
X45250Y-30665D01*
X45518Y-30396D01*
X45518Y-30566D01*
X45334Y-30750D01*
X45603Y-31018D01*
X45669Y-30980D01*
X45726Y-30802D01*
X45726Y-31710D01*
X45518Y-31710D01*
X45518Y-31103D01*
X45250Y-30834D01*
X45165Y-30919D01*
X45165Y-30750D01*
X44896Y-30481D01*
X44830Y-30519D01*
X44773Y-30697D01*
X44789Y-30883D01*
X44830Y-30980D01*
X44896Y-31018D01*
X45165Y-30750D01*
X45165Y-30919D01*
X44981Y-31103D01*
X45019Y-31169D01*
X45197Y-31226D01*
X45383Y-31210D01*
X45480Y-31169D01*
X45518Y-31103D01*
X45518Y-31710D01*
X44640Y-31710D01*
X44640Y-31024D01*
X44648Y-31016D01*
X44719Y-30843D01*
X44720Y-30656D01*
X44648Y-30484D01*
X44516Y-30351D01*
X44343Y-30280D01*
X44156Y-30279D01*
X43984Y-30351D01*
X43851Y-30483D01*
X43780Y-30656D01*
X43779Y-30843D01*
X43851Y-31015D01*
X43860Y-31024D01*
X43860Y-31710D01*
X42726Y-31710D01*
X42726Y-30802D01*
X42710Y-30616D01*
X42669Y-30519D01*
X42603Y-30481D01*
X42518Y-30566D01*
X42518Y-30396D01*
X42480Y-30330D01*
X42302Y-30273D01*
X42116Y-30289D01*
X42019Y-30330D01*
X41981Y-30396D01*
X42250Y-30665D01*
X42518Y-30396D01*
X42518Y-30566D01*
X42334Y-30750D01*
X42603Y-31018D01*
X42669Y-30980D01*
X42726Y-30802D01*
X42726Y-31710D01*
X42518Y-31710D01*
X42518Y-31103D01*
X42250Y-30834D01*
X42165Y-30919D01*
X42165Y-30750D01*
X41896Y-30481D01*
X41830Y-30519D01*
X41773Y-30697D01*
X41789Y-30883D01*
X41830Y-30980D01*
X41896Y-31018D01*
X42165Y-30750D01*
X42165Y-30919D01*
X41981Y-31103D01*
X42019Y-31169D01*
X42197Y-31226D01*
X42383Y-31210D01*
X42480Y-31169D01*
X42518Y-31103D01*
X42518Y-31710D01*
X41640Y-31710D01*
X41640Y-31024D01*
X41648Y-31016D01*
X41719Y-30843D01*
X41720Y-30656D01*
X41648Y-30484D01*
X41516Y-30351D01*
X41343Y-30280D01*
X41156Y-30279D01*
X40984Y-30351D01*
X40851Y-30483D01*
X40780Y-30656D01*
X40779Y-30843D01*
X40851Y-31015D01*
X40860Y-31024D01*
X40860Y-31710D01*
X38473Y-31710D01*
X38431Y-31668D01*
X38431Y-31668D01*
X38181Y-31418D01*
X37719Y-30956D01*
X37690Y-30926D01*
X37690Y-30422D01*
X37668Y-30370D01*
X37629Y-30331D01*
X37577Y-30310D01*
X37522Y-30310D01*
X36922Y-30310D01*
X36870Y-30331D01*
X36831Y-30370D01*
X36810Y-30422D01*
X36810Y-30477D01*
X36810Y-31077D01*
X36831Y-31129D01*
X36870Y-31168D01*
X36922Y-31190D01*
X36977Y-31190D01*
X37274Y-31190D01*
X37380Y-31295D01*
X37435Y-31350D01*
X37337Y-31310D01*
X37162Y-31309D01*
X37001Y-31376D01*
X36877Y-31500D01*
X36810Y-31662D01*
X36810Y-31710D01*
X36696Y-31710D01*
X36696Y-30795D01*
X36679Y-30621D01*
X36644Y-30537D01*
X36581Y-30503D01*
X36496Y-30587D01*
X36496Y-30418D01*
X36462Y-30355D01*
X36295Y-30303D01*
X36121Y-30320D01*
X36037Y-30355D01*
X36003Y-30418D01*
X36250Y-30665D01*
X36496Y-30418D01*
X36496Y-30587D01*
X36334Y-30750D01*
X36581Y-30996D01*
X36644Y-30962D01*
X36696Y-30795D01*
X36696Y-31710D01*
X36690Y-31710D01*
X36690Y-31662D01*
X36623Y-31501D01*
X36499Y-31377D01*
X36496Y-31376D01*
X36496Y-31081D01*
X36250Y-30834D01*
X36165Y-30919D01*
X36165Y-30750D01*
X35918Y-30503D01*
X35855Y-30537D01*
X35803Y-30704D01*
X35820Y-30878D01*
X35855Y-30962D01*
X35918Y-30996D01*
X36165Y-30750D01*
X36165Y-30919D01*
X36003Y-31081D01*
X36037Y-31144D01*
X36204Y-31196D01*
X36378Y-31179D01*
X36462Y-31144D01*
X36496Y-31081D01*
X36496Y-31376D01*
X36337Y-31310D01*
X36162Y-31309D01*
X36001Y-31376D01*
X35877Y-31500D01*
X35810Y-31662D01*
X35810Y-31710D01*
X35162Y-31710D01*
X35162Y-29634D01*
X35048Y-29359D01*
X34837Y-29147D01*
X34562Y-29033D01*
X34263Y-29033D01*
X33987Y-29147D01*
X33776Y-29357D01*
X33662Y-29633D01*
X33662Y-29932D01*
X33776Y-30207D01*
X33986Y-30419D01*
X34262Y-30533D01*
X34560Y-30533D01*
X34836Y-30419D01*
X35048Y-30208D01*
X35162Y-29933D01*
X35162Y-29634D01*
X35162Y-31710D01*
X33540Y-31710D01*
X33540Y-28790D01*
X58710Y-28790D01*
X58710Y-41460D01*
X58710Y-41460D01*
G37*
G54D28*
X58710Y-41460D02*
X58587Y-41460D01*
X58587Y-29634D01*
X58473Y-29359D01*
X58263Y-29147D01*
X57987Y-29033D01*
X57689Y-29033D01*
X57413Y-29147D01*
X57201Y-29357D01*
X57087Y-29633D01*
X57087Y-29932D01*
X57201Y-30207D01*
X57412Y-30419D01*
X57687Y-30533D01*
X57986Y-30533D01*
X58262Y-30419D01*
X58473Y-30208D01*
X58587Y-29933D01*
X58587Y-29634D01*
X58587Y-41460D01*
X56238Y-41460D01*
X56238Y-40091D01*
X56224Y-39840D01*
X56154Y-39671D01*
X56071Y-39613D01*
X55986Y-39698D01*
X55986Y-39528D01*
X55929Y-39445D01*
X55691Y-39362D01*
X55440Y-39375D01*
X55271Y-39445D01*
X55213Y-39528D01*
X55600Y-39915D01*
X55986Y-39528D01*
X55986Y-39698D01*
X55685Y-40000D01*
X56071Y-40386D01*
X56154Y-40328D01*
X56238Y-40091D01*
X56238Y-41460D01*
X55986Y-41460D01*
X55986Y-40471D01*
X55600Y-40084D01*
X55515Y-40169D01*
X55515Y-40000D01*
X55129Y-39613D01*
X55045Y-39671D01*
X54962Y-39908D01*
X54975Y-40159D01*
X55045Y-40328D01*
X55129Y-40386D01*
X55515Y-40000D01*
X55515Y-40169D01*
X55213Y-40471D01*
X55271Y-40554D01*
X55508Y-40637D01*
X55760Y-40624D01*
X55929Y-40554D01*
X55986Y-40471D01*
X55986Y-41460D01*
X53238Y-41460D01*
X53238Y-40091D01*
X53224Y-39840D01*
X53154Y-39671D01*
X53071Y-39613D01*
X52986Y-39698D01*
X52986Y-39528D01*
X52929Y-39445D01*
X52691Y-39362D01*
X52440Y-39375D01*
X52271Y-39445D01*
X52213Y-39528D01*
X52600Y-39915D01*
X52986Y-39528D01*
X52986Y-39698D01*
X52685Y-40000D01*
X53071Y-40386D01*
X53154Y-40328D01*
X53238Y-40091D01*
X53238Y-41460D01*
X52986Y-41460D01*
X52986Y-40471D01*
X52600Y-40084D01*
X52515Y-40169D01*
X52515Y-40000D01*
X52129Y-39613D01*
X52045Y-39671D01*
X51962Y-39908D01*
X51975Y-40159D01*
X52045Y-40328D01*
X52129Y-40386D01*
X52515Y-40000D01*
X52515Y-40169D01*
X52213Y-40471D01*
X52271Y-40554D01*
X52508Y-40637D01*
X52760Y-40624D01*
X52929Y-40554D01*
X52986Y-40471D01*
X52986Y-41460D01*
X51540Y-41460D01*
X51540Y-38540D01*
X55790Y-38540D01*
X55790Y-31710D01*
X54756Y-31710D01*
X54756Y-31348D01*
X54756Y-30914D01*
X54756Y-30724D01*
X54756Y-30289D01*
X54734Y-30237D01*
X54695Y-30198D01*
X54643Y-30177D01*
X54588Y-30177D01*
X53845Y-30177D01*
X53810Y-30212D01*
X53810Y-30759D01*
X54721Y-30759D01*
X54756Y-30724D01*
X54756Y-30914D01*
X54721Y-30879D01*
X53810Y-30879D01*
X53810Y-31426D01*
X53845Y-31461D01*
X54588Y-31461D01*
X54643Y-31461D01*
X54695Y-31439D01*
X54734Y-31400D01*
X54756Y-31348D01*
X54756Y-31710D01*
X53690Y-31710D01*
X53690Y-31426D01*
X53690Y-30879D01*
X53690Y-30759D01*
X53690Y-30212D01*
X53655Y-30177D01*
X52911Y-30177D01*
X52856Y-30177D01*
X52804Y-30198D01*
X52765Y-30237D01*
X52744Y-30289D01*
X52744Y-30724D01*
X52779Y-30759D01*
X53690Y-30759D01*
X53690Y-30879D01*
X52779Y-30879D01*
X52744Y-30914D01*
X52744Y-31348D01*
X52765Y-31400D01*
X52804Y-31439D01*
X52856Y-31461D01*
X52911Y-31461D01*
X53655Y-31461D01*
X53690Y-31426D01*
X53690Y-31710D01*
X51726Y-31710D01*
X51726Y-30802D01*
X51710Y-30616D01*
X51669Y-30519D01*
X51603Y-30481D01*
X51518Y-30566D01*
X51518Y-30396D01*
X51480Y-30330D01*
X51302Y-30273D01*
X51116Y-30289D01*
X51019Y-30330D01*
X50981Y-30396D01*
X51250Y-30665D01*
X51518Y-30396D01*
X51518Y-30566D01*
X51334Y-30750D01*
X51603Y-31018D01*
X51669Y-30980D01*
X51726Y-30802D01*
X51726Y-31710D01*
X51518Y-31710D01*
X51518Y-31103D01*
X51250Y-30834D01*
X51165Y-30919D01*
X51165Y-30750D01*
X50896Y-30481D01*
X50830Y-30519D01*
X50773Y-30697D01*
X50789Y-30883D01*
X50830Y-30980D01*
X50896Y-31018D01*
X51165Y-30750D01*
X51165Y-30919D01*
X50981Y-31103D01*
X51019Y-31169D01*
X51197Y-31226D01*
X51383Y-31210D01*
X51480Y-31169D01*
X51518Y-31103D01*
X51518Y-31710D01*
X50640Y-31710D01*
X50640Y-31024D01*
X50648Y-31016D01*
X50719Y-30843D01*
X50720Y-30656D01*
X50648Y-30484D01*
X50516Y-30351D01*
X50343Y-30280D01*
X50156Y-30279D01*
X49984Y-30351D01*
X49851Y-30483D01*
X49780Y-30656D01*
X49779Y-30843D01*
X49851Y-31015D01*
X49860Y-31024D01*
X49860Y-31710D01*
X48726Y-31710D01*
X48726Y-30802D01*
X48710Y-30616D01*
X48669Y-30519D01*
X48603Y-30481D01*
X48518Y-30566D01*
X48518Y-30396D01*
X48480Y-30330D01*
X48302Y-30273D01*
X48116Y-30289D01*
X48019Y-30330D01*
X47981Y-30396D01*
X48250Y-30665D01*
X48518Y-30396D01*
X48518Y-30566D01*
X48334Y-30750D01*
X48603Y-31018D01*
X48669Y-30980D01*
X48726Y-30802D01*
X48726Y-31710D01*
X48518Y-31710D01*
X48518Y-31103D01*
X48250Y-30834D01*
X48165Y-30919D01*
X48165Y-30750D01*
X47896Y-30481D01*
X47830Y-30519D01*
X47773Y-30697D01*
X47789Y-30883D01*
X47830Y-30980D01*
X47896Y-31018D01*
X48165Y-30750D01*
X48165Y-30919D01*
X47981Y-31103D01*
X48019Y-31169D01*
X48197Y-31226D01*
X48383Y-31210D01*
X48480Y-31169D01*
X48518Y-31103D01*
X48518Y-31710D01*
X47640Y-31710D01*
X47640Y-31024D01*
X47648Y-31016D01*
X47719Y-30843D01*
X47720Y-30656D01*
X47648Y-30484D01*
X47516Y-30351D01*
X47343Y-30280D01*
X47156Y-30279D01*
X46984Y-30351D01*
X46851Y-30483D01*
X46780Y-30656D01*
X46779Y-30843D01*
X46851Y-31015D01*
X46860Y-31024D01*
X46860Y-31710D01*
X45726Y-31710D01*
X45726Y-30802D01*
X45710Y-30616D01*
X45669Y-30519D01*
X45603Y-30481D01*
X45518Y-30566D01*
X45518Y-30396D01*
X45480Y-30330D01*
X45302Y-30273D01*
X45116Y-30289D01*
X45019Y-30330D01*
X44981Y-30396D01*
X45250Y-30665D01*
X45518Y-30396D01*
X45518Y-30566D01*
X45334Y-30750D01*
X45603Y-31018D01*
X45669Y-30980D01*
X45726Y-30802D01*
X45726Y-31710D01*
X45518Y-31710D01*
X45518Y-31103D01*
X45250Y-30834D01*
X45165Y-30919D01*
X45165Y-30750D01*
X44896Y-30481D01*
X44830Y-30519D01*
X44773Y-30697D01*
X44789Y-30883D01*
X44830Y-30980D01*
X44896Y-31018D01*
X45165Y-30750D01*
X45165Y-30919D01*
X44981Y-31103D01*
X45019Y-31169D01*
X45197Y-31226D01*
X45383Y-31210D01*
X45480Y-31169D01*
X45518Y-31103D01*
X45518Y-31710D01*
X44640Y-31710D01*
X44640Y-31024D01*
X44648Y-31016D01*
X44719Y-30843D01*
X44720Y-30656D01*
X44648Y-30484D01*
X44516Y-30351D01*
X44343Y-30280D01*
X44156Y-30279D01*
X43984Y-30351D01*
X43851Y-30483D01*
X43780Y-30656D01*
X43779Y-30843D01*
X43851Y-31015D01*
X43860Y-31024D01*
X43860Y-31710D01*
X42726Y-31710D01*
X42726Y-30802D01*
X42710Y-30616D01*
X42669Y-30519D01*
X42603Y-30481D01*
X42518Y-30566D01*
X42518Y-30396D01*
X42480Y-30330D01*
X42302Y-30273D01*
X42116Y-30289D01*
X42019Y-30330D01*
X41981Y-30396D01*
X42250Y-30665D01*
X42518Y-30396D01*
X42518Y-30566D01*
X42334Y-30750D01*
X42603Y-31018D01*
X42669Y-30980D01*
X42726Y-30802D01*
X42726Y-31710D01*
X42518Y-31710D01*
X42518Y-31103D01*
X42250Y-30834D01*
X42165Y-30919D01*
X42165Y-30750D01*
X41896Y-30481D01*
X41830Y-30519D01*
X41773Y-30697D01*
X41789Y-30883D01*
X41830Y-30980D01*
X41896Y-31018D01*
X42165Y-30750D01*
X42165Y-30919D01*
X41981Y-31103D01*
X42019Y-31169D01*
X42197Y-31226D01*
X42383Y-31210D01*
X42480Y-31169D01*
X42518Y-31103D01*
X42518Y-31710D01*
X41640Y-31710D01*
X41640Y-31024D01*
X41648Y-31016D01*
X41719Y-30843D01*
X41720Y-30656D01*
X41648Y-30484D01*
X41516Y-30351D01*
X41343Y-30280D01*
X41156Y-30279D01*
X40984Y-30351D01*
X40851Y-30483D01*
X40780Y-30656D01*
X40779Y-30843D01*
X40851Y-31015D01*
X40860Y-31024D01*
X40860Y-31710D01*
X38473Y-31710D01*
X38431Y-31668D01*
X38431Y-31668D01*
X38181Y-31418D01*
X37719Y-30956D01*
X37690Y-30926D01*
X37690Y-30422D01*
X37668Y-30370D01*
X37629Y-30331D01*
X37577Y-30310D01*
X37522Y-30310D01*
X36922Y-30310D01*
X36870Y-30331D01*
X36831Y-30370D01*
X36810Y-30422D01*
X36810Y-30477D01*
X36810Y-31077D01*
X36831Y-31129D01*
X36870Y-31168D01*
X36922Y-31190D01*
X36977Y-31190D01*
X37274Y-31190D01*
X37380Y-31295D01*
X37435Y-31350D01*
X37337Y-31310D01*
X37162Y-31309D01*
X37001Y-31376D01*
X36877Y-31500D01*
X36810Y-31662D01*
X36810Y-31710D01*
X36696Y-31710D01*
X36696Y-30795D01*
X36679Y-30621D01*
X36644Y-30537D01*
X36581Y-30503D01*
X36496Y-30587D01*
X36496Y-30418D01*
X36462Y-30355D01*
X36295Y-30303D01*
X36121Y-30320D01*
X36037Y-30355D01*
X36003Y-30418D01*
X36250Y-30665D01*
X36496Y-30418D01*
X36496Y-30587D01*
X36334Y-30750D01*
X36581Y-30996D01*
X36644Y-30962D01*
X36696Y-30795D01*
X36696Y-31710D01*
X36690Y-31710D01*
X36690Y-31662D01*
X36623Y-31501D01*
X36499Y-31377D01*
X36496Y-31376D01*
X36496Y-31081D01*
X36250Y-30834D01*
X36165Y-30919D01*
X36165Y-30750D01*
X35918Y-30503D01*
X35855Y-30537D01*
X35803Y-30704D01*
X35820Y-30878D01*
X35855Y-30962D01*
X35918Y-30996D01*
X36165Y-30750D01*
X36165Y-30919D01*
X36003Y-31081D01*
X36037Y-31144D01*
X36204Y-31196D01*
X36378Y-31179D01*
X36462Y-31144D01*
X36496Y-31081D01*
X36496Y-31376D01*
X36337Y-31310D01*
X36162Y-31309D01*
X36001Y-31376D01*
X35877Y-31500D01*
X35810Y-31662D01*
X35810Y-31710D01*
X35162Y-31710D01*
X35162Y-29634D01*
X35048Y-29359D01*
X34837Y-29147D01*
X34562Y-29033D01*
X34263Y-29033D01*
X33987Y-29147D01*
X33776Y-29357D01*
X33662Y-29633D01*
X33662Y-29932D01*
X33776Y-30207D01*
X33986Y-30419D01*
X34262Y-30533D01*
X34560Y-30533D01*
X34836Y-30419D01*
X35048Y-30208D01*
X35162Y-29933D01*
X35162Y-29634D01*
X35162Y-31710D01*
X33540Y-31710D01*
X33540Y-28790D01*
X58710Y-28790D01*
X58710Y-41460D01*
G54D10*
G36*
X40210Y-46960D02*
X40037Y-46960D01*
X40037Y-46091D01*
X40037Y-40091D01*
X40024Y-39840D01*
X39954Y-39671D01*
X39870Y-39613D01*
X39786Y-39698D01*
X39786Y-39528D01*
X39728Y-39445D01*
X39491Y-39362D01*
X39239Y-39375D01*
X39070Y-39445D01*
X39013Y-39528D01*
X39399Y-39915D01*
X39786Y-39528D01*
X39786Y-39698D01*
X39484Y-40000D01*
X39870Y-40386D01*
X39954Y-40328D01*
X40037Y-40091D01*
X40037Y-46091D01*
X40024Y-45840D01*
X39954Y-45671D01*
X39870Y-45613D01*
X39786Y-45698D01*
X39786Y-45528D01*
X39786Y-40471D01*
X39399Y-40084D01*
X39314Y-40169D01*
X39314Y-40000D01*
X38928Y-39613D01*
X38845Y-39671D01*
X38761Y-39908D01*
X38775Y-40159D01*
X38845Y-40328D01*
X38928Y-40386D01*
X39314Y-40000D01*
X39314Y-40169D01*
X39013Y-40471D01*
X39070Y-40554D01*
X39308Y-40637D01*
X39559Y-40624D01*
X39728Y-40554D01*
X39786Y-40471D01*
X39786Y-45528D01*
X39728Y-45445D01*
X39491Y-45362D01*
X39239Y-45375D01*
X39070Y-45445D01*
X39013Y-45528D01*
X39399Y-45915D01*
X39786Y-45528D01*
X39786Y-45698D01*
X39484Y-46000D01*
X39870Y-46386D01*
X39954Y-46328D01*
X40037Y-46091D01*
X40037Y-46960D01*
X39786Y-46960D01*
X39786Y-46471D01*
X39399Y-46084D01*
X39314Y-46169D01*
X39314Y-46000D01*
X38928Y-45613D01*
X38845Y-45671D01*
X38761Y-45908D01*
X38775Y-46159D01*
X38845Y-46328D01*
X38928Y-46386D01*
X39314Y-46000D01*
X39314Y-46169D01*
X39013Y-46471D01*
X39070Y-46554D01*
X39308Y-46637D01*
X39559Y-46624D01*
X39728Y-46554D01*
X39786Y-46471D01*
X39786Y-46960D01*
X37037Y-46960D01*
X37037Y-46091D01*
X37037Y-40091D01*
X37024Y-39840D01*
X36954Y-39671D01*
X36870Y-39613D01*
X36786Y-39698D01*
X36786Y-39528D01*
X36728Y-39445D01*
X36491Y-39362D01*
X36239Y-39375D01*
X36070Y-39445D01*
X36013Y-39528D01*
X36399Y-39915D01*
X36786Y-39528D01*
X36786Y-39698D01*
X36484Y-40000D01*
X36870Y-40386D01*
X36954Y-40328D01*
X37037Y-40091D01*
X37037Y-46091D01*
X37024Y-45840D01*
X36954Y-45671D01*
X36870Y-45613D01*
X36786Y-45698D01*
X36786Y-45528D01*
X36786Y-40471D01*
X36399Y-40084D01*
X36314Y-40169D01*
X36314Y-40000D01*
X35928Y-39613D01*
X35845Y-39671D01*
X35761Y-39908D01*
X35775Y-40159D01*
X35845Y-40328D01*
X35928Y-40386D01*
X36314Y-40000D01*
X36314Y-40169D01*
X36013Y-40471D01*
X36070Y-40554D01*
X36308Y-40637D01*
X36559Y-40624D01*
X36728Y-40554D01*
X36786Y-40471D01*
X36786Y-45528D01*
X36728Y-45445D01*
X36491Y-45362D01*
X36239Y-45375D01*
X36070Y-45445D01*
X36013Y-45528D01*
X36399Y-45915D01*
X36786Y-45528D01*
X36786Y-45698D01*
X36484Y-46000D01*
X36870Y-46386D01*
X36954Y-46328D01*
X37037Y-46091D01*
X37037Y-46960D01*
X36786Y-46960D01*
X36786Y-46471D01*
X36399Y-46084D01*
X36314Y-46169D01*
X36314Y-46000D01*
X35928Y-45613D01*
X35845Y-45671D01*
X35761Y-45908D01*
X35775Y-46159D01*
X35845Y-46328D01*
X35928Y-46386D01*
X36314Y-46000D01*
X36314Y-46169D01*
X36013Y-46471D01*
X36070Y-46554D01*
X36308Y-46637D01*
X36559Y-46624D01*
X36728Y-46554D01*
X36786Y-46471D01*
X36786Y-46960D01*
X35540Y-46960D01*
X35540Y-39040D01*
X40210Y-39040D01*
X40210Y-46960D01*
X40210Y-46960D01*
G37*
G54D28*
X40210Y-46960D02*
X40037Y-46960D01*
X40037Y-46091D01*
X40037Y-40091D01*
X40024Y-39840D01*
X39954Y-39671D01*
X39870Y-39613D01*
X39786Y-39698D01*
X39786Y-39528D01*
X39728Y-39445D01*
X39491Y-39362D01*
X39239Y-39375D01*
X39070Y-39445D01*
X39013Y-39528D01*
X39399Y-39915D01*
X39786Y-39528D01*
X39786Y-39698D01*
X39484Y-40000D01*
X39870Y-40386D01*
X39954Y-40328D01*
X40037Y-40091D01*
X40037Y-46091D01*
X40024Y-45840D01*
X39954Y-45671D01*
X39870Y-45613D01*
X39786Y-45698D01*
X39786Y-45528D01*
X39786Y-40471D01*
X39399Y-40084D01*
X39314Y-40169D01*
X39314Y-40000D01*
X38928Y-39613D01*
X38845Y-39671D01*
X38761Y-39908D01*
X38775Y-40159D01*
X38845Y-40328D01*
X38928Y-40386D01*
X39314Y-40000D01*
X39314Y-40169D01*
X39013Y-40471D01*
X39070Y-40554D01*
X39308Y-40637D01*
X39559Y-40624D01*
X39728Y-40554D01*
X39786Y-40471D01*
X39786Y-45528D01*
X39728Y-45445D01*
X39491Y-45362D01*
X39239Y-45375D01*
X39070Y-45445D01*
X39013Y-45528D01*
X39399Y-45915D01*
X39786Y-45528D01*
X39786Y-45698D01*
X39484Y-46000D01*
X39870Y-46386D01*
X39954Y-46328D01*
X40037Y-46091D01*
X40037Y-46960D01*
X39786Y-46960D01*
X39786Y-46471D01*
X39399Y-46084D01*
X39314Y-46169D01*
X39314Y-46000D01*
X38928Y-45613D01*
X38845Y-45671D01*
X38761Y-45908D01*
X38775Y-46159D01*
X38845Y-46328D01*
X38928Y-46386D01*
X39314Y-46000D01*
X39314Y-46169D01*
X39013Y-46471D01*
X39070Y-46554D01*
X39308Y-46637D01*
X39559Y-46624D01*
X39728Y-46554D01*
X39786Y-46471D01*
X39786Y-46960D01*
X37037Y-46960D01*
X37037Y-46091D01*
X37037Y-40091D01*
X37024Y-39840D01*
X36954Y-39671D01*
X36870Y-39613D01*
X36786Y-39698D01*
X36786Y-39528D01*
X36728Y-39445D01*
X36491Y-39362D01*
X36239Y-39375D01*
X36070Y-39445D01*
X36013Y-39528D01*
X36399Y-39915D01*
X36786Y-39528D01*
X36786Y-39698D01*
X36484Y-40000D01*
X36870Y-40386D01*
X36954Y-40328D01*
X37037Y-40091D01*
X37037Y-46091D01*
X37024Y-45840D01*
X36954Y-45671D01*
X36870Y-45613D01*
X36786Y-45698D01*
X36786Y-45528D01*
X36786Y-40471D01*
X36399Y-40084D01*
X36314Y-40169D01*
X36314Y-40000D01*
X35928Y-39613D01*
X35845Y-39671D01*
X35761Y-39908D01*
X35775Y-40159D01*
X35845Y-40328D01*
X35928Y-40386D01*
X36314Y-40000D01*
X36314Y-40169D01*
X36013Y-40471D01*
X36070Y-40554D01*
X36308Y-40637D01*
X36559Y-40624D01*
X36728Y-40554D01*
X36786Y-40471D01*
X36786Y-45528D01*
X36728Y-45445D01*
X36491Y-45362D01*
X36239Y-45375D01*
X36070Y-45445D01*
X36013Y-45528D01*
X36399Y-45915D01*
X36786Y-45528D01*
X36786Y-45698D01*
X36484Y-46000D01*
X36870Y-46386D01*
X36954Y-46328D01*
X37037Y-46091D01*
X37037Y-46960D01*
X36786Y-46960D01*
X36786Y-46471D01*
X36399Y-46084D01*
X36314Y-46169D01*
X36314Y-46000D01*
X35928Y-45613D01*
X35845Y-45671D01*
X35761Y-45908D01*
X35775Y-46159D01*
X35845Y-46328D01*
X35928Y-46386D01*
X36314Y-46000D01*
X36314Y-46169D01*
X36013Y-46471D01*
X36070Y-46554D01*
X36308Y-46637D01*
X36559Y-46624D01*
X36728Y-46554D01*
X36786Y-46471D01*
X36786Y-46960D01*
X35540Y-46960D01*
X35540Y-39040D01*
X40210Y-39040D01*
X40210Y-46960D01*
M02*
