%FSLAX46Y46*%
G04 Gerber Fmt 4.6, Leading zero omitted, Abs format (unit mm)*
G04 Created by KiCad (PCBNEW (2014-09-18 BZR 5141)-product) date Mon 13 Oct 2014 02:33:10 PM EEST*
%MOMM*%
G01*
G04 APERTURE LIST*
%ADD10C,0.150000*%
%ADD11C,0.100000*%
%ADD12R,0.914400X1.500000*%
%ADD13C,2.500000*%
%ADD14C,1.800000*%
%ADD15C,3.100000*%
%ADD16R,1.524000X1.524000*%
%ADD17C,1.524000*%
%ADD18C,1.676400*%
%ADD19C,1.422400*%
%ADD20R,0.700000X2.200000*%
%ADD21R,1.198880X1.501140*%
%ADD22R,1.501140X1.198880*%
%ADD23R,4.399280X4.549140*%
%ADD24C,1.000000*%
%ADD25C,0.508000*%
%ADD26C,0.254000*%
%ADD27C,1.270000*%
%ADD28C,0.203200*%
G04 APERTURE END LIST*
D10*
D11*
X89090000Y-67000000D02*
X89090000Y-133000000D01*
X145225000Y-67000000D02*
X89090000Y-67000000D01*
X145225000Y-133000000D02*
X145225000Y-67000000D01*
X89090000Y-133000000D02*
X145225000Y-133000000D01*
D12*
X124714000Y-86741000D03*
X122936000Y-86741000D03*
X123825000Y-84709000D03*
X109474000Y-86741000D03*
X107696000Y-86741000D03*
X108585000Y-84709000D03*
D13*
X133922500Y-100500000D03*
X141542500Y-100500000D03*
X92772500Y-100500000D03*
X100392500Y-100500000D03*
D14*
X113590000Y-91150000D03*
X113590000Y-86650000D03*
X120090000Y-91150000D03*
X120090000Y-86650000D03*
D15*
X92800000Y-129750000D03*
X141500000Y-129750000D03*
X92800000Y-70250000D03*
X141500000Y-70250000D03*
D16*
X94615000Y-78105000D03*
D17*
X92075000Y-78105000D03*
X94615000Y-80645000D03*
X92075000Y-80645000D03*
X94615000Y-83185000D03*
X92075000Y-83185000D03*
D18*
X128750000Y-89770000D03*
X128750000Y-87230000D03*
X107315000Y-78105000D03*
X104775000Y-78105000D03*
X114935000Y-78105000D03*
X112395000Y-78105000D03*
X122555000Y-78105000D03*
X120015000Y-78105000D03*
X130175000Y-78105000D03*
X127635000Y-78105000D03*
D19*
X114300000Y-109220000D03*
X119380000Y-109220000D03*
D20*
X114935000Y-105410000D03*
X116205000Y-105410000D03*
X117475000Y-105410000D03*
X118745000Y-105410000D03*
X118745000Y-97790000D03*
X117475000Y-97790000D03*
X116205000Y-97790000D03*
X114935000Y-97790000D03*
D13*
X100392500Y-119000000D03*
X92772500Y-119000000D03*
X141542500Y-119000000D03*
X133922500Y-119000000D03*
D21*
X127635000Y-81884520D03*
X127635000Y-84485480D03*
X120015000Y-81884520D03*
X120015000Y-84485480D03*
D22*
X122524520Y-90805000D03*
X125125480Y-90805000D03*
D21*
X112500000Y-81949520D03*
X112500000Y-84550480D03*
X104750000Y-81949520D03*
X104750000Y-84550480D03*
D22*
X107919520Y-90170000D03*
X110520480Y-90170000D03*
X109824520Y-102870000D03*
X112425480Y-102870000D03*
X125760480Y-99060000D03*
X123159520Y-99060000D03*
D21*
X114300000Y-112999520D03*
X114300000Y-115600480D03*
X119380000Y-112999520D03*
X119380000Y-115600480D03*
D22*
X112425480Y-98425000D03*
X109824520Y-98425000D03*
D23*
X135890000Y-85455760D03*
X135890000Y-77104240D03*
D24*
X126500000Y-86750000D03*
X96520000Y-85090000D03*
X103290422Y-85459578D03*
X111760000Y-92710000D03*
X104750000Y-94000000D03*
X109855000Y-104775000D03*
X134500000Y-89000000D03*
X136000000Y-89000000D03*
X137500000Y-89000000D03*
X139000000Y-89000000D03*
X111250000Y-86750000D03*
X108000000Y-99250000D03*
X108000000Y-97750000D03*
X114750000Y-117500000D03*
X113250000Y-117500000D03*
X120250000Y-117500000D03*
X118500000Y-117500000D03*
X120000000Y-107500000D03*
X120750000Y-106000000D03*
X120750000Y-104250000D03*
X91250000Y-85250000D03*
X92500000Y-86000000D03*
X94250000Y-86500000D03*
X109220000Y-91948000D03*
X119380000Y-94615000D03*
D25*
X105500000Y-91930514D02*
X105500000Y-89094712D01*
X117475000Y-96520000D02*
X116077998Y-95122998D01*
X116077998Y-95122998D02*
X108692484Y-95122998D01*
X108692484Y-95122998D02*
X105500000Y-91930514D01*
X94615000Y-78209712D02*
X94615000Y-78105000D01*
X117475000Y-98425000D02*
X117475000Y-96520000D01*
X105500000Y-89094712D02*
X94615000Y-78209712D01*
X107696000Y-86741000D02*
X107696000Y-89598500D01*
D26*
X93345000Y-81915000D02*
X92075000Y-80645000D01*
X93345000Y-81915000D02*
X93345000Y-85090000D01*
D25*
X93345000Y-85090000D02*
X96520000Y-85090000D01*
X107442000Y-86995000D02*
X107696000Y-86741000D01*
X118745000Y-98425000D02*
X122872500Y-94297500D01*
X107696000Y-86741000D02*
X104571844Y-86741000D01*
X103790421Y-85959577D02*
X103290422Y-85459578D01*
X104571844Y-86741000D02*
X103790421Y-85959577D01*
X107696000Y-88011000D02*
X107696000Y-86741000D01*
X108435000Y-88750000D02*
X107696000Y-88011000D01*
X121135000Y-88750000D02*
X108435000Y-88750000D01*
X107696000Y-89598500D02*
X108267500Y-90170000D01*
X122872500Y-94297500D02*
X122872500Y-90805000D01*
X122936000Y-86741000D02*
X122936000Y-90741500D01*
X122936000Y-90741500D02*
X122872500Y-90805000D01*
X122872500Y-90487500D02*
X121135000Y-88750000D01*
X122872500Y-90805000D02*
X122872500Y-90487500D01*
X113030000Y-91440000D02*
X111760000Y-92710000D01*
X120650000Y-91440000D02*
X113030000Y-91440000D01*
X97435000Y-83185000D02*
X103975980Y-89725980D01*
X94615000Y-83185000D02*
X97435000Y-83185000D01*
X103975980Y-93225980D02*
X104250001Y-93500001D01*
X103975980Y-89725980D02*
X103975980Y-93225980D01*
X104250001Y-93500001D02*
X104750000Y-94000000D01*
X111442500Y-104775000D02*
X114935000Y-104775000D01*
X111442500Y-104775000D02*
X109855000Y-104775000D01*
X110172500Y-104457500D02*
X109855000Y-104775000D01*
X110172500Y-102870000D02*
X110172500Y-104457500D01*
X104737990Y-92246148D02*
X108376850Y-95885008D01*
X108376850Y-95885008D02*
X115570008Y-95885008D01*
X115570008Y-95885008D02*
X116205000Y-96520000D01*
X95972649Y-80645005D02*
X104737990Y-89410346D01*
X95972644Y-80645000D02*
X95972649Y-80645005D01*
X116205000Y-96520000D02*
X116205000Y-99695000D01*
X104737990Y-89410346D02*
X104737990Y-92246148D01*
X116205000Y-99695000D02*
X116840000Y-100330000D01*
X116840000Y-100330000D02*
X121079260Y-100330000D01*
X121079260Y-100330000D02*
X122349260Y-99060000D01*
X95972649Y-80644995D02*
X95972649Y-80645005D01*
X95972644Y-80645000D02*
X95972649Y-80644995D01*
X94615000Y-80645000D02*
X95972644Y-80645000D01*
X116205000Y-96520000D02*
X115570008Y-95885008D01*
X116205000Y-97790000D02*
X116205000Y-96520000D01*
X122349260Y-99060000D02*
X123507500Y-99060000D01*
D26*
X136500000Y-85425760D02*
X139675760Y-85425760D01*
X137500000Y-89000000D02*
X136000000Y-89000000D01*
X139750000Y-88250000D02*
X139000000Y-89000000D01*
X139750000Y-85500000D02*
X139750000Y-88250000D01*
X139675760Y-85425760D02*
X139750000Y-85500000D01*
X109474000Y-86741000D02*
X111241000Y-86741000D01*
X111241000Y-86741000D02*
X111250000Y-86750000D01*
X109824520Y-98425000D02*
X108675000Y-98425000D01*
X108675000Y-98425000D02*
X108000000Y-97750000D01*
X114300000Y-115600480D02*
X114300000Y-116700000D01*
X113500000Y-117500000D02*
X113250000Y-117500000D01*
X114300000Y-116700000D02*
X113500000Y-117500000D01*
X119380000Y-115600480D02*
X119380000Y-116870000D01*
X118750000Y-117500000D02*
X118500000Y-117500000D01*
X119380000Y-116870000D02*
X118750000Y-117500000D01*
X118745000Y-105410000D02*
X119590000Y-105410000D01*
X120000000Y-106750000D02*
X120000000Y-107500000D01*
X120750000Y-106000000D02*
X120000000Y-106750000D01*
X119590000Y-105410000D02*
X120750000Y-104250000D01*
X91250000Y-85250000D02*
X92000000Y-86000000D01*
X92000000Y-86000000D02*
X92500000Y-86000000D01*
D25*
X110172500Y-90170000D02*
X110172500Y-90995500D01*
X110172500Y-90995500D02*
X109220000Y-91948000D01*
D27*
X124396500Y-84137500D02*
X123825000Y-84709000D01*
X123253500Y-84137500D02*
X123825000Y-84709000D01*
X120015000Y-84137500D02*
X123253500Y-84137500D01*
X127635000Y-84137500D02*
X124396500Y-84137500D01*
X112395000Y-78105000D02*
X112395000Y-82232500D01*
X127635000Y-78105000D02*
X127635000Y-82232500D01*
X120015000Y-78105000D02*
X120015000Y-82232500D01*
X104775000Y-78105000D02*
X104775000Y-82232500D01*
X112395000Y-84137500D02*
X108902500Y-84137500D01*
X104775000Y-84137500D02*
X108013500Y-84137500D01*
X108013500Y-84137500D02*
X108585000Y-84709000D01*
X108585000Y-84455000D02*
X108585000Y-84709000D01*
X108902500Y-84137500D02*
X108585000Y-84455000D01*
D25*
X119380000Y-113347500D02*
X119380000Y-109220000D01*
X117475000Y-104775000D02*
X117475000Y-107315000D01*
X117475000Y-107315000D02*
X119380000Y-109220000D01*
X114300000Y-113347500D02*
X114300000Y-109220000D01*
X116205000Y-104775000D02*
X116205000Y-107315000D01*
X116205000Y-107315000D02*
X114300000Y-109220000D01*
X128750000Y-95722500D02*
X125412500Y-99060000D01*
X128750000Y-89770000D02*
X128750000Y-95722500D01*
D27*
X114935000Y-98425000D02*
X112077500Y-98425000D01*
D25*
X112077500Y-98425000D02*
X111760000Y-98107500D01*
X111760000Y-103187500D02*
X114935000Y-100012500D01*
X114935000Y-98425000D02*
X114935000Y-100330000D01*
D27*
X116205000Y-101600000D02*
X133605000Y-101600000D01*
X114935000Y-100330000D02*
X116205000Y-101600000D01*
X114935000Y-100012500D02*
X114935000Y-98425000D01*
D28*
G36*
X122262900Y-94044995D02*
X121345818Y-94962077D01*
X121345818Y-90901341D01*
X121155067Y-90439689D01*
X120802169Y-90086175D01*
X120340850Y-89894618D01*
X119841341Y-89894182D01*
X119379689Y-90084933D01*
X119026175Y-90437831D01*
X118863165Y-90830400D01*
X114816505Y-90830400D01*
X114655067Y-90439689D01*
X114302169Y-90086175D01*
X113840850Y-89894618D01*
X113341341Y-89894182D01*
X112879689Y-90084933D01*
X112526175Y-90437831D01*
X112334618Y-90899150D01*
X112334291Y-91273604D01*
X111880650Y-91727245D01*
X111880650Y-90890697D01*
X111880650Y-90648183D01*
X111880650Y-90474800D01*
X111728250Y-90322400D01*
X110672880Y-90322400D01*
X110672880Y-91226640D01*
X110825280Y-91379040D01*
X111392307Y-91379040D01*
X111616361Y-91286234D01*
X111787844Y-91114751D01*
X111880650Y-90890697D01*
X111880650Y-91727245D01*
X111753501Y-91854394D01*
X111590557Y-91854252D01*
X111275975Y-91984235D01*
X111035081Y-92224709D01*
X110904549Y-92539064D01*
X110904252Y-92879443D01*
X111034235Y-93194025D01*
X111274709Y-93434919D01*
X111589064Y-93565451D01*
X111929443Y-93565748D01*
X112244025Y-93435765D01*
X112484919Y-93195291D01*
X112615451Y-92880936D01*
X112615594Y-92716509D01*
X113047730Y-92284373D01*
X113339150Y-92405382D01*
X113838659Y-92405818D01*
X114300311Y-92215067D01*
X114466066Y-92049600D01*
X119213892Y-92049600D01*
X119377831Y-92213825D01*
X119839150Y-92405382D01*
X120338659Y-92405818D01*
X120800311Y-92215067D01*
X121153825Y-91862169D01*
X121345382Y-91400850D01*
X121345818Y-90901341D01*
X121345818Y-94962077D01*
X119450600Y-96857295D01*
X119450600Y-96619267D01*
X119396463Y-96488569D01*
X119296431Y-96388537D01*
X119165733Y-96334400D01*
X119024267Y-96334400D01*
X118324267Y-96334400D01*
X118193569Y-96388537D01*
X118110000Y-96472106D01*
X118066400Y-96428506D01*
X118038197Y-96286716D01*
X117906052Y-96088948D01*
X116509050Y-94691946D01*
X116311282Y-94559801D01*
X116077998Y-94513398D01*
X110368080Y-94513398D01*
X110368080Y-91226640D01*
X110368080Y-90322400D01*
X109312710Y-90322400D01*
X109160310Y-90474800D01*
X109160310Y-90648183D01*
X109160310Y-90890697D01*
X109253116Y-91114751D01*
X109424599Y-91286234D01*
X109648653Y-91379040D01*
X110215680Y-91379040D01*
X110368080Y-91226640D01*
X110368080Y-94513398D01*
X108944988Y-94513398D01*
X106109600Y-91678010D01*
X106109600Y-89094712D01*
X106063197Y-88861429D01*
X106063197Y-88861428D01*
X106010267Y-88782213D01*
X105931053Y-88663660D01*
X104617992Y-87350600D01*
X106883200Y-87350600D01*
X106883200Y-87561733D01*
X106937337Y-87692431D01*
X107037369Y-87792463D01*
X107086400Y-87812772D01*
X107086400Y-88011000D01*
X107086400Y-89219854D01*
X106967519Y-89269097D01*
X106867487Y-89369129D01*
X106813350Y-89499827D01*
X106813350Y-89641293D01*
X106813350Y-90840173D01*
X106867487Y-90970871D01*
X106967519Y-91070903D01*
X107098217Y-91125040D01*
X107239683Y-91125040D01*
X108740823Y-91125040D01*
X108871521Y-91070903D01*
X108971553Y-90970871D01*
X109025690Y-90840173D01*
X109025690Y-90698707D01*
X109025690Y-89499827D01*
X108971553Y-89369129D01*
X108962024Y-89359600D01*
X109197466Y-89359600D01*
X109160310Y-89449303D01*
X109160310Y-89691817D01*
X109160310Y-89865200D01*
X109312710Y-90017600D01*
X110368080Y-90017600D01*
X110368080Y-89997600D01*
X110672880Y-89997600D01*
X110672880Y-90017600D01*
X111728250Y-90017600D01*
X111880650Y-89865200D01*
X111880650Y-89691817D01*
X111880650Y-89449303D01*
X111843493Y-89359600D01*
X120882496Y-89359600D01*
X121499756Y-89976860D01*
X121472487Y-90004129D01*
X121418350Y-90134827D01*
X121418350Y-90276293D01*
X121418350Y-91475173D01*
X121472487Y-91605871D01*
X121572519Y-91705903D01*
X121703217Y-91760040D01*
X121844683Y-91760040D01*
X122262900Y-91760040D01*
X122262900Y-94044995D01*
X122262900Y-94044995D01*
G37*
X122262900Y-94044995D02*
X121345818Y-94962077D01*
X121345818Y-90901341D01*
X121155067Y-90439689D01*
X120802169Y-90086175D01*
X120340850Y-89894618D01*
X119841341Y-89894182D01*
X119379689Y-90084933D01*
X119026175Y-90437831D01*
X118863165Y-90830400D01*
X114816505Y-90830400D01*
X114655067Y-90439689D01*
X114302169Y-90086175D01*
X113840850Y-89894618D01*
X113341341Y-89894182D01*
X112879689Y-90084933D01*
X112526175Y-90437831D01*
X112334618Y-90899150D01*
X112334291Y-91273604D01*
X111880650Y-91727245D01*
X111880650Y-90890697D01*
X111880650Y-90648183D01*
X111880650Y-90474800D01*
X111728250Y-90322400D01*
X110672880Y-90322400D01*
X110672880Y-91226640D01*
X110825280Y-91379040D01*
X111392307Y-91379040D01*
X111616361Y-91286234D01*
X111787844Y-91114751D01*
X111880650Y-90890697D01*
X111880650Y-91727245D01*
X111753501Y-91854394D01*
X111590557Y-91854252D01*
X111275975Y-91984235D01*
X111035081Y-92224709D01*
X110904549Y-92539064D01*
X110904252Y-92879443D01*
X111034235Y-93194025D01*
X111274709Y-93434919D01*
X111589064Y-93565451D01*
X111929443Y-93565748D01*
X112244025Y-93435765D01*
X112484919Y-93195291D01*
X112615451Y-92880936D01*
X112615594Y-92716509D01*
X113047730Y-92284373D01*
X113339150Y-92405382D01*
X113838659Y-92405818D01*
X114300311Y-92215067D01*
X114466066Y-92049600D01*
X119213892Y-92049600D01*
X119377831Y-92213825D01*
X119839150Y-92405382D01*
X120338659Y-92405818D01*
X120800311Y-92215067D01*
X121153825Y-91862169D01*
X121345382Y-91400850D01*
X121345818Y-90901341D01*
X121345818Y-94962077D01*
X119450600Y-96857295D01*
X119450600Y-96619267D01*
X119396463Y-96488569D01*
X119296431Y-96388537D01*
X119165733Y-96334400D01*
X119024267Y-96334400D01*
X118324267Y-96334400D01*
X118193569Y-96388537D01*
X118110000Y-96472106D01*
X118066400Y-96428506D01*
X118038197Y-96286716D01*
X117906052Y-96088948D01*
X116509050Y-94691946D01*
X116311282Y-94559801D01*
X116077998Y-94513398D01*
X110368080Y-94513398D01*
X110368080Y-91226640D01*
X110368080Y-90322400D01*
X109312710Y-90322400D01*
X109160310Y-90474800D01*
X109160310Y-90648183D01*
X109160310Y-90890697D01*
X109253116Y-91114751D01*
X109424599Y-91286234D01*
X109648653Y-91379040D01*
X110215680Y-91379040D01*
X110368080Y-91226640D01*
X110368080Y-94513398D01*
X108944988Y-94513398D01*
X106109600Y-91678010D01*
X106109600Y-89094712D01*
X106063197Y-88861429D01*
X106063197Y-88861428D01*
X106010267Y-88782213D01*
X105931053Y-88663660D01*
X104617992Y-87350600D01*
X106883200Y-87350600D01*
X106883200Y-87561733D01*
X106937337Y-87692431D01*
X107037369Y-87792463D01*
X107086400Y-87812772D01*
X107086400Y-88011000D01*
X107086400Y-89219854D01*
X106967519Y-89269097D01*
X106867487Y-89369129D01*
X106813350Y-89499827D01*
X106813350Y-89641293D01*
X106813350Y-90840173D01*
X106867487Y-90970871D01*
X106967519Y-91070903D01*
X107098217Y-91125040D01*
X107239683Y-91125040D01*
X108740823Y-91125040D01*
X108871521Y-91070903D01*
X108971553Y-90970871D01*
X109025690Y-90840173D01*
X109025690Y-90698707D01*
X109025690Y-89499827D01*
X108971553Y-89369129D01*
X108962024Y-89359600D01*
X109197466Y-89359600D01*
X109160310Y-89449303D01*
X109160310Y-89691817D01*
X109160310Y-89865200D01*
X109312710Y-90017600D01*
X110368080Y-90017600D01*
X110368080Y-89997600D01*
X110672880Y-89997600D01*
X110672880Y-90017600D01*
X111728250Y-90017600D01*
X111880650Y-89865200D01*
X111880650Y-89691817D01*
X111880650Y-89449303D01*
X111843493Y-89359600D01*
X120882496Y-89359600D01*
X121499756Y-89976860D01*
X121472487Y-90004129D01*
X121418350Y-90134827D01*
X121418350Y-90276293D01*
X121418350Y-91475173D01*
X121472487Y-91605871D01*
X121572519Y-91705903D01*
X121703217Y-91760040D01*
X121844683Y-91760040D01*
X122262900Y-91760040D01*
X122262900Y-94044995D01*
G36*
X123055968Y-85635400D02*
X122408067Y-85635400D01*
X122277369Y-85689537D01*
X122177337Y-85789569D01*
X122123200Y-85920267D01*
X122123200Y-86061733D01*
X122123200Y-87561733D01*
X122177337Y-87692431D01*
X122277369Y-87792463D01*
X122326400Y-87812772D01*
X122326400Y-89079296D01*
X121614871Y-88367767D01*
X121614871Y-86859358D01*
X121578914Y-86259879D01*
X121418679Y-85873035D01*
X121172422Y-85783104D01*
X120305526Y-86650000D01*
X121172422Y-87516896D01*
X121418679Y-87426965D01*
X121614871Y-86859358D01*
X121614871Y-88367767D01*
X121566052Y-88318948D01*
X121368284Y-88186803D01*
X121135000Y-88140400D01*
X120455346Y-88140400D01*
X120480121Y-88138914D01*
X120866965Y-87978679D01*
X120956896Y-87732422D01*
X120090000Y-86865526D01*
X119874474Y-87081052D01*
X119874474Y-86650000D01*
X119007578Y-85783104D01*
X118761321Y-85873035D01*
X118565129Y-86440642D01*
X118601086Y-87040121D01*
X118761321Y-87426965D01*
X119007578Y-87516896D01*
X119874474Y-86650000D01*
X119874474Y-87081052D01*
X119223104Y-87732422D01*
X119313035Y-87978679D01*
X119780913Y-88140400D01*
X115114871Y-88140400D01*
X115114871Y-86859358D01*
X115078914Y-86259879D01*
X114918679Y-85873035D01*
X114672422Y-85783104D01*
X113805526Y-86650000D01*
X114672422Y-87516896D01*
X114918679Y-87426965D01*
X115114871Y-86859358D01*
X115114871Y-88140400D01*
X113955346Y-88140400D01*
X113980121Y-88138914D01*
X114366965Y-87978679D01*
X114456896Y-87732422D01*
X113590000Y-86865526D01*
X113374474Y-87081052D01*
X112723104Y-87732422D01*
X112813035Y-87978679D01*
X113280913Y-88140400D01*
X110540800Y-88140400D01*
X110540800Y-87612257D01*
X110540800Y-87369743D01*
X110540800Y-87045800D01*
X110540800Y-86436200D01*
X110540800Y-86112257D01*
X110540800Y-85869743D01*
X110447994Y-85645689D01*
X110276511Y-85474206D01*
X110052457Y-85381400D01*
X109778800Y-85381400D01*
X109626400Y-85533800D01*
X109626400Y-86588600D01*
X110388400Y-86588600D01*
X110540800Y-86436200D01*
X110540800Y-87045800D01*
X110388400Y-86893400D01*
X109626400Y-86893400D01*
X109626400Y-87948200D01*
X109778800Y-88100600D01*
X110052457Y-88100600D01*
X110276511Y-88007794D01*
X110447994Y-87836311D01*
X110540800Y-87612257D01*
X110540800Y-88140400D01*
X108687504Y-88140400D01*
X108343979Y-87796875D01*
X108354631Y-87792463D01*
X108444583Y-87702510D01*
X108500006Y-87836311D01*
X108671489Y-88007794D01*
X108895543Y-88100600D01*
X109169200Y-88100600D01*
X109321600Y-87948200D01*
X109321600Y-86893400D01*
X109301600Y-86893400D01*
X109301600Y-86588600D01*
X109321600Y-86588600D01*
X109321600Y-85682494D01*
X109343663Y-85660431D01*
X109397800Y-85529733D01*
X109397800Y-85388267D01*
X109397800Y-85241331D01*
X109473458Y-85128100D01*
X111544960Y-85128100D01*
X111544960Y-85371783D01*
X111599097Y-85502481D01*
X111699129Y-85602513D01*
X111829827Y-85656650D01*
X111971293Y-85656650D01*
X112409443Y-85656650D01*
X112395282Y-85670811D01*
X112507575Y-85783104D01*
X112261321Y-85873035D01*
X112065129Y-86440642D01*
X112101086Y-87040121D01*
X112261321Y-87426965D01*
X112507578Y-87516896D01*
X113374474Y-86650000D01*
X113360331Y-86635857D01*
X113575857Y-86420331D01*
X113590000Y-86434474D01*
X114456896Y-85567578D01*
X114366965Y-85321321D01*
X113799358Y-85125129D01*
X113455040Y-85145781D01*
X113455040Y-83729177D01*
X113400903Y-83598479D01*
X113300871Y-83498447D01*
X113170173Y-83444310D01*
X113100317Y-83444310D01*
X113095460Y-83437040D01*
X112774086Y-83222305D01*
X112586541Y-83185000D01*
X112774086Y-83147695D01*
X112911781Y-83055690D01*
X113170173Y-83055690D01*
X113300871Y-83001553D01*
X113400903Y-82901521D01*
X113455040Y-82770823D01*
X113455040Y-82629357D01*
X113455040Y-82016600D01*
X119024400Y-82016600D01*
X119024400Y-82232500D01*
X119059960Y-82411271D01*
X119059960Y-82705823D01*
X119114097Y-82836521D01*
X119214129Y-82936553D01*
X119344827Y-82990690D01*
X119400939Y-82990690D01*
X119635914Y-83147695D01*
X119823458Y-83185000D01*
X119635914Y-83222305D01*
X119400939Y-83379310D01*
X119344827Y-83379310D01*
X119214129Y-83433447D01*
X119114097Y-83533479D01*
X119059960Y-83664177D01*
X119059960Y-83805643D01*
X119059960Y-83958728D01*
X119024400Y-84137500D01*
X119059960Y-84316271D01*
X119059960Y-85306783D01*
X119114097Y-85437481D01*
X119214129Y-85537513D01*
X119231461Y-85544692D01*
X119223104Y-85567578D01*
X120090000Y-86434474D01*
X120956896Y-85567578D01*
X120911129Y-85442254D01*
X120915903Y-85437481D01*
X120970040Y-85306783D01*
X120970040Y-85165317D01*
X120970040Y-85128100D01*
X122843180Y-85128100D01*
X123012200Y-85297120D01*
X123012200Y-85529733D01*
X123055968Y-85635400D01*
X123055968Y-85635400D01*
G37*
X123055968Y-85635400D02*
X122408067Y-85635400D01*
X122277369Y-85689537D01*
X122177337Y-85789569D01*
X122123200Y-85920267D01*
X122123200Y-86061733D01*
X122123200Y-87561733D01*
X122177337Y-87692431D01*
X122277369Y-87792463D01*
X122326400Y-87812772D01*
X122326400Y-89079296D01*
X121614871Y-88367767D01*
X121614871Y-86859358D01*
X121578914Y-86259879D01*
X121418679Y-85873035D01*
X121172422Y-85783104D01*
X120305526Y-86650000D01*
X121172422Y-87516896D01*
X121418679Y-87426965D01*
X121614871Y-86859358D01*
X121614871Y-88367767D01*
X121566052Y-88318948D01*
X121368284Y-88186803D01*
X121135000Y-88140400D01*
X120455346Y-88140400D01*
X120480121Y-88138914D01*
X120866965Y-87978679D01*
X120956896Y-87732422D01*
X120090000Y-86865526D01*
X119874474Y-87081052D01*
X119874474Y-86650000D01*
X119007578Y-85783104D01*
X118761321Y-85873035D01*
X118565129Y-86440642D01*
X118601086Y-87040121D01*
X118761321Y-87426965D01*
X119007578Y-87516896D01*
X119874474Y-86650000D01*
X119874474Y-87081052D01*
X119223104Y-87732422D01*
X119313035Y-87978679D01*
X119780913Y-88140400D01*
X115114871Y-88140400D01*
X115114871Y-86859358D01*
X115078914Y-86259879D01*
X114918679Y-85873035D01*
X114672422Y-85783104D01*
X113805526Y-86650000D01*
X114672422Y-87516896D01*
X114918679Y-87426965D01*
X115114871Y-86859358D01*
X115114871Y-88140400D01*
X113955346Y-88140400D01*
X113980121Y-88138914D01*
X114366965Y-87978679D01*
X114456896Y-87732422D01*
X113590000Y-86865526D01*
X113374474Y-87081052D01*
X112723104Y-87732422D01*
X112813035Y-87978679D01*
X113280913Y-88140400D01*
X110540800Y-88140400D01*
X110540800Y-87612257D01*
X110540800Y-87369743D01*
X110540800Y-87045800D01*
X110540800Y-86436200D01*
X110540800Y-86112257D01*
X110540800Y-85869743D01*
X110447994Y-85645689D01*
X110276511Y-85474206D01*
X110052457Y-85381400D01*
X109778800Y-85381400D01*
X109626400Y-85533800D01*
X109626400Y-86588600D01*
X110388400Y-86588600D01*
X110540800Y-86436200D01*
X110540800Y-87045800D01*
X110388400Y-86893400D01*
X109626400Y-86893400D01*
X109626400Y-87948200D01*
X109778800Y-88100600D01*
X110052457Y-88100600D01*
X110276511Y-88007794D01*
X110447994Y-87836311D01*
X110540800Y-87612257D01*
X110540800Y-88140400D01*
X108687504Y-88140400D01*
X108343979Y-87796875D01*
X108354631Y-87792463D01*
X108444583Y-87702510D01*
X108500006Y-87836311D01*
X108671489Y-88007794D01*
X108895543Y-88100600D01*
X109169200Y-88100600D01*
X109321600Y-87948200D01*
X109321600Y-86893400D01*
X109301600Y-86893400D01*
X109301600Y-86588600D01*
X109321600Y-86588600D01*
X109321600Y-85682494D01*
X109343663Y-85660431D01*
X109397800Y-85529733D01*
X109397800Y-85388267D01*
X109397800Y-85241331D01*
X109473458Y-85128100D01*
X111544960Y-85128100D01*
X111544960Y-85371783D01*
X111599097Y-85502481D01*
X111699129Y-85602513D01*
X111829827Y-85656650D01*
X111971293Y-85656650D01*
X112409443Y-85656650D01*
X112395282Y-85670811D01*
X112507575Y-85783104D01*
X112261321Y-85873035D01*
X112065129Y-86440642D01*
X112101086Y-87040121D01*
X112261321Y-87426965D01*
X112507578Y-87516896D01*
X113374474Y-86650000D01*
X113360331Y-86635857D01*
X113575857Y-86420331D01*
X113590000Y-86434474D01*
X114456896Y-85567578D01*
X114366965Y-85321321D01*
X113799358Y-85125129D01*
X113455040Y-85145781D01*
X113455040Y-83729177D01*
X113400903Y-83598479D01*
X113300871Y-83498447D01*
X113170173Y-83444310D01*
X113100317Y-83444310D01*
X113095460Y-83437040D01*
X112774086Y-83222305D01*
X112586541Y-83185000D01*
X112774086Y-83147695D01*
X112911781Y-83055690D01*
X113170173Y-83055690D01*
X113300871Y-83001553D01*
X113400903Y-82901521D01*
X113455040Y-82770823D01*
X113455040Y-82629357D01*
X113455040Y-82016600D01*
X119024400Y-82016600D01*
X119024400Y-82232500D01*
X119059960Y-82411271D01*
X119059960Y-82705823D01*
X119114097Y-82836521D01*
X119214129Y-82936553D01*
X119344827Y-82990690D01*
X119400939Y-82990690D01*
X119635914Y-83147695D01*
X119823458Y-83185000D01*
X119635914Y-83222305D01*
X119400939Y-83379310D01*
X119344827Y-83379310D01*
X119214129Y-83433447D01*
X119114097Y-83533479D01*
X119059960Y-83664177D01*
X119059960Y-83805643D01*
X119059960Y-83958728D01*
X119024400Y-84137500D01*
X119059960Y-84316271D01*
X119059960Y-85306783D01*
X119114097Y-85437481D01*
X119214129Y-85537513D01*
X119231461Y-85544692D01*
X119223104Y-85567578D01*
X120090000Y-86434474D01*
X120956896Y-85567578D01*
X120911129Y-85442254D01*
X120915903Y-85437481D01*
X120970040Y-85306783D01*
X120970040Y-85165317D01*
X120970040Y-85128100D01*
X122843180Y-85128100D01*
X123012200Y-85297120D01*
X123012200Y-85529733D01*
X123055968Y-85635400D01*
G36*
X140233400Y-95418400D02*
X138699240Y-95418400D01*
X138699240Y-87851587D01*
X138699240Y-85760560D01*
X138699240Y-85150960D01*
X138699240Y-83059933D01*
X138606434Y-82835879D01*
X138434951Y-82664396D01*
X138210897Y-82571590D01*
X137968383Y-82571590D01*
X136194800Y-82571590D01*
X136042400Y-82723990D01*
X136042400Y-85303360D01*
X138546840Y-85303360D01*
X138699240Y-85150960D01*
X138699240Y-85760560D01*
X138546840Y-85608160D01*
X136042400Y-85608160D01*
X136042400Y-88187530D01*
X136194800Y-88339930D01*
X137968383Y-88339930D01*
X138210897Y-88339930D01*
X138434951Y-88247124D01*
X138606434Y-88075641D01*
X138699240Y-87851587D01*
X138699240Y-95418400D01*
X135737600Y-95418400D01*
X135737600Y-88187530D01*
X135737600Y-85608160D01*
X135737600Y-85303360D01*
X135737600Y-82723990D01*
X135585200Y-82571590D01*
X133811617Y-82571590D01*
X133569103Y-82571590D01*
X133345049Y-82664396D01*
X133173566Y-82835879D01*
X133080760Y-83059933D01*
X133080760Y-85150960D01*
X133233160Y-85303360D01*
X135737600Y-85303360D01*
X135737600Y-85608160D01*
X133233160Y-85608160D01*
X133080760Y-85760560D01*
X133080760Y-87851587D01*
X133173566Y-88075641D01*
X133345049Y-88247124D01*
X133569103Y-88339930D01*
X133811617Y-88339930D01*
X135585200Y-88339930D01*
X135737600Y-88187530D01*
X135737600Y-95418400D01*
X130213285Y-95418400D01*
X130213285Y-87424572D01*
X130176358Y-86849787D01*
X130027439Y-86490264D01*
X129787582Y-86407945D01*
X129572055Y-86623471D01*
X129572055Y-86192418D01*
X129489736Y-85952561D01*
X128944572Y-85766715D01*
X128369787Y-85803642D01*
X128010264Y-85952561D01*
X127927945Y-86192418D01*
X128750000Y-87014474D01*
X129572055Y-86192418D01*
X129572055Y-86623471D01*
X128965526Y-87230000D01*
X129787582Y-88052055D01*
X130027439Y-87969736D01*
X130213285Y-87424572D01*
X130213285Y-95418400D01*
X129944007Y-95418400D01*
X129944007Y-89533580D01*
X129762645Y-89094650D01*
X129427116Y-88758536D01*
X129155659Y-88645817D01*
X129489736Y-88507439D01*
X129572055Y-88267582D01*
X128750000Y-87445526D01*
X128534474Y-87661052D01*
X128534474Y-87230000D01*
X127712418Y-86407945D01*
X127472561Y-86490264D01*
X127355527Y-86833572D01*
X127355748Y-86580557D01*
X127225765Y-86265975D01*
X126985291Y-86025081D01*
X126670936Y-85894549D01*
X126330557Y-85894252D01*
X126015975Y-86024235D01*
X125780800Y-86258999D01*
X125780800Y-86112257D01*
X125780800Y-85869743D01*
X125687994Y-85645689D01*
X125516511Y-85474206D01*
X125292457Y-85381400D01*
X125018800Y-85381400D01*
X124866400Y-85533800D01*
X124866400Y-86588600D01*
X124886400Y-86588600D01*
X124886400Y-86893400D01*
X124866400Y-86893400D01*
X124866400Y-87948200D01*
X125018800Y-88100600D01*
X125292457Y-88100600D01*
X125516511Y-88007794D01*
X125687994Y-87836311D01*
X125780800Y-87612257D01*
X125780800Y-87369743D01*
X125780800Y-87240601D01*
X126014709Y-87474919D01*
X126329064Y-87605451D01*
X126669443Y-87605748D01*
X126984025Y-87475765D01*
X127224919Y-87235291D01*
X127289554Y-87079631D01*
X127323642Y-87610213D01*
X127472561Y-87969736D01*
X127712418Y-88052055D01*
X128534474Y-87230000D01*
X128534474Y-87661052D01*
X127927945Y-88267582D01*
X128010264Y-88507439D01*
X128376957Y-88632444D01*
X128074650Y-88757355D01*
X127738536Y-89092884D01*
X127556408Y-89531497D01*
X127555993Y-90006420D01*
X127737355Y-90445350D01*
X128072884Y-90781464D01*
X128140400Y-90809499D01*
X128140400Y-95469996D01*
X126485650Y-97124746D01*
X126485650Y-91525697D01*
X126485650Y-91283183D01*
X126485650Y-91109800D01*
X126485650Y-90500200D01*
X126485650Y-90326817D01*
X126485650Y-90084303D01*
X126392844Y-89860249D01*
X126221361Y-89688766D01*
X125997307Y-89595960D01*
X125430280Y-89595960D01*
X125277880Y-89748360D01*
X125277880Y-90652600D01*
X126333250Y-90652600D01*
X126485650Y-90500200D01*
X126485650Y-91109800D01*
X126333250Y-90957400D01*
X125277880Y-90957400D01*
X125277880Y-91861640D01*
X125430280Y-92014040D01*
X125997307Y-92014040D01*
X126221361Y-91921234D01*
X126392844Y-91749751D01*
X126485650Y-91525697D01*
X126485650Y-97124746D01*
X125505436Y-98104960D01*
X124973080Y-98104960D01*
X124973080Y-91861640D01*
X124973080Y-90957400D01*
X124973080Y-90652600D01*
X124973080Y-89748360D01*
X124820680Y-89595960D01*
X124253653Y-89595960D01*
X124029599Y-89688766D01*
X123858116Y-89860249D01*
X123765310Y-90084303D01*
X123765310Y-90326817D01*
X123765310Y-90500200D01*
X123917710Y-90652600D01*
X124973080Y-90652600D01*
X124973080Y-90957400D01*
X123917710Y-90957400D01*
X123765310Y-91109800D01*
X123765310Y-91283183D01*
X123765310Y-91525697D01*
X123858116Y-91749751D01*
X124029599Y-91921234D01*
X124253653Y-92014040D01*
X124820680Y-92014040D01*
X124973080Y-91861640D01*
X124973080Y-98104960D01*
X124939177Y-98104960D01*
X124808479Y-98159097D01*
X124708447Y-98259129D01*
X124654310Y-98389827D01*
X124654310Y-98531293D01*
X124654310Y-99730173D01*
X124708447Y-99860871D01*
X124808479Y-99960903D01*
X124939177Y-100015040D01*
X125080643Y-100015040D01*
X126581783Y-100015040D01*
X126712481Y-99960903D01*
X126812513Y-99860871D01*
X126866650Y-99730173D01*
X126866650Y-99588707D01*
X126866650Y-98467954D01*
X129181052Y-96153552D01*
X129313197Y-95955784D01*
X129359600Y-95722500D01*
X129359600Y-90809812D01*
X129425350Y-90782645D01*
X129761464Y-90447116D01*
X129943592Y-90008503D01*
X129944007Y-89533580D01*
X129944007Y-95418400D01*
X129438400Y-95418400D01*
X129438400Y-100609400D01*
X121661964Y-100609400D01*
X122280309Y-99991054D01*
X122338217Y-100015040D01*
X122479683Y-100015040D01*
X123980823Y-100015040D01*
X124111521Y-99960903D01*
X124211553Y-99860871D01*
X124265690Y-99730173D01*
X124265690Y-99588707D01*
X124265690Y-98389827D01*
X124211553Y-98259129D01*
X124111521Y-98159097D01*
X123980823Y-98104960D01*
X123839357Y-98104960D01*
X122338217Y-98104960D01*
X122207519Y-98159097D01*
X122107487Y-98259129D01*
X122053350Y-98389827D01*
X122053350Y-98531293D01*
X122053350Y-98538648D01*
X121918208Y-98628948D01*
X120826756Y-99720400D01*
X117092504Y-99720400D01*
X116814600Y-99442495D01*
X116814600Y-99133294D01*
X116840000Y-99107894D01*
X116923569Y-99191463D01*
X117054267Y-99245600D01*
X117195733Y-99245600D01*
X117895733Y-99245600D01*
X118026431Y-99191463D01*
X118110000Y-99107894D01*
X118193569Y-99191463D01*
X118324267Y-99245600D01*
X118465733Y-99245600D01*
X119165733Y-99245600D01*
X119296431Y-99191463D01*
X119396463Y-99091431D01*
X119450600Y-98960733D01*
X119450600Y-98819267D01*
X119450600Y-98581504D01*
X123303552Y-94728553D01*
X123303552Y-94728552D01*
X123435697Y-94530784D01*
X123482099Y-94297500D01*
X123482100Y-94297500D01*
X123482100Y-91700324D01*
X123576553Y-91605871D01*
X123630690Y-91475173D01*
X123630690Y-91333707D01*
X123630690Y-90134827D01*
X123576553Y-90004129D01*
X123545600Y-89973176D01*
X123545600Y-87812772D01*
X123594631Y-87792463D01*
X123684583Y-87702510D01*
X123740006Y-87836311D01*
X123911489Y-88007794D01*
X124135543Y-88100600D01*
X124409200Y-88100600D01*
X124561600Y-87948200D01*
X124561600Y-86893400D01*
X124541600Y-86893400D01*
X124541600Y-86588600D01*
X124561600Y-86588600D01*
X124561600Y-85682494D01*
X124583663Y-85660431D01*
X124637800Y-85529733D01*
X124637800Y-85388267D01*
X124637800Y-85297120D01*
X124806820Y-85128100D01*
X126679960Y-85128100D01*
X126679960Y-85306783D01*
X126734097Y-85437481D01*
X126834129Y-85537513D01*
X126964827Y-85591650D01*
X127106293Y-85591650D01*
X128305173Y-85591650D01*
X128435871Y-85537513D01*
X128535903Y-85437481D01*
X128590040Y-85306783D01*
X128590040Y-85165317D01*
X128590040Y-84316271D01*
X128625600Y-84137500D01*
X128590040Y-83958728D01*
X128590040Y-83664177D01*
X128535903Y-83533479D01*
X128435871Y-83433447D01*
X128305173Y-83379310D01*
X128249060Y-83379310D01*
X128014086Y-83222305D01*
X127826541Y-83185000D01*
X128014086Y-83147695D01*
X128249060Y-82990690D01*
X128305173Y-82990690D01*
X128435871Y-82936553D01*
X128535903Y-82836521D01*
X128590040Y-82705823D01*
X128590040Y-82564357D01*
X128590040Y-82411271D01*
X128625600Y-82232500D01*
X128625600Y-82016600D01*
X140233400Y-82016600D01*
X140233400Y-95418400D01*
X140233400Y-95418400D01*
G37*
X140233400Y-95418400D02*
X138699240Y-95418400D01*
X138699240Y-87851587D01*
X138699240Y-85760560D01*
X138699240Y-85150960D01*
X138699240Y-83059933D01*
X138606434Y-82835879D01*
X138434951Y-82664396D01*
X138210897Y-82571590D01*
X137968383Y-82571590D01*
X136194800Y-82571590D01*
X136042400Y-82723990D01*
X136042400Y-85303360D01*
X138546840Y-85303360D01*
X138699240Y-85150960D01*
X138699240Y-85760560D01*
X138546840Y-85608160D01*
X136042400Y-85608160D01*
X136042400Y-88187530D01*
X136194800Y-88339930D01*
X137968383Y-88339930D01*
X138210897Y-88339930D01*
X138434951Y-88247124D01*
X138606434Y-88075641D01*
X138699240Y-87851587D01*
X138699240Y-95418400D01*
X135737600Y-95418400D01*
X135737600Y-88187530D01*
X135737600Y-85608160D01*
X135737600Y-85303360D01*
X135737600Y-82723990D01*
X135585200Y-82571590D01*
X133811617Y-82571590D01*
X133569103Y-82571590D01*
X133345049Y-82664396D01*
X133173566Y-82835879D01*
X133080760Y-83059933D01*
X133080760Y-85150960D01*
X133233160Y-85303360D01*
X135737600Y-85303360D01*
X135737600Y-85608160D01*
X133233160Y-85608160D01*
X133080760Y-85760560D01*
X133080760Y-87851587D01*
X133173566Y-88075641D01*
X133345049Y-88247124D01*
X133569103Y-88339930D01*
X133811617Y-88339930D01*
X135585200Y-88339930D01*
X135737600Y-88187530D01*
X135737600Y-95418400D01*
X130213285Y-95418400D01*
X130213285Y-87424572D01*
X130176358Y-86849787D01*
X130027439Y-86490264D01*
X129787582Y-86407945D01*
X129572055Y-86623471D01*
X129572055Y-86192418D01*
X129489736Y-85952561D01*
X128944572Y-85766715D01*
X128369787Y-85803642D01*
X128010264Y-85952561D01*
X127927945Y-86192418D01*
X128750000Y-87014474D01*
X129572055Y-86192418D01*
X129572055Y-86623471D01*
X128965526Y-87230000D01*
X129787582Y-88052055D01*
X130027439Y-87969736D01*
X130213285Y-87424572D01*
X130213285Y-95418400D01*
X129944007Y-95418400D01*
X129944007Y-89533580D01*
X129762645Y-89094650D01*
X129427116Y-88758536D01*
X129155659Y-88645817D01*
X129489736Y-88507439D01*
X129572055Y-88267582D01*
X128750000Y-87445526D01*
X128534474Y-87661052D01*
X128534474Y-87230000D01*
X127712418Y-86407945D01*
X127472561Y-86490264D01*
X127355527Y-86833572D01*
X127355748Y-86580557D01*
X127225765Y-86265975D01*
X126985291Y-86025081D01*
X126670936Y-85894549D01*
X126330557Y-85894252D01*
X126015975Y-86024235D01*
X125780800Y-86258999D01*
X125780800Y-86112257D01*
X125780800Y-85869743D01*
X125687994Y-85645689D01*
X125516511Y-85474206D01*
X125292457Y-85381400D01*
X125018800Y-85381400D01*
X124866400Y-85533800D01*
X124866400Y-86588600D01*
X124886400Y-86588600D01*
X124886400Y-86893400D01*
X124866400Y-86893400D01*
X124866400Y-87948200D01*
X125018800Y-88100600D01*
X125292457Y-88100600D01*
X125516511Y-88007794D01*
X125687994Y-87836311D01*
X125780800Y-87612257D01*
X125780800Y-87369743D01*
X125780800Y-87240601D01*
X126014709Y-87474919D01*
X126329064Y-87605451D01*
X126669443Y-87605748D01*
X126984025Y-87475765D01*
X127224919Y-87235291D01*
X127289554Y-87079631D01*
X127323642Y-87610213D01*
X127472561Y-87969736D01*
X127712418Y-88052055D01*
X128534474Y-87230000D01*
X128534474Y-87661052D01*
X127927945Y-88267582D01*
X128010264Y-88507439D01*
X128376957Y-88632444D01*
X128074650Y-88757355D01*
X127738536Y-89092884D01*
X127556408Y-89531497D01*
X127555993Y-90006420D01*
X127737355Y-90445350D01*
X128072884Y-90781464D01*
X128140400Y-90809499D01*
X128140400Y-95469996D01*
X126485650Y-97124746D01*
X126485650Y-91525697D01*
X126485650Y-91283183D01*
X126485650Y-91109800D01*
X126485650Y-90500200D01*
X126485650Y-90326817D01*
X126485650Y-90084303D01*
X126392844Y-89860249D01*
X126221361Y-89688766D01*
X125997307Y-89595960D01*
X125430280Y-89595960D01*
X125277880Y-89748360D01*
X125277880Y-90652600D01*
X126333250Y-90652600D01*
X126485650Y-90500200D01*
X126485650Y-91109800D01*
X126333250Y-90957400D01*
X125277880Y-90957400D01*
X125277880Y-91861640D01*
X125430280Y-92014040D01*
X125997307Y-92014040D01*
X126221361Y-91921234D01*
X126392844Y-91749751D01*
X126485650Y-91525697D01*
X126485650Y-97124746D01*
X125505436Y-98104960D01*
X124973080Y-98104960D01*
X124973080Y-91861640D01*
X124973080Y-90957400D01*
X124973080Y-90652600D01*
X124973080Y-89748360D01*
X124820680Y-89595960D01*
X124253653Y-89595960D01*
X124029599Y-89688766D01*
X123858116Y-89860249D01*
X123765310Y-90084303D01*
X123765310Y-90326817D01*
X123765310Y-90500200D01*
X123917710Y-90652600D01*
X124973080Y-90652600D01*
X124973080Y-90957400D01*
X123917710Y-90957400D01*
X123765310Y-91109800D01*
X123765310Y-91283183D01*
X123765310Y-91525697D01*
X123858116Y-91749751D01*
X124029599Y-91921234D01*
X124253653Y-92014040D01*
X124820680Y-92014040D01*
X124973080Y-91861640D01*
X124973080Y-98104960D01*
X124939177Y-98104960D01*
X124808479Y-98159097D01*
X124708447Y-98259129D01*
X124654310Y-98389827D01*
X124654310Y-98531293D01*
X124654310Y-99730173D01*
X124708447Y-99860871D01*
X124808479Y-99960903D01*
X124939177Y-100015040D01*
X125080643Y-100015040D01*
X126581783Y-100015040D01*
X126712481Y-99960903D01*
X126812513Y-99860871D01*
X126866650Y-99730173D01*
X126866650Y-99588707D01*
X126866650Y-98467954D01*
X129181052Y-96153552D01*
X129313197Y-95955784D01*
X129359600Y-95722500D01*
X129359600Y-90809812D01*
X129425350Y-90782645D01*
X129761464Y-90447116D01*
X129943592Y-90008503D01*
X129944007Y-89533580D01*
X129944007Y-95418400D01*
X129438400Y-95418400D01*
X129438400Y-100609400D01*
X121661964Y-100609400D01*
X122280309Y-99991054D01*
X122338217Y-100015040D01*
X122479683Y-100015040D01*
X123980823Y-100015040D01*
X124111521Y-99960903D01*
X124211553Y-99860871D01*
X124265690Y-99730173D01*
X124265690Y-99588707D01*
X124265690Y-98389827D01*
X124211553Y-98259129D01*
X124111521Y-98159097D01*
X123980823Y-98104960D01*
X123839357Y-98104960D01*
X122338217Y-98104960D01*
X122207519Y-98159097D01*
X122107487Y-98259129D01*
X122053350Y-98389827D01*
X122053350Y-98531293D01*
X122053350Y-98538648D01*
X121918208Y-98628948D01*
X120826756Y-99720400D01*
X117092504Y-99720400D01*
X116814600Y-99442495D01*
X116814600Y-99133294D01*
X116840000Y-99107894D01*
X116923569Y-99191463D01*
X117054267Y-99245600D01*
X117195733Y-99245600D01*
X117895733Y-99245600D01*
X118026431Y-99191463D01*
X118110000Y-99107894D01*
X118193569Y-99191463D01*
X118324267Y-99245600D01*
X118465733Y-99245600D01*
X119165733Y-99245600D01*
X119296431Y-99191463D01*
X119396463Y-99091431D01*
X119450600Y-98960733D01*
X119450600Y-98819267D01*
X119450600Y-98581504D01*
X123303552Y-94728553D01*
X123303552Y-94728552D01*
X123435697Y-94530784D01*
X123482099Y-94297500D01*
X123482100Y-94297500D01*
X123482100Y-91700324D01*
X123576553Y-91605871D01*
X123630690Y-91475173D01*
X123630690Y-91333707D01*
X123630690Y-90134827D01*
X123576553Y-90004129D01*
X123545600Y-89973176D01*
X123545600Y-87812772D01*
X123594631Y-87792463D01*
X123684583Y-87702510D01*
X123740006Y-87836311D01*
X123911489Y-88007794D01*
X124135543Y-88100600D01*
X124409200Y-88100600D01*
X124561600Y-87948200D01*
X124561600Y-86893400D01*
X124541600Y-86893400D01*
X124541600Y-86588600D01*
X124561600Y-86588600D01*
X124561600Y-85682494D01*
X124583663Y-85660431D01*
X124637800Y-85529733D01*
X124637800Y-85388267D01*
X124637800Y-85297120D01*
X124806820Y-85128100D01*
X126679960Y-85128100D01*
X126679960Y-85306783D01*
X126734097Y-85437481D01*
X126834129Y-85537513D01*
X126964827Y-85591650D01*
X127106293Y-85591650D01*
X128305173Y-85591650D01*
X128435871Y-85537513D01*
X128535903Y-85437481D01*
X128590040Y-85306783D01*
X128590040Y-85165317D01*
X128590040Y-84316271D01*
X128625600Y-84137500D01*
X128590040Y-83958728D01*
X128590040Y-83664177D01*
X128535903Y-83533479D01*
X128435871Y-83433447D01*
X128305173Y-83379310D01*
X128249060Y-83379310D01*
X128014086Y-83222305D01*
X127826541Y-83185000D01*
X128014086Y-83147695D01*
X128249060Y-82990690D01*
X128305173Y-82990690D01*
X128435871Y-82936553D01*
X128535903Y-82836521D01*
X128590040Y-82705823D01*
X128590040Y-82564357D01*
X128590040Y-82411271D01*
X128625600Y-82232500D01*
X128625600Y-82016600D01*
X140233400Y-82016600D01*
X140233400Y-95418400D01*
G36*
X144123400Y-131898400D02*
X143415757Y-131898400D01*
X143415757Y-119292999D01*
X143385290Y-118553831D01*
X143161038Y-118012441D01*
X142878479Y-117879548D01*
X142662952Y-118095074D01*
X142662952Y-117664021D01*
X142530059Y-117381462D01*
X141835499Y-117126743D01*
X141096331Y-117157210D01*
X140554941Y-117381462D01*
X140422048Y-117664021D01*
X141542500Y-118784474D01*
X142662952Y-117664021D01*
X142662952Y-118095074D01*
X141758026Y-119000000D01*
X142878479Y-120120452D01*
X143161038Y-119987559D01*
X143415757Y-119292999D01*
X143415757Y-131898400D01*
X143405930Y-131898400D01*
X143405930Y-129372616D01*
X143116431Y-128671974D01*
X142662952Y-128217703D01*
X142662952Y-120335979D01*
X141542500Y-119215526D01*
X141326974Y-119431052D01*
X141326974Y-119000000D01*
X140206521Y-117879548D01*
X139923962Y-118012441D01*
X139669243Y-118707001D01*
X139699710Y-119446169D01*
X139923962Y-119987559D01*
X140206521Y-120120452D01*
X141326974Y-119000000D01*
X141326974Y-119431052D01*
X140422048Y-120335979D01*
X140554941Y-120618538D01*
X141249501Y-120873257D01*
X141988669Y-120842790D01*
X142530059Y-120618538D01*
X142662952Y-120335979D01*
X142662952Y-128217703D01*
X142580845Y-128135453D01*
X141880710Y-127844731D01*
X141122616Y-127844070D01*
X140421974Y-128133569D01*
X139885453Y-128669155D01*
X139594731Y-129369290D01*
X139594070Y-130127384D01*
X139883569Y-130828026D01*
X140419155Y-131364547D01*
X141119290Y-131655269D01*
X141877384Y-131655930D01*
X142578026Y-131366431D01*
X143114547Y-130830845D01*
X143405269Y-130130710D01*
X143405930Y-129372616D01*
X143405930Y-131898400D01*
X135795757Y-131898400D01*
X135795757Y-119292999D01*
X135765290Y-118553831D01*
X135541038Y-118012441D01*
X135258479Y-117879548D01*
X135042952Y-118095074D01*
X135042952Y-117664021D01*
X134910059Y-117381462D01*
X134215499Y-117126743D01*
X133476331Y-117157210D01*
X132934941Y-117381462D01*
X132802048Y-117664021D01*
X133922500Y-118784474D01*
X135042952Y-117664021D01*
X135042952Y-118095074D01*
X134138026Y-119000000D01*
X135258479Y-120120452D01*
X135541038Y-119987559D01*
X135795757Y-119292999D01*
X135795757Y-131898400D01*
X135042952Y-131898400D01*
X135042952Y-120335979D01*
X133922500Y-119215526D01*
X133706974Y-119431052D01*
X133706974Y-119000000D01*
X132586521Y-117879548D01*
X132303962Y-118012441D01*
X132049243Y-118707001D01*
X132079710Y-119446169D01*
X132303962Y-119987559D01*
X132586521Y-120120452D01*
X133706974Y-119000000D01*
X133706974Y-119431052D01*
X132802048Y-120335979D01*
X132934941Y-120618538D01*
X133629501Y-120873257D01*
X134368669Y-120842790D01*
X134910059Y-120618538D01*
X135042952Y-120335979D01*
X135042952Y-131898400D01*
X120589040Y-131898400D01*
X120589040Y-116472307D01*
X120589040Y-115905280D01*
X120589040Y-115295680D01*
X120589040Y-114728653D01*
X120496234Y-114504599D01*
X120446985Y-114455350D01*
X120446985Y-109008731D01*
X120284916Y-108616496D01*
X119985083Y-108316138D01*
X119704600Y-108199671D01*
X119704600Y-106631257D01*
X119704600Y-106388743D01*
X119704600Y-105714800D01*
X119704600Y-105105200D01*
X119704600Y-104431257D01*
X119704600Y-104188743D01*
X119611794Y-103964689D01*
X119440311Y-103793206D01*
X119216257Y-103700400D01*
X119049800Y-103700400D01*
X118897400Y-103852800D01*
X118897400Y-105257600D01*
X119552200Y-105257600D01*
X119704600Y-105105200D01*
X119704600Y-105714800D01*
X119552200Y-105562400D01*
X118897400Y-105562400D01*
X118897400Y-106967200D01*
X119049800Y-107119600D01*
X119216257Y-107119600D01*
X119440311Y-107026794D01*
X119611794Y-106855311D01*
X119704600Y-106631257D01*
X119704600Y-108199671D01*
X119593131Y-108153385D01*
X119175124Y-108153020D01*
X118084600Y-107062496D01*
X118084600Y-107041254D01*
X118273743Y-107119600D01*
X118440200Y-107119600D01*
X118592600Y-106967200D01*
X118592600Y-105562400D01*
X118572600Y-105562400D01*
X118572600Y-105257600D01*
X118592600Y-105257600D01*
X118592600Y-103852800D01*
X118440200Y-103700400D01*
X118273743Y-103700400D01*
X118049689Y-103793206D01*
X117888495Y-103954400D01*
X117754267Y-103954400D01*
X117054267Y-103954400D01*
X116923569Y-104008537D01*
X116840000Y-104092106D01*
X116756431Y-104008537D01*
X116625733Y-103954400D01*
X116484267Y-103954400D01*
X115784267Y-103954400D01*
X115653569Y-104008537D01*
X115570000Y-104092106D01*
X115486431Y-104008537D01*
X115355733Y-103954400D01*
X115214267Y-103954400D01*
X114514267Y-103954400D01*
X114383569Y-104008537D01*
X114283537Y-104108569D01*
X114259996Y-104165400D01*
X111442500Y-104165400D01*
X110782100Y-104165400D01*
X110782100Y-103765324D01*
X110876553Y-103670871D01*
X110930690Y-103540173D01*
X110930690Y-103398707D01*
X110930690Y-102199827D01*
X110876553Y-102069129D01*
X110776521Y-101969097D01*
X110645823Y-101914960D01*
X110504357Y-101914960D01*
X109672120Y-101914960D01*
X109672120Y-99481640D01*
X109672120Y-98577400D01*
X109672120Y-98272600D01*
X109672120Y-97368360D01*
X109519720Y-97215960D01*
X108952693Y-97215960D01*
X108728639Y-97308766D01*
X108557156Y-97480249D01*
X108464350Y-97704303D01*
X108464350Y-97946817D01*
X108464350Y-98120200D01*
X108616750Y-98272600D01*
X109672120Y-98272600D01*
X109672120Y-98577400D01*
X108616750Y-98577400D01*
X108464350Y-98729800D01*
X108464350Y-98903183D01*
X108464350Y-99145697D01*
X108557156Y-99369751D01*
X108728639Y-99541234D01*
X108952693Y-99634040D01*
X109519720Y-99634040D01*
X109672120Y-99481640D01*
X109672120Y-101914960D01*
X109003217Y-101914960D01*
X108872519Y-101969097D01*
X108772487Y-102069129D01*
X108718350Y-102199827D01*
X108718350Y-102341293D01*
X108718350Y-103540173D01*
X108772487Y-103670871D01*
X108872519Y-103770903D01*
X109003217Y-103825040D01*
X109144683Y-103825040D01*
X109562900Y-103825040D01*
X109562900Y-103969932D01*
X109370975Y-104049235D01*
X109130081Y-104289709D01*
X108999549Y-104604064D01*
X108999252Y-104944443D01*
X109129235Y-105259025D01*
X109369709Y-105499919D01*
X109684064Y-105630451D01*
X110024443Y-105630748D01*
X110339025Y-105500765D01*
X110455392Y-105384600D01*
X111442500Y-105384600D01*
X114229400Y-105384600D01*
X114229400Y-106580733D01*
X114283537Y-106711431D01*
X114383569Y-106811463D01*
X114514267Y-106865600D01*
X114655733Y-106865600D01*
X115355733Y-106865600D01*
X115486431Y-106811463D01*
X115570000Y-106727894D01*
X115595400Y-106753294D01*
X115595400Y-107062496D01*
X114504518Y-108153377D01*
X114088731Y-108153015D01*
X113696496Y-108315084D01*
X113396138Y-108614917D01*
X113233385Y-109006869D01*
X113233015Y-109431269D01*
X113395084Y-109823504D01*
X113690400Y-110119337D01*
X113690400Y-111893350D01*
X113629827Y-111893350D01*
X113499129Y-111947487D01*
X113399097Y-112047519D01*
X113344960Y-112178217D01*
X113344960Y-112319683D01*
X113344960Y-113820823D01*
X113399097Y-113951521D01*
X113499129Y-114051553D01*
X113629827Y-114105690D01*
X113771293Y-114105690D01*
X114970173Y-114105690D01*
X115100871Y-114051553D01*
X115200903Y-113951521D01*
X115255040Y-113820823D01*
X115255040Y-113679357D01*
X115255040Y-112178217D01*
X115200903Y-112047519D01*
X115100871Y-111947487D01*
X114970173Y-111893350D01*
X114909600Y-111893350D01*
X114909600Y-110118830D01*
X115203862Y-109825083D01*
X115366615Y-109433131D01*
X115366979Y-109015124D01*
X116636052Y-107746052D01*
X116768197Y-107548284D01*
X116814600Y-107315000D01*
X116814600Y-106753294D01*
X116840000Y-106727894D01*
X116865400Y-106753294D01*
X116865400Y-107315000D01*
X116911803Y-107548284D01*
X117043948Y-107746052D01*
X118313377Y-109015481D01*
X118313015Y-109431269D01*
X118475084Y-109823504D01*
X118770400Y-110119337D01*
X118770400Y-111893350D01*
X118709827Y-111893350D01*
X118579129Y-111947487D01*
X118479097Y-112047519D01*
X118424960Y-112178217D01*
X118424960Y-112319683D01*
X118424960Y-113820823D01*
X118479097Y-113951521D01*
X118579129Y-114051553D01*
X118709827Y-114105690D01*
X118851293Y-114105690D01*
X120050173Y-114105690D01*
X120180871Y-114051553D01*
X120280903Y-113951521D01*
X120335040Y-113820823D01*
X120335040Y-113679357D01*
X120335040Y-112178217D01*
X120280903Y-112047519D01*
X120180871Y-111947487D01*
X120050173Y-111893350D01*
X119989600Y-111893350D01*
X119989600Y-110118830D01*
X120283862Y-109825083D01*
X120446615Y-109433131D01*
X120446985Y-109008731D01*
X120446985Y-114455350D01*
X120324751Y-114333116D01*
X120100697Y-114240310D01*
X119858183Y-114240310D01*
X119684800Y-114240310D01*
X119532400Y-114392710D01*
X119532400Y-115448080D01*
X120436640Y-115448080D01*
X120589040Y-115295680D01*
X120589040Y-115905280D01*
X120436640Y-115752880D01*
X119532400Y-115752880D01*
X119532400Y-116808250D01*
X119684800Y-116960650D01*
X119858183Y-116960650D01*
X120100697Y-116960650D01*
X120324751Y-116867844D01*
X120496234Y-116696361D01*
X120589040Y-116472307D01*
X120589040Y-131898400D01*
X119227600Y-131898400D01*
X119227600Y-116808250D01*
X119227600Y-115752880D01*
X119227600Y-115448080D01*
X119227600Y-114392710D01*
X119075200Y-114240310D01*
X118901817Y-114240310D01*
X118659303Y-114240310D01*
X118435249Y-114333116D01*
X118263766Y-114504599D01*
X118170960Y-114728653D01*
X118170960Y-115295680D01*
X118323360Y-115448080D01*
X119227600Y-115448080D01*
X119227600Y-115752880D01*
X118323360Y-115752880D01*
X118170960Y-115905280D01*
X118170960Y-116472307D01*
X118263766Y-116696361D01*
X118435249Y-116867844D01*
X118659303Y-116960650D01*
X118901817Y-116960650D01*
X119075200Y-116960650D01*
X119227600Y-116808250D01*
X119227600Y-131898400D01*
X115509040Y-131898400D01*
X115509040Y-116472307D01*
X115509040Y-115905280D01*
X115509040Y-115295680D01*
X115509040Y-114728653D01*
X115416234Y-114504599D01*
X115244751Y-114333116D01*
X115020697Y-114240310D01*
X114778183Y-114240310D01*
X114604800Y-114240310D01*
X114452400Y-114392710D01*
X114452400Y-115448080D01*
X115356640Y-115448080D01*
X115509040Y-115295680D01*
X115509040Y-115905280D01*
X115356640Y-115752880D01*
X114452400Y-115752880D01*
X114452400Y-116808250D01*
X114604800Y-116960650D01*
X114778183Y-116960650D01*
X115020697Y-116960650D01*
X115244751Y-116867844D01*
X115416234Y-116696361D01*
X115509040Y-116472307D01*
X115509040Y-131898400D01*
X114147600Y-131898400D01*
X114147600Y-116808250D01*
X114147600Y-115752880D01*
X114147600Y-115448080D01*
X114147600Y-114392710D01*
X113995200Y-114240310D01*
X113821817Y-114240310D01*
X113579303Y-114240310D01*
X113355249Y-114333116D01*
X113183766Y-114504599D01*
X113090960Y-114728653D01*
X113090960Y-115295680D01*
X113243360Y-115448080D01*
X114147600Y-115448080D01*
X114147600Y-115752880D01*
X113243360Y-115752880D01*
X113090960Y-115905280D01*
X113090960Y-116472307D01*
X113183766Y-116696361D01*
X113355249Y-116867844D01*
X113579303Y-116960650D01*
X113821817Y-116960650D01*
X113995200Y-116960650D01*
X114147600Y-116808250D01*
X114147600Y-131898400D01*
X94705930Y-131898400D01*
X94705930Y-129372616D01*
X94416431Y-128671974D01*
X93880845Y-128135453D01*
X93180710Y-127844731D01*
X92422616Y-127844070D01*
X91721974Y-128133569D01*
X91185453Y-128669155D01*
X90894731Y-129369290D01*
X90894070Y-130127384D01*
X91183569Y-130828026D01*
X91719155Y-131364547D01*
X92419290Y-131655269D01*
X93177384Y-131655930D01*
X93878026Y-131366431D01*
X94414547Y-130830845D01*
X94705269Y-130130710D01*
X94705930Y-129372616D01*
X94705930Y-131898400D01*
X90191600Y-131898400D01*
X90191600Y-121751600D01*
X104106600Y-121751600D01*
X104106600Y-97188400D01*
X90191600Y-97188400D01*
X90191600Y-82016600D01*
X91366785Y-82016600D01*
X91308273Y-82202747D01*
X92075000Y-82969474D01*
X92089142Y-82955331D01*
X92304668Y-83170857D01*
X92290526Y-83185000D01*
X92304668Y-83199142D01*
X92089142Y-83414668D01*
X92075000Y-83400526D01*
X91859474Y-83616052D01*
X91859474Y-83185000D01*
X91092747Y-82418273D01*
X90860773Y-82491190D01*
X90687690Y-83008667D01*
X90725814Y-83552990D01*
X90860773Y-83878810D01*
X91092747Y-83951727D01*
X91859474Y-83185000D01*
X91859474Y-83616052D01*
X91308273Y-84167253D01*
X91381190Y-84399227D01*
X91898667Y-84572310D01*
X92442990Y-84534186D01*
X92768810Y-84399227D01*
X92841726Y-84167255D01*
X92841727Y-84167256D01*
X92862400Y-84187929D01*
X92862400Y-84736094D01*
X92841727Y-84767033D01*
X92781803Y-84856716D01*
X92735400Y-85090000D01*
X92781803Y-85323284D01*
X92913948Y-85521052D01*
X93111716Y-85653197D01*
X93345000Y-85699600D01*
X95919591Y-85699600D01*
X96034709Y-85814919D01*
X96349064Y-85945451D01*
X96689443Y-85945748D01*
X97004025Y-85815765D01*
X97244919Y-85575291D01*
X97375451Y-85260936D01*
X97375748Y-84920557D01*
X97245765Y-84605975D01*
X97005291Y-84365081D01*
X96690936Y-84234549D01*
X96350557Y-84234252D01*
X96035975Y-84364235D01*
X95919607Y-84480400D01*
X93827600Y-84480400D01*
X93827600Y-83978130D01*
X93981104Y-84131903D01*
X94391720Y-84302406D01*
X94836329Y-84302793D01*
X95247242Y-84133008D01*
X95561903Y-83818896D01*
X95571991Y-83794600D01*
X97182495Y-83794600D01*
X103366380Y-89978484D01*
X103366380Y-93225980D01*
X103412783Y-93459264D01*
X103544928Y-93657032D01*
X103818949Y-93931053D01*
X103894394Y-94006498D01*
X103894252Y-94169443D01*
X104024235Y-94484025D01*
X104264709Y-94724919D01*
X104579064Y-94855451D01*
X104919443Y-94855748D01*
X105234025Y-94725765D01*
X105474919Y-94485291D01*
X105605451Y-94170936D01*
X105605621Y-93975883D01*
X107945798Y-96316060D01*
X108143566Y-96448205D01*
X108376850Y-96494608D01*
X114281035Y-96494608D01*
X114229400Y-96619267D01*
X114229400Y-96760733D01*
X114229400Y-97434400D01*
X112077500Y-97434400D01*
X111898728Y-97469960D01*
X111604177Y-97469960D01*
X111473479Y-97524097D01*
X111373447Y-97624129D01*
X111360511Y-97655357D01*
X111328948Y-97676448D01*
X111196803Y-97874216D01*
X111184690Y-97935112D01*
X111184690Y-97704303D01*
X111091884Y-97480249D01*
X110920401Y-97308766D01*
X110696347Y-97215960D01*
X110129320Y-97215960D01*
X109976920Y-97368360D01*
X109976920Y-98272600D01*
X109996920Y-98272600D01*
X109996920Y-98577400D01*
X109976920Y-98577400D01*
X109976920Y-99481640D01*
X110129320Y-99634040D01*
X110696347Y-99634040D01*
X110920401Y-99541234D01*
X111091884Y-99369751D01*
X111184690Y-99145697D01*
X111184690Y-98903183D01*
X111184690Y-98837587D01*
X111319310Y-99039060D01*
X111319310Y-99095173D01*
X111373447Y-99225871D01*
X111473479Y-99325903D01*
X111604177Y-99380040D01*
X111745643Y-99380040D01*
X111898728Y-99380040D01*
X112077500Y-99415600D01*
X113944400Y-99415600D01*
X113944400Y-100012500D01*
X113965718Y-100119677D01*
X112170436Y-101914960D01*
X111604177Y-101914960D01*
X111473479Y-101969097D01*
X111373447Y-102069129D01*
X111319310Y-102199827D01*
X111319310Y-102341293D01*
X111319310Y-102770872D01*
X111196803Y-102954216D01*
X111150400Y-103187500D01*
X111196803Y-103420784D01*
X111328948Y-103618552D01*
X111360511Y-103639642D01*
X111373447Y-103670871D01*
X111473479Y-103770903D01*
X111604177Y-103825040D01*
X111745643Y-103825040D01*
X113246783Y-103825040D01*
X113377481Y-103770903D01*
X113477513Y-103670871D01*
X113531650Y-103540173D01*
X113531650Y-103398707D01*
X113531650Y-102277954D01*
X114506842Y-101302762D01*
X115504540Y-102300460D01*
X115825914Y-102515195D01*
X116205000Y-102590600D01*
X129438400Y-102590600D01*
X129438400Y-105781600D01*
X144123400Y-105781600D01*
X144123400Y-131898400D01*
X144123400Y-131898400D01*
G37*
X144123400Y-131898400D02*
X143415757Y-131898400D01*
X143415757Y-119292999D01*
X143385290Y-118553831D01*
X143161038Y-118012441D01*
X142878479Y-117879548D01*
X142662952Y-118095074D01*
X142662952Y-117664021D01*
X142530059Y-117381462D01*
X141835499Y-117126743D01*
X141096331Y-117157210D01*
X140554941Y-117381462D01*
X140422048Y-117664021D01*
X141542500Y-118784474D01*
X142662952Y-117664021D01*
X142662952Y-118095074D01*
X141758026Y-119000000D01*
X142878479Y-120120452D01*
X143161038Y-119987559D01*
X143415757Y-119292999D01*
X143415757Y-131898400D01*
X143405930Y-131898400D01*
X143405930Y-129372616D01*
X143116431Y-128671974D01*
X142662952Y-128217703D01*
X142662952Y-120335979D01*
X141542500Y-119215526D01*
X141326974Y-119431052D01*
X141326974Y-119000000D01*
X140206521Y-117879548D01*
X139923962Y-118012441D01*
X139669243Y-118707001D01*
X139699710Y-119446169D01*
X139923962Y-119987559D01*
X140206521Y-120120452D01*
X141326974Y-119000000D01*
X141326974Y-119431052D01*
X140422048Y-120335979D01*
X140554941Y-120618538D01*
X141249501Y-120873257D01*
X141988669Y-120842790D01*
X142530059Y-120618538D01*
X142662952Y-120335979D01*
X142662952Y-128217703D01*
X142580845Y-128135453D01*
X141880710Y-127844731D01*
X141122616Y-127844070D01*
X140421974Y-128133569D01*
X139885453Y-128669155D01*
X139594731Y-129369290D01*
X139594070Y-130127384D01*
X139883569Y-130828026D01*
X140419155Y-131364547D01*
X141119290Y-131655269D01*
X141877384Y-131655930D01*
X142578026Y-131366431D01*
X143114547Y-130830845D01*
X143405269Y-130130710D01*
X143405930Y-129372616D01*
X143405930Y-131898400D01*
X135795757Y-131898400D01*
X135795757Y-119292999D01*
X135765290Y-118553831D01*
X135541038Y-118012441D01*
X135258479Y-117879548D01*
X135042952Y-118095074D01*
X135042952Y-117664021D01*
X134910059Y-117381462D01*
X134215499Y-117126743D01*
X133476331Y-117157210D01*
X132934941Y-117381462D01*
X132802048Y-117664021D01*
X133922500Y-118784474D01*
X135042952Y-117664021D01*
X135042952Y-118095074D01*
X134138026Y-119000000D01*
X135258479Y-120120452D01*
X135541038Y-119987559D01*
X135795757Y-119292999D01*
X135795757Y-131898400D01*
X135042952Y-131898400D01*
X135042952Y-120335979D01*
X133922500Y-119215526D01*
X133706974Y-119431052D01*
X133706974Y-119000000D01*
X132586521Y-117879548D01*
X132303962Y-118012441D01*
X132049243Y-118707001D01*
X132079710Y-119446169D01*
X132303962Y-119987559D01*
X132586521Y-120120452D01*
X133706974Y-119000000D01*
X133706974Y-119431052D01*
X132802048Y-120335979D01*
X132934941Y-120618538D01*
X133629501Y-120873257D01*
X134368669Y-120842790D01*
X134910059Y-120618538D01*
X135042952Y-120335979D01*
X135042952Y-131898400D01*
X120589040Y-131898400D01*
X120589040Y-116472307D01*
X120589040Y-115905280D01*
X120589040Y-115295680D01*
X120589040Y-114728653D01*
X120496234Y-114504599D01*
X120446985Y-114455350D01*
X120446985Y-109008731D01*
X120284916Y-108616496D01*
X119985083Y-108316138D01*
X119704600Y-108199671D01*
X119704600Y-106631257D01*
X119704600Y-106388743D01*
X119704600Y-105714800D01*
X119704600Y-105105200D01*
X119704600Y-104431257D01*
X119704600Y-104188743D01*
X119611794Y-103964689D01*
X119440311Y-103793206D01*
X119216257Y-103700400D01*
X119049800Y-103700400D01*
X118897400Y-103852800D01*
X118897400Y-105257600D01*
X119552200Y-105257600D01*
X119704600Y-105105200D01*
X119704600Y-105714800D01*
X119552200Y-105562400D01*
X118897400Y-105562400D01*
X118897400Y-106967200D01*
X119049800Y-107119600D01*
X119216257Y-107119600D01*
X119440311Y-107026794D01*
X119611794Y-106855311D01*
X119704600Y-106631257D01*
X119704600Y-108199671D01*
X119593131Y-108153385D01*
X119175124Y-108153020D01*
X118084600Y-107062496D01*
X118084600Y-107041254D01*
X118273743Y-107119600D01*
X118440200Y-107119600D01*
X118592600Y-106967200D01*
X118592600Y-105562400D01*
X118572600Y-105562400D01*
X118572600Y-105257600D01*
X118592600Y-105257600D01*
X118592600Y-103852800D01*
X118440200Y-103700400D01*
X118273743Y-103700400D01*
X118049689Y-103793206D01*
X117888495Y-103954400D01*
X117754267Y-103954400D01*
X117054267Y-103954400D01*
X116923569Y-104008537D01*
X116840000Y-104092106D01*
X116756431Y-104008537D01*
X116625733Y-103954400D01*
X116484267Y-103954400D01*
X115784267Y-103954400D01*
X115653569Y-104008537D01*
X115570000Y-104092106D01*
X115486431Y-104008537D01*
X115355733Y-103954400D01*
X115214267Y-103954400D01*
X114514267Y-103954400D01*
X114383569Y-104008537D01*
X114283537Y-104108569D01*
X114259996Y-104165400D01*
X111442500Y-104165400D01*
X110782100Y-104165400D01*
X110782100Y-103765324D01*
X110876553Y-103670871D01*
X110930690Y-103540173D01*
X110930690Y-103398707D01*
X110930690Y-102199827D01*
X110876553Y-102069129D01*
X110776521Y-101969097D01*
X110645823Y-101914960D01*
X110504357Y-101914960D01*
X109672120Y-101914960D01*
X109672120Y-99481640D01*
X109672120Y-98577400D01*
X109672120Y-98272600D01*
X109672120Y-97368360D01*
X109519720Y-97215960D01*
X108952693Y-97215960D01*
X108728639Y-97308766D01*
X108557156Y-97480249D01*
X108464350Y-97704303D01*
X108464350Y-97946817D01*
X108464350Y-98120200D01*
X108616750Y-98272600D01*
X109672120Y-98272600D01*
X109672120Y-98577400D01*
X108616750Y-98577400D01*
X108464350Y-98729800D01*
X108464350Y-98903183D01*
X108464350Y-99145697D01*
X108557156Y-99369751D01*
X108728639Y-99541234D01*
X108952693Y-99634040D01*
X109519720Y-99634040D01*
X109672120Y-99481640D01*
X109672120Y-101914960D01*
X109003217Y-101914960D01*
X108872519Y-101969097D01*
X108772487Y-102069129D01*
X108718350Y-102199827D01*
X108718350Y-102341293D01*
X108718350Y-103540173D01*
X108772487Y-103670871D01*
X108872519Y-103770903D01*
X109003217Y-103825040D01*
X109144683Y-103825040D01*
X109562900Y-103825040D01*
X109562900Y-103969932D01*
X109370975Y-104049235D01*
X109130081Y-104289709D01*
X108999549Y-104604064D01*
X108999252Y-104944443D01*
X109129235Y-105259025D01*
X109369709Y-105499919D01*
X109684064Y-105630451D01*
X110024443Y-105630748D01*
X110339025Y-105500765D01*
X110455392Y-105384600D01*
X111442500Y-105384600D01*
X114229400Y-105384600D01*
X114229400Y-106580733D01*
X114283537Y-106711431D01*
X114383569Y-106811463D01*
X114514267Y-106865600D01*
X114655733Y-106865600D01*
X115355733Y-106865600D01*
X115486431Y-106811463D01*
X115570000Y-106727894D01*
X115595400Y-106753294D01*
X115595400Y-107062496D01*
X114504518Y-108153377D01*
X114088731Y-108153015D01*
X113696496Y-108315084D01*
X113396138Y-108614917D01*
X113233385Y-109006869D01*
X113233015Y-109431269D01*
X113395084Y-109823504D01*
X113690400Y-110119337D01*
X113690400Y-111893350D01*
X113629827Y-111893350D01*
X113499129Y-111947487D01*
X113399097Y-112047519D01*
X113344960Y-112178217D01*
X113344960Y-112319683D01*
X113344960Y-113820823D01*
X113399097Y-113951521D01*
X113499129Y-114051553D01*
X113629827Y-114105690D01*
X113771293Y-114105690D01*
X114970173Y-114105690D01*
X115100871Y-114051553D01*
X115200903Y-113951521D01*
X115255040Y-113820823D01*
X115255040Y-113679357D01*
X115255040Y-112178217D01*
X115200903Y-112047519D01*
X115100871Y-111947487D01*
X114970173Y-111893350D01*
X114909600Y-111893350D01*
X114909600Y-110118830D01*
X115203862Y-109825083D01*
X115366615Y-109433131D01*
X115366979Y-109015124D01*
X116636052Y-107746052D01*
X116768197Y-107548284D01*
X116814600Y-107315000D01*
X116814600Y-106753294D01*
X116840000Y-106727894D01*
X116865400Y-106753294D01*
X116865400Y-107315000D01*
X116911803Y-107548284D01*
X117043948Y-107746052D01*
X118313377Y-109015481D01*
X118313015Y-109431269D01*
X118475084Y-109823504D01*
X118770400Y-110119337D01*
X118770400Y-111893350D01*
X118709827Y-111893350D01*
X118579129Y-111947487D01*
X118479097Y-112047519D01*
X118424960Y-112178217D01*
X118424960Y-112319683D01*
X118424960Y-113820823D01*
X118479097Y-113951521D01*
X118579129Y-114051553D01*
X118709827Y-114105690D01*
X118851293Y-114105690D01*
X120050173Y-114105690D01*
X120180871Y-114051553D01*
X120280903Y-113951521D01*
X120335040Y-113820823D01*
X120335040Y-113679357D01*
X120335040Y-112178217D01*
X120280903Y-112047519D01*
X120180871Y-111947487D01*
X120050173Y-111893350D01*
X119989600Y-111893350D01*
X119989600Y-110118830D01*
X120283862Y-109825083D01*
X120446615Y-109433131D01*
X120446985Y-109008731D01*
X120446985Y-114455350D01*
X120324751Y-114333116D01*
X120100697Y-114240310D01*
X119858183Y-114240310D01*
X119684800Y-114240310D01*
X119532400Y-114392710D01*
X119532400Y-115448080D01*
X120436640Y-115448080D01*
X120589040Y-115295680D01*
X120589040Y-115905280D01*
X120436640Y-115752880D01*
X119532400Y-115752880D01*
X119532400Y-116808250D01*
X119684800Y-116960650D01*
X119858183Y-116960650D01*
X120100697Y-116960650D01*
X120324751Y-116867844D01*
X120496234Y-116696361D01*
X120589040Y-116472307D01*
X120589040Y-131898400D01*
X119227600Y-131898400D01*
X119227600Y-116808250D01*
X119227600Y-115752880D01*
X119227600Y-115448080D01*
X119227600Y-114392710D01*
X119075200Y-114240310D01*
X118901817Y-114240310D01*
X118659303Y-114240310D01*
X118435249Y-114333116D01*
X118263766Y-114504599D01*
X118170960Y-114728653D01*
X118170960Y-115295680D01*
X118323360Y-115448080D01*
X119227600Y-115448080D01*
X119227600Y-115752880D01*
X118323360Y-115752880D01*
X118170960Y-115905280D01*
X118170960Y-116472307D01*
X118263766Y-116696361D01*
X118435249Y-116867844D01*
X118659303Y-116960650D01*
X118901817Y-116960650D01*
X119075200Y-116960650D01*
X119227600Y-116808250D01*
X119227600Y-131898400D01*
X115509040Y-131898400D01*
X115509040Y-116472307D01*
X115509040Y-115905280D01*
X115509040Y-115295680D01*
X115509040Y-114728653D01*
X115416234Y-114504599D01*
X115244751Y-114333116D01*
X115020697Y-114240310D01*
X114778183Y-114240310D01*
X114604800Y-114240310D01*
X114452400Y-114392710D01*
X114452400Y-115448080D01*
X115356640Y-115448080D01*
X115509040Y-115295680D01*
X115509040Y-115905280D01*
X115356640Y-115752880D01*
X114452400Y-115752880D01*
X114452400Y-116808250D01*
X114604800Y-116960650D01*
X114778183Y-116960650D01*
X115020697Y-116960650D01*
X115244751Y-116867844D01*
X115416234Y-116696361D01*
X115509040Y-116472307D01*
X115509040Y-131898400D01*
X114147600Y-131898400D01*
X114147600Y-116808250D01*
X114147600Y-115752880D01*
X114147600Y-115448080D01*
X114147600Y-114392710D01*
X113995200Y-114240310D01*
X113821817Y-114240310D01*
X113579303Y-114240310D01*
X113355249Y-114333116D01*
X113183766Y-114504599D01*
X113090960Y-114728653D01*
X113090960Y-115295680D01*
X113243360Y-115448080D01*
X114147600Y-115448080D01*
X114147600Y-115752880D01*
X113243360Y-115752880D01*
X113090960Y-115905280D01*
X113090960Y-116472307D01*
X113183766Y-116696361D01*
X113355249Y-116867844D01*
X113579303Y-116960650D01*
X113821817Y-116960650D01*
X113995200Y-116960650D01*
X114147600Y-116808250D01*
X114147600Y-131898400D01*
X94705930Y-131898400D01*
X94705930Y-129372616D01*
X94416431Y-128671974D01*
X93880845Y-128135453D01*
X93180710Y-127844731D01*
X92422616Y-127844070D01*
X91721974Y-128133569D01*
X91185453Y-128669155D01*
X90894731Y-129369290D01*
X90894070Y-130127384D01*
X91183569Y-130828026D01*
X91719155Y-131364547D01*
X92419290Y-131655269D01*
X93177384Y-131655930D01*
X93878026Y-131366431D01*
X94414547Y-130830845D01*
X94705269Y-130130710D01*
X94705930Y-129372616D01*
X94705930Y-131898400D01*
X90191600Y-131898400D01*
X90191600Y-121751600D01*
X104106600Y-121751600D01*
X104106600Y-97188400D01*
X90191600Y-97188400D01*
X90191600Y-82016600D01*
X91366785Y-82016600D01*
X91308273Y-82202747D01*
X92075000Y-82969474D01*
X92089142Y-82955331D01*
X92304668Y-83170857D01*
X92290526Y-83185000D01*
X92304668Y-83199142D01*
X92089142Y-83414668D01*
X92075000Y-83400526D01*
X91859474Y-83616052D01*
X91859474Y-83185000D01*
X91092747Y-82418273D01*
X90860773Y-82491190D01*
X90687690Y-83008667D01*
X90725814Y-83552990D01*
X90860773Y-83878810D01*
X91092747Y-83951727D01*
X91859474Y-83185000D01*
X91859474Y-83616052D01*
X91308273Y-84167253D01*
X91381190Y-84399227D01*
X91898667Y-84572310D01*
X92442990Y-84534186D01*
X92768810Y-84399227D01*
X92841726Y-84167255D01*
X92841727Y-84167256D01*
X92862400Y-84187929D01*
X92862400Y-84736094D01*
X92841727Y-84767033D01*
X92781803Y-84856716D01*
X92735400Y-85090000D01*
X92781803Y-85323284D01*
X92913948Y-85521052D01*
X93111716Y-85653197D01*
X93345000Y-85699600D01*
X95919591Y-85699600D01*
X96034709Y-85814919D01*
X96349064Y-85945451D01*
X96689443Y-85945748D01*
X97004025Y-85815765D01*
X97244919Y-85575291D01*
X97375451Y-85260936D01*
X97375748Y-84920557D01*
X97245765Y-84605975D01*
X97005291Y-84365081D01*
X96690936Y-84234549D01*
X96350557Y-84234252D01*
X96035975Y-84364235D01*
X95919607Y-84480400D01*
X93827600Y-84480400D01*
X93827600Y-83978130D01*
X93981104Y-84131903D01*
X94391720Y-84302406D01*
X94836329Y-84302793D01*
X95247242Y-84133008D01*
X95561903Y-83818896D01*
X95571991Y-83794600D01*
X97182495Y-83794600D01*
X103366380Y-89978484D01*
X103366380Y-93225980D01*
X103412783Y-93459264D01*
X103544928Y-93657032D01*
X103818949Y-93931053D01*
X103894394Y-94006498D01*
X103894252Y-94169443D01*
X104024235Y-94484025D01*
X104264709Y-94724919D01*
X104579064Y-94855451D01*
X104919443Y-94855748D01*
X105234025Y-94725765D01*
X105474919Y-94485291D01*
X105605451Y-94170936D01*
X105605621Y-93975883D01*
X107945798Y-96316060D01*
X108143566Y-96448205D01*
X108376850Y-96494608D01*
X114281035Y-96494608D01*
X114229400Y-96619267D01*
X114229400Y-96760733D01*
X114229400Y-97434400D01*
X112077500Y-97434400D01*
X111898728Y-97469960D01*
X111604177Y-97469960D01*
X111473479Y-97524097D01*
X111373447Y-97624129D01*
X111360511Y-97655357D01*
X111328948Y-97676448D01*
X111196803Y-97874216D01*
X111184690Y-97935112D01*
X111184690Y-97704303D01*
X111091884Y-97480249D01*
X110920401Y-97308766D01*
X110696347Y-97215960D01*
X110129320Y-97215960D01*
X109976920Y-97368360D01*
X109976920Y-98272600D01*
X109996920Y-98272600D01*
X109996920Y-98577400D01*
X109976920Y-98577400D01*
X109976920Y-99481640D01*
X110129320Y-99634040D01*
X110696347Y-99634040D01*
X110920401Y-99541234D01*
X111091884Y-99369751D01*
X111184690Y-99145697D01*
X111184690Y-98903183D01*
X111184690Y-98837587D01*
X111319310Y-99039060D01*
X111319310Y-99095173D01*
X111373447Y-99225871D01*
X111473479Y-99325903D01*
X111604177Y-99380040D01*
X111745643Y-99380040D01*
X111898728Y-99380040D01*
X112077500Y-99415600D01*
X113944400Y-99415600D01*
X113944400Y-100012500D01*
X113965718Y-100119677D01*
X112170436Y-101914960D01*
X111604177Y-101914960D01*
X111473479Y-101969097D01*
X111373447Y-102069129D01*
X111319310Y-102199827D01*
X111319310Y-102341293D01*
X111319310Y-102770872D01*
X111196803Y-102954216D01*
X111150400Y-103187500D01*
X111196803Y-103420784D01*
X111328948Y-103618552D01*
X111360511Y-103639642D01*
X111373447Y-103670871D01*
X111473479Y-103770903D01*
X111604177Y-103825040D01*
X111745643Y-103825040D01*
X113246783Y-103825040D01*
X113377481Y-103770903D01*
X113477513Y-103670871D01*
X113531650Y-103540173D01*
X113531650Y-103398707D01*
X113531650Y-102277954D01*
X114506842Y-101302762D01*
X115504540Y-102300460D01*
X115825914Y-102515195D01*
X116205000Y-102590600D01*
X129438400Y-102590600D01*
X129438400Y-105781600D01*
X144123400Y-105781600D01*
X144123400Y-131898400D01*
G36*
X144123400Y-104308400D02*
X143415132Y-104308400D01*
X143415132Y-100796962D01*
X143405930Y-100561609D01*
X143405930Y-69872616D01*
X143116431Y-69171974D01*
X142580845Y-68635453D01*
X141880710Y-68344731D01*
X141122616Y-68344070D01*
X140421974Y-68633569D01*
X139885453Y-69169155D01*
X139594731Y-69869290D01*
X139594070Y-70627384D01*
X139883569Y-71328026D01*
X140419155Y-71864547D01*
X141119290Y-72155269D01*
X141877384Y-72155930D01*
X142578026Y-71866431D01*
X143114547Y-71330845D01*
X143405269Y-70630710D01*
X143405930Y-69872616D01*
X143405930Y-100561609D01*
X143386229Y-100057732D01*
X143158944Y-99509017D01*
X142875895Y-99376474D01*
X142666026Y-99586343D01*
X142666026Y-99166605D01*
X142533483Y-98883556D01*
X141839462Y-98627368D01*
X141100232Y-98656271D01*
X140551517Y-98883556D01*
X140418974Y-99166605D01*
X141542500Y-100290131D01*
X142666026Y-99166605D01*
X142666026Y-99586343D01*
X141752369Y-100500000D01*
X142875895Y-101623526D01*
X143158944Y-101490983D01*
X143415132Y-100796962D01*
X143415132Y-104308400D01*
X142666026Y-104308400D01*
X142666026Y-101833395D01*
X141542500Y-100709869D01*
X141332631Y-100919738D01*
X141332631Y-100500000D01*
X140209105Y-99376474D01*
X139926056Y-99509017D01*
X139669868Y-100203038D01*
X139698771Y-100942268D01*
X139926056Y-101490983D01*
X140209105Y-101623526D01*
X141332631Y-100500000D01*
X141332631Y-100919738D01*
X140418974Y-101833395D01*
X140551517Y-102116444D01*
X141245538Y-102372632D01*
X141984768Y-102343729D01*
X142533483Y-102116444D01*
X142666026Y-101833395D01*
X142666026Y-104308400D01*
X135795132Y-104308400D01*
X135795132Y-100796962D01*
X135766229Y-100057732D01*
X135538944Y-99509017D01*
X135255895Y-99376474D01*
X135046026Y-99586343D01*
X135046026Y-99166605D01*
X134913483Y-98883556D01*
X134219462Y-98627368D01*
X133480232Y-98656271D01*
X132931517Y-98883556D01*
X132798974Y-99166605D01*
X133922500Y-100290131D01*
X135046026Y-99166605D01*
X135046026Y-99586343D01*
X134132369Y-100500000D01*
X135255895Y-101623526D01*
X135538944Y-101490983D01*
X135795132Y-100796962D01*
X135795132Y-104308400D01*
X135046026Y-104308400D01*
X135046026Y-101833395D01*
X133922500Y-100709869D01*
X133712631Y-100919738D01*
X133712631Y-100500000D01*
X132589105Y-99376474D01*
X132306056Y-99509017D01*
X132049868Y-100203038D01*
X132078771Y-100942268D01*
X132306056Y-101490983D01*
X132589105Y-101623526D01*
X133712631Y-100500000D01*
X133712631Y-100919738D01*
X132798974Y-101833395D01*
X132931517Y-102116444D01*
X133625538Y-102372632D01*
X134364768Y-102343729D01*
X134913483Y-102116444D01*
X135046026Y-101833395D01*
X135046026Y-104308400D01*
X130911600Y-104308400D01*
X130911600Y-96891600D01*
X141706600Y-96891600D01*
X141706600Y-80543400D01*
X138699240Y-80543400D01*
X138699240Y-79500067D01*
X138699240Y-77405040D01*
X138699240Y-76803440D01*
X138699240Y-74708413D01*
X138606434Y-74484359D01*
X138434951Y-74312876D01*
X138210897Y-74220070D01*
X137968383Y-74220070D01*
X136190800Y-74220070D01*
X136038400Y-74372470D01*
X136038400Y-76955840D01*
X138546840Y-76955840D01*
X138699240Y-76803440D01*
X138699240Y-77405040D01*
X138546840Y-77252640D01*
X136038400Y-77252640D01*
X136038400Y-79836010D01*
X136190800Y-79988410D01*
X137968383Y-79988410D01*
X138210897Y-79988410D01*
X138434951Y-79895604D01*
X138606434Y-79724121D01*
X138699240Y-79500067D01*
X138699240Y-80543400D01*
X135741600Y-80543400D01*
X135741600Y-79836010D01*
X135741600Y-77252640D01*
X135741600Y-76955840D01*
X135741600Y-74372470D01*
X135589200Y-74220070D01*
X133811617Y-74220070D01*
X133569103Y-74220070D01*
X133345049Y-74312876D01*
X133173566Y-74484359D01*
X133080760Y-74708413D01*
X133080760Y-76803440D01*
X133233160Y-76955840D01*
X135741600Y-76955840D01*
X135741600Y-77252640D01*
X133233160Y-77252640D01*
X133080760Y-77405040D01*
X133080760Y-79500067D01*
X133173566Y-79724121D01*
X133345049Y-79895604D01*
X133569103Y-79988410D01*
X133811617Y-79988410D01*
X135589200Y-79988410D01*
X135741600Y-79836010D01*
X135741600Y-80543400D01*
X131637749Y-80543400D01*
X131637749Y-78303558D01*
X131602389Y-77728674D01*
X131450419Y-77361786D01*
X131210077Y-77279792D01*
X131000208Y-77489661D01*
X131000208Y-77069923D01*
X130918214Y-76829581D01*
X130373558Y-76642251D01*
X129798674Y-76677611D01*
X129431786Y-76829581D01*
X129349792Y-77069923D01*
X130175000Y-77895131D01*
X131000208Y-77069923D01*
X131000208Y-77489661D01*
X130384869Y-78105000D01*
X131210077Y-78930208D01*
X131450419Y-78848214D01*
X131637749Y-78303558D01*
X131637749Y-80543400D01*
X131000208Y-80543400D01*
X131000208Y-79140077D01*
X130175000Y-78314869D01*
X129349792Y-79140077D01*
X129431786Y-79380419D01*
X129976442Y-79567749D01*
X130551326Y-79532389D01*
X130918214Y-79380419D01*
X131000208Y-79140077D01*
X131000208Y-80543400D01*
X128625600Y-80543400D01*
X128625600Y-78802943D01*
X128646464Y-78782116D01*
X128759472Y-78509961D01*
X128899581Y-78848214D01*
X129139923Y-78930208D01*
X129965131Y-78105000D01*
X129139923Y-77279792D01*
X128899581Y-77361786D01*
X128772396Y-77731571D01*
X128647645Y-77429650D01*
X128312116Y-77093536D01*
X127873503Y-76911408D01*
X127398580Y-76910993D01*
X126959650Y-77092355D01*
X126623536Y-77427884D01*
X126441408Y-77866497D01*
X126440993Y-78341420D01*
X126622355Y-78780350D01*
X126644400Y-78802433D01*
X126644400Y-80543400D01*
X124017749Y-80543400D01*
X124017749Y-78303558D01*
X123982389Y-77728674D01*
X123830419Y-77361786D01*
X123590077Y-77279792D01*
X123380208Y-77489661D01*
X123380208Y-77069923D01*
X123298214Y-76829581D01*
X122753558Y-76642251D01*
X122178674Y-76677611D01*
X121811786Y-76829581D01*
X121729792Y-77069923D01*
X122555000Y-77895131D01*
X123380208Y-77069923D01*
X123380208Y-77489661D01*
X122764869Y-78105000D01*
X123590077Y-78930208D01*
X123830419Y-78848214D01*
X124017749Y-78303558D01*
X124017749Y-80543400D01*
X123380208Y-80543400D01*
X123380208Y-79140077D01*
X122555000Y-78314869D01*
X121729792Y-79140077D01*
X121811786Y-79380419D01*
X122356442Y-79567749D01*
X122931326Y-79532389D01*
X123298214Y-79380419D01*
X123380208Y-79140077D01*
X123380208Y-80543400D01*
X121005600Y-80543400D01*
X121005600Y-78802943D01*
X121026464Y-78782116D01*
X121139472Y-78509961D01*
X121279581Y-78848214D01*
X121519923Y-78930208D01*
X122345131Y-78105000D01*
X121519923Y-77279792D01*
X121279581Y-77361786D01*
X121152396Y-77731571D01*
X121027645Y-77429650D01*
X120692116Y-77093536D01*
X120253503Y-76911408D01*
X119778580Y-76910993D01*
X119339650Y-77092355D01*
X119003536Y-77427884D01*
X118821408Y-77866497D01*
X118820993Y-78341420D01*
X119002355Y-78780350D01*
X119024400Y-78802433D01*
X119024400Y-80543400D01*
X116397749Y-80543400D01*
X116397749Y-78303558D01*
X116362389Y-77728674D01*
X116210419Y-77361786D01*
X115970077Y-77279792D01*
X115760208Y-77489661D01*
X115760208Y-77069923D01*
X115678214Y-76829581D01*
X115133558Y-76642251D01*
X114558674Y-76677611D01*
X114191786Y-76829581D01*
X114109792Y-77069923D01*
X114935000Y-77895131D01*
X115760208Y-77069923D01*
X115760208Y-77489661D01*
X115144869Y-78105000D01*
X115970077Y-78930208D01*
X116210419Y-78848214D01*
X116397749Y-78303558D01*
X116397749Y-80543400D01*
X115760208Y-80543400D01*
X115760208Y-79140077D01*
X114935000Y-78314869D01*
X114109792Y-79140077D01*
X114191786Y-79380419D01*
X114736442Y-79567749D01*
X115311326Y-79532389D01*
X115678214Y-79380419D01*
X115760208Y-79140077D01*
X115760208Y-80543400D01*
X113385600Y-80543400D01*
X113385600Y-78802943D01*
X113406464Y-78782116D01*
X113519472Y-78509961D01*
X113659581Y-78848214D01*
X113899923Y-78930208D01*
X114725131Y-78105000D01*
X113899923Y-77279792D01*
X113659581Y-77361786D01*
X113532396Y-77731571D01*
X113407645Y-77429650D01*
X113072116Y-77093536D01*
X112633503Y-76911408D01*
X112158580Y-76910993D01*
X111719650Y-77092355D01*
X111383536Y-77427884D01*
X111201408Y-77866497D01*
X111200993Y-78341420D01*
X111382355Y-78780350D01*
X111404400Y-78802433D01*
X111404400Y-80543400D01*
X108777749Y-80543400D01*
X108777749Y-78303558D01*
X108742389Y-77728674D01*
X108590419Y-77361786D01*
X108350077Y-77279792D01*
X108140208Y-77489661D01*
X108140208Y-77069923D01*
X108058214Y-76829581D01*
X107513558Y-76642251D01*
X106938674Y-76677611D01*
X106571786Y-76829581D01*
X106489792Y-77069923D01*
X107315000Y-77895131D01*
X108140208Y-77069923D01*
X108140208Y-77489661D01*
X107524869Y-78105000D01*
X108350077Y-78930208D01*
X108590419Y-78848214D01*
X108777749Y-78303558D01*
X108777749Y-80543400D01*
X108140208Y-80543400D01*
X108140208Y-79140077D01*
X107315000Y-78314869D01*
X106489792Y-79140077D01*
X106571786Y-79380419D01*
X107116442Y-79567749D01*
X107691326Y-79532389D01*
X108058214Y-79380419D01*
X108140208Y-79140077D01*
X108140208Y-80543400D01*
X105765600Y-80543400D01*
X105765600Y-78802943D01*
X105786464Y-78782116D01*
X105899472Y-78509961D01*
X106039581Y-78848214D01*
X106279923Y-78930208D01*
X107105131Y-78105000D01*
X106279923Y-77279792D01*
X106039581Y-77361786D01*
X105912396Y-77731571D01*
X105787645Y-77429650D01*
X105452116Y-77093536D01*
X105013503Y-76911408D01*
X104538580Y-76910993D01*
X104099650Y-77092355D01*
X103763536Y-77427884D01*
X103581408Y-77866497D01*
X103580993Y-78341420D01*
X103762355Y-78780350D01*
X103784400Y-78802433D01*
X103784400Y-80543400D01*
X97810792Y-80543400D01*
X95732600Y-78465207D01*
X95732600Y-77272267D01*
X95678463Y-77141569D01*
X95578431Y-77041537D01*
X95447733Y-76987400D01*
X95306267Y-76987400D01*
X94705930Y-76987400D01*
X94705930Y-69872616D01*
X94416431Y-69171974D01*
X93880845Y-68635453D01*
X93180710Y-68344731D01*
X92422616Y-68344070D01*
X91721974Y-68633569D01*
X91185453Y-69169155D01*
X90894731Y-69869290D01*
X90894070Y-70627384D01*
X91183569Y-71328026D01*
X91719155Y-71864547D01*
X92419290Y-72155269D01*
X93177384Y-72155930D01*
X93878026Y-71866431D01*
X94414547Y-71330845D01*
X94705269Y-70630710D01*
X94705930Y-69872616D01*
X94705930Y-76987400D01*
X93782267Y-76987400D01*
X93651569Y-77041537D01*
X93551537Y-77141569D01*
X93497400Y-77272267D01*
X93497400Y-77413733D01*
X93497400Y-78937733D01*
X93551537Y-79068431D01*
X93651569Y-79168463D01*
X93782267Y-79222600D01*
X93923733Y-79222600D01*
X94765783Y-79222600D01*
X95235873Y-79692689D01*
X94838280Y-79527594D01*
X94393671Y-79527207D01*
X93982758Y-79696992D01*
X93668097Y-80011104D01*
X93497594Y-80421720D01*
X93497488Y-80543400D01*
X93461796Y-80543400D01*
X93461796Y-78285324D01*
X93425239Y-77740893D01*
X93287226Y-77407699D01*
X93054769Y-77335100D01*
X92844900Y-77544969D01*
X92844900Y-77125231D01*
X92772301Y-76892774D01*
X92255324Y-76718204D01*
X91710893Y-76754761D01*
X91377699Y-76892774D01*
X91305100Y-77125231D01*
X92075000Y-77895131D01*
X92844900Y-77125231D01*
X92844900Y-77544969D01*
X92284869Y-78105000D01*
X93054769Y-78874900D01*
X93287226Y-78802301D01*
X93461796Y-78285324D01*
X93461796Y-80543400D01*
X93192688Y-80543400D01*
X93192793Y-80423671D01*
X93023008Y-80012758D01*
X92844900Y-79834338D01*
X92844900Y-79084769D01*
X92075000Y-78314869D01*
X91865131Y-78524738D01*
X91865131Y-78105000D01*
X91095231Y-77335100D01*
X90862774Y-77407699D01*
X90688204Y-77924676D01*
X90724761Y-78469107D01*
X90862774Y-78802301D01*
X91095231Y-78874900D01*
X91865131Y-78105000D01*
X91865131Y-78524738D01*
X91305100Y-79084769D01*
X91377699Y-79317226D01*
X91894676Y-79491796D01*
X92439107Y-79455239D01*
X92772301Y-79317226D01*
X92844900Y-79084769D01*
X92844900Y-79834338D01*
X92708896Y-79698097D01*
X92298280Y-79527594D01*
X91853671Y-79527207D01*
X91442758Y-79696992D01*
X91128097Y-80011104D01*
X90957594Y-80421720D01*
X90957488Y-80543400D01*
X90191600Y-80543400D01*
X90191600Y-68126600D01*
X144123400Y-68126600D01*
X144123400Y-104308400D01*
X144123400Y-104308400D01*
G37*
X144123400Y-104308400D02*
X143415132Y-104308400D01*
X143415132Y-100796962D01*
X143405930Y-100561609D01*
X143405930Y-69872616D01*
X143116431Y-69171974D01*
X142580845Y-68635453D01*
X141880710Y-68344731D01*
X141122616Y-68344070D01*
X140421974Y-68633569D01*
X139885453Y-69169155D01*
X139594731Y-69869290D01*
X139594070Y-70627384D01*
X139883569Y-71328026D01*
X140419155Y-71864547D01*
X141119290Y-72155269D01*
X141877384Y-72155930D01*
X142578026Y-71866431D01*
X143114547Y-71330845D01*
X143405269Y-70630710D01*
X143405930Y-69872616D01*
X143405930Y-100561609D01*
X143386229Y-100057732D01*
X143158944Y-99509017D01*
X142875895Y-99376474D01*
X142666026Y-99586343D01*
X142666026Y-99166605D01*
X142533483Y-98883556D01*
X141839462Y-98627368D01*
X141100232Y-98656271D01*
X140551517Y-98883556D01*
X140418974Y-99166605D01*
X141542500Y-100290131D01*
X142666026Y-99166605D01*
X142666026Y-99586343D01*
X141752369Y-100500000D01*
X142875895Y-101623526D01*
X143158944Y-101490983D01*
X143415132Y-100796962D01*
X143415132Y-104308400D01*
X142666026Y-104308400D01*
X142666026Y-101833395D01*
X141542500Y-100709869D01*
X141332631Y-100919738D01*
X141332631Y-100500000D01*
X140209105Y-99376474D01*
X139926056Y-99509017D01*
X139669868Y-100203038D01*
X139698771Y-100942268D01*
X139926056Y-101490983D01*
X140209105Y-101623526D01*
X141332631Y-100500000D01*
X141332631Y-100919738D01*
X140418974Y-101833395D01*
X140551517Y-102116444D01*
X141245538Y-102372632D01*
X141984768Y-102343729D01*
X142533483Y-102116444D01*
X142666026Y-101833395D01*
X142666026Y-104308400D01*
X135795132Y-104308400D01*
X135795132Y-100796962D01*
X135766229Y-100057732D01*
X135538944Y-99509017D01*
X135255895Y-99376474D01*
X135046026Y-99586343D01*
X135046026Y-99166605D01*
X134913483Y-98883556D01*
X134219462Y-98627368D01*
X133480232Y-98656271D01*
X132931517Y-98883556D01*
X132798974Y-99166605D01*
X133922500Y-100290131D01*
X135046026Y-99166605D01*
X135046026Y-99586343D01*
X134132369Y-100500000D01*
X135255895Y-101623526D01*
X135538944Y-101490983D01*
X135795132Y-100796962D01*
X135795132Y-104308400D01*
X135046026Y-104308400D01*
X135046026Y-101833395D01*
X133922500Y-100709869D01*
X133712631Y-100919738D01*
X133712631Y-100500000D01*
X132589105Y-99376474D01*
X132306056Y-99509017D01*
X132049868Y-100203038D01*
X132078771Y-100942268D01*
X132306056Y-101490983D01*
X132589105Y-101623526D01*
X133712631Y-100500000D01*
X133712631Y-100919738D01*
X132798974Y-101833395D01*
X132931517Y-102116444D01*
X133625538Y-102372632D01*
X134364768Y-102343729D01*
X134913483Y-102116444D01*
X135046026Y-101833395D01*
X135046026Y-104308400D01*
X130911600Y-104308400D01*
X130911600Y-96891600D01*
X141706600Y-96891600D01*
X141706600Y-80543400D01*
X138699240Y-80543400D01*
X138699240Y-79500067D01*
X138699240Y-77405040D01*
X138699240Y-76803440D01*
X138699240Y-74708413D01*
X138606434Y-74484359D01*
X138434951Y-74312876D01*
X138210897Y-74220070D01*
X137968383Y-74220070D01*
X136190800Y-74220070D01*
X136038400Y-74372470D01*
X136038400Y-76955840D01*
X138546840Y-76955840D01*
X138699240Y-76803440D01*
X138699240Y-77405040D01*
X138546840Y-77252640D01*
X136038400Y-77252640D01*
X136038400Y-79836010D01*
X136190800Y-79988410D01*
X137968383Y-79988410D01*
X138210897Y-79988410D01*
X138434951Y-79895604D01*
X138606434Y-79724121D01*
X138699240Y-79500067D01*
X138699240Y-80543400D01*
X135741600Y-80543400D01*
X135741600Y-79836010D01*
X135741600Y-77252640D01*
X135741600Y-76955840D01*
X135741600Y-74372470D01*
X135589200Y-74220070D01*
X133811617Y-74220070D01*
X133569103Y-74220070D01*
X133345049Y-74312876D01*
X133173566Y-74484359D01*
X133080760Y-74708413D01*
X133080760Y-76803440D01*
X133233160Y-76955840D01*
X135741600Y-76955840D01*
X135741600Y-77252640D01*
X133233160Y-77252640D01*
X133080760Y-77405040D01*
X133080760Y-79500067D01*
X133173566Y-79724121D01*
X133345049Y-79895604D01*
X133569103Y-79988410D01*
X133811617Y-79988410D01*
X135589200Y-79988410D01*
X135741600Y-79836010D01*
X135741600Y-80543400D01*
X131637749Y-80543400D01*
X131637749Y-78303558D01*
X131602389Y-77728674D01*
X131450419Y-77361786D01*
X131210077Y-77279792D01*
X131000208Y-77489661D01*
X131000208Y-77069923D01*
X130918214Y-76829581D01*
X130373558Y-76642251D01*
X129798674Y-76677611D01*
X129431786Y-76829581D01*
X129349792Y-77069923D01*
X130175000Y-77895131D01*
X131000208Y-77069923D01*
X131000208Y-77489661D01*
X130384869Y-78105000D01*
X131210077Y-78930208D01*
X131450419Y-78848214D01*
X131637749Y-78303558D01*
X131637749Y-80543400D01*
X131000208Y-80543400D01*
X131000208Y-79140077D01*
X130175000Y-78314869D01*
X129349792Y-79140077D01*
X129431786Y-79380419D01*
X129976442Y-79567749D01*
X130551326Y-79532389D01*
X130918214Y-79380419D01*
X131000208Y-79140077D01*
X131000208Y-80543400D01*
X128625600Y-80543400D01*
X128625600Y-78802943D01*
X128646464Y-78782116D01*
X128759472Y-78509961D01*
X128899581Y-78848214D01*
X129139923Y-78930208D01*
X129965131Y-78105000D01*
X129139923Y-77279792D01*
X128899581Y-77361786D01*
X128772396Y-77731571D01*
X128647645Y-77429650D01*
X128312116Y-77093536D01*
X127873503Y-76911408D01*
X127398580Y-76910993D01*
X126959650Y-77092355D01*
X126623536Y-77427884D01*
X126441408Y-77866497D01*
X126440993Y-78341420D01*
X126622355Y-78780350D01*
X126644400Y-78802433D01*
X126644400Y-80543400D01*
X124017749Y-80543400D01*
X124017749Y-78303558D01*
X123982389Y-77728674D01*
X123830419Y-77361786D01*
X123590077Y-77279792D01*
X123380208Y-77489661D01*
X123380208Y-77069923D01*
X123298214Y-76829581D01*
X122753558Y-76642251D01*
X122178674Y-76677611D01*
X121811786Y-76829581D01*
X121729792Y-77069923D01*
X122555000Y-77895131D01*
X123380208Y-77069923D01*
X123380208Y-77489661D01*
X122764869Y-78105000D01*
X123590077Y-78930208D01*
X123830419Y-78848214D01*
X124017749Y-78303558D01*
X124017749Y-80543400D01*
X123380208Y-80543400D01*
X123380208Y-79140077D01*
X122555000Y-78314869D01*
X121729792Y-79140077D01*
X121811786Y-79380419D01*
X122356442Y-79567749D01*
X122931326Y-79532389D01*
X123298214Y-79380419D01*
X123380208Y-79140077D01*
X123380208Y-80543400D01*
X121005600Y-80543400D01*
X121005600Y-78802943D01*
X121026464Y-78782116D01*
X121139472Y-78509961D01*
X121279581Y-78848214D01*
X121519923Y-78930208D01*
X122345131Y-78105000D01*
X121519923Y-77279792D01*
X121279581Y-77361786D01*
X121152396Y-77731571D01*
X121027645Y-77429650D01*
X120692116Y-77093536D01*
X120253503Y-76911408D01*
X119778580Y-76910993D01*
X119339650Y-77092355D01*
X119003536Y-77427884D01*
X118821408Y-77866497D01*
X118820993Y-78341420D01*
X119002355Y-78780350D01*
X119024400Y-78802433D01*
X119024400Y-80543400D01*
X116397749Y-80543400D01*
X116397749Y-78303558D01*
X116362389Y-77728674D01*
X116210419Y-77361786D01*
X115970077Y-77279792D01*
X115760208Y-77489661D01*
X115760208Y-77069923D01*
X115678214Y-76829581D01*
X115133558Y-76642251D01*
X114558674Y-76677611D01*
X114191786Y-76829581D01*
X114109792Y-77069923D01*
X114935000Y-77895131D01*
X115760208Y-77069923D01*
X115760208Y-77489661D01*
X115144869Y-78105000D01*
X115970077Y-78930208D01*
X116210419Y-78848214D01*
X116397749Y-78303558D01*
X116397749Y-80543400D01*
X115760208Y-80543400D01*
X115760208Y-79140077D01*
X114935000Y-78314869D01*
X114109792Y-79140077D01*
X114191786Y-79380419D01*
X114736442Y-79567749D01*
X115311326Y-79532389D01*
X115678214Y-79380419D01*
X115760208Y-79140077D01*
X115760208Y-80543400D01*
X113385600Y-80543400D01*
X113385600Y-78802943D01*
X113406464Y-78782116D01*
X113519472Y-78509961D01*
X113659581Y-78848214D01*
X113899923Y-78930208D01*
X114725131Y-78105000D01*
X113899923Y-77279792D01*
X113659581Y-77361786D01*
X113532396Y-77731571D01*
X113407645Y-77429650D01*
X113072116Y-77093536D01*
X112633503Y-76911408D01*
X112158580Y-76910993D01*
X111719650Y-77092355D01*
X111383536Y-77427884D01*
X111201408Y-77866497D01*
X111200993Y-78341420D01*
X111382355Y-78780350D01*
X111404400Y-78802433D01*
X111404400Y-80543400D01*
X108777749Y-80543400D01*
X108777749Y-78303558D01*
X108742389Y-77728674D01*
X108590419Y-77361786D01*
X108350077Y-77279792D01*
X108140208Y-77489661D01*
X108140208Y-77069923D01*
X108058214Y-76829581D01*
X107513558Y-76642251D01*
X106938674Y-76677611D01*
X106571786Y-76829581D01*
X106489792Y-77069923D01*
X107315000Y-77895131D01*
X108140208Y-77069923D01*
X108140208Y-77489661D01*
X107524869Y-78105000D01*
X108350077Y-78930208D01*
X108590419Y-78848214D01*
X108777749Y-78303558D01*
X108777749Y-80543400D01*
X108140208Y-80543400D01*
X108140208Y-79140077D01*
X107315000Y-78314869D01*
X106489792Y-79140077D01*
X106571786Y-79380419D01*
X107116442Y-79567749D01*
X107691326Y-79532389D01*
X108058214Y-79380419D01*
X108140208Y-79140077D01*
X108140208Y-80543400D01*
X105765600Y-80543400D01*
X105765600Y-78802943D01*
X105786464Y-78782116D01*
X105899472Y-78509961D01*
X106039581Y-78848214D01*
X106279923Y-78930208D01*
X107105131Y-78105000D01*
X106279923Y-77279792D01*
X106039581Y-77361786D01*
X105912396Y-77731571D01*
X105787645Y-77429650D01*
X105452116Y-77093536D01*
X105013503Y-76911408D01*
X104538580Y-76910993D01*
X104099650Y-77092355D01*
X103763536Y-77427884D01*
X103581408Y-77866497D01*
X103580993Y-78341420D01*
X103762355Y-78780350D01*
X103784400Y-78802433D01*
X103784400Y-80543400D01*
X97810792Y-80543400D01*
X95732600Y-78465207D01*
X95732600Y-77272267D01*
X95678463Y-77141569D01*
X95578431Y-77041537D01*
X95447733Y-76987400D01*
X95306267Y-76987400D01*
X94705930Y-76987400D01*
X94705930Y-69872616D01*
X94416431Y-69171974D01*
X93880845Y-68635453D01*
X93180710Y-68344731D01*
X92422616Y-68344070D01*
X91721974Y-68633569D01*
X91185453Y-69169155D01*
X90894731Y-69869290D01*
X90894070Y-70627384D01*
X91183569Y-71328026D01*
X91719155Y-71864547D01*
X92419290Y-72155269D01*
X93177384Y-72155930D01*
X93878026Y-71866431D01*
X94414547Y-71330845D01*
X94705269Y-70630710D01*
X94705930Y-69872616D01*
X94705930Y-76987400D01*
X93782267Y-76987400D01*
X93651569Y-77041537D01*
X93551537Y-77141569D01*
X93497400Y-77272267D01*
X93497400Y-77413733D01*
X93497400Y-78937733D01*
X93551537Y-79068431D01*
X93651569Y-79168463D01*
X93782267Y-79222600D01*
X93923733Y-79222600D01*
X94765783Y-79222600D01*
X95235873Y-79692689D01*
X94838280Y-79527594D01*
X94393671Y-79527207D01*
X93982758Y-79696992D01*
X93668097Y-80011104D01*
X93497594Y-80421720D01*
X93497488Y-80543400D01*
X93461796Y-80543400D01*
X93461796Y-78285324D01*
X93425239Y-77740893D01*
X93287226Y-77407699D01*
X93054769Y-77335100D01*
X92844900Y-77544969D01*
X92844900Y-77125231D01*
X92772301Y-76892774D01*
X92255324Y-76718204D01*
X91710893Y-76754761D01*
X91377699Y-76892774D01*
X91305100Y-77125231D01*
X92075000Y-77895131D01*
X92844900Y-77125231D01*
X92844900Y-77544969D01*
X92284869Y-78105000D01*
X93054769Y-78874900D01*
X93287226Y-78802301D01*
X93461796Y-78285324D01*
X93461796Y-80543400D01*
X93192688Y-80543400D01*
X93192793Y-80423671D01*
X93023008Y-80012758D01*
X92844900Y-79834338D01*
X92844900Y-79084769D01*
X92075000Y-78314869D01*
X91865131Y-78524738D01*
X91865131Y-78105000D01*
X91095231Y-77335100D01*
X90862774Y-77407699D01*
X90688204Y-77924676D01*
X90724761Y-78469107D01*
X90862774Y-78802301D01*
X91095231Y-78874900D01*
X91865131Y-78105000D01*
X91865131Y-78524738D01*
X91305100Y-79084769D01*
X91377699Y-79317226D01*
X91894676Y-79491796D01*
X92439107Y-79455239D01*
X92772301Y-79317226D01*
X92844900Y-79084769D01*
X92844900Y-79834338D01*
X92708896Y-79698097D01*
X92298280Y-79527594D01*
X91853671Y-79527207D01*
X91442758Y-79696992D01*
X91128097Y-80011104D01*
X90957594Y-80421720D01*
X90957488Y-80543400D01*
X90191600Y-80543400D01*
X90191600Y-68126600D01*
X144123400Y-68126600D01*
X144123400Y-104308400D01*
G36*
X102633400Y-120528400D02*
X102287990Y-120528400D01*
X102287990Y-119045346D01*
X102287990Y-100545346D01*
X102161057Y-99816522D01*
X102126351Y-99732733D01*
X101874530Y-99581393D01*
X100955923Y-100500000D01*
X101874530Y-101418607D01*
X102126351Y-101267267D01*
X102287990Y-100545346D01*
X102287990Y-119045346D01*
X102161057Y-118316522D01*
X102126351Y-118232733D01*
X101874530Y-118081393D01*
X101311107Y-118644816D01*
X101311107Y-117517970D01*
X101311107Y-101982030D01*
X100392500Y-101063423D01*
X99829077Y-101626846D01*
X99829077Y-100500000D01*
X98910470Y-99581393D01*
X98658649Y-99732733D01*
X98497010Y-100454654D01*
X98623943Y-101183478D01*
X98658649Y-101267267D01*
X98910470Y-101418607D01*
X99829077Y-100500000D01*
X99829077Y-101626846D01*
X99473893Y-101982030D01*
X99625233Y-102233851D01*
X100347154Y-102395490D01*
X101075978Y-102268557D01*
X101159767Y-102233851D01*
X101311107Y-101982030D01*
X101311107Y-117517970D01*
X101159767Y-117266149D01*
X100437846Y-117104510D01*
X99709022Y-117231443D01*
X99625233Y-117266149D01*
X99473893Y-117517970D01*
X100392500Y-118436577D01*
X101311107Y-117517970D01*
X101311107Y-118644816D01*
X100955923Y-119000000D01*
X101874530Y-119918607D01*
X102126351Y-119767267D01*
X102287990Y-119045346D01*
X102287990Y-120528400D01*
X101283239Y-120528400D01*
X101311107Y-120482030D01*
X100392500Y-119563423D01*
X99829077Y-120126846D01*
X99829077Y-119000000D01*
X98910470Y-118081393D01*
X98658649Y-118232733D01*
X98497010Y-118954654D01*
X98623943Y-119683478D01*
X98658649Y-119767267D01*
X98910470Y-119918607D01*
X99829077Y-119000000D01*
X99829077Y-120126846D01*
X99473893Y-120482030D01*
X99501760Y-120528400D01*
X94667990Y-120528400D01*
X94667990Y-119045346D01*
X94667990Y-100545346D01*
X94541057Y-99816522D01*
X94506351Y-99732733D01*
X94254530Y-99581393D01*
X93335923Y-100500000D01*
X94254530Y-101418607D01*
X94506351Y-101267267D01*
X94667990Y-100545346D01*
X94667990Y-119045346D01*
X94541057Y-118316522D01*
X94506351Y-118232733D01*
X94254530Y-118081393D01*
X93691107Y-118644816D01*
X93691107Y-117517970D01*
X93691107Y-101982030D01*
X92772500Y-101063423D01*
X92209077Y-101626846D01*
X92209077Y-100500000D01*
X91290470Y-99581393D01*
X91038649Y-99732733D01*
X90877010Y-100454654D01*
X91003943Y-101183478D01*
X91038649Y-101267267D01*
X91290470Y-101418607D01*
X92209077Y-100500000D01*
X92209077Y-101626846D01*
X91853893Y-101982030D01*
X92005233Y-102233851D01*
X92727154Y-102395490D01*
X93455978Y-102268557D01*
X93539767Y-102233851D01*
X93691107Y-101982030D01*
X93691107Y-117517970D01*
X93539767Y-117266149D01*
X92817846Y-117104510D01*
X92089022Y-117231443D01*
X92005233Y-117266149D01*
X91853893Y-117517970D01*
X92772500Y-118436577D01*
X93691107Y-117517970D01*
X93691107Y-118644816D01*
X93335923Y-119000000D01*
X94254530Y-119918607D01*
X94506351Y-119767267D01*
X94667990Y-119045346D01*
X94667990Y-120528400D01*
X93663239Y-120528400D01*
X93691107Y-120482030D01*
X92772500Y-119563423D01*
X92209077Y-120126846D01*
X92209077Y-119000000D01*
X91290470Y-118081393D01*
X91038649Y-118232733D01*
X90877010Y-118954654D01*
X91003943Y-119683478D01*
X91038649Y-119767267D01*
X91290470Y-119918607D01*
X92209077Y-119000000D01*
X92209077Y-120126846D01*
X91853893Y-120482030D01*
X91881760Y-120528400D01*
X90271600Y-120528400D01*
X90271600Y-98661600D01*
X92490046Y-98661600D01*
X92089022Y-98731443D01*
X92005233Y-98766149D01*
X91853893Y-99017970D01*
X92772500Y-99936577D01*
X93691107Y-99017970D01*
X93539767Y-98766149D01*
X93072824Y-98661600D01*
X100110046Y-98661600D01*
X99709022Y-98731443D01*
X99625233Y-98766149D01*
X99473893Y-99017970D01*
X100392500Y-99936577D01*
X101311107Y-99017970D01*
X101159767Y-98766149D01*
X100692824Y-98661600D01*
X102633400Y-98661600D01*
X102633400Y-120528400D01*
X102633400Y-120528400D01*
G37*
X102633400Y-120528400D02*
X102287990Y-120528400D01*
X102287990Y-119045346D01*
X102287990Y-100545346D01*
X102161057Y-99816522D01*
X102126351Y-99732733D01*
X101874530Y-99581393D01*
X100955923Y-100500000D01*
X101874530Y-101418607D01*
X102126351Y-101267267D01*
X102287990Y-100545346D01*
X102287990Y-119045346D01*
X102161057Y-118316522D01*
X102126351Y-118232733D01*
X101874530Y-118081393D01*
X101311107Y-118644816D01*
X101311107Y-117517970D01*
X101311107Y-101982030D01*
X100392500Y-101063423D01*
X99829077Y-101626846D01*
X99829077Y-100500000D01*
X98910470Y-99581393D01*
X98658649Y-99732733D01*
X98497010Y-100454654D01*
X98623943Y-101183478D01*
X98658649Y-101267267D01*
X98910470Y-101418607D01*
X99829077Y-100500000D01*
X99829077Y-101626846D01*
X99473893Y-101982030D01*
X99625233Y-102233851D01*
X100347154Y-102395490D01*
X101075978Y-102268557D01*
X101159767Y-102233851D01*
X101311107Y-101982030D01*
X101311107Y-117517970D01*
X101159767Y-117266149D01*
X100437846Y-117104510D01*
X99709022Y-117231443D01*
X99625233Y-117266149D01*
X99473893Y-117517970D01*
X100392500Y-118436577D01*
X101311107Y-117517970D01*
X101311107Y-118644816D01*
X100955923Y-119000000D01*
X101874530Y-119918607D01*
X102126351Y-119767267D01*
X102287990Y-119045346D01*
X102287990Y-120528400D01*
X101283239Y-120528400D01*
X101311107Y-120482030D01*
X100392500Y-119563423D01*
X99829077Y-120126846D01*
X99829077Y-119000000D01*
X98910470Y-118081393D01*
X98658649Y-118232733D01*
X98497010Y-118954654D01*
X98623943Y-119683478D01*
X98658649Y-119767267D01*
X98910470Y-119918607D01*
X99829077Y-119000000D01*
X99829077Y-120126846D01*
X99473893Y-120482030D01*
X99501760Y-120528400D01*
X94667990Y-120528400D01*
X94667990Y-119045346D01*
X94667990Y-100545346D01*
X94541057Y-99816522D01*
X94506351Y-99732733D01*
X94254530Y-99581393D01*
X93335923Y-100500000D01*
X94254530Y-101418607D01*
X94506351Y-101267267D01*
X94667990Y-100545346D01*
X94667990Y-119045346D01*
X94541057Y-118316522D01*
X94506351Y-118232733D01*
X94254530Y-118081393D01*
X93691107Y-118644816D01*
X93691107Y-117517970D01*
X93691107Y-101982030D01*
X92772500Y-101063423D01*
X92209077Y-101626846D01*
X92209077Y-100500000D01*
X91290470Y-99581393D01*
X91038649Y-99732733D01*
X90877010Y-100454654D01*
X91003943Y-101183478D01*
X91038649Y-101267267D01*
X91290470Y-101418607D01*
X92209077Y-100500000D01*
X92209077Y-101626846D01*
X91853893Y-101982030D01*
X92005233Y-102233851D01*
X92727154Y-102395490D01*
X93455978Y-102268557D01*
X93539767Y-102233851D01*
X93691107Y-101982030D01*
X93691107Y-117517970D01*
X93539767Y-117266149D01*
X92817846Y-117104510D01*
X92089022Y-117231443D01*
X92005233Y-117266149D01*
X91853893Y-117517970D01*
X92772500Y-118436577D01*
X93691107Y-117517970D01*
X93691107Y-118644816D01*
X93335923Y-119000000D01*
X94254530Y-119918607D01*
X94506351Y-119767267D01*
X94667990Y-119045346D01*
X94667990Y-120528400D01*
X93663239Y-120528400D01*
X93691107Y-120482030D01*
X92772500Y-119563423D01*
X92209077Y-120126846D01*
X92209077Y-119000000D01*
X91290470Y-118081393D01*
X91038649Y-118232733D01*
X90877010Y-118954654D01*
X91003943Y-119683478D01*
X91038649Y-119767267D01*
X91290470Y-119918607D01*
X92209077Y-119000000D01*
X92209077Y-120126846D01*
X91853893Y-120482030D01*
X91881760Y-120528400D01*
X90271600Y-120528400D01*
X90271600Y-98661600D01*
X92490046Y-98661600D01*
X92089022Y-98731443D01*
X92005233Y-98766149D01*
X91853893Y-99017970D01*
X92772500Y-99936577D01*
X93691107Y-99017970D01*
X93539767Y-98766149D01*
X93072824Y-98661600D01*
X100110046Y-98661600D01*
X99709022Y-98731443D01*
X99625233Y-98766149D01*
X99473893Y-99017970D01*
X100392500Y-99936577D01*
X101311107Y-99017970D01*
X101159767Y-98766149D01*
X100692824Y-98661600D01*
X102633400Y-98661600D01*
X102633400Y-120528400D01*
M02*
