M48
;DRILL file {kicad (2014-09-18 BZR 5141)-product} date Mon 13 Oct 2014 02:33:29 PM EEST
;FORMAT={-:-/ absolute / metric / decimal}
FMAT,2
METRIC,TZ
T1C0.500
T2C0.762
T3C0.813
T4C0.990
T5C1.016
T6C1.700
T7C3.000
%
G90
G05
M71
T1
X91.25Y-85.25
X92.5Y-86.
X94.25Y-86.5
X96.52Y-85.09
X103.29Y-85.46
X104.75Y-94.
X108.Y-97.75
X108.Y-99.25
X109.22Y-91.948
X109.855Y-104.775
X111.25Y-86.75
X111.76Y-92.71
X113.25Y-117.5
X114.75Y-117.5
X118.5Y-117.5
X119.38Y-94.615
X120.Y-107.5
X120.25Y-117.5
X120.75Y-104.25
X120.75Y-106.
X126.5Y-86.75
X134.5Y-89.
X136.Y-89.
X137.5Y-89.
X139.Y-89.
T2
X114.3Y-109.22
X119.38Y-109.22
T3
X104.775Y-78.105
X107.315Y-78.105
X112.395Y-78.105
X114.935Y-78.105
X120.015Y-78.105
X122.555Y-78.105
X127.635Y-78.105
X128.75Y-87.23
X128.75Y-89.77
X130.175Y-78.105
T4
X113.59Y-86.65
X113.59Y-91.15
X120.09Y-86.65
X120.09Y-91.15
T5
X92.075Y-78.105
X92.075Y-80.645
X92.075Y-83.185
X94.615Y-78.105
X94.615Y-80.645
X94.615Y-83.185
T6
X92.772Y-100.5
X92.772Y-119.
X100.392Y-100.5
X100.392Y-119.
X133.922Y-100.5
X133.922Y-119.
X141.542Y-100.5
X141.542Y-119.
T7
X92.8Y-70.25
X92.8Y-129.75
X141.5Y-70.25
X141.5Y-129.75
T0
M30
